<svg width="242" height="184" viewBox="0 0 242 184" fill="none" xmlns="http://www.w3.org/2000/svg">
<g filter="url(#filter0_dd)">
<path d="M70.305 33.271V33.727C70.305 34.548 70.324 35.231 69.911 35.961C69.577 36.555 69.044 36.919 68.453 36.919C67.644 36.919 67.171 36.303 67.171 35.391C67.172 33.597 68.782 33.271 70.305 33.271ZM81 28V42C81 44.761 78.762 47 76 47H62C59.239 47 57 44.761 57 42V28C57 25.239 59.239 23 62 23H76C78.762 23 81 25.239 81 28ZM70.305 31.31V31.584C69.083 31.72 67.487 31.811 66.344 32.314C65.024 32.884 64.097 34.046 64.097 35.756C64.097 37.945 65.477 39.039 67.251 39.039C68.749 39.039 69.568 38.686 70.724 37.508C71.108 38.062 71.232 38.331 71.934 38.912C72.089 38.997 72.297 38.993 72.436 38.867C72.855 38.493 73.62 37.829 74.051 37.468C74.222 37.329 74.193 37.1 74.057 36.908C73.673 36.376 73.262 35.943 73.262 34.956V31.674C73.262 30.283 73.359 29.006 72.334 28.049C71.527 27.273 70.187 27 69.162 27C67.158 27 64.921 27.748 64.451 30.226C64.401 30.489 64.594 30.628 64.766 30.666L66.807 30.888C66.998 30.878 67.137 30.69 67.173 30.5C67.348 29.647 68.063 29.235 68.866 29.235C69.3 29.235 69.793 29.395 70.049 29.781C70.345 30.215 70.305 30.808 70.305 31.31Z" fill="#2D3748"/>
<path d="M74.7558 40.6692C72.9238 41.6502 70.9328 42.1232 69.1208 42.1232C66.4368 42.1232 63.8368 41.1942 61.7338 39.6522C61.5488 39.5172 61.4128 39.7552 61.5668 39.9292C63.5158 42.1472 66.0898 43.4802 68.9498 43.4802C70.9898 43.4802 73.3598 42.6712 74.9938 41.1502C75.2648 40.8992 75.0328 40.5212 74.7558 40.6692ZM76.3498 39.7092C76.1678 39.4852 74.6088 39.2922 73.6568 39.9612C73.5098 40.0642 73.5358 40.2062 73.6978 40.1862C74.2338 40.1222 75.4278 39.9782 75.6398 40.2512C75.8528 40.5232 75.4038 41.6462 75.2028 42.1472C75.1418 42.2982 75.2728 42.3602 75.4098 42.2452C76.3018 41.4982 76.5318 39.9342 76.3498 39.7092Z" fill="#ED8936"/>
</g>
<g filter="url(#filter1_dd)">
<path d="M18 41C11.373 41 6 46.373 6 53C6 59.627 11.373 65 18 65C24.627 65 30 59.627 30 53C30 46.373 24.627 41 18 41ZM21 49H19.65C19.112 49 19 49.221 19 49.778V51H21L20.791 53H19V60H16V53H14V51H16V48.692C16 46.923 16.931 46 19.029 46H21V49Z" fill="#2B6CB0"/>
</g>
<g filter="url(#filter2_dd)">
<path d="M49 78C42.374 78 37 83.373 37 90C37 95.302 40.438 99.8 45.207 101.387C45.806 101.498 46 101.126 46 100.81V98.576C42.662 99.302 41.967 97.16 41.967 97.16C41.421 95.773 40.634 95.404 40.634 95.404C39.545 94.659 40.717 94.675 40.717 94.675C41.922 94.759 42.556 95.912 42.556 95.912C43.626 97.746 45.363 97.216 46.048 96.909C46.155 96.134 46.466 95.604 46.81 95.305C44.145 95 41.343 93.971 41.343 89.374C41.343 88.063 41.812 86.993 42.579 86.153C42.455 85.85 42.044 84.629 42.696 82.977C42.696 82.977 43.704 82.655 45.997 84.207C46.954 83.941 47.98 83.808 49 83.803C50.02 83.808 51.047 83.941 52.006 84.207C54.297 82.655 55.303 82.977 55.303 82.977C55.956 84.63 55.545 85.851 55.421 86.153C56.191 86.993 56.656 88.064 56.656 89.374C56.656 93.983 53.849 94.998 51.177 95.295C51.607 95.667 52 96.397 52 97.517V100.81C52 101.129 52.192 101.504 52.801 101.386C57.566 99.797 61 95.3 61 90C61 83.373 55.627 78 49 78Z" fill="#1A202C"/>
</g>
<g filter="url(#filter3_dd)">
<path fill-rule="evenodd" clip-rule="evenodd" d="M123.846 45.887C123.876 45.592 123.763 45.301 123.543 45.103L121.303 42.403V42H128.261L133.639 53.795L138.367 42H145V42.403L143.084 44.24C142.919 44.366 142.837 44.573 142.871 44.778V58.276C142.837 58.48 142.919 58.687 143.084 58.813L144.955 60.65V61.053H135.543V60.65L137.482 58.768C137.672 58.578 137.672 58.522 137.672 58.231V47.321L132.283 61.009H131.555L125.28 47.321V56.495C125.228 56.88 125.356 57.269 125.627 57.547L128.148 60.605V61.009H121V60.605L123.521 57.547C123.791 57.268 123.911 56.877 123.846 56.495V45.887Z" fill="#1A202C"/>
</g>
<g filter="url(#filter4_dd)">
<path d="M182 70.309C181.117 70.701 180.168 70.965 179.172 71.084C180.189 70.475 180.97 69.51 181.337 68.36C180.386 68.924 179.332 69.334 178.21 69.555C177.313 68.598 176.032 68 174.616 68C171.437 68 169.101 70.966 169.819 74.045C165.728 73.84 162.1 71.88 159.671 68.901C158.381 71.114 159.002 74.009 161.194 75.475C160.388 75.449 159.628 75.228 158.965 74.859C158.911 77.14 160.546 79.274 162.914 79.749C162.221 79.937 161.462 79.981 160.69 79.833C161.316 81.789 163.134 83.212 165.29 83.252C163.22 84.875 160.612 85.6 158 85.292C160.179 86.689 162.768 87.504 165.548 87.504C174.69 87.504 179.855 79.783 179.543 72.858C180.505 72.163 181.34 71.296 182 70.309Z" fill="#63B3ED"/>
</g>
<g filter="url(#filter5_dd)">
<path d="M231.615 38.1841C228.011 37.9381 219.984 37.9391 216.385 38.1841C212.488 38.4501 212.029 40.8041 212 47.0001C212.029 53.1851 212.484 55.5491 216.385 55.8161C219.985 56.0611 228.011 56.0621 231.615 55.8161C235.512 55.5501 235.971 53.1961 236 47.0001C235.971 40.8151 235.516 38.4511 231.615 38.1841ZM221 51.0001V43.0001L229 46.9931L221 51.0001Z" fill="#E53E3E"/>
</g>
<g filter="url(#filter6_dd)">
<path d="M108.616 5L103.306 10.3062H98V5H108.616ZM112.155 5L106.847 10.3062V28H112.155V10.3062H121.001V5H112.155Z" fill="black"/>
</g>
<g filter="url(#filter7_dd)">
<path d="M137.141 108.585H135.441C135.354 109.369 134.831 110.373 133.525 110.373C132.336 110.373 131.477 109.549 130.653 108.295C133.218 106.31 134.988 103.217 134.988 99.4156C134.994 92.5964 129.382 88 123.474 88C117.687 88 112 92.6254 112 99.4156C112 107.198 119.62 112.276 126.451 110.384C127.594 112.334 129.103 114 131.976 114C136.723 114 137.246 109.63 137.141 108.585ZM128.813 105.248C127.681 103.554 126.277 102.219 123.503 102.219C121.733 102.219 120.351 102.799 119.498 103.542L120.206 104.952C120.566 104.778 120.961 104.72 121.355 104.72C123.416 104.72 124.472 106.508 125.371 108.278C124.791 108.452 124.17 108.521 123.474 108.521C119.121 108.521 117.235 105.446 117.235 99.4272C117.235 93.3683 119.121 90.2634 123.474 90.2634C127.896 90.2634 129.782 93.3683 129.782 99.4156C129.788 101.842 129.469 103.803 128.813 105.248Z" fill="#C53030"/>
</g>
<g filter="url(#filter8_dd)">
<path d="M158.51 20.9549C158.109 19.1388 158.019 18.8271 157.432 18.6773L157 18.5574V18.1259H162.454V18.5574L161.993 18.6473C161.01 18.8631 161.1 19.8461 161.375 21.1707L163.809 33.2479L165.595 23.6341L164.948 20.3375C164.702 19.1688 164.606 18.7972 163.995 18.6413L163.593 18.5574V18.1259H169.233V18.5574L168.556 18.6833C167.537 18.8691 167.693 19.9779 167.938 21.1767L170.282 33.2539L172.596 21.824C173.027 19.4505 172.811 18.8691 171.888 18.6833L171.241 18.5574V18.1259H175.155V18.5574L174.723 18.7132C174.106 18.929 173.95 19.5164 173.525 21.5483L169.767 39.4814H168.963L166.068 25.4921L163.449 39.4814H162.43L158.51 20.9549ZM180.136 39.4754C178.35 39.4754 177.732 38.2407 177.145 38.2407C176.803 38.2407 176.408 38.3306 176.096 39.3495H175.724V32.3249H176.186C176.557 36.2987 178.032 38.7921 180.1 38.7921C181.484 38.7921 182.443 37.5274 182.443 35.2498C182.443 30.4429 175.574 28.3811 175.574 23.0527C175.574 20.1877 177.025 18 179.638 18C181.334 18 181.67 19.1088 182.377 19.1088C182.779 19.1088 183.055 18.8032 183.21 18.1259H183.582V25.1505H183.121C182.749 21.6082 181.826 18.6833 179.608 18.6833C178.068 18.6833 177.792 20.2237 177.792 21.2726C177.792 25.8637 184.661 27.4341 184.661 33.8413C184.667 37.1019 182.881 39.4754 180.136 39.4754ZM193.478 34.4527C193.478 37.7492 191.811 39.4754 189.258 39.4754C186.944 39.4754 185.59 37.5934 185.62 35.5315C185.65 33.9312 186.819 33.1281 187.778 33.2539C188.455 33.3438 189.132 33.8413 189.042 34.9202C188.952 36.4606 187.286 36.4006 187.226 37.3536C187.166 37.941 187.933 38.8041 188.922 38.8041C190.649 38.8041 190.649 36.6164 190.649 34.9502V20.0019C190.649 19.1388 190.373 18.8931 189.696 18.7372L188.928 18.5514V18.1259H195V18.5574L194.323 18.7432C193.705 18.8991 193.49 19.1748 193.49 20.0379L193.478 34.4527Z" fill="black"/>
</g>
<g filter="url(#filter9_dd)">
<path d="M218.647 78.9688C219.083 79.5799 219.309 80.3165 219.29 81.0673C219.29 82.0449 219.004 83.0012 218.468 83.8185C217.786 84.7975 216.923 85.6364 215.924 86.2893V82.9047H215.383V94.6107C214.341 94.2375 213.241 94.0509 212.134 94.0595C211.407 94.0643 210.682 94.1322 209.968 94.2625C210.999 93.6066 211.962 92.8503 212.844 92.0045C213.28 91.556 213.611 91.0158 213.811 90.4234C214.005 89.6329 214.088 88.8192 214.058 88.0058V82.0585C214.03 81.2916 214.091 80.524 214.242 79.7714C214.357 79.3335 214.58 78.9313 214.89 78.6013C215.435 78.1157 216.05 77.7132 216.713 77.407C217.469 77.7717 218.131 78.3062 218.647 78.9688ZM214.682 76.1354C213.918 76.3902 213.131 76.5668 212.332 76.6624C211.824 76.7317 211.312 76.7672 210.799 76.7688C209.991 76.7748 209.186 76.6607 208.411 76.4303C207.711 76.1982 206.985 76.0536 206.249 76C205.654 76.0061 205.075 76.1951 204.591 76.5415C204.068 76.8906 203.643 77.3685 203.358 77.9292C203.118 78.3736 203.004 78.8753 203.029 79.3798C203.255 78.9853 203.576 78.653 203.962 78.4128C204.295 78.2234 204.68 78.1471 205.06 78.1952C205.354 78.2191 205.645 78.2775 205.925 78.3692C206.57 78.576 207.241 78.6947 207.917 78.7222C208.861 78.7239 209.795 78.5416 210.669 78.1855C209.826 78.781 209.048 79.4632 208.348 80.2211C207.927 80.7294 207.614 81.3185 207.429 81.9521C207.206 82.9304 207.102 83.9321 207.12 84.9354C206.739 84.8864 206.357 84.859 205.974 84.8532C205.594 84.841 205.217 84.9077 204.865 85.0492C204.512 85.1907 204.194 85.4039 203.928 85.6752C203.372 86.2797 203.043 87.0595 203 87.8801V87.9671C203.223 87.662 203.487 87.3887 203.783 87.1548C204.223 86.8938 204.723 86.7522 205.234 86.7438C205.582 86.7345 205.925 86.827 206.222 87.0099C206.518 87.1929 206.754 87.4583 206.902 87.7737C207.178 88.4254 207.302 89.1315 207.265 89.8383H206.829C206.486 89.835 206.146 89.9048 205.832 90.0432C205.517 90.1816 205.236 90.3854 205.007 90.641C204.49 91.1797 204.194 91.8919 204.175 92.6379C204.17 92.7313 204.17 92.8249 204.175 92.9183L204.204 93.0827C204.35 92.5699 204.676 92.1269 205.123 91.8353C205.416 91.6662 205.751 91.5824 206.09 91.5935C206.261 91.5939 206.431 91.6328 206.586 91.7073C206.741 91.7817 206.877 91.8899 206.984 92.0238C207.235 92.3163 207.367 92.6928 207.352 93.0779C207.338 93.4845 207.229 93.8821 207.033 94.2384C206.616 94.9395 206.13 95.5971 205.582 96.2014C205.01 96.8316 204.514 97.526 204.102 98.2709C203.894 98.6655 203.777 99.1016 203.759 99.5474C203.751 99.8841 203.855 100.214 204.054 100.485C204.212 100.714 204.442 100.884 204.707 100.969C204.867 101.025 205.038 101.042 205.206 101.019C205.374 100.997 205.534 100.935 205.674 100.838C205.727 100.798 205.771 100.747 205.803 100.689C205.835 100.631 205.855 100.566 205.862 100.5C205.868 100.434 205.861 100.367 205.84 100.304C205.819 100.24 205.786 100.182 205.742 100.132C205.721 100.108 205.699 100.085 205.674 100.065C205.379 99.8714 205.244 100.132 204.808 99.6779C204.634 99.3157 204.586 98.9053 204.673 98.5127C204.817 97.9562 205.161 97.4724 205.64 97.154C206.53 96.4577 207.69 96.1869 209.155 96.1869C210.312 96.1752 211.46 96.3819 212.54 96.7962C213.286 97.0958 213.979 97.5119 214.595 98.0291C216.657 96.0283 219.322 94.7638 222.176 94.4318V89.3983C222.22 88.58 222.113 87.7607 221.862 86.9807C221.63 86.4781 221.239 86.0654 220.75 85.8058C219.995 85.4321 219.173 85.215 218.332 85.1675C219.368 84.313 220.271 83.3092 221.011 82.189C221.466 81.4626 221.72 80.6282 221.746 79.7714C221.757 78.838 221.425 77.933 220.813 77.2281C220.294 76.6561 219.623 76.2435 218.879 76.0387C216.184 77.0057 214.43 77.7745 213.618 78.3451C212.871 78.8647 212.298 79.5978 211.974 80.4484C211.684 81.2704 211.539 82.6726 211.539 84.6695V88.9487C211.539 90.5604 211.286 91.7837 210.78 92.6186C210.274 93.4534 209.287 94.2319 207.821 94.954C208.458 94.2197 208.967 93.3826 209.324 92.4783C209.605 91.4932 209.731 90.4704 209.697 89.4467V83.4317C209.643 82.0801 209.967 80.7402 210.635 79.5635C211.556 78.3144 212.737 77.28 214.097 76.5319C214.382 76.3675 214.556 76.2804 214.745 76.1789L214.682 76.1354ZM217.772 85.622C218.339 85.8842 218.836 86.2769 219.222 86.768C219.594 87.2515 219.609 88.0928 219.609 88.7262H215.924V86.9711C216.253 86.768 216.869 86.3199 217.772 85.6269V85.622ZM215.924 91.5693V89.2774H219.614V91.5693H215.924ZM216.935 95.4375C216.616 95.2014 216.278 94.9927 215.924 94.8137V92.1399H219.614V94.2722C218.674 94.5631 217.775 94.9691 216.935 95.481V95.4375Z" fill="#2A4365"/>
</g>
<g filter="url(#filter10_dd)">
<path d="M104 64.3984C104 61.6962 101.467 60.8518 99.2711 61.0206V61.4429C100.538 61.4429 101.551 61.8651 101.551 62.794C101.551 63.3851 101.129 64.1451 99.8622 64.1451C98.8489 64.1451 96.9067 63.554 95.3022 63.0473C93.5289 62.4562 91.9244 61.8651 90.5733 61.8651C87.8711 61.8651 85.8444 63.8918 85.8444 66.3406C85.8444 68.3673 87.3644 69.0429 87.9556 69.2962L88.1244 68.9584C87.7022 68.7051 87.3644 68.3673 87.3644 67.6073C87.3644 67.0162 87.8711 66.0873 89.3067 66.0873C90.5733 66.0873 92.1778 66.6784 94.3733 67.2695C96.2311 67.7762 98.3422 68.2829 99.44 68.4518V72.674L97.3289 74.4473V74.6162L99.44 76.474V82.3006C98.3422 82.8918 97.0756 83.0606 96.0622 83.0606C94.0356 83.0606 92.1778 82.554 90.6578 80.8651L96.3156 78.1629V68.7051L89.3067 71.7451C90.0667 69.8873 91.5022 68.7051 92.9378 67.7762L92.8533 67.5229C88.7156 68.6206 85 72.4206 85 77.0651C85 82.6384 89.56 86.7762 94.7111 86.7762C100.284 86.7762 103.831 82.3851 103.747 77.8251H103.409C102.564 79.5984 101.382 81.2873 99.8622 82.1318V76.3895L102.058 74.6162V74.4473L99.8622 72.5895V68.3673C101.889 68.3673 104 67.0162 104 64.3984ZM92.0089 79.6829L90.32 80.5273C89.3911 79.2606 88.7156 77.5718 88.7156 75.2918C88.7156 74.3629 88.8 73.1806 89.1378 72.3362L92.0089 71.0695V79.6829Z" fill="black"/>
</g>
<g filter="url(#filter11_dd)">
<path d="M92 138.654L102.629 147.247L123.887 142.272L113.258 133.226L92 138.654Z" fill="white"/>
<path opacity="0.05" d="M92 138.654L102.629 147.247L123.887 142.272L113.258 133.226L92 138.654Z" fill="black"/>
<path d="M134.742 133L123.887 142.272L144.919 147.473L156 138.428L134.742 133Z" fill="white"/>
<path d="M123.887 142.272V152.901L102.629 147.247L123.887 142.272Z" fill="white"/>
<path opacity="0.17" d="M123.887 142.272V152.901L102.629 147.247L123.887 142.272Z" fill="black"/>
<path d="M144.919 147.473L123.887 142.272V152.901L144.919 147.473Z" fill="white"/>
<path opacity="0.1" d="M144.919 147.473L123.887 142.272V152.901L144.919 147.473Z" fill="black"/>
<path d="M126.185 152.693L124.302 154.843C124.014 155.172 123.607 155.372 123.171 155.401C122.735 155.43 122.305 155.284 121.977 154.997C121.948 154.971 121.92 154.945 121.893 154.918C121.849 154.873 121.807 154.827 121.768 154.778C121.627 154.599 121.524 154.393 121.468 154.172C121.455 154.124 121.445 154.075 121.437 154.026C121.428 153.973 121.422 153.92 121.419 153.866C121.408 153.715 121.419 153.564 121.45 153.416C121.461 153.365 121.474 153.314 121.489 153.265C121.558 153.046 121.672 152.844 121.823 152.672L122.645 151.734C122.688 151.685 122.749 151.655 122.814 151.65C122.879 151.646 122.943 151.668 122.993 151.711C123.042 151.754 123.072 151.815 123.076 151.88C123.08 151.945 123.059 152.009 123.016 152.059L122.194 152.996C122.132 153.067 122.079 153.145 122.035 153.229C121.939 153.415 121.896 153.624 121.91 153.833C121.914 153.887 121.921 153.94 121.932 153.993C121.942 154.042 121.955 154.091 121.972 154.139C122.039 154.329 122.154 154.499 122.307 154.631C122.459 154.763 122.644 154.853 122.842 154.891C123.041 154.93 123.245 154.916 123.436 154.85C123.627 154.785 123.798 154.67 123.931 154.518L124.404 153.978L125.246 153.017L125.814 152.368C125.993 152.164 126.094 151.903 126.1 151.632C126.106 151.361 126.016 151.096 125.846 150.884C125.806 150.833 125.788 150.768 125.795 150.704C125.803 150.639 125.835 150.58 125.886 150.54C125.937 150.499 126.001 150.48 126.066 150.487C126.13 150.494 126.19 150.526 126.231 150.576C126.473 150.878 126.601 151.256 126.592 151.643C126.584 152.03 126.44 152.402 126.185 152.693Z" fill="#4A5568"/>
<path d="M129.092 148.643C129.093 148.655 129.093 148.667 129.094 148.68C129.104 148.894 129.071 149.109 128.998 149.312C128.98 149.363 128.958 149.414 128.934 149.464C128.869 149.599 128.786 149.725 128.687 149.837L127.865 150.775C127.822 150.824 127.761 150.854 127.696 150.859C127.631 150.863 127.567 150.841 127.518 150.798C127.469 150.755 127.439 150.694 127.434 150.629C127.43 150.564 127.452 150.5 127.495 150.451L128.316 149.513C128.319 149.51 128.321 149.507 128.324 149.504C128.513 149.285 128.612 149.002 128.602 148.712C128.601 148.7 128.601 148.688 128.6 148.676C128.598 148.638 128.593 148.601 128.587 148.565C128.544 148.301 128.41 148.06 128.209 147.883C128.19 147.867 128.171 147.851 128.152 147.836C127.929 147.665 127.652 147.581 127.372 147.6C127.092 147.618 126.828 147.738 126.63 147.937C126.613 147.954 126.596 147.972 126.579 147.991L124.696 150.141C124.494 150.371 124.393 150.672 124.413 150.978C124.433 151.283 124.574 151.568 124.804 151.77C124.853 151.813 124.883 151.874 124.887 151.939C124.891 152.004 124.87 152.069 124.826 152.118C124.783 152.167 124.723 152.197 124.657 152.201C124.592 152.206 124.528 152.184 124.479 152.141C124.151 151.852 123.95 151.446 123.921 151.01C123.893 150.574 124.038 150.145 124.325 149.816L126.209 147.666C126.373 147.479 126.577 147.332 126.805 147.235C127.034 147.139 127.282 147.095 127.53 147.107C127.778 147.119 128.02 147.188 128.238 147.307C128.456 147.425 128.645 147.592 128.789 147.794C128.822 147.84 128.852 147.887 128.88 147.936C128.985 148.12 129.053 148.323 129.081 148.532C129.086 148.569 129.089 148.606 129.092 148.643Z" fill="#4A5568"/>
<path d="M127.697 148.706C127.698 148.728 127.697 148.75 127.694 148.772C127.684 148.847 127.648 148.916 127.593 148.968C127.537 149.02 127.466 149.051 127.39 149.056C127.315 149.061 127.24 149.039 127.178 148.995C127.116 148.951 127.072 148.888 127.052 148.814C127.039 148.766 127.037 148.716 127.046 148.667C127.06 148.588 127.103 148.517 127.167 148.468C127.23 148.419 127.309 148.395 127.388 148.399C127.468 148.404 127.544 148.438 127.6 148.494C127.657 148.551 127.691 148.626 127.697 148.706Z" fill="#4A5568"/>
<path d="M123.189 153.992C123.19 154.014 123.189 154.036 123.186 154.058C123.176 154.133 123.14 154.203 123.085 154.254C123.029 154.306 122.958 154.337 122.882 154.342C122.807 154.347 122.732 154.326 122.67 154.282C122.608 154.238 122.564 154.174 122.544 154.101C122.531 154.053 122.529 154.002 122.538 153.953C122.553 153.874 122.596 153.804 122.659 153.755C122.722 153.705 122.801 153.681 122.881 153.686C122.96 153.691 123.036 153.724 123.092 153.781C123.149 153.837 123.183 153.912 123.189 153.992Z" fill="#4A5568"/>
<path d="M125.931 147.983L126.63 147.937C126.613 147.954 126.596 147.972 126.579 147.991L126.489 148.094L125.793 148.14L125.931 147.983Z" fill="#805AD5"/>
<path d="M128.88 147.936L128.302 147.975C128.273 147.942 128.242 147.912 128.209 147.883C128.19 147.867 128.171 147.851 128.152 147.836L128.789 147.794C128.822 147.84 128.852 147.887 128.88 147.936Z" fill="#805AD5"/>
<path d="M125.227 148.787L125.922 148.741L125.785 148.898L125.089 148.944L125.227 148.787Z" fill="#805AD5"/>
<path d="M127.681 148.625C127.696 148.672 127.701 148.723 127.694 148.772L127.052 148.814C127.039 148.766 127.037 148.716 127.046 148.667L127.681 148.625Z" fill="#805AD5"/>
<path d="M129.092 148.643C129.093 148.655 129.093 148.667 129.094 148.68L128.602 148.712C128.601 148.7 128.601 148.688 128.6 148.676C128.598 148.638 128.593 148.601 128.587 148.565L129.081 148.532C129.086 148.569 129.089 148.606 129.092 148.643Z" fill="#805AD5"/>
<path d="M124.507 149.608L125.203 149.562L125.065 149.719L124.37 149.765L124.507 149.608Z" fill="#805AD5"/>
<path d="M128.998 149.312C128.98 149.363 128.958 149.414 128.934 149.464L128.324 149.504C128.366 149.456 128.403 149.404 128.437 149.349L128.998 149.312Z" fill="#805AD5"/>
<path d="M122.035 153.229C122.01 153.278 121.988 153.329 121.97 153.381L121.45 153.416C121.461 153.365 121.474 153.314 121.489 153.265L122.035 153.229Z" fill="#805AD5"/>
<path d="M125.942 152.971L125.804 153.128L125.109 153.174L125.246 153.017L125.942 152.971Z" fill="#805AD5"/>
<path d="M121.972 154.139L121.468 154.172C121.455 154.124 121.445 154.075 121.437 154.026L121.932 153.993C121.942 154.042 121.955 154.091 121.972 154.139Z" fill="#805AD5"/>
<path d="M123.189 153.992C123.19 154.014 123.189 154.036 123.186 154.058L122.544 154.101C122.531 154.053 122.529 154.002 122.538 153.953L123.173 153.911C123.181 153.937 123.187 153.965 123.189 153.992Z" fill="#805AD5"/>
<path d="M125.238 153.775L125.1 153.932L124.404 153.978L124.542 153.821L125.238 153.775Z" fill="#805AD5"/>
<path d="M122.726 154.863L121.893 154.918C121.849 154.873 121.807 154.827 121.769 154.778L122.445 154.733C122.532 154.789 122.627 154.832 122.726 154.863Z" fill="#805AD5"/>
<path d="M124.518 154.596L124.38 154.753L123.541 154.809C123.635 154.766 123.724 154.71 123.803 154.643L124.518 154.596Z" fill="#805AD5"/>
<path d="M115.356 145.657L116.855 149.641C117.085 150.25 117.064 150.925 116.797 151.516C116.531 152.108 116.041 152.569 115.435 152.797C115.381 152.817 115.327 152.836 115.273 152.852C115.184 152.878 115.094 152.9 115.003 152.916C114.67 152.976 114.329 152.965 114 152.884C113.929 152.866 113.858 152.846 113.787 152.821C113.713 152.796 113.639 152.766 113.566 152.733C113.361 152.64 113.17 152.519 112.998 152.374C112.939 152.325 112.882 152.272 112.828 152.217C112.59 151.972 112.405 151.681 112.285 151.361L111.631 149.623C111.597 149.532 111.6 149.431 111.64 149.342C111.679 149.254 111.753 149.185 111.843 149.151C111.934 149.117 112.035 149.12 112.123 149.161C112.211 149.201 112.28 149.275 112.314 149.366L112.969 151.104C113.018 151.235 113.083 151.36 113.162 151.476C113.339 151.733 113.582 151.937 113.866 152.065C113.939 152.098 114.014 152.126 114.09 152.149C114.162 152.171 114.235 152.187 114.309 152.199C114.604 152.246 114.907 152.214 115.187 152.107C115.466 152 115.712 151.821 115.901 151.588C116.089 151.355 116.214 151.077 116.261 150.78C116.309 150.484 116.278 150.179 116.172 149.898L115.795 148.897L115.125 147.116L114.672 145.914C114.529 145.536 114.259 145.22 113.908 145.021C113.557 144.823 113.148 144.754 112.752 144.827C112.657 144.844 112.56 144.822 112.481 144.767C112.401 144.712 112.347 144.627 112.329 144.532C112.311 144.437 112.332 144.339 112.386 144.259C112.44 144.179 112.523 144.124 112.617 144.106C113.182 144.002 113.765 144.1 114.266 144.383C114.766 144.667 115.152 145.118 115.356 145.657Z" fill="#4A5568"/>
<path d="M112.083 138.993C112.1 139 112.116 139.008 112.132 139.016C112.421 139.154 112.679 139.348 112.893 139.586C112.948 139.647 112.999 139.711 113.048 139.778C113.179 139.958 113.286 140.156 113.364 140.365L114.018 142.103C114.052 142.194 114.049 142.295 114.009 142.383C113.969 142.471 113.896 142.54 113.805 142.574C113.715 142.608 113.614 142.605 113.526 142.565C113.438 142.525 113.369 142.451 113.335 142.36L112.68 140.622C112.679 140.617 112.677 140.612 112.675 140.607C112.519 140.204 112.218 139.874 111.832 139.684C111.816 139.676 111.799 139.668 111.783 139.661C111.732 139.638 111.681 139.617 111.629 139.599C111.253 139.47 110.844 139.475 110.473 139.615C110.439 139.628 110.405 139.642 110.372 139.657C109.993 139.829 109.689 140.133 109.518 140.513C109.347 140.893 109.32 141.323 109.442 141.723C109.452 141.758 109.464 141.793 109.477 141.828L110.977 145.812C111.138 146.238 111.461 146.584 111.875 146.772C112.288 146.961 112.759 146.977 113.184 146.818C113.275 146.784 113.375 146.788 113.464 146.828C113.552 146.868 113.621 146.942 113.655 147.033C113.689 147.124 113.686 147.225 113.646 147.313C113.607 147.402 113.533 147.471 113.443 147.505C112.837 147.732 112.165 147.709 111.574 147.44C110.984 147.17 110.523 146.677 110.293 146.069L108.794 142.085C108.664 141.739 108.613 141.367 108.646 140.999C108.679 140.631 108.794 140.276 108.984 139.959C109.173 139.642 109.431 139.373 109.739 139.171C110.047 138.969 110.396 138.839 110.761 138.792C110.844 138.781 110.927 138.774 111.011 138.772C111.325 138.764 111.637 138.818 111.931 138.929C111.982 138.949 112.033 138.97 112.083 138.993Z" fill="#4A5568"/>
<path d="M111.192 140.867C111.222 140.88 111.251 140.897 111.277 140.916C111.368 140.982 111.434 141.078 111.463 141.187C111.492 141.296 111.482 141.412 111.436 141.514C111.39 141.617 111.31 141.7 111.209 141.75C111.109 141.8 110.994 141.814 110.884 141.789C110.812 141.772 110.745 141.739 110.687 141.692C110.594 141.618 110.532 141.511 110.512 141.394C110.491 141.277 110.514 141.156 110.576 141.055C110.638 140.953 110.735 140.878 110.849 140.844C110.962 140.809 111.084 140.817 111.192 140.867Z" fill="#4A5568"/>
<path d="M114.966 150.501C114.996 150.515 115.024 150.531 115.051 150.55C115.142 150.617 115.207 150.712 115.236 150.821C115.265 150.93 115.256 151.046 115.21 151.149C115.163 151.251 115.083 151.335 114.983 151.385C114.882 151.435 114.767 151.448 114.658 151.423C114.586 151.406 114.518 151.373 114.46 151.327C114.368 151.252 114.305 151.146 114.285 151.028C114.265 150.911 114.288 150.79 114.35 150.689C114.412 150.588 114.508 150.513 114.622 150.478C114.735 150.443 114.858 150.452 114.966 150.501Z" fill="#4A5568"/>
<path d="M109.015 142.672L109.442 141.723C109.452 141.758 109.464 141.793 109.477 141.828L109.549 142.019L109.124 142.963L109.015 142.672Z" fill="#3182CE"/>
<path d="M111.011 138.772L110.658 139.558C110.595 139.573 110.533 139.593 110.473 139.615C110.439 139.628 110.405 139.642 110.372 139.657L110.761 138.792C110.844 138.781 110.927 138.774 111.011 138.772Z" fill="#3182CE"/>
<path d="M109.575 144.162L110 143.218L110.11 143.509L109.685 144.453L109.575 144.162Z" fill="#3182CE"/>
<path d="M111.075 140.83C111.148 140.843 111.217 140.873 111.277 140.916L110.884 141.789C110.812 141.772 110.745 141.739 110.687 141.692L111.075 140.83Z" fill="#3182CE"/>
<path d="M112.083 138.993C112.1 139 112.116 139.008 112.132 139.016L111.832 139.684C111.816 139.676 111.799 139.668 111.783 139.661C111.732 139.638 111.681 139.617 111.629 139.599L111.931 138.929C111.982 138.949 112.033 138.97 112.083 138.993Z" fill="#3182CE"/>
<path d="M110.148 145.684L110.573 144.74L110.683 145.031L110.258 145.975L110.148 145.684Z" fill="#3182CE"/>
<path d="M112.893 139.586C112.948 139.647 112.999 139.711 113.048 139.778L112.675 140.607C112.64 140.517 112.598 140.431 112.55 140.349L112.893 139.586Z" fill="#3182CE"/>
<path d="M113.162 151.475C113.209 151.543 113.26 151.608 113.316 151.668L112.998 152.374C112.939 152.325 112.882 152.272 112.828 152.217L113.162 151.475Z" fill="#3182CE"/>
<path d="M115.55 146.171L115.659 146.463L115.234 147.407L115.125 147.116L115.55 146.171Z" fill="#3182CE"/>
<path d="M114.309 152.199L114 152.884C113.929 152.866 113.858 152.846 113.787 152.821L114.09 152.149C114.162 152.171 114.235 152.187 114.309 152.199Z" fill="#3182CE"/>
<path d="M114.966 150.501C114.996 150.515 115.024 150.531 115.051 150.55L114.658 151.423C114.586 151.406 114.518 151.373 114.46 151.327L114.848 150.464C114.889 150.472 114.928 150.484 114.966 150.501Z" fill="#3182CE"/>
<path d="M116.11 147.661L116.22 147.953L115.795 148.897L115.685 148.605L116.11 147.661Z" fill="#3182CE"/>
<path d="M115.782 151.72L115.273 152.852C115.184 152.878 115.094 152.9 115.003 152.916L115.416 151.998C115.55 151.923 115.673 151.829 115.782 151.72Z" fill="#3182CE"/>
<path d="M116.683 149.183L116.793 149.475L116.28 150.614C116.29 150.46 116.278 150.305 116.246 150.154L116.683 149.183Z" fill="#3182CE"/>
<path d="M102.629 176.42V147.247L123.887 152.901V181.848L102.629 176.42Z" fill="white"/>
<rect width="2.71378" height="19.9011" rx="1.35689" transform="matrix(0.969231 0.246153 0 1 105.117 153.806)" fill="#1A202C"/>
<path d="M117.585 156.972L106.432 154.14V174.041L117.83 176.935C123.773 176.183 122.213 168.551 119.364 166.47C121.994 164.424 121.295 159.292 117.585 156.972Z" fill="#1A202C"/>
<circle r="1.80919" transform="matrix(0.969231 0.246153 0 1 109.939 162.719)" fill="white"/>
<circle r="1.80919" transform="matrix(0.969231 0.246153 0 1 115.199 164.055)" fill="white"/>
<circle r="1.80919" transform="matrix(0.969231 0.246153 0 1 115.199 169.483)" fill="white"/>
<circle r="1.80919" transform="matrix(0.969231 0.246153 0 1 109.939 168.147)" fill="white"/>
<path d="M144.919 147.474L123.887 152.901V181.848L144.919 176.421V147.474Z" fill="white"/>
<path opacity="0.07" d="M144.919 147.474L123.887 152.901V181.848L144.919 176.421V147.474Z" fill="black"/>
<path opacity="0.1" d="M123.887 157.65V152.901L144.919 147.474V162.399L133.611 165.339L123.887 157.65Z" fill="black"/>
<path opacity="0.1" d="M102.629 147.247V162.399L114.389 165.339L123.887 157.65V152.901L102.629 147.247Z" fill="black"/>
<path d="M123.887 152.901L102.629 147.247L92 156.067L113.032 161.495L123.887 152.901Z" fill="white"/>
<path d="M134.968 161.495L123.887 152.901L144.919 147.474L155.774 156.067L134.968 161.495Z" fill="white"/>
<path opacity="0.07" d="M134.968 161.495L123.887 152.901L144.919 147.474L155.774 156.067L134.968 161.495Z" fill="black"/>
</g>
<path d="M125.711 129.075L126.372 131.856C126.473 132.281 126.401 132.729 126.172 133.101C125.943 133.473 125.576 133.739 125.151 133.84C125.113 133.849 125.075 133.856 125.038 133.863C124.976 133.873 124.914 133.88 124.852 133.883C124.624 133.895 124.396 133.859 124.184 133.777C124.137 133.759 124.091 133.74 124.046 133.718C123.999 133.694 123.952 133.668 123.906 133.64C123.777 133.561 123.66 133.464 123.557 133.353C123.522 133.315 123.488 133.275 123.457 133.234C123.318 133.051 123.219 132.841 123.167 132.618L122.878 131.405C122.863 131.341 122.874 131.274 122.908 131.219C122.943 131.163 122.998 131.123 123.061 131.108C123.125 131.093 123.192 131.104 123.247 131.138C123.303 131.172 123.343 131.227 123.358 131.291L123.646 132.504C123.668 132.596 123.701 132.684 123.744 132.768C123.84 132.954 123.985 133.111 124.164 133.22C124.21 133.248 124.258 133.273 124.307 133.295C124.353 133.315 124.4 133.333 124.449 133.347C124.643 133.403 124.848 133.407 125.044 133.359C125.24 133.311 125.42 133.213 125.566 133.074C125.713 132.934 125.82 132.759 125.877 132.565C125.934 132.372 125.94 132.166 125.893 131.97L125.727 131.271L125.431 130.028L125.232 129.189C125.169 128.925 125.015 128.692 124.797 128.53C124.579 128.368 124.312 128.288 124.041 128.304C123.976 128.307 123.912 128.284 123.864 128.241C123.816 128.197 123.787 128.136 123.783 128.072C123.779 128.007 123.801 127.943 123.844 127.894C123.887 127.846 123.948 127.816 124.012 127.812C124.399 127.79 124.781 127.904 125.091 128.135C125.402 128.366 125.621 128.699 125.711 129.075Z" fill="#4A5568"/>
<path d="M124.094 124.36C124.105 124.366 124.115 124.373 124.125 124.379C124.306 124.496 124.462 124.647 124.585 124.823C124.617 124.869 124.646 124.915 124.672 124.964C124.745 125.095 124.799 125.236 124.833 125.382L125.122 126.595C125.137 126.658 125.126 126.725 125.092 126.781C125.057 126.836 125.002 126.876 124.939 126.891C124.875 126.906 124.808 126.895 124.753 126.861C124.697 126.827 124.658 126.772 124.642 126.709L124.354 125.496C124.353 125.492 124.352 125.488 124.351 125.485C124.282 125.203 124.109 124.958 123.867 124.799C123.857 124.792 123.846 124.786 123.836 124.779C123.804 124.76 123.772 124.742 123.738 124.726C123.498 124.608 123.224 124.577 122.964 124.639C122.939 124.645 122.916 124.651 122.892 124.659C122.624 124.741 122.395 124.918 122.247 125.157C122.1 125.396 122.045 125.68 122.092 125.957C122.096 125.981 122.101 126.005 122.107 126.03L122.768 128.81C122.839 129.108 123.026 129.365 123.286 129.526C123.547 129.686 123.861 129.737 124.159 129.667C124.222 129.652 124.289 129.662 124.345 129.697C124.4 129.731 124.44 129.786 124.455 129.849C124.47 129.913 124.46 129.98 124.425 130.036C124.391 130.091 124.336 130.131 124.273 130.146C123.847 130.247 123.4 130.174 123.028 129.945C122.656 129.716 122.39 129.349 122.289 128.924L121.628 126.144C121.571 125.902 121.569 125.65 121.622 125.408C121.676 125.165 121.784 124.938 121.937 124.743C122.091 124.548 122.287 124.39 122.51 124.281C122.734 124.172 122.979 124.115 123.227 124.115C123.283 124.114 123.34 124.117 123.396 124.123C123.606 124.144 123.811 124.206 123.998 124.305C124.03 124.322 124.063 124.34 124.094 124.36Z" fill="#4A5568"/>
<path d="M123.337 125.533C123.356 125.545 123.374 125.558 123.39 125.574C123.445 125.625 123.481 125.695 123.491 125.77C123.501 125.845 123.484 125.921 123.445 125.986C123.405 126.05 123.344 126.099 123.273 126.124C123.201 126.148 123.123 126.148 123.052 126.122C123.005 126.105 122.963 126.077 122.928 126.041C122.873 125.983 122.84 125.908 122.836 125.828C122.833 125.748 122.859 125.669 122.909 125.607C122.959 125.545 123.03 125.503 123.109 125.489C123.188 125.476 123.269 125.491 123.337 125.533Z" fill="#4A5568"/>
<path d="M125.034 132.27C125.053 132.282 125.071 132.295 125.087 132.311C125.142 132.362 125.178 132.432 125.188 132.507C125.198 132.582 125.181 132.658 125.142 132.723C125.102 132.787 125.041 132.836 124.97 132.861C124.898 132.885 124.82 132.885 124.749 132.859C124.702 132.842 124.66 132.814 124.625 132.778C124.57 132.72 124.537 132.645 124.533 132.565C124.53 132.485 124.556 132.406 124.606 132.344C124.656 132.282 124.727 132.24 124.806 132.226C124.885 132.213 124.966 132.228 125.034 132.27Z" fill="#4A5568"/>
<path d="M121.725 126.553L122.092 125.957C122.096 125.981 122.101 126.005 122.107 126.03L122.139 126.163L121.774 126.757L121.725 126.553Z" fill="#D53F8C"/>
<path d="M123.396 124.123L123.092 124.616C123.049 124.621 123.006 124.629 122.964 124.639C122.939 124.645 122.916 124.651 122.892 124.659L123.227 124.115C123.283 124.114 123.34 124.117 123.396 124.123Z" fill="#D53F8C"/>
<path d="M121.972 127.593L122.338 127L122.386 127.203L122.021 127.797L121.972 127.593Z" fill="#D53F8C"/>
<path d="M123.262 125.499C123.31 125.514 123.353 125.539 123.39 125.573L123.052 126.122C123.005 126.105 122.963 126.077 122.928 126.041L123.262 125.499Z" fill="#D53F8C"/>
<path d="M124.095 124.36C124.105 124.366 124.115 124.373 124.125 124.379L123.867 124.799C123.857 124.792 123.846 124.786 123.836 124.779C123.804 124.76 123.772 124.742 123.738 124.725L123.998 124.305C124.03 124.322 124.063 124.34 124.095 124.36Z" fill="#D53F8C"/>
<path d="M122.225 128.655L122.59 128.062L122.639 128.266L122.273 128.859L122.225 128.655Z" fill="#D53F8C"/>
<path d="M124.585 124.823C124.617 124.869 124.646 124.915 124.672 124.964L124.351 125.485C124.336 125.422 124.315 125.361 124.29 125.302L124.585 124.823Z" fill="#D53F8C"/>
<path d="M123.744 132.768C123.769 132.817 123.798 132.865 123.83 132.91L123.557 133.353C123.522 133.315 123.488 133.275 123.457 133.234L123.744 132.768Z" fill="#D53F8C"/>
<path d="M125.797 129.435L125.845 129.638L125.48 130.231L125.431 130.028L125.797 129.435Z" fill="#D53F8C"/>
<path d="M124.449 133.347L124.184 133.777C124.137 133.759 124.091 133.74 124.046 133.718L124.307 133.295C124.353 133.315 124.4 133.333 124.449 133.347Z" fill="#D53F8C"/>
<path d="M125.034 132.27C125.053 132.282 125.071 132.295 125.087 132.31L124.749 132.859C124.702 132.842 124.66 132.814 124.625 132.778L124.959 132.236C124.985 132.244 125.011 132.256 125.034 132.27Z" fill="#D53F8C"/>
<path d="M126.044 130.474L126.092 130.678L125.727 131.271L125.678 131.068L126.044 130.474Z" fill="#D53F8C"/>
<path d="M125.476 133.151L125.038 133.863C124.976 133.873 124.914 133.88 124.852 133.883L125.207 133.306C125.303 133.267 125.394 133.215 125.476 133.151Z" fill="#D53F8C"/>
<path d="M126.296 131.537L126.345 131.74L125.904 132.456C125.923 132.354 125.929 132.25 125.921 132.147L126.296 131.537Z" fill="#D53F8C"/>
<path d="M129.048 142.335L128.454 145.131C128.363 145.558 128.106 145.932 127.74 146.17C127.373 146.408 126.927 146.49 126.5 146.4C126.462 146.392 126.425 146.382 126.388 146.372C126.328 146.355 126.269 146.334 126.211 146.31C126 146.224 125.81 146.094 125.653 145.929C125.618 145.893 125.586 145.855 125.555 145.816C125.521 145.774 125.49 145.731 125.461 145.686C125.378 145.559 125.313 145.422 125.268 145.277C125.253 145.228 125.239 145.177 125.229 145.127C125.182 144.902 125.183 144.67 125.231 144.446L125.49 143.226C125.503 143.162 125.542 143.106 125.596 143.071C125.651 143.035 125.718 143.023 125.782 143.036C125.846 143.05 125.902 143.088 125.937 143.143C125.973 143.198 125.985 143.265 125.972 143.329L125.713 144.548C125.693 144.64 125.685 144.734 125.688 144.829C125.695 145.038 125.759 145.242 125.874 145.417C125.903 145.462 125.935 145.505 125.971 145.546C126.004 145.584 126.039 145.62 126.077 145.653C126.228 145.787 126.412 145.879 126.609 145.92C126.807 145.96 127.012 145.949 127.204 145.885C127.396 145.822 127.567 145.71 127.702 145.559C127.837 145.409 127.93 145.226 127.972 145.028L128.121 144.325L128.386 143.075L128.565 142.232C128.622 141.967 128.582 141.69 128.455 141.45C128.327 141.211 128.12 141.024 127.868 140.922C127.808 140.897 127.761 140.849 127.736 140.789C127.711 140.729 127.711 140.662 127.735 140.602C127.759 140.541 127.807 140.493 127.866 140.468C127.926 140.442 127.993 140.441 128.054 140.465C128.412 140.611 128.708 140.878 128.89 141.219C129.072 141.561 129.127 141.956 129.048 142.335Z" fill="#4A5568"/>
<path d="M129.606 137.381C129.613 137.391 129.62 137.401 129.626 137.412C129.739 137.595 129.816 137.798 129.851 138.01C129.86 138.064 129.866 138.119 129.87 138.174C129.879 138.324 129.868 138.474 129.836 138.621L129.577 139.84C129.564 139.904 129.525 139.96 129.47 139.996C129.416 140.031 129.349 140.044 129.285 140.03C129.221 140.016 129.165 139.978 129.13 139.923C129.094 139.869 129.082 139.802 129.095 139.738L129.354 138.518C129.355 138.515 129.356 138.511 129.357 138.508C129.415 138.224 129.363 137.928 129.212 137.68C129.206 137.67 129.2 137.66 129.193 137.649C129.173 137.618 129.151 137.588 129.128 137.559C128.961 137.349 128.727 137.204 128.465 137.149C128.44 137.144 128.416 137.139 128.392 137.136C128.114 137.095 127.831 137.157 127.596 137.31C127.361 137.463 127.189 137.696 127.113 137.967C127.106 137.99 127.101 138.014 127.095 138.039L126.502 140.834C126.438 141.134 126.496 141.446 126.663 141.703C126.83 141.96 127.092 142.14 127.391 142.204C127.455 142.217 127.511 142.256 127.547 142.311C127.582 142.365 127.594 142.432 127.581 142.496C127.567 142.56 127.529 142.616 127.474 142.651C127.419 142.687 127.353 142.699 127.289 142.686C126.862 142.595 126.488 142.338 126.25 141.971C126.012 141.605 125.929 141.159 126.019 140.732L126.613 137.936C126.665 137.693 126.771 137.465 126.924 137.269C127.076 137.073 127.271 136.914 127.493 136.803C127.716 136.693 127.96 136.634 128.209 136.631C128.457 136.629 128.703 136.682 128.928 136.788C128.979 136.812 129.029 136.838 129.077 136.867C129.258 136.977 129.416 137.12 129.543 137.29C129.565 137.319 129.586 137.35 129.606 137.381Z" fill="#4A5568"/>
<path d="M128.419 138.117C128.432 138.136 128.442 138.155 128.45 138.176C128.477 138.246 128.48 138.324 128.457 138.396C128.434 138.469 128.386 138.53 128.323 138.572C128.259 138.613 128.184 138.631 128.108 138.623C128.033 138.615 127.963 138.581 127.91 138.527C127.875 138.491 127.848 138.448 127.832 138.401C127.807 138.325 127.81 138.242 127.841 138.168C127.872 138.095 127.929 138.035 128.001 138C128.073 137.965 128.155 137.958 128.232 137.979C128.309 138.001 128.376 138.05 128.419 138.117Z" fill="#4A5568"/>
<path d="M127.067 144.932C127.079 144.95 127.089 144.97 127.097 144.99C127.125 145.061 127.127 145.139 127.104 145.211C127.081 145.283 127.034 145.345 126.97 145.386C126.907 145.427 126.831 145.446 126.756 145.437C126.68 145.429 126.61 145.395 126.557 145.341C126.522 145.306 126.496 145.262 126.48 145.215C126.454 145.139 126.457 145.057 126.488 144.983C126.519 144.909 126.576 144.849 126.648 144.814C126.72 144.78 126.803 144.772 126.88 144.794C126.957 144.816 127.023 144.865 127.067 144.932Z" fill="#4A5568"/>
<path d="M126.526 138.348L127.113 137.967C127.106 137.99 127.101 138.014 127.095 138.039L127.067 138.173L126.482 138.553L126.526 138.348Z" fill="#E53E3E"/>
<path d="M129.077 136.867L128.591 137.183C128.549 137.169 128.507 137.158 128.465 137.149C128.441 137.144 128.416 137.139 128.392 137.136L128.928 136.788C128.979 136.812 129.029 136.838 129.077 136.867Z" fill="#E53E3E"/>
<path d="M126.304 139.394L126.888 139.014L126.845 139.218L126.26 139.598L126.304 139.394Z" fill="#E53E3E"/>
<path d="M128.366 138.054C128.403 138.088 128.431 138.129 128.45 138.176L127.91 138.527C127.875 138.491 127.848 138.448 127.832 138.401L128.366 138.054Z" fill="#E53E3E"/>
<path d="M129.606 137.381C129.613 137.391 129.62 137.401 129.626 137.412L129.212 137.68C129.206 137.67 129.2 137.66 129.193 137.649C129.173 137.618 129.151 137.588 129.128 137.559L129.543 137.29C129.565 137.319 129.586 137.35 129.606 137.381Z" fill="#E53E3E"/>
<path d="M126.077 140.462L126.661 140.082L126.618 140.287L126.033 140.666L126.077 140.462Z" fill="#E53E3E"/>
<path d="M129.851 138.01C129.86 138.064 129.866 138.119 129.87 138.174L129.357 138.508C129.369 138.445 129.377 138.381 129.379 138.317L129.851 138.01Z" fill="#E53E3E"/>
<path d="M125.688 144.829C125.69 144.884 125.695 144.939 125.705 144.993L125.268 145.277C125.253 145.228 125.24 145.177 125.229 145.127L125.688 144.829Z" fill="#E53E3E"/>
<path d="M128.971 142.696L128.927 142.9L128.343 143.28L128.386 143.075L128.971 142.696Z" fill="#E53E3E"/>
<path d="M126.077 145.653L125.653 145.929C125.618 145.893 125.586 145.855 125.555 145.816L125.971 145.546C126.004 145.584 126.039 145.62 126.077 145.653Z" fill="#E53E3E"/>
<path d="M127.067 144.932C127.079 144.95 127.089 144.97 127.097 144.99L126.557 145.341C126.522 145.306 126.496 145.262 126.48 145.215L127.014 144.868C127.034 144.887 127.052 144.908 127.067 144.932Z" fill="#E53E3E"/>
<path d="M128.749 143.741L128.705 143.946L128.121 144.325L128.164 144.121L128.749 143.741Z" fill="#E53E3E"/>
<path d="M127.089 145.917L126.388 146.372C126.328 146.355 126.269 146.334 126.211 146.31L126.779 145.941C126.883 145.947 126.987 145.939 127.089 145.917Z" fill="#E53E3E"/>
<path d="M128.522 144.809L128.478 145.014L127.773 145.472C127.835 145.388 127.884 145.297 127.921 145.2L128.522 144.809Z" fill="#E53E3E"/>
<path d="M113.679 128.796L114.745 129.531C114.908 129.643 115.02 129.816 115.056 130.011C115.092 130.205 115.049 130.406 114.936 130.569C114.926 130.584 114.916 130.598 114.905 130.611C114.888 130.633 114.869 130.655 114.849 130.675C114.776 130.748 114.688 130.805 114.592 130.842C114.571 130.85 114.549 130.857 114.528 130.863C114.504 130.87 114.481 130.875 114.457 130.88C114.389 130.892 114.32 130.896 114.252 130.889C114.229 130.887 114.205 130.884 114.182 130.88C114.08 130.86 113.983 130.819 113.898 130.76L113.433 130.439C113.408 130.423 113.391 130.397 113.386 130.368C113.381 130.339 113.387 130.309 113.404 130.284C113.421 130.26 113.447 130.243 113.476 130.238C113.505 130.232 113.535 130.239 113.559 130.256L114.025 130.576C114.06 130.601 114.098 130.621 114.138 130.636C114.226 130.669 114.323 130.678 114.416 130.66C114.44 130.656 114.464 130.65 114.487 130.642C114.509 130.635 114.53 130.626 114.55 130.616C114.633 130.576 114.703 130.516 114.755 130.44C114.806 130.364 114.837 130.276 114.844 130.185C114.851 130.094 114.833 130.002 114.794 129.92C114.755 129.837 114.694 129.767 114.619 129.715L114.351 129.53L113.874 129.201L113.552 128.979C113.451 128.91 113.328 128.878 113.206 128.89C113.083 128.901 112.969 128.955 112.882 129.043C112.862 129.064 112.833 129.075 112.804 129.075C112.774 129.075 112.746 129.064 112.725 129.043C112.704 129.022 112.692 128.994 112.692 128.965C112.692 128.935 112.703 128.907 112.724 128.886C112.847 128.761 113.01 128.684 113.185 128.667C113.36 128.651 113.534 128.696 113.679 128.796Z" fill="#4A5568"/>
<path d="M111.704 127.699C111.709 127.698 111.714 127.697 111.72 127.696C111.816 127.681 111.914 127.684 112.009 127.706C112.034 127.712 112.058 127.719 112.081 127.727C112.146 127.749 112.206 127.78 112.262 127.819L112.728 128.14C112.752 128.156 112.769 128.182 112.774 128.211C112.779 128.24 112.773 128.27 112.756 128.295C112.739 128.319 112.713 128.336 112.684 128.341C112.655 128.347 112.625 128.34 112.601 128.323L112.136 128.003C112.134 128.002 112.133 128.001 112.131 128C112.023 127.926 111.89 127.896 111.76 127.916C111.755 127.917 111.749 127.918 111.744 127.919C111.727 127.922 111.711 127.926 111.695 127.93C111.578 127.964 111.477 128.037 111.408 128.136C111.401 128.146 111.395 128.155 111.39 128.165C111.324 128.274 111.301 128.403 111.324 128.528C111.347 128.653 111.415 128.766 111.514 128.844C111.523 128.851 111.532 128.858 111.541 128.864L112.608 129.6C112.722 129.678 112.863 129.708 113 129.683C113.136 129.658 113.257 129.58 113.336 129.466C113.353 129.441 113.378 129.425 113.408 129.419C113.437 129.414 113.467 129.42 113.491 129.437C113.516 129.454 113.532 129.48 113.538 129.509C113.543 129.538 113.536 129.568 113.52 129.593C113.407 129.755 113.235 129.867 113.04 129.903C112.845 129.939 112.644 129.896 112.481 129.784L111.415 129.048C111.322 128.984 111.245 128.9 111.19 128.802C111.134 128.704 111.101 128.595 111.094 128.483C111.086 128.37 111.104 128.258 111.147 128.153C111.189 128.049 111.254 127.956 111.337 127.88C111.356 127.863 111.376 127.847 111.396 127.831C111.474 127.775 111.561 127.733 111.654 127.71C111.67 127.706 111.687 127.702 111.704 127.699Z" fill="#4A5568"/>
<path d="M111.805 128.324C111.815 128.322 111.825 128.321 111.835 128.322C111.869 128.322 111.902 128.335 111.928 128.357C111.954 128.379 111.972 128.41 111.978 128.444C111.984 128.477 111.979 128.512 111.962 128.542C111.946 128.572 111.919 128.596 111.887 128.609C111.866 128.617 111.844 128.621 111.821 128.619C111.785 128.616 111.751 128.601 111.726 128.575C111.7 128.549 111.685 128.515 111.683 128.479C111.681 128.443 111.692 128.407 111.715 128.378C111.737 128.35 111.769 128.331 111.805 128.324Z" fill="#4A5568"/>
<path d="M114.421 130.076C114.431 130.075 114.441 130.074 114.451 130.074C114.485 130.075 114.518 130.087 114.544 130.109C114.57 130.132 114.588 130.162 114.594 130.196C114.6 130.23 114.595 130.265 114.578 130.295C114.562 130.325 114.535 130.348 114.503 130.361C114.482 130.369 114.46 130.373 114.437 130.372C114.401 130.369 114.367 130.353 114.342 130.327C114.316 130.302 114.301 130.267 114.299 130.231C114.297 130.195 114.308 130.159 114.331 130.131C114.353 130.102 114.385 130.083 114.421 130.076Z" fill="#4A5568"/>
<path d="M111.572 129.157L111.514 128.844C111.523 128.851 111.532 128.858 111.541 128.864L111.593 128.9L111.65 129.21L111.572 129.157Z" fill="#E53E3E"/>
<path d="M111.396 127.831L111.444 128.09C111.431 128.105 111.419 128.12 111.408 128.136C111.401 128.146 111.395 128.155 111.39 128.165L111.337 127.88C111.356 127.863 111.376 127.847 111.396 127.831Z" fill="#E53E3E"/>
<path d="M111.971 129.432L111.914 129.121L111.992 129.175L112.049 129.485L111.971 129.432Z" fill="#E53E3E"/>
<path d="M111.769 128.335C111.79 128.326 111.812 128.321 111.835 128.322L111.888 128.609C111.867 128.617 111.844 128.621 111.821 128.619L111.769 128.335Z" fill="#E53E3E"/>
<path d="M111.704 127.699C111.709 127.698 111.714 127.697 111.72 127.696L111.76 127.916C111.755 127.917 111.749 127.918 111.744 127.919C111.727 127.922 111.711 127.926 111.695 127.93L111.654 127.71C111.67 127.706 111.687 127.702 111.704 127.699Z" fill="#E53E3E"/>
<path d="M112.378 129.712L112.321 129.402L112.399 129.456L112.456 129.766L112.378 129.712Z" fill="#E53E3E"/>
<path d="M112.009 127.706C112.034 127.712 112.058 127.719 112.081 127.727L112.131 128C112.107 127.984 112.082 127.969 112.055 127.957L112.009 127.706Z" fill="#E53E3E"/>
<path d="M114.138 130.636C114.161 130.644 114.185 130.652 114.21 130.657L114.252 130.889C114.229 130.887 114.205 130.884 114.182 130.88L114.138 130.636Z" fill="#E53E3E"/>
<path d="M113.817 128.891L113.895 128.944L113.952 129.255L113.874 129.201L113.817 128.891Z" fill="#E53E3E"/>
<path d="M114.55 130.616L114.592 130.842C114.571 130.85 114.549 130.857 114.528 130.863L114.487 130.642C114.509 130.635 114.53 130.626 114.55 130.616Z" fill="#E53E3E"/>
<path d="M114.421 130.076C114.431 130.075 114.441 130.074 114.451 130.074L114.503 130.361C114.482 130.369 114.46 130.373 114.437 130.371L114.385 130.088C114.396 130.083 114.408 130.079 114.421 130.076Z" fill="#E53E3E"/>
<path d="M114.216 129.165L114.294 129.219L114.351 129.53L114.273 129.476L114.216 129.165Z" fill="#E53E3E"/>
<path d="M114.837 130.239L114.905 130.611C114.888 130.633 114.869 130.655 114.849 130.675L114.793 130.373C114.814 130.33 114.828 130.285 114.837 130.239Z" fill="#E53E3E"/>
<path d="M114.623 129.446L114.701 129.5L114.77 129.875C114.746 129.835 114.716 129.798 114.682 129.766L114.623 129.446Z" fill="#E53E3E"/>
<path d="M122.853 142.392L121.324 146.365C121.09 146.972 120.626 147.462 120.033 147.727C119.441 147.992 118.768 148.01 118.164 147.778C118.111 147.757 118.058 147.735 118.007 147.711C117.923 147.672 117.841 147.628 117.762 147.579C117.474 147.403 117.226 147.168 117.035 146.889C116.993 146.828 116.954 146.765 116.918 146.701C116.879 146.632 116.843 146.56 116.811 146.487C116.72 146.281 116.657 146.065 116.625 145.842C116.614 145.765 116.607 145.688 116.603 145.611C116.587 145.27 116.643 144.929 116.766 144.611L117.433 142.878C117.468 142.787 117.538 142.713 117.626 142.674C117.715 142.634 117.815 142.631 117.906 142.666C117.996 142.701 118.069 142.77 118.108 142.859C118.147 142.948 118.15 143.049 118.115 143.14L117.448 144.873C117.397 145.004 117.363 145.14 117.345 145.279C117.306 145.589 117.353 145.903 117.479 146.188C117.511 146.261 117.549 146.332 117.59 146.4C117.63 146.463 117.673 146.524 117.721 146.582C117.91 146.814 118.158 146.992 118.437 147.097C118.717 147.203 119.02 147.233 119.316 147.185C119.612 147.136 119.89 147.011 120.123 146.821C120.355 146.631 120.534 146.383 120.642 146.102L121.026 145.104L121.71 143.328L122.171 142.129C122.316 141.752 122.323 141.336 122.193 140.954C122.063 140.572 121.803 140.249 121.459 140.041C121.377 139.99 121.319 139.909 121.296 139.815C121.274 139.721 121.289 139.622 121.339 139.539C121.389 139.457 121.47 139.397 121.563 139.373C121.657 139.349 121.755 139.363 121.838 139.412C122.329 139.71 122.699 140.171 122.885 140.716C123.07 141.26 123.059 141.853 122.853 142.392Z" fill="#4A5568"/>
<path d="M124.839 135.238C124.846 135.255 124.853 135.271 124.86 135.288C124.983 135.583 125.047 135.9 125.049 136.22C125.049 136.302 125.045 136.384 125.037 136.466C125.016 136.688 124.964 136.906 124.883 137.114L124.216 138.848C124.181 138.938 124.112 139.011 124.023 139.051C123.935 139.09 123.834 139.093 123.744 139.058C123.654 139.024 123.581 138.954 123.542 138.866C123.502 138.777 123.5 138.676 123.535 138.585L124.202 136.852C124.204 136.847 124.206 136.842 124.207 136.837C124.359 136.433 124.354 135.986 124.191 135.587C124.185 135.57 124.178 135.554 124.17 135.537C124.148 135.486 124.123 135.437 124.096 135.389C123.902 135.042 123.593 134.775 123.222 134.633C123.188 134.619 123.153 134.607 123.118 134.597C122.721 134.472 122.292 134.498 121.912 134.668C121.531 134.838 121.225 135.142 121.05 135.521C121.035 135.555 121.021 135.588 121.007 135.623L119.479 139.596C119.315 140.021 119.327 140.494 119.511 140.91C119.694 141.326 120.035 141.652 120.458 141.815C120.549 141.85 120.621 141.919 120.661 142.008C120.7 142.097 120.702 142.198 120.667 142.289C120.632 142.38 120.563 142.453 120.474 142.493C120.386 142.532 120.285 142.535 120.195 142.5C119.591 142.267 119.104 141.803 118.842 141.209C118.58 140.615 118.564 139.941 118.797 139.333L120.326 135.361C120.459 135.016 120.668 134.705 120.937 134.452C121.207 134.199 121.529 134.01 121.881 133.899C122.233 133.788 122.605 133.758 122.969 133.812C123.333 133.866 123.681 134.002 123.985 134.209C124.054 134.256 124.121 134.306 124.184 134.36C124.424 134.563 124.622 134.811 124.767 135.089C124.792 135.138 124.816 135.188 124.839 135.238Z" fill="#4A5568"/>
<path d="M122.927 136.045C122.941 136.075 122.951 136.107 122.958 136.139C122.982 136.249 122.967 136.364 122.916 136.465C122.866 136.565 122.782 136.645 122.679 136.691C122.576 136.737 122.461 136.746 122.353 136.717C122.244 136.687 122.15 136.621 122.085 136.529C122.042 136.469 122.013 136.399 122.001 136.326C121.981 136.209 122.005 136.088 122.068 135.987C122.131 135.886 122.228 135.811 122.342 135.776C122.456 135.742 122.578 135.75 122.686 135.8C122.794 135.849 122.88 135.937 122.927 136.045Z" fill="#4A5568"/>
<path d="M119.34 145.751C119.354 145.781 119.364 145.812 119.371 145.844C119.395 145.954 119.38 146.069 119.329 146.17C119.278 146.271 119.195 146.351 119.092 146.397C118.989 146.443 118.874 146.452 118.766 146.422C118.657 146.392 118.563 146.326 118.498 146.235C118.455 146.174 118.426 146.105 118.414 146.031C118.394 145.914 118.418 145.793 118.481 145.692C118.544 145.591 118.641 145.516 118.755 145.481C118.869 145.447 118.991 145.455 119.099 145.505C119.207 145.555 119.293 145.642 119.34 145.751Z" fill="#4A5568"/>
<path d="M120.1 135.946L121.05 135.521C121.035 135.555 121.021 135.588 121.007 135.623L120.934 135.814L119.989 136.237L120.1 135.946Z" fill="#D69E2E"/>
<path d="M124.184 134.36L123.398 134.712C123.341 134.682 123.282 134.656 123.222 134.633C123.188 134.619 123.153 134.607 123.118 134.597L123.985 134.209C124.054 134.256 124.121 134.306 124.184 134.36Z" fill="#D69E2E"/>
<path d="M119.529 137.432L120.474 137.009L120.362 137.3L119.417 137.722L119.529 137.432Z" fill="#D69E2E"/>
<path d="M122.864 135.94C122.91 135.998 122.942 136.066 122.958 136.139L122.084 136.529C122.042 136.469 122.013 136.399 122.001 136.326L122.864 135.94Z" fill="#D69E2E"/>
<path d="M124.839 135.238C124.846 135.255 124.853 135.271 124.86 135.288L124.191 135.587C124.185 135.57 124.178 135.554 124.17 135.537C124.148 135.486 124.123 135.437 124.096 135.389L124.767 135.089C124.792 135.138 124.816 135.188 124.839 135.238Z" fill="#D69E2E"/>
<path d="M118.945 138.949L119.89 138.527L119.778 138.817L118.833 139.24L118.945 138.949Z" fill="#D69E2E"/>
<path d="M125.049 136.22C125.049 136.302 125.045 136.384 125.037 136.466L124.207 136.837C124.241 136.747 124.267 136.655 124.286 136.561L125.049 136.22Z" fill="#D69E2E"/>
<path d="M117.345 145.279C117.335 145.361 117.331 145.444 117.332 145.526L116.625 145.842C116.614 145.765 116.607 145.688 116.603 145.611L117.345 145.279Z" fill="#D69E2E"/>
<path d="M122.655 142.905L122.543 143.196L121.598 143.618L121.71 143.328L122.655 142.905Z" fill="#D69E2E"/>
<path d="M117.721 146.582L117.035 146.889C116.993 146.828 116.954 146.765 116.918 146.701L117.59 146.4C117.63 146.463 117.673 146.524 117.721 146.582Z" fill="#D69E2E"/>
<path d="M119.34 145.751C119.354 145.781 119.364 145.812 119.371 145.844L118.498 146.235C118.455 146.174 118.426 146.105 118.414 146.031L119.277 145.645C119.303 145.678 119.324 145.713 119.34 145.751Z" fill="#D69E2E"/>
<path d="M122.083 144.39L121.972 144.681L121.026 145.104L121.138 144.813L122.083 144.39Z" fill="#D69E2E"/>
<path d="M119.14 147.204L118.007 147.711C117.923 147.672 117.841 147.628 117.762 147.579L118.681 147.168C118.832 147.201 118.986 147.213 119.14 147.204Z" fill="#D69E2E"/>
<path d="M121.499 145.908L121.388 146.199L120.247 146.709C120.357 146.6 120.451 146.477 120.528 146.343L121.499 145.908Z" fill="#D69E2E"/>
<path d="M128.806 123.082L127.196 122.88C126.95 122.849 126.726 122.721 126.574 122.525C126.422 122.329 126.354 122.081 126.384 121.835C126.387 121.813 126.391 121.791 126.395 121.77C126.402 121.735 126.41 121.701 126.421 121.667C126.46 121.544 126.525 121.43 126.611 121.333C126.629 121.312 126.649 121.291 126.67 121.272C126.692 121.251 126.715 121.231 126.739 121.213C126.807 121.16 126.881 121.117 126.961 121.084C126.988 121.073 127.016 121.063 127.044 121.055C127.169 121.017 127.3 121.007 127.43 121.023L128.132 121.112C128.169 121.116 128.202 121.135 128.225 121.165C128.248 121.194 128.258 121.231 128.254 121.268C128.249 121.305 128.23 121.338 128.201 121.361C128.171 121.384 128.134 121.394 128.097 121.389L127.395 121.301C127.342 121.294 127.288 121.294 127.235 121.3C127.117 121.314 127.004 121.36 126.911 121.434C126.887 121.452 126.864 121.473 126.842 121.494C126.822 121.515 126.804 121.537 126.787 121.56C126.718 121.652 126.675 121.76 126.661 121.874C126.648 121.988 126.664 122.103 126.709 122.209C126.754 122.314 126.826 122.406 126.918 122.475C127.009 122.544 127.117 122.588 127.231 122.602L127.636 122.653L128.356 122.744L128.841 122.805C128.994 122.824 129.149 122.788 129.279 122.705C129.408 122.621 129.504 122.495 129.55 122.348C129.561 122.313 129.586 122.283 129.619 122.266C129.651 122.249 129.689 122.246 129.725 122.257C129.76 122.268 129.789 122.292 129.807 122.325C129.824 122.357 129.828 122.395 129.817 122.431C129.752 122.641 129.615 122.821 129.43 122.94C129.245 123.059 129.025 123.11 128.806 123.082Z" fill="#4A5568"/>
<path d="M131.636 123.162C131.631 123.167 131.625 123.171 131.62 123.175C131.522 123.248 131.411 123.301 131.292 123.331C131.262 123.339 131.231 123.345 131.2 123.349C131.116 123.362 131.03 123.362 130.946 123.352L130.243 123.263C130.206 123.259 130.173 123.239 130.15 123.21C130.128 123.181 130.117 123.144 130.122 123.107C130.127 123.07 130.146 123.037 130.175 123.014C130.204 122.991 130.241 122.981 130.278 122.986L130.981 123.074C130.983 123.074 130.985 123.074 130.987 123.075C131.15 123.094 131.315 123.051 131.448 122.954C131.454 122.95 131.459 122.945 131.465 122.941C131.481 122.928 131.498 122.914 131.513 122.9C131.623 122.796 131.694 122.656 131.713 122.505C131.715 122.491 131.716 122.477 131.717 122.463C131.727 122.304 131.678 122.147 131.58 122.021C131.483 121.895 131.342 121.809 131.186 121.779C131.172 121.777 131.158 121.774 131.144 121.773L129.534 121.57C129.361 121.549 129.187 121.596 129.05 121.703C128.913 121.81 128.823 121.966 128.801 122.139C128.797 122.176 128.778 122.209 128.748 122.232C128.719 122.255 128.682 122.265 128.645 122.26C128.608 122.256 128.575 122.236 128.552 122.207C128.529 122.178 128.519 122.141 128.524 122.104C128.555 121.858 128.683 121.634 128.879 121.482C129.074 121.33 129.323 121.262 129.569 121.292L131.179 121.495C131.319 121.513 131.453 121.562 131.572 121.639C131.69 121.716 131.789 121.818 131.862 121.939C131.936 122.06 131.98 122.195 131.994 122.336C132.007 122.476 131.989 122.618 131.94 122.75C131.929 122.78 131.916 122.809 131.902 122.838C131.849 122.946 131.775 123.042 131.685 123.122C131.669 123.136 131.653 123.149 131.636 123.162Z" fill="#4A5568"/>
<path d="M131.163 122.526C131.153 122.533 131.143 122.54 131.131 122.546C131.093 122.565 131.049 122.57 131.007 122.56C130.965 122.551 130.928 122.527 130.901 122.493C130.875 122.459 130.861 122.417 130.862 122.374C130.863 122.331 130.879 122.289 130.907 122.257C130.926 122.235 130.949 122.218 130.975 122.207C131.016 122.189 131.063 122.187 131.106 122.201C131.15 122.215 131.186 122.244 131.209 122.283C131.233 122.322 131.241 122.369 131.232 122.413C131.224 122.458 131.199 122.498 131.163 122.526Z" fill="#4A5568"/>
<path d="M127.242 122.086C127.232 122.093 127.222 122.1 127.211 122.106C127.172 122.125 127.128 122.13 127.086 122.12C127.044 122.11 127.007 122.087 126.98 122.053C126.954 122.019 126.94 121.977 126.941 121.934C126.942 121.891 126.958 121.849 126.986 121.817C127.005 121.795 127.028 121.778 127.054 121.767C127.096 121.749 127.142 121.747 127.186 121.761C127.229 121.775 127.266 121.804 127.289 121.843C127.312 121.882 127.32 121.929 127.311 121.973C127.303 122.018 127.278 122.058 127.242 122.086Z" fill="#4A5568"/>
<path d="M130.942 121.465L131.186 121.779C131.172 121.777 131.158 121.774 131.144 121.773L131.067 121.763L130.824 121.45L130.942 121.465Z" fill="#38A169"/>
<path d="M131.902 122.838L131.7 122.578C131.706 122.554 131.71 122.53 131.713 122.505C131.715 122.491 131.716 122.477 131.717 122.463L131.94 122.75C131.929 122.78 131.916 122.809 131.902 122.838Z" fill="#38A169"/>
<path d="M130.34 121.389L130.583 121.702L130.465 121.687L130.222 121.375L130.34 121.389Z" fill="#38A169"/>
<path d="M131.196 122.492C131.179 122.515 131.157 122.533 131.131 122.546L130.907 122.257C130.926 122.235 130.949 122.218 130.975 122.207L131.196 122.492Z" fill="#38A169"/>
<path d="M131.636 123.162C131.631 123.167 131.625 123.171 131.62 123.175L131.448 122.954C131.454 122.95 131.459 122.945 131.465 122.941C131.481 122.928 131.498 122.914 131.513 122.9L131.685 123.122C131.669 123.136 131.653 123.149 131.636 123.162Z" fill="#38A169"/>
<path d="M129.725 121.312L129.967 121.625L129.849 121.61L129.607 121.297L129.725 121.312Z" fill="#38A169"/>
<path d="M131.292 123.331C131.262 123.339 131.231 123.345 131.2 123.349L130.987 123.075C131.023 123.079 131.06 123.08 131.096 123.078L131.292 123.331Z" fill="#38A169"/>
<path d="M127.235 121.3C127.204 121.304 127.173 121.31 127.142 121.318L126.961 121.084C126.988 121.073 127.016 121.063 127.044 121.055L127.235 121.3Z" fill="#38A169"/>
<path d="M128.598 123.056L128.481 123.041L128.238 122.729L128.356 122.744L128.598 123.056Z" fill="#38A169"/>
<path d="M126.787 121.56L126.611 121.333C126.629 121.312 126.649 121.291 126.67 121.272L126.842 121.495C126.822 121.515 126.804 121.537 126.787 121.56Z" fill="#38A169"/>
<path d="M127.242 122.086C127.232 122.093 127.222 122.1 127.211 122.106L126.986 121.817C127.005 121.795 127.028 121.778 127.054 121.767L127.276 122.052C127.266 122.065 127.255 122.076 127.242 122.086Z" fill="#38A169"/>
<path d="M127.996 122.98L127.878 122.966L127.636 122.653L127.754 122.668L127.996 122.98Z" fill="#38A169"/>
<path d="M126.686 122.145L126.395 121.77C126.402 121.735 126.41 121.701 126.421 121.667L126.657 121.971C126.659 122.03 126.669 122.088 126.686 122.145Z" fill="#38A169"/>
<path d="M127.381 122.903L127.263 122.888L126.97 122.511C127.02 122.542 127.075 122.566 127.131 122.582L127.381 122.903Z" fill="#38A169"/>
<path d="M132.806 147.082L131.196 146.88C130.95 146.849 130.726 146.721 130.574 146.525C130.422 146.329 130.354 146.081 130.384 145.835C130.387 145.813 130.391 145.791 130.395 145.77C130.402 145.735 130.41 145.701 130.421 145.667C130.46 145.544 130.525 145.43 130.611 145.333C130.629 145.312 130.649 145.291 130.67 145.272C130.692 145.251 130.715 145.231 130.739 145.213C130.807 145.16 130.881 145.117 130.961 145.084C130.988 145.073 131.016 145.063 131.044 145.055C131.169 145.017 131.3 145.007 131.43 145.023L132.132 145.112C132.169 145.116 132.202 145.135 132.225 145.165C132.248 145.194 132.258 145.231 132.254 145.268C132.249 145.305 132.23 145.338 132.201 145.361C132.171 145.384 132.134 145.394 132.097 145.389L131.395 145.301C131.342 145.294 131.288 145.294 131.235 145.3C131.117 145.314 131.004 145.36 130.911 145.434C130.887 145.452 130.864 145.473 130.842 145.494C130.822 145.515 130.804 145.537 130.787 145.56C130.718 145.652 130.675 145.76 130.661 145.874C130.648 145.988 130.664 146.103 130.709 146.209C130.754 146.314 130.826 146.406 130.918 146.475C131.009 146.544 131.117 146.588 131.231 146.602L131.636 146.653L132.356 146.744L132.841 146.805C132.994 146.824 133.149 146.788 133.279 146.705C133.408 146.621 133.504 146.495 133.55 146.348C133.561 146.313 133.586 146.283 133.619 146.266C133.651 146.249 133.689 146.246 133.725 146.257C133.76 146.268 133.789 146.292 133.807 146.325C133.824 146.357 133.828 146.395 133.817 146.431C133.752 146.641 133.615 146.821 133.43 146.94C133.245 147.059 133.025 147.11 132.806 147.082Z" fill="#4A5568"/>
<path d="M135.636 147.162C135.631 147.167 135.625 147.171 135.62 147.175C135.522 147.248 135.411 147.301 135.292 147.331C135.262 147.339 135.231 147.345 135.2 147.349C135.116 147.362 135.03 147.362 134.946 147.352L134.243 147.263C134.206 147.259 134.173 147.239 134.15 147.21C134.128 147.181 134.117 147.144 134.122 147.107C134.127 147.07 134.146 147.037 134.175 147.014C134.204 146.991 134.241 146.981 134.278 146.986L134.981 147.074C134.983 147.074 134.985 147.074 134.987 147.075C135.15 147.094 135.315 147.051 135.448 146.954C135.454 146.95 135.459 146.945 135.465 146.941C135.481 146.928 135.498 146.914 135.513 146.9C135.623 146.796 135.694 146.656 135.713 146.505C135.715 146.491 135.716 146.477 135.717 146.463C135.727 146.304 135.678 146.147 135.58 146.021C135.483 145.895 135.342 145.809 135.186 145.779C135.172 145.777 135.158 145.774 135.144 145.773L133.534 145.57C133.361 145.549 133.187 145.596 133.05 145.703C132.913 145.81 132.823 145.966 132.801 146.139C132.797 146.176 132.778 146.209 132.748 146.232C132.719 146.255 132.682 146.265 132.645 146.26C132.608 146.256 132.575 146.236 132.552 146.207C132.529 146.178 132.519 146.141 132.524 146.104C132.555 145.858 132.683 145.634 132.879 145.482C133.074 145.33 133.323 145.262 133.569 145.292L135.179 145.495C135.319 145.513 135.453 145.562 135.572 145.639C135.69 145.716 135.789 145.818 135.862 145.939C135.936 146.06 135.98 146.195 135.994 146.336C136.007 146.476 135.989 146.618 135.94 146.75C135.929 146.78 135.916 146.809 135.902 146.838C135.849 146.946 135.775 147.042 135.685 147.122C135.669 147.136 135.653 147.149 135.636 147.162Z" fill="#4A5568"/>
<path d="M135.163 146.526C135.153 146.533 135.143 146.54 135.131 146.546C135.093 146.565 135.049 146.57 135.007 146.56C134.965 146.551 134.928 146.527 134.901 146.493C134.875 146.459 134.861 146.417 134.862 146.374C134.863 146.331 134.879 146.289 134.907 146.257C134.926 146.235 134.949 146.218 134.975 146.207C135.016 146.189 135.063 146.187 135.106 146.201C135.15 146.215 135.186 146.244 135.209 146.283C135.233 146.322 135.241 146.369 135.232 146.413C135.224 146.458 135.199 146.498 135.163 146.526Z" fill="#4A5568"/>
<path d="M131.242 146.086C131.232 146.093 131.222 146.1 131.211 146.106C131.172 146.125 131.128 146.13 131.086 146.12C131.044 146.11 131.007 146.087 130.98 146.053C130.954 146.019 130.94 145.977 130.941 145.934C130.942 145.891 130.958 145.849 130.986 145.817C131.005 145.795 131.028 145.778 131.054 145.767C131.096 145.749 131.142 145.747 131.186 145.761C131.229 145.775 131.266 145.804 131.289 145.843C131.312 145.882 131.32 145.929 131.311 145.973C131.303 146.018 131.278 146.058 131.242 146.086Z" fill="#4A5568"/>
<path d="M134.942 145.465L135.186 145.779C135.172 145.777 135.158 145.774 135.144 145.773L135.067 145.763L134.824 145.45L134.942 145.465Z" fill="#5A67D8"/>
<path d="M135.902 146.838L135.7 146.578C135.706 146.554 135.71 146.53 135.713 146.505C135.715 146.491 135.716 146.477 135.717 146.463L135.94 146.75C135.929 146.78 135.916 146.809 135.902 146.838Z" fill="#5A67D8"/>
<path d="M134.34 145.389L134.583 145.702L134.465 145.687L134.222 145.375L134.34 145.389Z" fill="#5A67D8"/>
<path d="M135.196 146.492C135.179 146.515 135.157 146.533 135.131 146.546L134.907 146.257C134.926 146.235 134.949 146.218 134.975 146.207L135.196 146.492Z" fill="#5A67D8"/>
<path d="M135.636 147.162C135.631 147.167 135.625 147.171 135.62 147.175L135.448 146.954C135.454 146.95 135.459 146.945 135.465 146.941C135.481 146.928 135.498 146.914 135.513 146.9L135.685 147.122C135.669 147.136 135.653 147.149 135.636 147.162Z" fill="#5A67D8"/>
<path d="M133.725 145.312L133.967 145.625L133.849 145.61L133.607 145.297L133.725 145.312Z" fill="#5A67D8"/>
<path d="M135.292 147.331C135.262 147.339 135.231 147.345 135.2 147.349L134.987 147.075C135.023 147.079 135.06 147.08 135.096 147.078L135.292 147.331Z" fill="#5A67D8"/>
<path d="M131.235 145.3C131.204 145.304 131.173 145.31 131.142 145.318L130.961 145.084C130.988 145.073 131.016 145.063 131.044 145.055L131.235 145.3Z" fill="#5A67D8"/>
<path d="M132.598 147.056L132.481 147.041L132.238 146.729L132.356 146.744L132.598 147.056Z" fill="#5A67D8"/>
<path d="M130.787 145.56L130.611 145.333C130.629 145.312 130.649 145.291 130.67 145.272L130.842 145.495C130.822 145.515 130.804 145.537 130.787 145.56Z" fill="#5A67D8"/>
<path d="M131.242 146.086C131.232 146.093 131.222 146.1 131.211 146.106L130.986 145.817C131.005 145.795 131.028 145.778 131.054 145.767L131.276 146.052C131.266 146.065 131.255 146.076 131.242 146.086Z" fill="#5A67D8"/>
<path d="M131.996 146.98L131.878 146.966L131.636 146.653L131.754 146.668L131.996 146.98Z" fill="#5A67D8"/>
<path d="M130.686 146.145L130.395 145.77C130.402 145.735 130.41 145.701 130.421 145.667L130.657 145.971C130.659 146.03 130.669 146.088 130.686 146.145Z" fill="#5A67D8"/>
<path d="M131.381 146.903L131.263 146.888L130.97 146.511C131.02 146.542 131.075 146.566 131.131 146.582L131.381 146.903Z" fill="#5A67D8"/>
<path d="M130.896 137.095L130.282 135.106C130.188 134.802 130.219 134.473 130.368 134.192C130.516 133.911 130.77 133.7 131.074 133.606C131.101 133.598 131.128 133.59 131.155 133.584C131.2 133.574 131.244 133.566 131.29 133.56C131.454 133.541 131.621 133.556 131.78 133.605C131.815 133.616 131.849 133.628 131.882 133.642C131.918 133.657 131.954 133.673 131.988 133.691C132.086 133.743 132.176 133.807 132.256 133.883C132.283 133.909 132.309 133.936 132.334 133.965C132.444 134.091 132.525 134.238 132.575 134.398L132.842 135.266C132.856 135.311 132.852 135.36 132.83 135.402C132.807 135.444 132.769 135.476 132.724 135.49C132.679 135.504 132.629 135.499 132.587 135.477C132.545 135.455 132.514 135.417 132.5 135.372L132.232 134.504C132.212 134.439 132.183 134.376 132.148 134.317C132.069 134.186 131.956 134.08 131.821 134.009C131.786 133.991 131.751 133.975 131.714 133.961C131.679 133.949 131.644 133.938 131.608 133.931C131.465 133.899 131.315 133.906 131.175 133.95C131.035 133.994 130.909 134.075 130.809 134.183C130.71 134.291 130.64 134.424 130.608 134.567C130.576 134.71 130.582 134.86 130.625 135L130.779 135.5L131.054 136.389L131.239 136.989C131.298 137.177 131.421 137.339 131.587 137.447C131.753 137.554 131.951 137.599 132.148 137.575C132.194 137.569 132.242 137.583 132.279 137.612C132.316 137.641 132.34 137.684 132.346 137.731C132.352 137.778 132.339 137.825 132.31 137.863C132.281 137.9 132.239 137.925 132.192 137.931C131.912 137.965 131.629 137.901 131.392 137.748C131.155 137.595 130.98 137.364 130.896 137.095Z" fill="#4A5568"/>
<path d="M132.298 140.443C132.29 140.438 132.283 140.434 132.275 140.43C132.138 140.354 132.017 140.252 131.92 140.129C131.895 140.098 131.871 140.065 131.85 140.032C131.791 139.94 131.744 139.84 131.712 139.736L131.444 138.868C131.43 138.823 131.435 138.774 131.457 138.732C131.479 138.69 131.517 138.658 131.563 138.644C131.608 138.63 131.657 138.635 131.7 138.657C131.742 138.679 131.773 138.717 131.787 138.763L132.055 139.63C132.056 139.633 132.057 139.635 132.058 139.638C132.121 139.839 132.259 140.008 132.443 140.112C132.45 140.117 132.458 140.121 132.466 140.125C132.49 140.138 132.514 140.149 132.539 140.16C132.72 140.234 132.92 140.243 133.107 140.185C133.124 140.18 133.141 140.174 133.157 140.168C133.348 140.095 133.506 139.955 133.602 139.774C133.697 139.594 133.724 139.384 133.676 139.186C133.672 139.168 133.667 139.151 133.662 139.134L133.048 137.145C132.981 136.932 132.834 136.754 132.637 136.65C132.44 136.546 132.209 136.525 131.996 136.59C131.951 136.604 131.901 136.6 131.859 136.577C131.817 136.555 131.786 136.517 131.772 136.472C131.758 136.426 131.762 136.377 131.785 136.335C131.807 136.293 131.845 136.261 131.89 136.247C132.194 136.154 132.523 136.185 132.804 136.333C133.085 136.482 133.296 136.736 133.39 137.039L134.005 139.028C134.058 139.201 134.071 139.383 134.044 139.562C134.017 139.741 133.949 139.911 133.847 140.06C133.745 140.21 133.61 140.334 133.453 140.423C133.296 140.513 133.121 140.566 132.94 140.579C132.899 140.582 132.858 140.583 132.817 140.581C132.663 140.576 132.512 140.541 132.371 140.478C132.347 140.467 132.322 140.455 132.298 140.443Z" fill="#4A5568"/>
<path d="M132.792 139.553C132.778 139.546 132.764 139.537 132.752 139.527C132.709 139.492 132.68 139.443 132.669 139.389C132.658 139.335 132.666 139.279 132.692 139.23C132.718 139.181 132.76 139.143 132.81 139.122C132.861 139.1 132.918 139.097 132.971 139.112C133.006 139.122 133.038 139.14 133.065 139.165C133.108 139.204 133.135 139.258 133.142 139.316C133.148 139.373 133.133 139.432 133.1 139.479C133.066 139.527 133.016 139.561 132.96 139.575C132.903 139.588 132.843 139.581 132.792 139.553Z" fill="#4A5568"/>
<path d="M131.235 134.741C131.22 134.733 131.207 134.724 131.194 134.714C131.152 134.679 131.123 134.63 131.112 134.576C131.101 134.522 131.109 134.466 131.135 134.417C131.16 134.369 131.202 134.33 131.253 134.309C131.304 134.287 131.36 134.284 131.413 134.299C131.448 134.31 131.48 134.328 131.507 134.352C131.55 134.391 131.578 134.445 131.584 134.503C131.591 134.561 131.576 134.619 131.542 134.667C131.509 134.714 131.459 134.748 131.402 134.762C131.346 134.775 131.286 134.768 131.235 134.741Z" fill="#4A5568"/>
<path d="M133.914 138.735L133.676 139.186C133.672 139.168 133.667 139.151 133.662 139.134L133.632 139.038L133.869 138.589L133.914 138.735Z" fill="#319795"/>
<path d="M132.817 140.581L133.014 140.208C133.045 140.202 133.076 140.195 133.107 140.185C133.124 140.18 133.141 140.174 133.157 140.168L132.94 140.579C132.899 140.582 132.858 140.583 132.817 140.581Z" fill="#319795"/>
<path d="M133.684 137.991L133.447 138.44L133.402 138.295L133.639 137.846L133.684 137.991Z" fill="#319795"/>
<path d="M132.848 139.575C132.813 139.566 132.78 139.55 132.752 139.527L132.971 139.112C133.006 139.122 133.038 139.14 133.065 139.165L132.848 139.575Z" fill="#319795"/>
<path d="M132.298 140.443C132.29 140.438 132.283 140.434 132.275 140.43L132.443 140.112C132.45 140.117 132.458 140.121 132.466 140.125C132.49 140.138 132.514 140.149 132.539 140.16L132.371 140.478C132.347 140.467 132.322 140.455 132.298 140.443Z" fill="#319795"/>
<path d="M133.45 137.232L133.213 137.68L133.168 137.535L133.405 137.086L133.45 137.232Z" fill="#319795"/>
<path d="M131.92 140.129C131.895 140.098 131.871 140.065 131.85 140.032L132.058 139.638C132.072 139.682 132.09 139.726 132.111 139.767L131.92 140.129Z" fill="#319795"/>
<path d="M132.148 134.317C132.127 134.282 132.104 134.25 132.078 134.218L132.256 133.883C132.283 133.909 132.309 133.936 132.334 133.965L132.148 134.317Z" fill="#319795"/>
<path d="M130.817 136.838L130.772 136.692L131.009 136.244L131.054 136.389L130.817 136.838Z" fill="#319795"/>
<path d="M131.608 133.931L131.78 133.605C131.815 133.616 131.849 133.628 131.882 133.642L131.714 133.961C131.679 133.949 131.644 133.938 131.608 133.931Z" fill="#319795"/>
<path d="M131.235 134.741C131.22 134.733 131.207 134.724 131.194 134.714L131.413 134.299C131.448 134.31 131.48 134.328 131.507 134.352L131.291 134.762C131.271 134.757 131.252 134.75 131.235 134.741Z" fill="#319795"/>
<path d="M130.587 136.094L130.543 135.949L130.779 135.5L130.824 135.646L130.587 136.094Z" fill="#319795"/>
<path d="M130.871 134.122L131.155 133.584C131.2 133.574 131.244 133.566 131.29 133.56L131.059 133.997C130.991 134.03 130.928 134.072 130.871 134.122Z" fill="#319795"/>
<path d="M130.353 135.335L130.308 135.189L130.594 134.648C130.584 134.723 130.585 134.799 130.596 134.873L130.353 135.335Z" fill="#319795"/>
<path d="M115.595 132.705L117.939 131.894C118.297 131.771 118.69 131.794 119.031 131.96C119.372 132.126 119.633 132.42 119.757 132.778C119.768 132.81 119.778 132.842 119.787 132.874C119.801 132.926 119.812 132.979 119.82 133.033C119.85 133.229 119.839 133.428 119.786 133.619C119.775 133.661 119.762 133.702 119.747 133.742C119.731 133.786 119.712 133.828 119.692 133.871C119.635 133.989 119.561 134.098 119.474 134.196C119.445 134.23 119.413 134.263 119.38 134.293C119.234 134.429 119.061 134.532 118.873 134.597L117.851 134.95C117.797 134.969 117.738 134.965 117.687 134.941C117.636 134.916 117.597 134.872 117.579 134.818C117.56 134.765 117.564 134.706 117.588 134.655C117.613 134.604 117.657 134.565 117.711 134.546L118.734 134.193C118.811 134.166 118.884 134.13 118.953 134.086C119.106 133.987 119.228 133.848 119.307 133.684C119.328 133.642 119.345 133.598 119.36 133.554C119.373 133.513 119.384 133.47 119.392 133.427C119.424 133.255 119.41 133.077 119.351 132.912C119.293 132.747 119.193 132.6 119.06 132.485C118.927 132.371 118.766 132.294 118.594 132.261C118.422 132.228 118.244 132.241 118.079 132.299L117.49 132.502L116.442 132.865L115.735 133.109C115.512 133.186 115.324 133.339 115.203 133.541C115.082 133.743 115.036 133.981 115.073 134.214C115.081 134.27 115.067 134.327 115.033 134.372C115 134.417 114.95 134.448 114.894 134.457C114.839 134.465 114.782 134.452 114.736 134.419C114.69 134.386 114.659 134.336 114.65 134.281C114.598 133.949 114.664 133.609 114.836 133.321C115.009 133.033 115.278 132.815 115.595 132.705Z" fill="#4A5568"/>
<path d="M111.662 134.507C111.667 134.498 111.672 134.489 111.677 134.479C111.762 134.313 111.878 134.165 112.02 134.044C112.057 134.013 112.095 133.984 112.134 133.957C112.241 133.883 112.358 133.824 112.481 133.781L113.504 133.428C113.557 133.409 113.616 133.413 113.667 133.438C113.718 133.463 113.757 133.507 113.775 133.56C113.794 133.614 113.79 133.672 113.766 133.723C113.741 133.774 113.697 133.813 113.643 133.832L112.621 134.186C112.618 134.187 112.615 134.188 112.612 134.189C112.375 134.273 112.178 134.443 112.061 134.666C112.056 134.676 112.052 134.685 112.047 134.694C112.033 134.724 112.02 134.753 112.009 134.783C111.928 135.001 111.925 135.24 112.001 135.46C112.008 135.48 112.016 135.5 112.024 135.52C112.118 135.745 112.291 135.927 112.51 136.034C112.729 136.14 112.979 136.163 113.214 136.099C113.235 136.093 113.255 136.087 113.276 136.08L115.62 135.269C115.871 135.182 116.077 134.999 116.193 134.76C116.309 134.521 116.326 134.246 116.239 133.995C116.221 133.941 116.224 133.882 116.249 133.831C116.274 133.78 116.318 133.741 116.371 133.723C116.425 133.704 116.484 133.708 116.535 133.733C116.586 133.757 116.625 133.801 116.643 133.855C116.767 134.213 116.743 134.606 116.577 134.947C116.412 135.288 116.117 135.549 115.759 135.673L113.415 136.484C113.211 136.554 112.994 136.577 112.78 136.552C112.566 136.526 112.361 136.453 112.179 136.337C111.997 136.221 111.844 136.065 111.731 135.882C111.618 135.699 111.548 135.492 111.525 135.278C111.52 135.229 111.518 135.18 111.518 135.131C111.518 134.948 111.554 134.766 111.623 134.596C111.635 134.566 111.648 134.537 111.662 134.507Z" fill="#4A5568"/>
<path d="M112.741 135.06C112.749 135.043 112.76 135.027 112.771 135.011C112.811 134.959 112.868 134.922 112.932 134.907C112.996 134.892 113.063 134.9 113.122 134.928C113.181 134.957 113.229 135.005 113.256 135.065C113.284 135.125 113.29 135.192 113.274 135.256C113.263 135.298 113.243 135.337 113.215 135.37C113.17 135.423 113.107 135.457 113.038 135.467C112.97 135.477 112.9 135.462 112.841 135.424C112.783 135.386 112.741 135.328 112.723 135.261C112.704 135.194 112.711 135.123 112.741 135.06Z" fill="#4A5568"/>
<path d="M118.412 133.014C118.42 132.997 118.431 132.981 118.442 132.965C118.482 132.913 118.539 132.877 118.603 132.861C118.667 132.846 118.734 132.854 118.793 132.882C118.852 132.911 118.9 132.959 118.927 133.019C118.955 133.079 118.961 133.146 118.945 133.21C118.934 133.252 118.914 133.291 118.886 133.324C118.841 133.377 118.778 133.411 118.709 133.421C118.641 133.431 118.571 133.416 118.512 133.378C118.454 133.34 118.412 133.282 118.394 133.215C118.375 133.148 118.382 133.077 118.412 133.014Z" fill="#4A5568"/>
<path d="M113.761 136.364L113.214 136.099C113.235 136.093 113.255 136.087 113.276 136.08L113.388 136.041L113.932 136.305L113.761 136.364Z" fill="#319795"/>
<path d="M111.518 135.131L111.97 135.351C111.978 135.388 111.989 135.424 112.001 135.46C112.008 135.48 112.016 135.5 112.024 135.52L111.525 135.278C111.52 135.229 111.518 135.18 111.518 135.131Z" fill="#319795"/>
<path d="M114.637 136.061L114.093 135.797L114.265 135.738L114.809 136.002L114.637 136.061Z" fill="#319795"/>
<path d="M112.718 135.128C112.727 135.086 112.745 135.046 112.771 135.011L113.274 135.256C113.263 135.298 113.243 135.337 113.215 135.37L112.718 135.128Z" fill="#319795"/>
<path d="M111.662 134.507C111.667 134.498 111.672 134.488 111.677 134.479L112.061 134.666C112.056 134.675 112.052 134.685 112.047 134.694C112.033 134.724 112.02 134.753 112.009 134.783L111.623 134.596C111.635 134.566 111.648 134.537 111.662 134.507Z" fill="#319795"/>
<path d="M115.533 135.752L114.989 135.487L115.16 135.428L115.704 135.692L115.533 135.752Z" fill="#319795"/>
<path d="M112.02 134.044C112.057 134.013 112.095 133.984 112.134 133.957L112.612 134.189C112.559 134.207 112.508 134.23 112.46 134.257L112.02 134.044Z" fill="#319795"/>
<path d="M118.953 134.086C118.993 134.06 119.032 134.03 119.068 133.999L119.474 134.197C119.445 134.23 119.413 134.263 119.38 134.293L118.953 134.086Z" fill="#319795"/>
<path d="M115.898 132.6L116.069 132.541L116.613 132.805L116.442 132.865L115.898 132.6Z" fill="#319795"/>
<path d="M119.392 133.427L119.786 133.619C119.775 133.661 119.762 133.702 119.747 133.742L119.36 133.554C119.373 133.513 119.384 133.47 119.392 133.427Z" fill="#319795"/>
<path d="M118.412 133.014C118.42 132.997 118.431 132.981 118.442 132.965L118.945 133.21C118.934 133.252 118.914 133.291 118.886 133.324L118.389 133.082C118.394 133.059 118.402 133.036 118.412 133.014Z" fill="#319795"/>
<path d="M116.774 132.297L116.946 132.238L117.49 132.502L117.318 132.562L116.774 132.297Z" fill="#319795"/>
<path d="M119.135 132.557L119.787 132.874C119.801 132.926 119.812 132.979 119.82 133.033L119.291 132.776C119.249 132.696 119.197 132.623 119.135 132.557Z" fill="#319795"/>
<path d="M117.67 131.988L117.841 131.928L118.498 132.247C118.408 132.239 118.317 132.243 118.229 132.259L117.67 131.988Z" fill="#319795"/>
<defs>
<filter id="filter0_dd" x="42" y="18" width="54" height="54" filterUnits="userSpaceOnUse" color-interpolation-filters="sRGB">
<feFlood flood-opacity="0" result="BackgroundImageFix"/>
<feColorMatrix in="SourceAlpha" type="matrix" values="0 0 0 0 0 0 0 0 0 0 0 0 0 0 0 0 0 0 127 0"/>
<feOffset dy="4"/>
<feGaussianBlur stdDeviation="3"/>
<feColorMatrix type="matrix" values="0 0 0 0 0 0 0 0 0 0 0 0 0 0 0 0 0 0 0.05 0"/>
<feBlend mode="normal" in2="BackgroundImageFix" result="effect1_dropShadow"/>
<feColorMatrix in="SourceAlpha" type="matrix" values="0 0 0 0 0 0 0 0 0 0 0 0 0 0 0 0 0 0 127 0"/>
<feOffset dy="10"/>
<feGaussianBlur stdDeviation="7.5"/>
<feColorMatrix type="matrix" values="0 0 0 0 0 0 0 0 0 0 0 0 0 0 0 0 0 0 0.1 0"/>
<feBlend mode="normal" in2="effect1_dropShadow" result="effect2_dropShadow"/>
<feBlend mode="normal" in="SourceGraphic" in2="effect2_dropShadow" result="shape"/>
</filter>
<filter id="filter1_dd" x="0" y="39" width="36" height="36" filterUnits="userSpaceOnUse" color-interpolation-filters="sRGB">
<feFlood flood-opacity="0" result="BackgroundImageFix"/>
<feColorMatrix in="SourceAlpha" type="matrix" values="0 0 0 0 0 0 0 0 0 0 0 0 0 0 0 0 0 0 127 0"/>
<feOffset dy="4"/>
<feGaussianBlur stdDeviation="3"/>
<feColorMatrix type="matrix" values="0 0 0 0 0 0 0 0 0 0 0 0 0 0 0 0 0 0 0.1 0"/>
<feBlend mode="normal" in2="BackgroundImageFix" result="effect1_dropShadow"/>
<feColorMatrix in="SourceAlpha" type="matrix" values="0 0 0 0 0 0 0 0 0 0 0 0 0 0 0 0 0 0 127 0"/>
<feOffset dy="2"/>
<feGaussianBlur stdDeviation="2"/>
<feColorMatrix type="matrix" values="0 0 0 0 0 0 0 0 0 0 0 0 0 0 0 0 0 0 0.06 0"/>
<feBlend mode="normal" in2="effect1_dropShadow" result="effect2_dropShadow"/>
<feBlend mode="normal" in="SourceGraphic" in2="effect2_dropShadow" result="shape"/>
</filter>
<filter id="filter2_dd" x="31" y="76" width="36" height="35.4082" filterUnits="userSpaceOnUse" color-interpolation-filters="sRGB">
<feFlood flood-opacity="0" result="BackgroundImageFix"/>
<feColorMatrix in="SourceAlpha" type="matrix" values="0 0 0 0 0 0 0 0 0 0 0 0 0 0 0 0 0 0 127 0"/>
<feOffset dy="4"/>
<feGaussianBlur stdDeviation="3"/>
<feColorMatrix type="matrix" values="0 0 0 0 0 0 0 0 0 0 0 0 0 0 0 0 0 0 0.1 0"/>
<feBlend mode="normal" in2="BackgroundImageFix" result="effect1_dropShadow"/>
<feColorMatrix in="SourceAlpha" type="matrix" values="0 0 0 0 0 0 0 0 0 0 0 0 0 0 0 0 0 0 127 0"/>
<feOffset dy="2"/>
<feGaussianBlur stdDeviation="2"/>
<feColorMatrix type="matrix" values="0 0 0 0 0 0 0 0 0 0 0 0 0 0 0 0 0 0 0.06 0"/>
<feBlend mode="normal" in2="effect1_dropShadow" result="effect2_dropShadow"/>
<feBlend mode="normal" in="SourceGraphic" in2="effect2_dropShadow" result="shape"/>
</filter>
<filter id="filter3_dd" x="115" y="40" width="36" height="31.053" filterUnits="userSpaceOnUse" color-interpolation-filters="sRGB">
<feFlood flood-opacity="0" result="BackgroundImageFix"/>
<feColorMatrix in="SourceAlpha" type="matrix" values="0 0 0 0 0 0 0 0 0 0 0 0 0 0 0 0 0 0 127 0"/>
<feOffset dy="4"/>
<feGaussianBlur stdDeviation="3"/>
<feColorMatrix type="matrix" values="0 0 0 0 0 0 0 0 0 0 0 0 0 0 0 0 0 0 0.1 0"/>
<feBlend mode="normal" in2="BackgroundImageFix" result="effect1_dropShadow"/>
<feColorMatrix in="SourceAlpha" type="matrix" values="0 0 0 0 0 0 0 0 0 0 0 0 0 0 0 0 0 0 127 0"/>
<feOffset dy="2"/>
<feGaussianBlur stdDeviation="2"/>
<feColorMatrix type="matrix" values="0 0 0 0 0 0 0 0 0 0 0 0 0 0 0 0 0 0 0.06 0"/>
<feBlend mode="normal" in2="effect1_dropShadow" result="effect2_dropShadow"/>
<feBlend mode="normal" in="SourceGraphic" in2="effect2_dropShadow" result="shape"/>
</filter>
<filter id="filter4_dd" x="152" y="66" width="36" height="31.504" filterUnits="userSpaceOnUse" color-interpolation-filters="sRGB">
<feFlood flood-opacity="0" result="BackgroundImageFix"/>
<feColorMatrix in="SourceAlpha" type="matrix" values="0 0 0 0 0 0 0 0 0 0 0 0 0 0 0 0 0 0 127 0"/>
<feOffset dy="4"/>
<feGaussianBlur stdDeviation="3"/>
<feColorMatrix type="matrix" values="0 0 0 0 0 0 0 0 0 0 0 0 0 0 0 0 0 0 0.1 0"/>
<feBlend mode="normal" in2="BackgroundImageFix" result="effect1_dropShadow"/>
<feColorMatrix in="SourceAlpha" type="matrix" values="0 0 0 0 0 0 0 0 0 0 0 0 0 0 0 0 0 0 127 0"/>
<feOffset dy="2"/>
<feGaussianBlur stdDeviation="2"/>
<feColorMatrix type="matrix" values="0 0 0 0 0 0 0 0 0 0 0 0 0 0 0 0 0 0 0.06 0"/>
<feBlend mode="normal" in2="effect1_dropShadow" result="effect2_dropShadow"/>
<feBlend mode="normal" in="SourceGraphic" in2="effect2_dropShadow" result="shape"/>
</filter>
<filter id="filter5_dd" x="206" y="36" width="36" height="30.0003" filterUnits="userSpaceOnUse" color-interpolation-filters="sRGB">
<feFlood flood-opacity="0" result="BackgroundImageFix"/>
<feColorMatrix in="SourceAlpha" type="matrix" values="0 0 0 0 0 0 0 0 0 0 0 0 0 0 0 0 0 0 127 0"/>
<feOffset dy="4"/>
<feGaussianBlur stdDeviation="3"/>
<feColorMatrix type="matrix" values="0 0 0 0 0 0 0 0 0 0 0 0 0 0 0 0 0 0 0.1 0"/>
<feBlend mode="normal" in2="BackgroundImageFix" result="effect1_dropShadow"/>
<feColorMatrix in="SourceAlpha" type="matrix" values="0 0 0 0 0 0 0 0 0 0 0 0 0 0 0 0 0 0 127 0"/>
<feOffset dy="2"/>
<feGaussianBlur stdDeviation="2"/>
<feColorMatrix type="matrix" values="0 0 0 0 0 0 0 0 0 0 0 0 0 0 0 0 0 0 0.06 0"/>
<feBlend mode="normal" in2="effect1_dropShadow" result="effect2_dropShadow"/>
<feBlend mode="normal" in="SourceGraphic" in2="effect2_dropShadow" result="shape"/>
</filter>
<filter id="filter6_dd" x="83" y="0" width="53.0008" height="53" filterUnits="userSpaceOnUse" color-interpolation-filters="sRGB">
<feFlood flood-opacity="0" result="BackgroundImageFix"/>
<feColorMatrix in="SourceAlpha" type="matrix" values="0 0 0 0 0 0 0 0 0 0 0 0 0 0 0 0 0 0 127 0"/>
<feOffset dy="4"/>
<feGaussianBlur stdDeviation="3"/>
<feColorMatrix type="matrix" values="0 0 0 0 0 0 0 0 0 0 0 0 0 0 0 0 0 0 0.05 0"/>
<feBlend mode="normal" in2="BackgroundImageFix" result="effect1_dropShadow"/>
<feColorMatrix in="SourceAlpha" type="matrix" values="0 0 0 0 0 0 0 0 0 0 0 0 0 0 0 0 0 0 127 0"/>
<feOffset dy="10"/>
<feGaussianBlur stdDeviation="7.5"/>
<feColorMatrix type="matrix" values="0 0 0 0 0 0 0 0 0 0 0 0 0 0 0 0 0 0 0.1 0"/>
<feBlend mode="normal" in2="effect1_dropShadow" result="effect2_dropShadow"/>
<feBlend mode="normal" in="SourceGraphic" in2="effect2_dropShadow" result="shape"/>
</filter>
<filter id="filter7_dd" x="106" y="86" width="37.1526" height="38" filterUnits="userSpaceOnUse" color-interpolation-filters="sRGB">
<feFlood flood-opacity="0" result="BackgroundImageFix"/>
<feColorMatrix in="SourceAlpha" type="matrix" values="0 0 0 0 0 0 0 0 0 0 0 0 0 0 0 0 0 0 127 0"/>
<feOffset dy="4"/>
<feGaussianBlur stdDeviation="3"/>
<feColorMatrix type="matrix" values="0 0 0 0 0 0 0 0 0 0 0 0 0 0 0 0 0 0 0.1 0"/>
<feBlend mode="normal" in2="BackgroundImageFix" result="effect1_dropShadow"/>
<feColorMatrix in="SourceAlpha" type="matrix" values="0 0 0 0 0 0 0 0 0 0 0 0 0 0 0 0 0 0 127 0"/>
<feOffset dy="2"/>
<feGaussianBlur stdDeviation="2"/>
<feColorMatrix type="matrix" values="0 0 0 0 0 0 0 0 0 0 0 0 0 0 0 0 0 0 0.06 0"/>
<feBlend mode="normal" in2="effect1_dropShadow" result="effect2_dropShadow"/>
<feBlend mode="normal" in="SourceGraphic" in2="effect2_dropShadow" result="shape"/>
</filter>
<filter id="filter8_dd" x="142" y="13" width="68" height="51.4814" filterUnits="userSpaceOnUse" color-interpolation-filters="sRGB">
<feFlood flood-opacity="0" result="BackgroundImageFix"/>
<feColorMatrix in="SourceAlpha" type="matrix" values="0 0 0 0 0 0 0 0 0 0 0 0 0 0 0 0 0 0 127 0"/>
<feOffset dy="4"/>
<feGaussianBlur stdDeviation="3"/>
<feColorMatrix type="matrix" values="0 0 0 0 0 0 0 0 0 0 0 0 0 0 0 0 0 0 0.05 0"/>
<feBlend mode="normal" in2="BackgroundImageFix" result="effect1_dropShadow"/>
<feColorMatrix in="SourceAlpha" type="matrix" values="0 0 0 0 0 0 0 0 0 0 0 0 0 0 0 0 0 0 127 0"/>
<feOffset dy="10"/>
<feGaussianBlur stdDeviation="7.5"/>
<feColorMatrix type="matrix" values="0 0 0 0 0 0 0 0 0 0 0 0 0 0 0 0 0 0 0.1 0"/>
<feBlend mode="normal" in2="effect1_dropShadow" result="effect2_dropShadow"/>
<feBlend mode="normal" in="SourceGraphic" in2="effect2_dropShadow" result="shape"/>
</filter>
<filter id="filter9_dd" x="197" y="74" width="31.1858" height="37.029" filterUnits="userSpaceOnUse" color-interpolation-filters="sRGB">
<feFlood flood-opacity="0" result="BackgroundImageFix"/>
<feColorMatrix in="SourceAlpha" type="matrix" values="0 0 0 0 0 0 0 0 0 0 0 0 0 0 0 0 0 0 127 0"/>
<feOffset dy="4"/>
<feGaussianBlur stdDeviation="3"/>
<feColorMatrix type="matrix" values="0 0 0 0 0 0 0 0 0 0 0 0 0 0 0 0 0 0 0.1 0"/>
<feBlend mode="normal" in2="BackgroundImageFix" result="effect1_dropShadow"/>
<feColorMatrix in="SourceAlpha" type="matrix" values="0 0 0 0 0 0 0 0 0 0 0 0 0 0 0 0 0 0 127 0"/>
<feOffset dy="2"/>
<feGaussianBlur stdDeviation="2"/>
<feColorMatrix type="matrix" values="0 0 0 0 0 0 0 0 0 0 0 0 0 0 0 0 0 0 0.06 0"/>
<feBlend mode="normal" in2="effect1_dropShadow" result="effect2_dropShadow"/>
<feBlend mode="normal" in="SourceGraphic" in2="effect2_dropShadow" result="shape"/>
</filter>
<filter id="filter10_dd" x="79" y="59" width="31" height="37.7762" filterUnits="userSpaceOnUse" color-interpolation-filters="sRGB">
<feFlood flood-opacity="0" result="BackgroundImageFix"/>
<feColorMatrix in="SourceAlpha" type="matrix" values="0 0 0 0 0 0 0 0 0 0 0 0 0 0 0 0 0 0 127 0"/>
<feOffset dy="4"/>
<feGaussianBlur stdDeviation="3"/>
<feColorMatrix type="matrix" values="0 0 0 0 0 0 0 0 0 0 0 0 0 0 0 0 0 0 0.1 0"/>
<feBlend mode="normal" in2="BackgroundImageFix" result="effect1_dropShadow"/>
<feColorMatrix in="SourceAlpha" type="matrix" values="0 0 0 0 0 0 0 0 0 0 0 0 0 0 0 0 0 0 127 0"/>
<feOffset dy="2"/>
<feGaussianBlur stdDeviation="2"/>
<feColorMatrix type="matrix" values="0 0 0 0 0 0 0 0 0 0 0 0 0 0 0 0 0 0 0.06 0"/>
<feBlend mode="normal" in2="effect1_dropShadow" result="effect2_dropShadow"/>
<feBlend mode="normal" in="SourceGraphic" in2="effect2_dropShadow" result="shape"/>
</filter>
<filter id="filter11_dd" x="90.6431" y="132.095" width="66.7138" height="51.5619" filterUnits="userSpaceOnUse" color-interpolation-filters="sRGB">
<feFlood flood-opacity="0" result="BackgroundImageFix"/>
<feColorMatrix in="SourceAlpha" type="matrix" values="0 0 0 0 0 0 0 0 0 0 0 0 0 0 0 0 0 0 127 0"/>
<feOffset dy="0.452297"/>
<feGaussianBlur stdDeviation="0.678445"/>
<feColorMatrix type="matrix" values="0 0 0 0 0 0 0 0 0 0 0 0 0 0 0 0 0 0 0.1 0"/>
<feBlend mode="normal" in2="BackgroundImageFix" result="effect1_dropShadow"/>
<feColorMatrix in="SourceAlpha" type="matrix" values="0 0 0 0 0 0 0 0 0 0 0 0 0 0 0 0 0 0 127 0"/>
<feOffset dy="0.452297"/>
<feGaussianBlur stdDeviation="0.452297"/>
<feColorMatrix type="matrix" values="0 0 0 0 0 0 0 0 0 0 0 0 0 0 0 0 0 0 0.06 0"/>
<feBlend mode="normal" in2="effect1_dropShadow" result="effect2_dropShadow"/>
<feBlend mode="normal" in="SourceGraphic" in2="effect2_dropShadow" result="shape"/>
</filter>
</defs>
</svg>
