<svg width="203" height="75" viewBox="0 0 203 75" fill="none" xmlns="http://www.w3.org/2000/svg">
<g clip-path="url(#clip0)">
<path d="M68.4662 26.893C67.2718 24.0191 64.8491 20.9163 62.9519 19.9354C64.3051 22.5561 65.2441 25.3706 65.7356 28.2788L65.7406 28.3249C62.6327 20.5765 57.3624 17.4524 53.0581 10.6494C52.8404 10.3054 52.6226 9.96076 52.4106 9.59692C52.2893 9.38911 52.1921 9.20188 52.1077 9.02953C51.9292 8.68382 51.7916 8.31846 51.6978 7.94086C51.6979 7.92344 51.6916 7.90658 51.6801 7.8935C51.6686 7.88042 51.6527 7.87203 51.6354 7.86994C51.6184 7.86529 51.6006 7.86529 51.5836 7.86994C51.5801 7.86994 51.5744 7.87632 51.5701 7.87774C51.5659 7.87916 51.5567 7.88554 51.5503 7.88838L51.5609 7.86994C44.6565 11.9126 42.314 19.3964 42.0984 23.1397C39.3411 23.3292 36.7049 24.3453 34.5337 26.0553C34.3072 25.8635 34.0704 25.684 33.8245 25.5177C33.1981 23.3255 33.1714 21.0053 33.7472 18.7992C31.2116 20.0275 28.9586 21.7688 27.1307 23.9128H27.118C26.0286 22.5319 26.1052 17.9786 26.1676 17.0275C25.8453 17.1571 25.5377 17.3204 25.2498 17.5148C24.2882 18.2011 23.3891 18.9713 22.5633 19.8162C21.6222 20.7704 20.7627 21.8017 19.9937 22.8993V22.9035V22.8986C18.2265 25.404 16.973 28.2346 16.3057 31.2271L16.2688 31.4086C16.2171 31.6505 16.0305 32.8618 15.9986 33.125C15.9986 33.1455 15.9944 33.1647 15.9922 33.1853C15.7516 34.4359 15.6025 35.7024 15.5461 36.9747V37.1165C15.5522 43.9991 18.1398 50.629 22.7977 55.696C27.4556 60.763 33.8447 63.8983 40.7025 64.4824C47.5603 65.0665 54.3876 63.0567 59.8353 58.8504C65.2829 54.6441 68.9545 48.5473 70.1243 41.7648C70.1704 41.4102 70.208 41.0591 70.2492 40.701C70.8153 36.0216 70.2024 31.275 68.4662 26.893V26.893ZM36.7848 48.4096C36.9132 48.4713 37.0337 48.538 37.1656 48.5969L37.1848 48.6089C37.0515 48.5451 36.9181 48.4786 36.7848 48.4096V48.4096ZM65.7427 28.3313V28.305L65.7477 28.3341L65.7427 28.3313Z" fill="url(#paint0_linear)"/>
<path d="M68.4662 26.8929C67.2718 24.0191 64.8491 20.9162 62.9519 19.9354C64.3051 22.5561 65.2441 25.3706 65.7356 28.2788V28.305L65.7406 28.3341C67.8593 34.3969 67.5528 41.044 64.8853 46.8862C61.7348 53.6459 54.1092 60.5743 42.1728 60.2375C29.2754 59.8722 17.9171 50.3018 15.7937 37.7669C15.4071 35.7903 15.7937 34.7881 15.988 33.1817C15.7229 34.4295 15.575 35.6993 15.5461 36.9747V37.1165C15.5522 43.9991 18.1398 50.629 22.7977 55.696C27.4556 60.763 33.8447 63.8983 40.7025 64.4824C47.5603 65.0664 54.3876 63.0567 59.8353 58.8504C65.2829 54.6441 68.9545 48.5473 70.1243 41.7648C70.1704 41.4102 70.208 41.0591 70.2492 40.701C70.8153 36.0216 70.2024 31.275 68.4662 26.8929V26.8929Z" fill="url(#paint1_radial)"/>
<path d="M68.4662 26.8929C67.2718 24.0191 64.8491 20.9162 62.9519 19.9354C64.3051 22.5561 65.2441 25.3706 65.7356 28.2788V28.305L65.7406 28.3341C67.8593 34.3969 67.5528 41.044 64.8853 46.8862C61.7348 53.6459 54.1092 60.5743 42.1728 60.2375C29.2754 59.8722 17.9171 50.3018 15.7937 37.7669C15.4071 35.7903 15.7937 34.7881 15.988 33.1817C15.7229 34.4295 15.575 35.6993 15.5461 36.9747V37.1165C15.5522 43.9991 18.1398 50.629 22.7977 55.696C27.4556 60.763 33.8447 63.8983 40.7025 64.4824C47.5603 65.0664 54.3876 63.0567 59.8353 58.8504C65.2829 54.6441 68.9545 48.5473 70.1243 41.7648C70.1704 41.4102 70.208 41.0591 70.2492 40.701C70.8153 36.0216 70.2024 31.275 68.4662 26.8929V26.8929Z" fill="url(#paint2_radial)"/>
<path d="M55.1085 30.1242C55.168 30.1661 55.2234 30.2079 55.2794 30.2498C54.5889 29.0254 53.7294 27.9045 52.7262 26.9199C44.1828 18.3751 50.4871 8.39267 51.5503 7.88557L51.5609 7.86996C44.6565 11.9126 42.3139 19.3964 42.0983 23.1397C42.4189 23.1177 42.7366 23.0908 43.0643 23.0908C45.5141 23.0953 47.9191 23.7484 50.0346 24.9838C52.1501 26.2192 53.9007 27.9928 55.1085 30.1242V30.1242Z" fill="url(#paint3_radial)"/>
<path d="M43.0821 31.8306C43.0367 32.5143 40.6211 34.8725 39.7764 34.8725C31.9599 34.8725 30.6911 39.601 30.6911 39.601C31.0372 43.5826 33.8117 46.8621 37.1657 48.5969C37.3189 48.6763 37.4742 48.7479 37.6295 48.8181C37.8985 48.9373 38.1676 49.0475 38.4366 49.1486C39.5877 49.556 40.7933 49.7886 42.0133 49.8387C55.7135 50.4813 58.3674 33.4555 48.4808 28.515C50.8131 28.2115 53.175 28.785 55.1085 30.1242C53.9008 27.9928 52.1501 26.2192 50.0346 24.9838C47.9191 23.7484 45.5142 23.0953 43.0644 23.0908C42.7381 23.0908 42.419 23.1177 42.0984 23.1397C39.3411 23.3292 36.7049 24.3453 34.5337 26.0554C34.9529 26.41 35.4259 26.8837 36.4224 27.866C38.2877 29.7036 43.0714 31.6072 43.0821 31.8306V31.8306Z" fill="url(#paint4_radial)"/>
<path d="M43.0821 31.8306C43.0367 32.5143 40.6211 34.8725 39.7764 34.8725C31.9599 34.8725 30.6911 39.601 30.6911 39.601C31.0372 43.5826 33.8117 46.8621 37.1657 48.5969C37.3189 48.6763 37.4742 48.7479 37.6295 48.8181C37.8985 48.9373 38.1676 49.0475 38.4366 49.1486C39.5877 49.556 40.7933 49.7886 42.0133 49.8387C55.7135 50.4813 58.3674 33.4555 48.4808 28.515C50.8131 28.2115 53.175 28.785 55.1085 30.1242C53.9008 27.9928 52.1501 26.2192 50.0346 24.9838C47.9191 23.7484 45.5142 23.0953 43.0644 23.0908C42.7381 23.0908 42.419 23.1177 42.0984 23.1397C39.3411 23.3292 36.7049 24.3453 34.5337 26.0554C34.9529 26.41 35.4259 26.8837 36.4224 27.866C38.2877 29.7036 43.0714 31.6072 43.0821 31.8306V31.8306Z" fill="url(#paint5_radial)"/>
<path d="M33.2521 25.1412C33.4748 25.283 33.6585 25.4064 33.8195 25.5178C33.1931 23.3255 33.1664 21.0053 33.7422 18.7992C31.2066 20.0275 28.9536 21.7688 27.1257 23.9128C27.2598 23.9092 31.2471 23.8376 33.2521 25.1412V25.1412Z" fill="url(#paint6_radial)"/>
<path d="M15.7972 37.7669C17.9185 50.3019 29.279 59.8722 42.1764 60.2375C54.1128 60.5751 61.7384 53.6459 64.8888 46.8862C67.5564 41.044 67.8628 34.397 65.7441 28.3341V28.3079C65.7441 28.2873 65.7399 28.2753 65.7441 28.2816L65.7491 28.3277C66.7243 34.6945 63.486 40.8627 58.4235 45.0337L58.4079 45.0692C48.5439 53.1026 39.104 49.916 37.1933 48.6153C37.06 48.5515 36.9267 48.4851 36.7933 48.416C31.0422 45.667 28.6662 40.4272 29.1755 35.9335C27.8103 35.9537 26.4685 35.5775 25.3128 34.8505C24.1571 34.1236 23.237 33.077 22.664 31.8377C24.1737 30.9129 25.8951 30.39 27.6641 30.319C29.4331 30.248 31.1909 30.6312 32.7698 31.4321C36.0251 32.9098 39.7294 33.0555 43.0906 31.8377C43.0799 31.6143 38.2962 29.71 36.4309 27.8731C35.4344 26.8908 34.9614 26.4178 34.5422 26.0625C34.3157 25.8706 34.0789 25.6911 33.833 25.5249C33.6699 25.4135 33.4862 25.2929 33.2656 25.1483C31.2606 23.8447 27.2733 23.9163 27.1414 23.9199H27.1286C26.0392 22.539 26.1158 17.9857 26.1782 17.0347C25.856 17.1642 25.5483 17.3275 25.2605 17.5219C24.2988 18.2083 23.3998 18.9784 22.5739 19.8234C21.6295 20.7748 20.7664 21.8037 19.9937 22.8993V22.9035V22.8986C18.2265 25.404 16.9731 28.2346 16.3057 31.2271C16.2923 31.2831 15.3157 35.5527 15.7972 37.7669V37.7669Z" fill="url(#paint7_radial)"/>
<path d="M52.7276 26.9199C53.7311 27.9055 54.5906 29.0277 55.2808 30.2533C55.4319 30.3675 55.573 30.481 55.6929 30.5909C61.9249 36.3357 58.6596 44.4564 58.4163 45.0344C63.4788 40.8634 66.7143 34.6952 65.742 28.3284C62.6327 20.5765 57.3624 17.4524 53.0581 10.6494C52.8403 10.3054 52.6226 9.96076 52.4105 9.59692C52.2893 9.38911 52.1921 9.20188 52.1077 9.02953C51.9292 8.68382 51.7916 8.31846 51.6978 7.94086C51.6979 7.92344 51.6916 7.90658 51.6801 7.8935C51.6686 7.88042 51.6526 7.87203 51.6353 7.86994C51.6184 7.86529 51.6005 7.86529 51.5836 7.86994C51.58 7.86994 51.5744 7.87632 51.5701 7.87774C51.5658 7.87916 51.5566 7.88554 51.5502 7.88838C50.4871 8.39264 44.1827 18.3751 52.7276 26.9199V26.9199Z" fill="url(#paint8_radial)"/>
<path d="M55.6886 30.5873C55.5688 30.4774 55.4276 30.3639 55.2766 30.2497C55.2205 30.2079 55.1652 30.166 55.1056 30.1242C53.1721 28.7849 50.8102 28.2115 48.4779 28.5149C58.3645 33.4583 55.712 50.4812 42.0104 49.8387C40.7904 49.7886 39.5848 49.556 38.4337 49.1486C38.1647 49.0479 37.8957 48.9377 37.6266 48.8181C37.4713 48.7472 37.316 48.6762 37.1628 48.5968L37.1819 48.6089C39.0926 49.9132 48.5296 53.0997 58.3965 45.0627L58.4121 45.0273C58.6582 44.4528 61.9235 36.33 55.6886 30.5873V30.5873Z" fill="url(#paint9_radial)"/>
<path d="M30.691 39.601C30.691 39.601 31.9599 34.8725 39.7763 34.8725C40.621 34.8725 43.0388 32.5143 43.082 31.8306C39.7208 33.0483 36.0166 32.9027 32.7613 31.4249C31.1823 30.6241 29.4246 30.2409 27.6556 30.3119C25.8865 30.3829 24.1651 30.9057 22.6555 31.8306C23.2284 33.0699 24.1485 34.1165 25.3043 34.8434C26.46 35.5704 27.8017 35.9466 29.1669 35.9264C28.6577 40.4208 31.0336 45.6606 36.7848 48.4089C36.9131 48.4706 37.0337 48.5373 37.1656 48.5961C33.8088 46.8621 31.0372 43.5826 30.691 39.601Z" fill="url(#paint10_radial)"/>
<path d="M68.4662 26.893C67.2718 24.0191 64.8491 20.9163 62.9519 19.9354C64.3051 22.5561 65.2441 25.3706 65.7356 28.2788L65.7406 28.3249C62.6327 20.5765 57.3624 17.4524 53.0581 10.6494C52.8404 10.3054 52.6226 9.96076 52.4106 9.59692C52.2893 9.38911 52.1921 9.20188 52.1077 9.02953C51.9292 8.68382 51.7916 8.31846 51.6978 7.94086C51.6979 7.92344 51.6916 7.90658 51.6801 7.8935C51.6686 7.88042 51.6527 7.87203 51.6354 7.86994C51.6184 7.86529 51.6006 7.86529 51.5836 7.86994C51.5801 7.86994 51.5744 7.87632 51.5701 7.87774C51.5659 7.87916 51.5567 7.88554 51.5503 7.88838L51.5609 7.86994C44.6565 11.9126 42.314 19.3964 42.0984 23.1397C42.4189 23.1177 42.7367 23.0908 43.0643 23.0908C45.5141 23.0952 47.9191 23.7484 50.0346 24.9838C52.1501 26.2192 53.9007 27.9928 55.1085 30.1242C53.175 28.785 50.8131 28.2115 48.4807 28.515C58.3674 33.4583 55.7149 50.4813 42.0132 49.8387C40.7933 49.7886 39.5877 49.556 38.4366 49.1486C38.1676 49.0479 37.8985 48.9378 37.6295 48.8181C37.4742 48.7472 37.3188 48.6763 37.1656 48.5969L37.1848 48.6089C37.0515 48.5451 36.9181 48.4786 36.7848 48.4096C36.9132 48.4713 37.0337 48.538 37.1656 48.5969C33.8089 46.8621 31.0372 43.5826 30.6911 39.601C30.6911 39.601 31.9599 34.8725 39.7763 34.8725C40.621 34.8725 43.0388 32.5143 43.0821 31.8306C43.0714 31.6072 38.2877 29.7029 36.4224 27.866C35.4259 26.8837 34.9528 26.4107 34.5337 26.0553C34.3072 25.8635 34.0704 25.684 33.8245 25.5177C33.1981 23.3255 33.1714 21.0053 33.7472 18.7992C31.2116 20.0275 28.9586 21.7688 27.1307 23.9128H27.118C26.0286 22.5319 26.1052 17.9786 26.1676 17.0275C25.8453 17.1571 25.5377 17.3204 25.2498 17.5148C24.2882 18.2011 23.3891 18.9713 22.5633 19.8162C21.6222 20.7704 20.7627 21.8017 19.9937 22.8993V22.9035V22.8986C18.2265 25.404 16.973 28.2346 16.3057 31.2271L16.2688 31.4086C16.2171 31.6505 15.9852 32.8789 15.9518 33.1427C15.9518 33.1626 15.9518 33.1221 15.9518 33.1427C15.7397 34.4107 15.6042 35.6904 15.5461 36.9747V37.1165C15.5522 43.9991 18.1398 50.629 22.7977 55.696C27.4556 60.763 33.8447 63.8983 40.7025 64.4824C47.5603 65.0665 54.3876 63.0567 59.8353 58.8504C65.2829 54.6441 68.9545 48.5473 70.1243 41.7648C70.1704 41.4102 70.208 41.0591 70.2492 40.701C70.8153 36.0216 70.2024 31.275 68.4662 26.893V26.893ZM65.7392 28.305L65.7441 28.3341L65.7392 28.305Z" fill="url(#paint11_linear)"/>
</g>
<path d="M98.9432 24.0795H101.091C100.733 21.7955 98.7557 20.2045 96.1818 20.2045C93.1364 20.2045 90.8523 22.4432 90.8523 26.1932C90.8523 29.875 93.0341 32.1591 96.2443 32.1591C99.125 32.1591 101.188 30.3068 101.188 27.3068V25.9091H96.4659V27.5568H99.1477C99.1136 29.2159 98.0057 30.267 96.2557 30.267C94.3068 30.267 92.9716 28.8068 92.9716 26.1705C92.9716 23.5511 94.3295 22.0966 96.2102 22.0966C97.6136 22.0966 98.5682 22.8466 98.9432 24.0795ZM103.226 32H110.839V30.233H105.334V27.0568H110.402V25.2898H105.334V22.1307H110.794V20.3636H103.226V32ZM112.433 22.1307H116.03V32H118.121V22.1307H121.717V20.3636H112.433V22.1307ZM126.964 22.1307H130.561V32H132.652V22.1307H136.249V20.3636H126.964V22.1307ZM138.038 32H140.146V27.0568H145.538V32H147.652V20.3636H145.538V25.2898H140.146V20.3636H138.038V32ZM149.945 32H157.558V30.233H152.053V27.0568H157.121V25.2898H152.053V22.1307H157.513V20.3636H149.945V32Z" fill="#E2E8F0"/>
<path d="M93.9631 55L95.4034 50.696H101.966L103.415 55H106.79L100.636 37.5455H96.733L90.5881 55H93.9631ZM96.2557 48.1562L98.6165 41.125H98.7528L101.114 48.1562H96.2557ZM115.004 55C120.322 55 123.475 51.7102 123.475 46.2557C123.475 40.8182 120.322 37.5455 115.123 37.5455H109.089V55H115.004ZM112.251 52.2642V40.2812H114.944C118.489 40.2812 120.339 42.2585 120.339 46.2557C120.339 50.2699 118.489 52.2642 114.85 52.2642H112.251ZM132.394 55C137.712 55 140.866 51.7102 140.866 46.2557C140.866 40.8182 137.712 37.5455 132.513 37.5455H126.479V55H132.394ZM129.641 52.2642V40.2812H132.335C135.88 40.2812 137.729 42.2585 137.729 46.2557C137.729 50.2699 135.88 52.2642 132.241 52.2642H129.641ZM151.668 45.0028H143.81V47.5426H151.668V45.0028ZM170.646 46.2727C170.646 40.6307 167.203 37.3068 162.626 37.3068C158.041 37.3068 154.607 40.6307 154.607 46.2727C154.607 51.9062 158.041 55.2386 162.626 55.2386C167.203 55.2386 170.646 51.9148 170.646 46.2727ZM167.467 46.2727C167.467 50.2443 165.473 52.4006 162.626 52.4006C159.788 52.4006 157.786 50.2443 157.786 46.2727C157.786 42.3011 159.788 40.1449 162.626 40.1449C165.473 40.1449 167.467 42.3011 167.467 46.2727ZM187.979 37.5455H184.835V49.4432H184.681L176.465 37.5455H173.636V55H176.798V43.1108H176.942L185.167 55H187.979V37.5455Z" fill="#E2E8F0"/>
<rect x="0.5" y="0.5" width="202" height="74" rx="3.5" stroke="#A6A6A6"/>
<defs>
<linearGradient id="paint0_linear" x1="64.8278" y1="16.6531" x2="19.1966" y2="60.6786" gradientUnits="userSpaceOnUse">
<stop offset="0.048" stop-color="#FFF44F"/>
<stop offset="0.111" stop-color="#FFE847"/>
<stop offset="0.225" stop-color="#FFC830"/>
<stop offset="0.368" stop-color="#FF980E"/>
<stop offset="0.401" stop-color="#FF8B16"/>
<stop offset="0.462" stop-color="#FF672A"/>
<stop offset="0.534" stop-color="#FF3647"/>
<stop offset="0.705" stop-color="#E31587"/>
</linearGradient>
<radialGradient id="paint1_radial" cx="0" cy="0" r="1" gradientUnits="userSpaceOnUse" gradientTransform="translate(62.7193 14.1607) scale(57.3038)">
<stop offset="0.129" stop-color="#FFBD4F"/>
<stop offset="0.186" stop-color="#FFAC31"/>
<stop offset="0.247" stop-color="#FF9D17"/>
<stop offset="0.283" stop-color="#FF980E"/>
<stop offset="0.403" stop-color="#FF563B"/>
<stop offset="0.467" stop-color="#FF3750"/>
<stop offset="0.71" stop-color="#F5156C"/>
<stop offset="0.782" stop-color="#EB0878"/>
<stop offset="0.86" stop-color="#E50080"/>
</radialGradient>
<radialGradient id="paint2_radial" cx="0" cy="0" r="1" gradientUnits="userSpaceOnUse" gradientTransform="translate(41.78 37.5882) scale(57.3038)">
<stop offset="0.3" stop-color="#960E18"/>
<stop offset="0.351" stop-color="#B11927" stop-opacity="0.74"/>
<stop offset="0.435" stop-color="#DB293D" stop-opacity="0.343"/>
<stop offset="0.497" stop-color="#F5334B" stop-opacity="0.094"/>
<stop offset="0.53" stop-color="#FF3750" stop-opacity="0"/>
</radialGradient>
<radialGradient id="paint3_radial" cx="0" cy="0" r="1" gradientUnits="userSpaceOnUse" gradientTransform="translate(48.6884 1.15637) scale(41.5142)">
<stop offset="0.132" stop-color="#FFF44F"/>
<stop offset="0.252" stop-color="#FFDC3E"/>
<stop offset="0.506" stop-color="#FF9D12"/>
<stop offset="0.526" stop-color="#FF980E"/>
</radialGradient>
<radialGradient id="paint4_radial" cx="0" cy="0" r="1" gradientUnits="userSpaceOnUse" gradientTransform="translate(35.4416 52.5562) scale(27.2848)">
<stop offset="0.353" stop-color="#3A8EE6"/>
<stop offset="0.472" stop-color="#5C79F0"/>
<stop offset="0.669" stop-color="#9059FF"/>
<stop offset="1" stop-color="#C139E6"/>
</radialGradient>
<radialGradient id="paint5_radial" cx="0" cy="0" r="1" gradientUnits="userSpaceOnUse" gradientTransform="translate(44.9113 32.892) rotate(-13.5916) scale(14.4663 16.9364)">
<stop offset="0.206" stop-color="#9059FF" stop-opacity="0"/>
<stop offset="0.278" stop-color="#8C4FF3" stop-opacity="0.064"/>
<stop offset="0.747" stop-color="#7716A8" stop-opacity="0.45"/>
<stop offset="0.975" stop-color="#6E008B" stop-opacity="0.6"/>
</radialGradient>
<radialGradient id="paint6_radial" cx="0" cy="0" r="1" gradientUnits="userSpaceOnUse" gradientTransform="translate(41.0565 11.8162) scale(19.6287)">
<stop stop-color="#FFE226"/>
<stop offset="0.121" stop-color="#FFDB27"/>
<stop offset="0.295" stop-color="#FFC82A"/>
<stop offset="0.502" stop-color="#FFA930"/>
<stop offset="0.732" stop-color="#FF7E37"/>
<stop offset="0.792" stop-color="#FF7139"/>
</radialGradient>
<radialGradient id="paint7_radial" cx="0" cy="0" r="1" gradientUnits="userSpaceOnUse" gradientTransform="translate(56.4851 -0.634013) scale(83.7468)">
<stop offset="0.113" stop-color="#FFF44F"/>
<stop offset="0.456" stop-color="#FF980E"/>
<stop offset="0.622" stop-color="#FF5634"/>
<stop offset="0.716" stop-color="#FF3647"/>
<stop offset="0.904" stop-color="#E31587"/>
</radialGradient>
<radialGradient id="paint8_radial" cx="0" cy="0" r="1" gradientUnits="userSpaceOnUse" gradientTransform="translate(49.4267 4.02272) rotate(83.976) scale(61.38 40.2831)">
<stop stop-color="#FFF44F"/>
<stop offset="0.06" stop-color="#FFE847"/>
<stop offset="0.168" stop-color="#FFC830"/>
<stop offset="0.304" stop-color="#FF980E"/>
<stop offset="0.356" stop-color="#FF8B16"/>
<stop offset="0.455" stop-color="#FF672A"/>
<stop offset="0.57" stop-color="#FF3647"/>
<stop offset="0.737" stop-color="#E31587"/>
</radialGradient>
<radialGradient id="paint9_radial" cx="0" cy="0" r="1" gradientUnits="userSpaceOnUse" gradientTransform="translate(40.5942 19.0865) scale(52.2845)">
<stop offset="0.137" stop-color="#FFF44F"/>
<stop offset="0.48" stop-color="#FF980E"/>
<stop offset="0.592" stop-color="#FF5634"/>
<stop offset="0.655" stop-color="#FF3647"/>
<stop offset="0.904" stop-color="#E31587"/>
</radialGradient>
<radialGradient id="paint10_radial" cx="0" cy="0" r="1" gradientUnits="userSpaceOnUse" gradientTransform="translate(54.3958 22.1466) scale(57.2251)">
<stop offset="0.094" stop-color="#FFF44F"/>
<stop offset="0.231" stop-color="#FFE141"/>
<stop offset="0.509" stop-color="#FFAF1E"/>
<stop offset="0.626" stop-color="#FF980E"/>
</radialGradient>
<linearGradient id="paint11_linear" x1="64.2796" y1="16.4176" x2="25.452" y2="55.2445" gradientUnits="userSpaceOnUse">
<stop offset="0.167" stop-color="#FFF44F" stop-opacity="0.8"/>
<stop offset="0.266" stop-color="#FFF44F" stop-opacity="0.634"/>
<stop offset="0.489" stop-color="#FFF44F" stop-opacity="0.217"/>
<stop offset="0.6" stop-color="#FFF44F" stop-opacity="0"/>
</linearGradient>
<clipPath id="clip0">
<rect width="62" height="58.1336" fill="white" transform="translate(12 7.86646)"/>
</clipPath>
</defs>
</svg>
