<svg width="311" height="92" viewBox="0 0 311 92" fill="none" xmlns="http://www.w3.org/2000/svg">
<path d="M299 0H11.5C5.14873 0 0 5.14873 0 11.5V80.5C0 86.8513 5.14873 92 11.5 92H299C305.351 92 310.5 86.8513 310.5 80.5V11.5C310.5 5.14873 305.351 0 299 0Z" fill="black"/>
<path d="M299 1.84C301.562 1.84 304.019 2.85775 305.831 4.66935C307.642 6.48095 308.66 8.93801 308.66 11.5V80.5C308.66 83.062 307.642 85.5191 305.831 87.3307C304.019 89.1423 301.562 90.16 299 90.16H11.5C8.93801 90.16 6.48095 89.1423 4.66935 87.3307C2.85775 85.5191 1.84 83.062 1.84 80.5V11.5C1.84 8.93801 2.85775 6.48095 4.66935 4.66935C6.48095 2.85775 8.93801 1.84 11.5 1.84H299ZM299 0H11.5C8.45001 0 5.52494 1.2116 3.36827 3.36827C1.2116 5.52494 0 8.45001 0 11.5V80.5C0 83.55 1.2116 86.4751 3.36827 88.6317C5.52494 90.7884 8.45001 92 11.5 92H299C302.05 92 304.975 90.7884 307.132 88.6317C309.288 86.4751 310.5 83.55 310.5 80.5V11.5C310.5 8.45001 309.288 5.52494 307.132 3.36827C304.975 1.2116 302.05 0 299 0Z" fill="#A6A6A6"/>
<path d="M109.066 23.5519C109.105 24.3955 108.972 25.2383 108.676 26.0291C108.379 26.8198 107.925 27.542 107.341 28.1519C106.689 28.8295 105.901 29.362 105.029 29.7147C104.157 30.0674 103.221 30.2324 102.281 30.1989C100.855 30.1878 99.4639 29.756 98.2822 28.9577C97.1005 28.1595 96.1806 27.0302 95.6379 25.7114C95.0952 24.3927 94.9537 22.9431 95.2312 21.5442C95.5088 20.1454 96.1929 18.8596 97.198 17.8479C97.8586 17.1735 98.6505 16.6419 99.5248 16.2858C100.399 15.9298 101.337 15.7569 102.281 15.7779C103.253 15.7747 104.216 15.9704 105.11 16.3529C105.942 16.6886 106.683 17.2167 107.272 17.8939L106.053 19.1129C105.594 18.5669 105.014 18.1351 104.36 17.8517C103.705 17.5683 102.993 17.441 102.281 17.4799C101.563 17.4764 100.851 17.618 100.188 17.8962C99.5261 18.1744 98.9267 18.5835 98.4263 19.099C97.9259 19.6145 97.5347 20.2257 97.2762 20.896C97.0177 21.5663 96.8972 22.2819 96.922 22.9999C96.9069 24.072 97.2097 25.1246 97.7922 26.0248C98.3746 26.925 99.2106 27.6326 100.195 28.0582C101.179 28.4839 102.267 28.6085 103.322 28.4164C104.377 28.2243 105.351 27.7241 106.122 26.9789C106.83 26.212 107.238 25.216 107.272 24.1729H102.281V22.5169H108.974C109.035 22.8585 109.066 23.2049 109.066 23.5519ZM119.6 17.8019H113.39V22.1719H119.048V23.8279H113.39V28.1979H119.6V29.8999H111.55V16.0999H119.6V17.8019ZM127.144 29.8999H125.373V17.8019H121.509V16.0999H131.1V17.8019H127.144V29.8999ZM137.862 29.8999V16.0999H139.633V29.8999H137.862ZM147.499 29.8999H145.728V17.8019H141.864V16.0999H151.34V17.8019H147.499V29.8999ZM169.303 28.1059C167.958 29.443 166.139 30.1936 164.243 30.1936C162.347 30.1936 160.528 29.443 159.183 28.1059C157.876 26.7225 157.148 24.8915 157.148 22.9884C157.148 21.0853 157.876 19.2543 159.183 17.8709C159.846 17.2033 160.634 16.6735 161.502 16.3119C162.371 15.9504 163.302 15.7642 164.243 15.7642C165.184 15.7642 166.115 15.9504 166.984 16.3119C167.852 16.6735 168.64 17.2033 169.303 17.8709C170.615 19.2517 171.347 21.0837 171.347 22.9884C171.347 24.8932 170.615 26.7252 169.303 28.1059ZM160.494 26.9559C161.49 27.9475 162.838 28.5042 164.243 28.5042C165.648 28.5042 166.996 27.9475 167.992 26.9559C168.975 25.8727 169.519 24.4625 169.519 22.9999C169.519 21.5374 168.975 20.1272 167.992 19.0439C166.996 18.0524 165.648 17.4956 164.243 17.4956C162.838 17.4956 161.49 18.0524 160.494 19.0439C159.511 20.1272 158.967 21.5374 158.967 22.9999C158.967 24.4625 159.511 25.8727 160.494 26.9559ZM173.834 29.8999V16.0999H175.996L182.712 26.8409V16.0999H184.483V29.8999H182.643L175.628 18.6529V29.8999H173.834Z" fill="white" stroke="white" stroke-width="0.46" stroke-miterlimit="10"/>
<path d="M156.722 50.0253C154.791 50.0344 152.905 50.6154 151.304 51.695C149.702 52.7746 148.457 54.3044 147.724 56.0913C146.991 57.8782 146.804 59.8422 147.187 61.7353C147.569 63.6284 148.503 65.3659 149.872 66.7283C151.241 68.0908 152.983 69.0172 154.878 69.3907C156.773 69.7641 158.736 69.5679 160.519 68.8267C162.303 68.0855 163.827 66.8326 164.899 65.2262C165.971 63.6197 166.543 61.7316 166.543 59.8003C166.562 58.5075 166.32 57.2242 165.833 56.0268C165.345 54.8293 164.622 53.7422 163.705 52.8301C162.789 51.9181 161.699 51.1997 160.499 50.7179C159.299 50.236 158.015 50.0004 156.722 50.0253ZM156.722 65.7343C155.534 65.8173 154.349 65.5412 153.32 64.9417C152.292 64.3421 151.467 63.447 150.954 62.3727C150.44 61.2983 150.262 60.0944 150.442 58.9174C150.622 57.7404 151.152 56.6448 151.963 55.7731C152.774 54.9013 153.829 54.2936 154.99 54.0291C156.151 53.7645 157.364 53.8553 158.473 54.2897C159.581 54.724 160.534 55.4818 161.206 56.4646C161.878 57.4474 162.239 58.6096 162.242 59.8003C162.279 60.5547 162.165 61.3089 161.906 62.0184C161.647 62.728 161.248 63.3784 160.734 63.9315C160.219 64.4845 159.599 64.929 158.91 65.2386C158.221 65.5482 157.477 65.7168 156.722 65.7343ZM135.309 50.0253C133.377 50.0298 131.489 50.607 129.885 51.6838C128.28 52.7607 127.031 54.2889 126.295 56.0754C125.558 57.862 125.368 59.8267 125.748 61.7213C126.127 63.616 127.06 65.3556 128.428 66.7203C129.796 68.0851 131.538 69.0138 133.433 69.3891C135.329 69.7644 137.293 69.5695 139.078 68.829C140.863 68.0884 142.388 66.8356 143.461 65.2286C144.534 63.6216 145.107 61.7326 145.107 59.8003C145.126 58.5075 144.884 57.2242 144.397 56.0268C143.909 54.8293 143.186 53.7422 142.269 52.8301C141.353 51.9181 140.263 51.1997 139.063 50.7179C137.863 50.236 136.579 50.0004 135.286 50.0253H135.309ZM135.309 65.7343C134.121 65.822 132.933 65.55 131.902 64.9535C130.87 64.3571 130.042 63.4639 129.525 62.3903C129.008 61.3166 128.827 60.1123 129.004 58.9339C129.181 57.7556 129.709 56.6579 130.519 55.7838C131.329 54.9096 132.383 54.2995 133.544 54.0329C134.706 53.7662 135.92 53.8554 137.03 54.2888C138.14 54.7221 139.094 55.4796 139.767 56.4627C140.441 57.4457 140.803 58.6087 140.806 59.8003C140.843 60.5547 140.729 61.3089 140.47 62.0184C140.211 62.728 139.812 63.3784 139.298 63.9315C138.783 64.4845 138.163 64.929 137.474 65.2386C136.785 65.5482 136.041 65.7168 135.286 65.7343H135.309ZM109.802 53.0383V57.1783H119.738C119.582 59.1282 118.772 60.9682 117.438 62.3993C116.444 63.4118 115.249 64.205 113.93 64.7279C112.611 65.2508 111.197 65.4918 109.779 65.4353C106.851 65.4353 104.043 64.2721 101.973 62.2017C99.9022 60.1313 98.739 57.3233 98.739 54.3953C98.739 51.4673 99.9022 48.6592 101.973 46.5888C104.043 44.5184 106.851 43.3553 109.779 43.3553C112.58 43.3096 115.285 44.3766 117.3 46.3223L120.221 43.4013C118.861 42.0236 117.237 40.9331 115.448 40.1943C113.658 39.4555 111.738 39.0835 109.802 39.1003C107.757 39.0207 105.718 39.3547 103.805 40.0823C101.893 40.8099 100.147 41.9161 98.6718 43.3346C97.197 44.7531 96.0237 46.4547 95.2223 48.3375C94.4209 50.2203 94.0078 52.2455 94.0078 54.2918C94.0078 56.338 94.4209 58.3632 95.2223 60.246C96.0237 62.1288 97.197 63.8304 98.6718 65.2489C100.147 66.6675 101.893 67.7736 103.805 68.5012C105.718 69.2288 107.757 69.5628 109.802 69.4833C111.771 69.5722 113.736 69.2385 115.565 68.5046C117.393 67.7706 119.044 66.6535 120.405 65.2283C122.815 62.5808 124.101 59.1005 123.993 55.5223C124 54.6505 123.923 53.7801 123.763 52.9233L109.802 53.0383ZM214.015 56.2583C213.415 54.4936 212.294 52.9527 210.798 51.8396C209.303 50.7266 207.506 50.0939 205.643 50.0253C204.385 50.0228 203.14 50.2784 201.984 50.7763C200.829 51.2742 199.788 52.0037 198.926 52.9199C198.063 53.8361 197.398 54.9193 196.971 56.1028C196.544 57.2862 196.364 58.5446 196.443 59.8003C196.415 61.0858 196.646 62.3637 197.123 63.5578C197.6 64.7518 198.313 65.8375 199.219 66.7499C200.125 67.6623 201.206 68.3828 202.396 68.8682C203.587 69.3536 204.863 69.5941 206.149 69.5753C207.758 69.5839 209.344 69.1935 210.765 68.4389C212.186 67.6842 213.397 66.589 214.291 65.2513L210.956 62.9513C210.458 63.7811 209.754 64.4674 208.911 64.9432C208.068 65.4189 207.117 65.6677 206.149 65.6653C205.153 65.7032 204.168 65.4406 203.323 64.9114C202.478 64.3823 201.812 63.6111 201.411 62.6983L214.498 57.2933L214.015 56.2583ZM200.675 59.5243C200.628 58.8129 200.724 58.0993 200.957 57.4254C201.189 56.7515 201.554 56.1307 202.03 55.5995C202.505 55.0683 203.082 54.6374 203.726 54.3318C204.37 54.0263 205.069 53.8524 205.781 53.8203C206.523 53.7714 207.263 53.9415 207.909 54.3095C208.555 54.6775 209.079 55.2272 209.415 55.8903L200.675 59.5243ZM190.049 69.0003H194.35V40.2503H190.049V69.0003ZM183.011 52.2103H182.85C182.202 51.4855 181.408 50.906 180.52 50.5096C179.632 50.1132 178.67 49.909 177.698 49.9103C175.185 50.0322 172.814 51.1164 171.079 52.9384C169.343 54.7604 168.375 57.1803 168.375 59.6968C168.375 62.2132 169.343 64.6332 171.079 66.4551C172.814 68.2771 175.185 69.3614 177.698 69.4833C178.673 69.4997 179.639 69.3022 180.529 68.9048C181.419 68.5075 182.212 67.9198 182.85 67.1833H182.988V68.5863C182.988 72.3353 180.987 74.3363 177.767 74.3363C176.695 74.3112 175.654 73.9675 174.777 73.349C173.901 72.7306 173.228 71.8653 172.845 70.8633L169.096 72.4273C169.802 74.1439 171.004 75.6106 172.549 76.6391C174.094 77.6677 175.911 78.2114 177.767 78.2003C182.804 78.2003 186.967 75.2333 186.967 68.0113V50.6003H183.011V52.2103ZM178.089 65.7343C176.605 65.6035 175.225 64.9218 174.219 63.8234C173.213 62.725 172.655 61.2896 172.655 59.8003C172.655 58.3109 173.213 56.8756 174.219 55.7772C175.225 54.6788 176.605 53.997 178.089 53.8663C178.825 53.904 179.545 54.0886 180.208 54.4092C180.872 54.7297 181.464 55.1797 181.95 55.7327C182.437 56.2857 182.808 56.9305 183.041 57.629C183.275 58.3276 183.366 59.0659 183.31 59.8003C183.373 60.5379 183.285 61.2805 183.053 61.9833C182.82 62.6861 182.448 63.3345 181.958 63.8892C181.467 64.4439 180.87 64.8934 180.201 65.2105C179.532 65.5277 178.806 65.7058 178.066 65.7343H178.089ZM234.163 40.2503H223.882V69.0003H228.183V58.0983H234.186C235.412 58.1863 236.643 58.0209 237.802 57.6123C238.961 57.2038 240.023 56.5608 240.923 55.7235C241.822 54.8862 242.54 53.8726 243.03 52.7458C243.521 51.619 243.774 50.4032 243.774 49.1743C243.774 47.9453 243.521 46.7295 243.03 45.6028C242.54 44.476 241.822 43.4623 240.923 42.625C240.023 41.7877 238.961 41.1448 237.802 40.7362C236.643 40.3276 235.412 40.1622 234.186 40.2503H234.163ZM234.163 54.0503H228.16V44.2523H234.255C235.563 44.2523 236.818 44.772 237.744 45.6973C238.669 46.6225 239.189 47.8773 239.189 49.1858C239.189 50.4942 238.669 51.7491 237.744 52.6743C236.818 53.5995 235.563 54.1193 234.255 54.1193L234.163 54.0503ZM260.682 49.9103C259.116 49.8167 257.557 50.1826 256.197 50.963C254.836 51.7435 253.733 52.9044 253.023 54.3033L256.841 55.8903C257.217 55.1965 257.787 54.6271 258.482 54.2514C259.176 53.8757 259.964 53.7099 260.751 53.7743C261.297 53.7105 261.85 53.7561 262.378 53.9084C262.907 54.0607 263.399 54.3167 263.827 54.6614C264.256 55.0061 264.611 55.4326 264.872 55.9161C265.134 56.3995 265.297 56.9303 265.351 57.4773V57.7763C263.97 57.0449 262.429 56.6657 260.866 56.6723C256.749 56.6723 252.586 58.9723 252.586 63.1353C252.627 64.0229 252.845 64.8934 253.228 65.6953C253.611 66.4972 254.15 67.2141 254.815 67.8038C255.48 68.3935 256.256 68.8439 257.098 69.1284C257.94 69.4129 258.83 69.5258 259.716 69.4603C260.799 69.538 261.883 69.3228 262.854 68.8372C263.826 68.3516 264.648 67.6134 265.236 66.7003H265.374V69.0003H269.514V57.9373C269.514 52.9003 265.696 49.9793 260.797 49.9793L260.682 49.9103ZM260.153 65.6653C258.75 65.6653 256.795 64.9523 256.795 63.2273C256.795 60.9273 259.233 60.1683 261.395 60.1683C262.761 60.1346 264.112 60.4682 265.305 61.1343C265.161 62.3795 264.572 63.5308 263.647 64.3761C262.721 65.2214 261.521 65.7037 260.268 65.7343L260.153 65.6653ZM284.602 50.6003L279.68 63.0663H279.542L274.436 50.6003H269.836L277.495 68.0343L273.125 77.7173H277.61L289.386 50.6003H284.602ZM245.939 69.0003H250.24V40.2503H245.939V69.0003Z" fill="white"/>
<path d="M24.012 17.3419C23.2623 18.2415 22.884 19.3931 22.954 20.5619V71.4379C22.884 72.6068 23.2623 73.7584 24.012 74.6579L24.173 74.8189L52.67 46.3449V45.6779L24.173 17.1809L24.012 17.3419Z" fill="url(#paint0_linear)"/>
<path d="M62.1 55.8439L52.67 46.3449V45.6779L62.1 36.1559L62.307 36.2709L73.6 42.6879C76.82 44.5049 76.82 47.4949 73.6 49.3349L62.353 55.7289L62.1 55.8439Z" fill="url(#paint1_linear)"/>
<path d="M62.376 55.706L52.67 46L24.012 74.658C24.6683 75.235 25.5056 75.5645 26.3791 75.5897C27.2526 75.6149 28.1075 75.3342 28.796 74.796L62.399 55.706" fill="url(#paint2_linear)"/>
<path d="M62.376 36.2941L28.773 17.2041C28.0845 16.6659 27.2296 16.3852 26.3561 16.4104C25.4826 16.4356 24.6453 16.7652 23.989 17.3421L52.67 46.0001L62.376 36.2941Z" fill="url(#paint3_linear)"/>
<path opacity="0.2" d="M62.1 55.4987L28.773 74.4737C28.109 74.9702 27.3021 75.2385 26.473 75.2385C25.6439 75.2385 24.837 74.9702 24.173 74.4737L24.012 74.6347L24.173 74.7957C24.8355 75.2958 25.643 75.5663 26.473 75.5663C27.303 75.5663 28.1105 75.2958 28.773 74.7957L62.376 55.7057L62.1 55.4987Z" fill="black"/>
<path opacity="0.12" d="M24.012 74.336C23.2623 73.4364 22.884 72.2849 22.954 71.116V71.461C22.884 72.6299 23.2623 73.7815 24.012 74.681L24.173 74.52L24.012 74.336ZM73.6 48.99L62.1 55.499L62.307 55.706L73.6 49.312C74.2408 49.011 74.7908 48.5463 75.1946 47.9648C75.5984 47.3833 75.8417 46.7056 75.9 46C75.7706 46.641 75.4961 47.2439 75.0973 47.7622C74.6986 48.2805 74.1864 48.7006 73.6 48.99Z" fill="black"/>
<path opacity="0.25" d="M28.773 17.5259L73.6 43.0099C74.1864 43.2993 74.6986 43.7193 75.0974 44.2377C75.4961 44.756 75.7707 45.3588 75.9 45.9999C75.8418 45.2943 75.5985 44.6166 75.1946 44.0351C74.7908 43.4536 74.2408 42.9889 73.6 42.6879L28.773 17.2039C25.553 15.3869 22.931 16.9049 22.931 20.5849V20.9299C23 17.2269 25.576 15.7089 28.773 17.5259Z" fill="white"/>
<defs>
<linearGradient id="paint0_linear" x1="50.14" y1="20.0329" x2="11.546" y2="58.6269" gradientUnits="userSpaceOnUse">
<stop stop-color="#00A0FF"/>
<stop offset="0.01" stop-color="#00A1FF"/>
<stop offset="0.26" stop-color="#00BEFF"/>
<stop offset="0.51" stop-color="#00D2FF"/>
<stop offset="0.76" stop-color="#00DFFF"/>
<stop offset="1" stop-color="#00E3FF"/>
</linearGradient>
<linearGradient id="paint1_linear" x1="77.809" y1="45.9999" x2="22.172" y2="45.9999" gradientUnits="userSpaceOnUse">
<stop stop-color="#FFE000"/>
<stop offset="0.41" stop-color="#FFBD00"/>
<stop offset="0.78" stop-color="#FFA500"/>
<stop offset="1" stop-color="#FF9C00"/>
</linearGradient>
<linearGradient id="paint2_linear" x1="57.109" y1="51.29" x2="4.761" y2="103.615" gradientUnits="userSpaceOnUse">
<stop stop-color="#FF3A44"/>
<stop offset="1" stop-color="#C31162"/>
</linearGradient>
<linearGradient id="paint3_linear" x1="16.79" y1="0.41411" x2="40.158" y2="23.7821" gradientUnits="userSpaceOnUse">
<stop stop-color="#32A071"/>
<stop offset="0.07" stop-color="#2DA771"/>
<stop offset="0.48" stop-color="#15CF74"/>
<stop offset="0.8" stop-color="#06E775"/>
<stop offset="1" stop-color="#00F076"/>
</linearGradient>
</defs>
</svg>
