<svg width="110" height="24" viewBox="0 0 110 24" fill="none" xmlns="http://www.w3.org/2000/svg">
<path d="M51.155 24L52.5263 19.4062H60.3827L61.7541 24H68.7273L60.8709 0H52.0382L44.1818 24H51.155Z" fill="white"/>
<path fill-rule="evenodd" clip-rule="evenodd" d="M88.3636 19.1526C83.327 27.4956 68.1818 25.0706 68.1818 11.8656C68.1818 -0.790603 82.4477 -3.17009 87.9016 3.99984L79.0605 11.9053L88.3636 19.1526Z" fill="white"/>
<path d="M22.9091 4.36681e-06V24H42.6789L35.0203 16.6956C46.4192 16.6956 46.5973 -1.30832e-05 35.0203 4.36681e-06H22.9091Z" fill="white"/>
<path d="M17.7273 10.9091C21 7.63636 20.1294 1.66152 15.514 7.15868e-06L2.18182 5.33803e-06C1.0909 1.80092e-05 7.60806e-06 0.870126 7.60806e-06 2.18182L0 21.8182C1.66459e-05 22.9091 0.873126 24 2.18183 24H15.8182C23.2132 21.2727 21.2727 12.5454 17.7273 10.9091Z" fill="white"/>
<ellipse cx="6.00002" cy="9.27264" rx="2.18182" ry="2.18182" fill="#211F6D"/>
<ellipse cx="12.5455" cy="9.27264" rx="2.18182" ry="2.18182" fill="#211F6D"/>
<circle cx="12.5455" cy="15.8183" r="2.18182" fill="#211F6D"/>
<ellipse cx="6.00002" cy="15.8183" rx="2.18182" ry="2.18182" fill="#211F6D"/>
<path d="M91.0909 0H106.385C108.181 0 109.636 1.45563 109.636 3.25123V8.18182H91.0909V0Z" fill="white"/>
<path d="M91.0909 15.8181H109.636V20.7487C109.636 22.5443 108.181 23.9999 106.385 23.9999H91.0909V15.8181Z" fill="white"/>
<rect x="91.0909" y="9.81812" width="15.8182" height="4.36363" fill="white"/>
</svg>
