<svg width="21" height="21" viewBox="0 0 21 21" fill="none" xmlns="http://www.w3.org/2000/svg">
<g clip-path="url(#clip0_1302_14915)">
<path d="M12.5919 14.3054L7.33242 19.5649C6.52836 20.3689 5.43787 20.8206 4.30081 20.8206C3.16375 20.8206 2.07326 20.3689 1.2692 19.5649C1.19823 19.4939 1.12983 19.4208 1.06484 19.3456C0.957764 19.2233 0.857978 19.0948 0.766002 18.9608C0.428668 18.4728 0.197922 17.9193 0.0887972 17.3362C0.064428 17.2092 0.0460439 17.081 0.0336456 16.9514C0.0203922 16.8133 0.0136942 16.674 0.0135517 16.5333C0.0131821 16.1399 0.0666931 15.7484 0.172592 15.3696C0.208934 15.2392 0.251544 15.1109 0.300423 14.9848C0.516339 14.4282 0.846339 13.9231 1.2692 13.5017L3.56375 11.2071C3.684 11.0869 3.84709 11.0193 4.01714 11.0193C4.1872 11.0193 4.35029 11.0869 4.47054 11.2071C4.59079 11.3274 4.65834 11.4905 4.65834 11.6605C4.65834 11.8306 4.59079 11.9937 4.47054 12.1139L2.17599 14.4085C2.00261 14.5816 1.85087 14.7751 1.72409 14.9848C1.44254 15.4521 1.29452 15.9877 1.29614 16.5333C1.29618 16.6732 1.30575 16.8129 1.32478 16.9514C1.34264 17.0813 1.3692 17.2099 1.4043 17.3362C1.54439 17.8427 1.81487 18.3035 2.18874 18.6728C2.56261 19.0421 3.0268 19.3068 3.53497 19.4406C4.04314 19.5743 4.57751 19.5725 5.08474 19.4352C5.59198 19.2979 6.05432 19.03 6.42563 18.6581L7.74755 17.3362L10.099 14.9848L11.6851 13.3987C12.1838 12.8986 12.4908 12.239 12.5523 11.5355C12.6138 10.8319 12.4259 10.1291 12.0215 9.55009C11.9263 9.4105 11.89 9.239 11.9206 9.07281C11.9511 8.90663 12.0459 8.75919 12.1844 8.66251C12.323 8.56584 12.4941 8.52773 12.6606 8.55647C12.8271 8.58521 12.9756 8.67848 13.0737 8.81602C13.6499 9.64227 13.9173 10.6447 13.8293 11.6482C13.7412 12.6516 13.3032 13.5922 12.5919 14.3054Z" fill="#9CA3AF"/>
<path d="M20.8343 4.2872C20.8343 4.31883 20.8339 4.35047 20.833 4.38211C20.822 4.94176 20.701 5.49378 20.4769 6.00672C20.4195 6.13822 20.3552 6.26666 20.2845 6.39149C20.0924 6.7312 19.8549 7.04317 19.5786 7.3188L17.2841 9.61335C17.1638 9.73331 17.0008 9.80063 16.8309 9.80051C16.661 9.80039 16.4981 9.73284 16.3779 9.61271C16.2578 9.49257 16.1903 9.32966 16.1901 9.15977C16.19 8.98987 16.2573 8.82687 16.3773 8.70656L18.6718 6.41202C18.6787 6.40517 18.6855 6.39833 18.6919 6.39149C19.2214 5.85408 19.528 5.13622 19.55 4.38211C19.5513 4.35047 19.5517 4.31883 19.5517 4.2872C19.5517 4.18972 19.5471 4.0931 19.538 3.99733C19.4711 3.30368 19.1648 2.65494 18.6718 2.16238C18.6261 2.11663 18.5795 2.0726 18.5312 2.0307C17.9827 1.54849 17.2774 1.28253 16.547 1.28253C15.8167 1.28253 15.1114 1.54849 14.5629 2.0307C14.5146 2.0726 14.468 2.11663 14.4222 2.16238L9.16271 7.42184C8.6001 7.98586 8.28414 8.75 8.28414 9.54665C8.28414 10.3433 8.6001 11.1074 9.16271 11.6714C9.28296 11.7917 9.35051 11.9548 9.35051 12.1248C9.35051 12.2949 9.28296 12.458 9.16271 12.5782C9.04246 12.6985 8.87937 12.766 8.70932 12.766C8.53926 12.766 8.37617 12.6985 8.25592 12.5782C7.45308 11.7736 7.0022 10.6833 7.0022 9.54666C7.0022 8.40998 7.45308 7.31971 8.25592 6.51505L13.5154 1.25559C13.973 0.798972 14.5278 0.451615 15.1384 0.239452C15.749 0.0272885 16.3997 -0.0441985 17.0418 0.0303269C17.6839 0.104852 18.3009 0.323465 18.8467 0.669844C19.3925 1.01622 19.853 1.48142 20.1938 2.0307C20.2715 2.15508 20.3424 2.28352 20.4063 2.41548C20.6468 2.91071 20.7888 3.44795 20.8245 3.99733C20.8309 4.09353 20.8341 4.19015 20.8343 4.2872Z" fill="#9CA3AF"/>
<path d="M17.2002 4.21113C17.2002 4.26856 17.1945 4.32585 17.1831 4.38214C17.1437 4.57526 17.0387 4.74882 16.886 4.87346C16.7333 4.99811 16.5423 5.06619 16.3452 5.06619C16.1481 5.06619 15.957 4.99811 15.8043 4.87346C15.6516 4.74882 15.5467 4.57526 15.5072 4.38214C15.4815 4.25478 15.4848 4.12325 15.517 3.99736C15.5689 3.79566 15.6926 3.61982 15.8649 3.50284C16.0372 3.38587 16.2463 3.3358 16.4529 3.36204C16.6595 3.38828 16.8494 3.48902 16.987 3.64535C17.1246 3.80169 17.2004 4.00287 17.2002 4.21113Z" fill="#9CA3AF"/>
<path d="M4.58817 17.1654C4.58815 17.2228 4.58242 17.2801 4.57106 17.3364C4.5316 17.5295 4.42665 17.7031 4.27396 17.8277C4.12127 17.9524 3.93021 18.0204 3.73311 18.0204C3.536 18.0204 3.34495 17.9524 3.19226 17.8277C3.03956 17.7031 2.93461 17.5295 2.89515 17.3364C2.86941 17.209 2.87277 17.0775 2.90499 16.9516C2.95685 16.7499 3.08054 16.5741 3.25285 16.4571C3.42515 16.3401 3.63423 16.2901 3.84084 16.3163C4.04744 16.3425 4.23736 16.4433 4.37496 16.5996C4.51256 16.756 4.58837 16.9571 4.58817 17.1654Z" fill="#9CA3AF"/>
</g>
<defs>
<clipPath id="clip0_1302_14915">
<rect width="21" height="21" fill="white"/>
</clipPath>
</defs>
</svg>
