<svg width="399" height="114" viewBox="0 0 399 114" fill="none" xmlns="http://www.w3.org/2000/svg">
<path d="M1 17C1 8.16344 8.16345 1 17 1H382C390.837 1 398 8.16344 398 17V113H1V17Z" fill="#1F2937"/>
<path d="M1 113.028V51.8344M1 51.8344V17C1 8.16343 8.16345 1 17 1H382C390.837 1 398 8.16344 398 17V51.8344M1 51.8344H398M398 51.8344V113" stroke="#6B7280" stroke-width="2"/>
<circle cx="27" cy="27.5" r="8" fill="#FC8181"/>
<circle cx="49" cy="27.5" r="8" fill="#F6E05E"/>
<circle cx="71" cy="27.5" r="8" fill="#68D391"/>
<path d="M128.5 11H348.5C357.06 11 364 17.9396 364 26.5C364 35.0604 357.06 42 348.5 42H128.5C119.94 42 113 35.0604 113 26.5C113 17.9396 119.94 11 128.5 11Z" fill="#1F2937" stroke="#6B7280" stroke-width="2"/>
<path d="M130.858 31.5L128.392 22.7727H130.489L132.023 28.9091H132.102L133.67 22.7727H135.744L137.312 28.875H137.398L138.909 22.7727H141.011L138.54 31.5H136.398L134.761 25.6023H134.642L133.006 31.5H130.858ZM146.061 31.6705C145.186 31.6705 144.43 31.4886 143.794 31.125C143.161 30.7576 142.675 30.2386 142.334 29.5682C141.993 28.8939 141.822 28.1004 141.822 27.1875C141.822 26.2898 141.993 25.5019 142.334 24.8239C142.679 24.142 143.16 23.6117 143.777 23.233C144.394 22.8504 145.12 22.6591 145.953 22.6591C146.491 22.6591 146.999 22.7462 147.476 22.9205C147.957 23.0909 148.381 23.3561 148.749 23.7159C149.12 24.0758 149.411 24.5341 149.624 25.0909C149.836 25.6439 149.942 26.303 149.942 27.0682V27.6989H142.788V26.3125H147.97C147.966 25.9186 147.881 25.5682 147.714 25.2614C147.548 24.9508 147.315 24.7064 147.016 24.5284C146.72 24.3504 146.375 24.2614 145.982 24.2614C145.561 24.2614 145.192 24.3636 144.874 24.5682C144.555 24.7689 144.307 25.0341 144.129 25.3636C143.955 25.6894 143.866 26.0473 143.862 26.4375V27.6477C143.862 28.1553 143.955 28.5909 144.141 28.9545C144.326 29.3144 144.586 29.5909 144.919 29.7841C145.252 29.9735 145.643 30.0682 146.089 30.0682C146.389 30.0682 146.66 30.0265 146.902 29.9432C147.144 29.8561 147.355 29.7292 147.533 29.5625C147.711 29.3958 147.845 29.1894 147.936 28.9432L149.857 29.1591C149.735 29.6667 149.504 30.1098 149.163 30.4886C148.826 30.8636 148.394 31.1553 147.868 31.3636C147.341 31.5682 146.739 31.6705 146.061 31.6705ZM151.773 31.5V19.8636H153.83V24.2159H153.915C154.021 24.0038 154.17 23.7784 154.364 23.5398C154.557 23.2973 154.818 23.0909 155.148 22.9205C155.477 22.7462 155.898 22.6591 156.409 22.6591C157.083 22.6591 157.691 22.8314 158.233 23.1761C158.778 23.517 159.21 24.0227 159.528 24.6932C159.85 25.3598 160.011 26.178 160.011 27.1477C160.011 28.1061 159.854 28.9205 159.54 29.5909C159.225 30.2614 158.797 30.7727 158.256 31.125C157.714 31.4773 157.1 31.6534 156.415 31.6534C155.915 31.6534 155.5 31.5701 155.17 31.4034C154.841 31.2367 154.576 31.036 154.375 30.8011C154.178 30.5625 154.025 30.3371 153.915 30.125H153.795V31.5H151.773ZM153.79 27.1364C153.79 27.7008 153.869 28.1951 154.028 28.6193C154.191 29.0436 154.424 29.375 154.727 29.6136C155.034 29.8485 155.405 29.9659 155.841 29.9659C156.295 29.9659 156.676 29.8447 156.983 29.6023C157.29 29.3561 157.521 29.0208 157.676 28.5966C157.835 28.1686 157.915 27.6818 157.915 27.1364C157.915 26.5947 157.837 26.1136 157.682 25.6932C157.527 25.2727 157.295 24.9432 156.989 24.7045C156.682 24.4659 156.299 24.3466 155.841 24.3466C155.402 24.3466 155.028 24.4621 154.722 24.6932C154.415 24.9242 154.182 25.2481 154.023 25.6648C153.867 26.0814 153.79 26.572 153.79 27.1364ZM168.658 25.0795L166.783 25.2841C166.73 25.0947 166.637 24.9167 166.504 24.75C166.375 24.5833 166.201 24.4489 165.982 24.3466C165.762 24.2443 165.493 24.1932 165.175 24.1932C164.747 24.1932 164.387 24.286 164.095 24.4716C163.807 24.6572 163.665 24.8977 163.669 25.1932C163.665 25.447 163.758 25.6534 163.947 25.8125C164.141 25.9716 164.459 26.1023 164.902 26.2045L166.391 26.5227C167.216 26.7008 167.83 26.983 168.232 27.3693C168.637 27.7557 168.841 28.2614 168.845 28.8864C168.841 29.4356 168.68 29.9205 168.362 30.3409C168.048 30.7576 167.61 31.0833 167.05 31.3182C166.489 31.553 165.845 31.6705 165.118 31.6705C164.05 31.6705 163.19 31.447 162.538 31C161.887 30.5492 161.499 29.9223 161.374 29.1193L163.379 28.9261C163.47 29.3201 163.663 29.6174 163.959 29.8182C164.254 30.0189 164.639 30.1193 165.112 30.1193C165.601 30.1193 165.993 30.0189 166.288 29.8182C166.588 29.6174 166.737 29.3693 166.737 29.0739C166.737 28.8239 166.641 28.6174 166.447 28.4545C166.258 28.2917 165.963 28.1667 165.561 28.0795L164.072 27.767C163.235 27.5928 162.616 27.2992 162.214 26.8864C161.813 26.4697 161.614 25.9432 161.618 25.3068C161.614 24.7689 161.76 24.303 162.055 23.9091C162.355 23.5114 162.769 23.2045 163.3 22.9886C163.834 22.7689 164.449 22.6591 165.146 22.6591C166.169 22.6591 166.974 22.8769 167.561 23.3125C168.152 23.7481 168.518 24.3371 168.658 25.0795ZM170.541 31.5V22.7727H172.598V31.5H170.541ZM171.575 21.5341C171.25 21.5341 170.969 21.4261 170.734 21.2102C170.5 20.9905 170.382 20.7273 170.382 20.4205C170.382 20.1098 170.5 19.8466 170.734 19.6307C170.969 19.411 171.25 19.3011 171.575 19.3011C171.905 19.3011 172.185 19.411 172.416 19.6307C172.651 19.8466 172.768 20.1098 172.768 20.4205C172.768 20.7273 172.651 20.9905 172.416 21.2102C172.185 21.4261 171.905 21.5341 171.575 21.5341ZM179.071 22.7727V24.3636H174.054V22.7727H179.071ZM175.293 20.6818H177.349V28.875C177.349 29.1515 177.391 29.3636 177.474 29.5114C177.562 29.6553 177.675 29.7538 177.815 29.8068C177.955 29.8598 178.111 29.8864 178.281 29.8864C178.41 29.8864 178.527 29.8769 178.634 29.858C178.743 29.839 178.827 29.822 178.884 29.8068L179.23 31.4148C179.12 31.4527 178.963 31.4943 178.759 31.5398C178.558 31.5852 178.312 31.6117 178.02 31.6193C177.505 31.6345 177.041 31.5568 176.628 31.3864C176.215 31.2121 175.887 30.9432 175.645 30.5795C175.406 30.2159 175.289 29.7614 175.293 29.2159V20.6818ZM184.561 31.6705C183.686 31.6705 182.93 31.4886 182.294 31.125C181.661 30.7576 181.175 30.2386 180.834 29.5682C180.493 28.8939 180.322 28.1004 180.322 27.1875C180.322 26.2898 180.493 25.5019 180.834 24.8239C181.179 24.142 181.66 23.6117 182.277 23.233C182.894 22.8504 183.62 22.6591 184.453 22.6591C184.991 22.6591 185.499 22.7462 185.976 22.9205C186.457 23.0909 186.881 23.3561 187.249 23.7159C187.62 24.0758 187.911 24.5341 188.124 25.0909C188.336 25.6439 188.442 26.303 188.442 27.0682V27.6989H181.288V26.3125H186.47C186.466 25.9186 186.381 25.5682 186.214 25.2614C186.048 24.9508 185.815 24.7064 185.516 24.5284C185.22 24.3504 184.875 24.2614 184.482 24.2614C184.061 24.2614 183.692 24.3636 183.374 24.5682C183.055 24.7689 182.807 25.0341 182.629 25.3636C182.455 25.6894 182.366 26.0473 182.362 26.4375V27.6477C182.362 28.1553 182.455 28.5909 182.641 28.9545C182.826 29.3144 183.086 29.5909 183.419 29.7841C183.752 29.9735 184.143 30.0682 184.589 30.0682C184.889 30.0682 185.16 30.0265 185.402 29.9432C185.644 29.8561 185.855 29.7292 186.033 29.5625C186.211 29.3958 186.345 29.1894 186.436 28.9432L188.357 29.1591C188.235 29.6667 188.004 30.1098 187.663 30.4886C187.326 30.8636 186.894 31.1553 186.368 31.3636C185.841 31.5682 185.239 31.6705 184.561 31.6705ZM194.54 22.7727V24.3636H189.523V22.7727H194.54ZM190.761 20.6818H192.818V28.875C192.818 29.1515 192.86 29.3636 192.943 29.5114C193.03 29.6553 193.144 29.7538 193.284 29.8068C193.424 29.8598 193.58 29.8864 193.75 29.8864C193.879 29.8864 193.996 29.8769 194.102 29.858C194.212 29.839 194.295 29.822 194.352 29.8068L194.699 31.4148C194.589 31.4527 194.432 31.4943 194.227 31.5398C194.027 31.5852 193.78 31.6117 193.489 31.6193C192.973 31.6345 192.509 31.5568 192.097 31.3864C191.684 31.2121 191.356 30.9432 191.114 30.5795C190.875 30.2159 190.758 29.7614 190.761 29.2159V20.6818ZM199.973 31.6705C199.121 31.6705 198.382 31.483 197.757 31.108C197.132 30.733 196.647 30.2083 196.303 29.5341C195.962 28.8598 195.791 28.072 195.791 27.1705C195.791 26.2689 195.962 25.4792 196.303 24.8011C196.647 24.1231 197.132 23.5966 197.757 23.2216C198.382 22.8466 199.121 22.6591 199.973 22.6591C200.825 22.6591 201.564 22.8466 202.189 23.2216C202.814 23.5966 203.297 24.1231 203.638 24.8011C203.982 25.4792 204.155 26.2689 204.155 27.1705C204.155 28.072 203.982 28.8598 203.638 29.5341C203.297 30.2083 202.814 30.733 202.189 31.108C201.564 31.483 200.825 31.6705 199.973 31.6705ZM199.984 30.0227C200.446 30.0227 200.833 29.8958 201.143 29.642C201.454 29.3845 201.685 29.0398 201.837 28.608C201.992 28.1761 202.07 27.6951 202.07 27.1648C202.07 26.6307 201.992 26.1477 201.837 25.7159C201.685 25.2803 201.454 24.9337 201.143 24.6761C200.833 24.4186 200.446 24.2898 199.984 24.2898C199.511 24.2898 199.117 24.4186 198.803 24.6761C198.492 24.9337 198.259 25.2803 198.104 25.7159C197.952 26.1477 197.876 26.6307 197.876 27.1648C197.876 27.6951 197.952 28.1761 198.104 28.608C198.259 29.0398 198.492 29.3845 198.803 29.642C199.117 29.8958 199.511 30.0227 199.984 30.0227ZM207.168 31.625C206.823 31.625 206.527 31.5038 206.281 31.2614C206.035 31.0189 205.914 30.7235 205.918 30.375C205.914 30.0341 206.035 29.7424 206.281 29.5C206.527 29.2576 206.823 29.1364 207.168 29.1364C207.501 29.1364 207.791 29.2576 208.037 29.5C208.287 29.7424 208.414 30.0341 208.418 30.375C208.414 30.6061 208.353 30.8163 208.236 31.0057C208.122 31.1951 207.971 31.3466 207.781 31.4602C207.596 31.5701 207.391 31.625 207.168 31.625ZM217.439 25.0795L215.564 25.2841C215.511 25.0947 215.418 24.9167 215.286 24.75C215.157 24.5833 214.982 24.4489 214.763 24.3466C214.543 24.2443 214.274 24.1932 213.956 24.1932C213.528 24.1932 213.168 24.286 212.876 24.4716C212.589 24.6572 212.446 24.8977 212.45 25.1932C212.446 25.447 212.539 25.6534 212.729 25.8125C212.922 25.9716 213.24 26.1023 213.683 26.2045L215.172 26.5227C215.998 26.7008 216.611 26.983 217.013 27.3693C217.418 27.7557 217.623 28.2614 217.626 28.8864C217.623 29.4356 217.462 29.9205 217.143 30.3409C216.829 30.7576 216.392 31.0833 215.831 31.3182C215.27 31.553 214.626 31.6705 213.899 31.6705C212.831 31.6705 211.971 31.447 211.32 31C210.668 30.5492 210.28 29.9223 210.155 29.1193L212.161 28.9261C212.251 29.3201 212.445 29.6174 212.74 29.8182C213.036 30.0189 213.42 30.1193 213.893 30.1193C214.382 30.1193 214.774 30.0189 215.07 29.8182C215.369 29.6174 215.518 29.3693 215.518 29.0739C215.518 28.8239 215.422 28.6174 215.229 28.4545C215.039 28.2917 214.744 28.1667 214.342 28.0795L212.854 27.767C212.017 27.5928 211.397 27.2992 210.996 26.8864C210.594 26.4697 210.395 25.9432 210.399 25.3068C210.395 24.7689 210.541 24.303 210.837 23.9091C211.136 23.5114 211.551 23.2045 212.081 22.9886C212.615 22.7689 213.231 22.6591 213.928 22.6591C214.95 22.6591 215.755 22.8769 216.342 23.3125C216.933 23.7481 217.299 24.3371 217.439 25.0795ZM221.834 31.6761C221.281 31.6761 220.783 31.5777 220.339 31.3807C219.9 31.1799 219.552 30.8845 219.294 30.4943C219.04 30.1042 218.913 29.6231 218.913 29.0511C218.913 28.5587 219.004 28.1515 219.186 27.8295C219.368 27.5076 219.616 27.25 219.93 27.0568C220.245 26.8636 220.599 26.7178 220.993 26.6193C221.391 26.517 221.802 26.4432 222.226 26.3977C222.737 26.3447 223.152 26.2973 223.47 26.2557C223.788 26.2102 224.019 26.142 224.163 26.0511C224.311 25.9564 224.385 25.8106 224.385 25.6136V25.5795C224.385 25.1515 224.258 24.8201 224.004 24.5852C223.75 24.3504 223.385 24.233 222.908 24.233C222.404 24.233 222.004 24.3428 221.709 24.5625C221.417 24.7822 221.22 25.0417 221.118 25.3409L219.197 25.0682C219.349 24.5379 219.599 24.0947 219.947 23.7386C220.296 23.3788 220.722 23.1098 221.226 22.9318C221.73 22.75 222.286 22.6591 222.896 22.6591C223.317 22.6591 223.735 22.7083 224.152 22.8068C224.569 22.9053 224.949 23.0682 225.294 23.2955C225.639 23.5189 225.915 23.8239 226.124 24.2102C226.336 24.5966 226.442 25.0795 226.442 25.6591V31.5H224.464V30.3011H224.396C224.271 30.5436 224.095 30.7708 223.868 30.983C223.644 31.1913 223.362 31.3598 223.021 31.4886C222.684 31.6136 222.288 31.6761 221.834 31.6761ZM222.368 30.1648C222.781 30.1648 223.139 30.0833 223.442 29.9205C223.745 29.7538 223.978 29.5341 224.141 29.2614C224.307 28.9886 224.391 28.6913 224.391 28.3693V27.3409C224.326 27.3939 224.216 27.4432 224.061 27.4886C223.91 27.5341 223.739 27.5739 223.55 27.608C223.36 27.642 223.173 27.6723 222.987 27.6989C222.802 27.7254 222.641 27.7481 222.504 27.767C222.197 27.8087 221.923 27.8769 221.68 27.9716C221.438 28.0663 221.247 28.1989 221.107 28.3693C220.966 28.536 220.896 28.7519 220.896 29.017C220.896 29.3958 221.035 29.6818 221.311 29.875C221.588 30.0682 221.94 30.1648 222.368 30.1648ZM235.993 22.7727L232.885 31.5H230.612L227.504 22.7727H229.697L231.703 29.2557H231.794L233.805 22.7727H235.993ZM240.983 31.6705C240.108 31.6705 239.352 31.4886 238.716 31.125C238.083 30.7576 237.597 30.2386 237.256 29.5682C236.915 28.8939 236.744 28.1004 236.744 27.1875C236.744 26.2898 236.915 25.5019 237.256 24.8239C237.6 24.142 238.081 23.6117 238.699 23.233C239.316 22.8504 240.042 22.6591 240.875 22.6591C241.413 22.6591 241.92 22.7462 242.398 22.9205C242.879 23.0909 243.303 23.3561 243.67 23.7159C244.042 24.0758 244.333 24.5341 244.545 25.0909C244.758 25.6439 244.864 26.303 244.864 27.0682V27.6989H237.71V26.3125H242.892C242.888 25.9186 242.803 25.5682 242.636 25.2614C242.47 24.9508 242.237 24.7064 241.938 24.5284C241.642 24.3504 241.297 24.2614 240.903 24.2614C240.483 24.2614 240.114 24.3636 239.795 24.5682C239.477 24.7689 239.229 25.0341 239.051 25.3636C238.877 25.6894 238.788 26.0473 238.784 26.4375V27.6477C238.784 28.1553 238.877 28.5909 239.062 28.9545C239.248 29.3144 239.508 29.5909 239.841 29.7841C240.174 29.9735 240.564 30.0682 241.011 30.0682C241.311 30.0682 241.581 30.0265 241.824 29.9432C242.066 29.8561 242.277 29.7292 242.455 29.5625C242.633 29.3958 242.767 29.1894 242.858 28.9432L244.778 29.1591C244.657 29.6667 244.426 30.1098 244.085 30.4886C243.748 30.8636 243.316 31.1553 242.79 31.3636C242.263 31.5682 241.661 31.6705 240.983 31.6705Z" fill="#9CA3AF"/>
<g filter="url(#filter0_dd_1306_14942)">
<path d="M264 13C264 9.68629 266.686 7 270 7H386C389.314 7 392 9.68629 392 13V103H264V13Z" fill="#374151"/>
</g>
<path d="M264 13C264 9.68629 266.686 7 270 7H386C389.314 7 392 9.68629 392 13V31H264V13Z" fill="#4B5563"/>
<path fill-rule="evenodd" clip-rule="evenodd" d="M281.395 22.295C281.122 22.5683 280.678 22.5683 280.405 22.295L277.605 19.495C277.332 19.2216 277.332 18.7784 277.605 18.505L280.405 15.705C280.678 15.4317 281.122 15.4317 281.395 15.705C281.668 15.9784 281.668 16.4216 281.395 16.695L279.79 18.3H287.9C288.287 18.3 288.6 18.6134 288.6 19C288.6 19.3866 288.287 19.7 287.9 19.7H279.79L281.395 21.305C281.668 21.5784 281.668 22.0216 281.395 22.295Z" fill="#E5E7EB"/>
<path fill-rule="evenodd" clip-rule="evenodd" d="M333.6 18.9999C333.6 22.0927 331.093 24.5999 328 24.5999C324.907 24.5999 322.4 22.0927 322.4 18.9999C322.4 15.9071 324.907 13.3999 328 13.3999C331.093 13.3999 333.6 15.9071 333.6 18.9999ZM328.7 16.1999C328.7 16.5865 328.387 16.8999 328 16.8999C327.613 16.8999 327.3 16.5865 327.3 16.1999C327.3 15.8133 327.613 15.4999 328 15.4999C328.387 15.4999 328.7 15.8133 328.7 16.1999ZM327.3 18.2999C326.913 18.2999 326.6 18.6133 326.6 18.9999C326.6 19.3865 326.913 19.6999 327.3 19.6999V21.7999C327.3 22.1865 327.613 22.4999 328 22.4999H328.7C329.087 22.4999 329.4 22.1865 329.4 21.7999C329.4 21.4133 329.087 21.0999 328.7 21.0999V18.9999C328.7 18.6133 328.387 18.2999 328 18.2999H327.3Z" fill="#E5E7EB"/>
<path fill-rule="evenodd" clip-rule="evenodd" d="M368.8 13.3999C369.187 13.3999 369.5 13.7133 369.5 14.0999V15.5708C370.389 14.6633 371.628 14.0999 373 14.0999C375.135 14.0999 376.949 15.4644 377.621 17.3666C377.75 17.7311 377.559 18.1311 377.194 18.2599C376.83 18.3887 376.43 18.1977 376.301 17.8332C375.82 16.4728 374.523 15.4999 373 15.4999C371.856 15.4999 370.838 16.0494 370.2 16.8999H372.3C372.687 16.8999 373 17.2133 373 17.5999C373 17.9865 372.687 18.2999 372.3 18.2999H368.8C368.413 18.2999 368.1 17.9865 368.1 17.5999V14.0999C368.1 13.7133 368.413 13.3999 368.8 13.3999ZM368.806 19.7399C369.17 19.6111 369.57 19.8021 369.699 20.1667C370.18 21.527 371.477 22.4999 373 22.4999C374.144 22.4999 375.162 21.9504 375.8 21.0999H373.7C373.313 21.0999 373 20.7865 373 20.3999C373 20.0133 373.313 19.6999 373.7 19.6999H377.2C377.386 19.6999 377.564 19.7737 377.695 19.9049C377.826 20.0362 377.9 20.2143 377.9 20.3999V23.8999C377.9 24.2865 377.587 24.5999 377.2 24.5999C376.813 24.5999 376.5 24.2865 376.5 23.8999V22.429C375.611 23.3365 374.372 23.8999 373 23.8999C370.865 23.8999 369.051 22.5354 368.379 20.6331C368.25 20.2687 368.441 19.8687 368.806 19.7399Z" fill="#E5E7EB"/>
<path d="M304.672 61.4929C304.619 61.0223 304.4 60.6577 304.016 60.3991C303.631 60.1373 303.147 60.0064 302.564 60.0064C302.146 60.0064 301.785 60.0727 301.48 60.2053C301.175 60.3345 300.938 60.5135 300.769 60.7422C300.603 60.9676 300.521 61.2244 300.521 61.5128C300.521 61.7547 300.577 61.9635 300.69 62.1392C300.806 62.3149 300.956 62.4624 301.142 62.5817C301.331 62.6977 301.533 62.7955 301.749 62.875C301.964 62.9512 302.171 63.0142 302.37 63.0639L303.364 63.3224C303.689 63.402 304.022 63.5097 304.364 63.6456C304.705 63.7815 305.022 63.9605 305.313 64.1825C305.605 64.4046 305.84 64.6797 306.019 65.0078C306.201 65.3359 306.293 65.7287 306.293 66.1861C306.293 66.7628 306.143 67.2749 305.845 67.7223C305.55 68.1697 305.121 68.5227 304.558 68.7812C303.997 69.0398 303.32 69.169 302.524 69.169C301.762 69.169 301.102 69.0481 300.545 68.8061C299.989 68.5642 299.553 68.2211 299.238 67.777C298.923 67.3295 298.749 66.7992 298.716 66.1861H300.257C300.287 66.554 300.406 66.8606 300.615 67.1058C300.827 67.3478 301.097 67.5284 301.425 67.6477C301.757 67.7637 302.12 67.8217 302.514 67.8217C302.948 67.8217 303.335 67.7538 303.673 67.6179C304.014 67.4787 304.282 67.2865 304.478 67.0412C304.674 66.7926 304.771 66.5026 304.771 66.1712C304.771 65.8696 304.685 65.6226 304.513 65.4304C304.344 65.2382 304.113 65.0791 303.822 64.9531C303.533 64.8272 303.207 64.7161 302.842 64.62L301.639 64.2919C300.824 64.0698 300.178 63.7434 299.7 63.3125C299.226 62.8816 298.989 62.3116 298.989 61.6023C298.989 61.0156 299.148 60.5036 299.467 60.0661C299.785 59.6286 300.216 59.2888 300.759 59.0469C301.303 58.8016 301.916 58.679 302.599 58.679C303.288 58.679 303.896 58.8 304.423 59.0419C304.954 59.2839 305.371 59.617 305.676 60.0412C305.981 60.4621 306.14 60.946 306.153 61.4929H304.672ZM309.496 64.4659V69H308.009V58.8182H309.476V62.6065H309.57C309.749 62.1955 310.023 61.8691 310.39 61.6271C310.758 61.3852 311.239 61.2642 311.832 61.2642C312.356 61.2642 312.813 61.3719 313.204 61.5874C313.599 61.8028 313.904 62.1243 314.119 62.5518C314.338 62.9761 314.447 63.5064 314.447 64.1428V69H312.961V64.3217C312.961 63.7616 312.817 63.3274 312.528 63.0192C312.24 62.7076 311.839 62.5518 311.325 62.5518C310.974 62.5518 310.659 62.6264 310.381 62.7756C310.105 62.9247 309.888 63.1435 309.729 63.4318C309.573 63.7169 309.496 64.0616 309.496 64.4659ZM318.653 69.169C318.169 69.169 317.732 69.0795 317.341 68.9006C316.95 68.7183 316.64 68.4548 316.411 68.1101C316.186 67.7654 316.073 67.3428 316.073 66.8423C316.073 66.4115 316.156 66.0568 316.322 65.7784C316.487 65.5 316.711 65.2796 316.993 65.1172C317.274 64.9548 317.589 64.8321 317.937 64.7493C318.285 64.6664 318.64 64.6035 319.001 64.5604C319.459 64.5073 319.83 64.4643 320.115 64.4311C320.4 64.3946 320.607 64.3366 320.736 64.2571C320.866 64.1776 320.93 64.0483 320.93 63.8693V63.8345C320.93 63.4003 320.808 63.0639 320.562 62.8253C320.32 62.5866 319.959 62.4673 319.479 62.4673C318.978 62.4673 318.584 62.5784 318.295 62.8004C318.01 63.0192 317.813 63.2628 317.704 63.5312L316.307 63.2131C316.472 62.7491 316.714 62.3745 317.032 62.0895C317.354 61.8011 317.724 61.5923 318.141 61.4631C318.559 61.3305 318.998 61.2642 319.459 61.2642C319.764 61.2642 320.087 61.3007 320.428 61.3736C320.773 61.4432 321.094 61.5724 321.393 61.7614C321.694 61.9503 321.941 62.2204 322.133 62.5717C322.326 62.9197 322.422 63.3722 322.422 63.929V69H320.97V67.956H320.91C320.814 68.1482 320.67 68.3371 320.478 68.5227C320.286 68.7083 320.039 68.8625 319.737 68.9851C319.435 69.1077 319.074 69.169 318.653 69.169ZM318.976 67.9759C319.387 67.9759 319.739 67.8946 320.03 67.7322C320.325 67.5698 320.549 67.3577 320.702 67.0959C320.857 66.8307 320.935 66.5473 320.935 66.2457V65.2614C320.882 65.3144 320.779 65.3641 320.627 65.4105C320.478 65.4536 320.307 65.4917 320.115 65.5249C319.923 65.5547 319.735 65.5829 319.553 65.6094C319.371 65.6326 319.218 65.6525 319.096 65.669C318.807 65.7055 318.544 65.7668 318.305 65.853C318.07 65.9392 317.881 66.0634 317.738 66.2259C317.599 66.3849 317.53 66.5971 317.53 66.8622C317.53 67.2301 317.666 67.5085 317.937 67.6974C318.209 67.883 318.555 67.9759 318.976 67.9759ZM324.402 69V61.3636H325.838V62.5767H325.918C326.057 62.1657 326.302 61.8426 326.654 61.6072C327.008 61.3686 327.409 61.2493 327.857 61.2493C327.95 61.2493 328.059 61.2526 328.185 61.2592C328.314 61.2659 328.415 61.2741 328.488 61.2841V62.706C328.429 62.6894 328.323 62.6712 328.17 62.6513C328.018 62.6281 327.865 62.6165 327.713 62.6165C327.361 62.6165 327.048 62.6911 326.773 62.8402C326.501 62.986 326.286 63.1899 326.127 63.4517C325.968 63.7102 325.888 64.0052 325.888 64.3366V69H324.402ZM332.792 69.1541C332.04 69.1541 331.392 68.9934 330.849 68.6719C330.308 68.3471 329.891 67.8913 329.596 67.3047C329.304 66.7147 329.158 66.0237 329.158 65.2315C329.158 64.4493 329.304 63.7599 329.596 63.1634C329.891 62.5668 330.302 62.1011 330.829 61.7663C331.359 61.4316 331.979 61.2642 332.688 61.2642C333.119 61.2642 333.537 61.3355 333.941 61.478C334.345 61.6205 334.708 61.8442 335.03 62.1491C335.351 62.4541 335.605 62.8501 335.79 63.3374C335.976 63.8213 336.069 64.4096 336.069 65.1023V65.6293H329.998V64.5156H334.612C334.612 64.1245 334.532 63.7782 334.373 63.4766C334.214 63.1716 333.991 62.9313 333.702 62.7557C333.417 62.58 333.082 62.4922 332.698 62.4922C332.28 62.4922 331.916 62.5949 331.604 62.8004C331.296 63.0026 331.057 63.2678 330.888 63.5959C330.723 63.9207 330.64 64.2737 330.64 64.6548V65.5249C330.64 66.0353 330.729 66.4695 330.908 66.8274C331.09 67.1854 331.344 67.4588 331.669 67.6477C331.994 67.8333 332.373 67.9261 332.807 67.9261C333.089 67.9261 333.346 67.8864 333.578 67.8068C333.81 67.724 334.01 67.6013 334.18 67.4389C334.349 67.2765 334.478 67.076 334.567 66.8374L335.974 67.0909C335.862 67.5052 335.659 67.8681 335.368 68.1797C335.079 68.4879 334.716 68.7282 334.279 68.9006C333.845 69.0696 333.349 69.1541 332.792 69.1541ZM338.697 69.0945C338.426 69.0945 338.192 68.9983 337.996 68.8061C337.801 68.6106 337.703 68.3752 337.703 68.1001C337.703 67.8284 337.801 67.5964 337.996 67.4041C338.192 67.2086 338.426 67.1108 338.697 67.1108C338.969 67.1108 339.203 67.2086 339.398 67.4041C339.594 67.5964 339.692 67.8284 339.692 68.1001C339.692 68.2824 339.645 68.4498 339.553 68.6023C339.463 68.7514 339.344 68.8707 339.195 68.9602C339.045 69.0497 338.88 69.0945 338.697 69.0945ZM342.662 69.0945C342.391 69.0945 342.157 68.9983 341.961 68.8061C341.766 68.6106 341.668 68.3752 341.668 68.1001C341.668 67.8284 341.766 67.5964 341.961 67.4041C342.157 67.2086 342.391 67.1108 342.662 67.1108C342.934 67.1108 343.168 67.2086 343.363 67.4041C343.559 67.5964 343.657 67.8284 343.657 68.1001C343.657 68.2824 343.61 68.4498 343.517 68.6023C343.428 68.7514 343.309 68.8707 343.159 68.9602C343.01 69.0497 342.845 69.0945 342.662 69.0945ZM346.627 69.0945C346.355 69.0945 346.122 68.9983 345.926 68.8061C345.731 68.6106 345.633 68.3752 345.633 68.1001C345.633 67.8284 345.731 67.5964 345.926 67.4041C346.122 67.2086 346.355 67.1108 346.627 67.1108C346.899 67.1108 347.133 67.2086 347.328 67.4041C347.524 67.5964 347.621 67.8284 347.621 68.1001C347.621 68.2824 347.575 68.4498 347.482 68.6023C347.393 68.7514 347.273 68.8707 347.124 68.9602C346.975 69.0497 346.809 69.0945 346.627 69.0945Z" fill="white"/>
<path d="M288 62.4001C289.325 62.4001 290.4 61.3256 290.4 60.0001C290.4 58.6746 289.325 57.6001 288 57.6001C286.674 57.6001 285.6 58.6746 285.6 60.0001C285.6 60.1005 285.606 60.1994 285.618 60.2966L281.666 62.2726C281.234 61.8562 280.647 61.6001 280 61.6001C278.674 61.6001 277.6 62.6746 277.6 64.0001C277.6 65.3256 278.674 66.4001 280 66.4001C280.647 66.4001 281.234 66.1439 281.666 65.7275L285.618 67.7035C285.606 67.8007 285.6 67.8997 285.6 68.0001C285.6 69.3256 286.674 70.4001 288 70.4001C289.325 70.4001 290.4 69.3256 290.4 68.0001C290.4 66.6746 289.325 65.6001 288 65.6001C287.353 65.6001 286.766 65.8562 286.334 66.2726L282.382 64.2966C282.394 64.1995 282.4 64.1005 282.4 64.0001C282.4 63.8997 282.394 63.8007 282.382 63.7036L286.334 61.7276C286.765 62.144 287.353 62.4001 288 62.4001Z" fill="white"/>
<defs>
<filter id="filter0_dd_1306_14942" x="258" y="5" width="140" height="108" filterUnits="userSpaceOnUse" color-interpolation-filters="sRGB">
<feFlood flood-opacity="0" result="BackgroundImageFix"/>
<feColorMatrix in="SourceAlpha" type="matrix" values="0 0 0 0 0 0 0 0 0 0 0 0 0 0 0 0 0 0 127 0" result="hardAlpha"/>
<feOffset dy="4"/>
<feGaussianBlur stdDeviation="3"/>
<feColorMatrix type="matrix" values="0 0 0 0 0 0 0 0 0 0 0 0 0 0 0 0 0 0 0.1 0"/>
<feBlend mode="normal" in2="BackgroundImageFix" result="effect1_dropShadow_1306_14942"/>
<feColorMatrix in="SourceAlpha" type="matrix" values="0 0 0 0 0 0 0 0 0 0 0 0 0 0 0 0 0 0 127 0" result="hardAlpha"/>
<feOffset dy="2"/>
<feGaussianBlur stdDeviation="2"/>
<feColorMatrix type="matrix" values="0 0 0 0 0 0 0 0 0 0 0 0 0 0 0 0 0 0 0.06 0"/>
<feBlend mode="normal" in2="effect1_dropShadow_1306_14942" result="effect2_dropShadow_1306_14942"/>
<feBlend mode="normal" in="SourceGraphic" in2="effect2_dropShadow_1306_14942" result="shape"/>
</filter>
</defs>
</svg>
