<svg width="399" height="114" viewBox="0 0 399 114" fill="none" xmlns="http://www.w3.org/2000/svg">
<path d="M1 17C1 8.16344 8.16344 1 17 1H382C390.837 1 398 8.16344 398 17V113H1V17Z" fill="url(#paint0_linear)"/>
<path d="M1 113.028V51.8344M1 51.8344V17C1 8.16343 8.16345 1 17 1H382C390.837 1 398 8.16344 398 17V51.8344M1 51.8344H398M398 51.8344V113" stroke="#A0AEC0" stroke-width="2"/>
<circle cx="27" cy="27.5" r="8" fill="#FC8181"/>
<circle cx="49" cy="27.5" r="8" fill="#F6E05E"/>
<circle cx="71" cy="27.5" r="8" fill="#68D391"/>
<path d="M128.5 11H348.5C357.06 11 364 17.9396 364 26.5C364 35.0604 357.06 42 348.5 42H128.5C119.94 42 113 35.0604 113 26.5C113 17.9396 119.94 11 128.5 11Z" fill="white" stroke="#A0AEC0" stroke-width="2"/>
<path d="M130.858 31.5H133.006L134.642 25.6023H134.761L136.398 31.5H138.54L141.011 22.7727H138.909L137.398 28.875H137.312L135.744 22.7727H133.67L132.102 28.9091H132.023L130.489 22.7727H128.392L130.858 31.5ZM146.077 31.6705C148.111 31.6705 149.509 30.6761 149.872 29.1591L147.952 28.9432C147.673 29.6818 146.991 30.0682 146.105 30.0682C144.776 30.0682 143.895 29.1932 143.878 27.6989H149.957V27.0682C149.957 24.0057 148.116 22.6591 145.969 22.6591C143.469 22.6591 141.838 24.4943 141.838 27.1875C141.838 29.9261 143.446 31.6705 146.077 31.6705ZM143.884 26.3125C143.946 25.1989 144.77 24.2614 145.997 24.2614C147.179 24.2614 147.974 25.125 147.986 26.3125H143.884ZM151.788 31.5H153.811V30.125H153.93C154.254 30.7614 154.93 31.6534 156.43 31.6534C158.487 31.6534 160.027 30.0227 160.027 27.1477C160.027 24.2386 158.442 22.6591 156.425 22.6591C154.885 22.6591 154.243 23.5852 153.93 24.2159H153.845V19.8636H151.788V31.5ZM153.805 27.1364C153.805 25.4432 154.533 24.3466 155.857 24.3466C157.226 24.3466 157.93 25.5114 157.93 27.1364C157.93 28.7727 157.214 29.9659 155.857 29.9659C154.544 29.9659 153.805 28.8295 153.805 27.1364ZM168.673 25.0795C168.389 23.6023 167.207 22.6591 165.162 22.6591C163.06 22.6591 161.628 23.6932 161.634 25.3068C161.628 26.5795 162.412 27.4205 164.088 27.767L165.577 28.0795C166.378 28.2557 166.753 28.5795 166.753 29.0739C166.753 29.6705 166.105 30.1193 165.128 30.1193C164.185 30.1193 163.571 29.7102 163.395 28.9261L161.389 29.1193C161.645 30.7216 162.991 31.6705 165.134 31.6705C167.315 31.6705 168.855 30.5398 168.861 28.8864C168.855 27.642 168.054 26.8807 166.406 26.5227L164.918 26.2045C164.031 26.0057 163.679 25.6989 163.685 25.1932C163.679 24.6023 164.332 24.1932 165.19 24.1932C166.139 24.1932 166.639 24.7102 166.798 25.2841L168.673 25.0795ZM170.557 31.5H172.614V22.7727H170.557V31.5ZM171.591 21.5341C172.244 21.5341 172.778 21.0341 172.778 20.4205C172.778 19.8011 172.244 19.3011 171.591 19.3011C170.932 19.3011 170.398 19.8011 170.398 20.4205C170.398 21.0341 170.932 21.5341 171.591 21.5341ZM179.087 22.7727H177.365V20.6818H175.308V22.7727H174.07V24.3636H175.308V29.2159C175.297 30.858 176.49 31.6648 178.036 31.6193C178.621 31.6023 179.024 31.4886 179.246 31.4148L178.899 29.8068C178.786 29.8352 178.553 29.8864 178.297 29.8864C177.78 29.8864 177.365 29.7045 177.365 28.875V24.3636H179.087V22.7727ZM184.577 31.6705C186.611 31.6705 188.009 30.6761 188.372 29.1591L186.452 28.9432C186.173 29.6818 185.491 30.0682 184.605 30.0682C183.276 30.0682 182.395 29.1932 182.378 27.6989H188.457V27.0682C188.457 24.0057 186.616 22.6591 184.469 22.6591C181.969 22.6591 180.338 24.4943 180.338 27.1875C180.338 29.9261 181.946 31.6705 184.577 31.6705ZM182.384 26.3125C182.446 25.1989 183.27 24.2614 184.497 24.2614C185.679 24.2614 186.474 25.125 186.486 26.3125H182.384ZM194.555 22.7727H192.834V20.6818H190.777V22.7727H189.538V24.3636H190.777V29.2159C190.766 30.858 191.959 31.6648 193.504 31.6193C194.089 31.6023 194.493 31.4886 194.714 31.4148L194.368 29.8068C194.254 29.8352 194.021 29.8864 193.766 29.8864C193.249 29.8864 192.834 29.7045 192.834 28.875V24.3636H194.555V22.7727ZM199.989 31.6705C202.545 31.6705 204.17 29.8693 204.17 27.1705C204.17 24.4659 202.545 22.6591 199.989 22.6591C197.432 22.6591 195.807 24.4659 195.807 27.1705C195.807 29.8693 197.432 31.6705 199.989 31.6705ZM200 30.0227C198.585 30.0227 197.892 28.7614 197.892 27.1648C197.892 25.5682 198.585 24.2898 200 24.2898C201.392 24.2898 202.085 25.5682 202.085 27.1648C202.085 28.7614 201.392 30.0227 200 30.0227ZM207.183 31.625C207.854 31.625 208.428 31.0682 208.433 30.375C208.428 29.6932 207.854 29.1364 207.183 29.1364C206.49 29.1364 205.928 29.6932 205.933 30.375C205.928 31.0682 206.49 31.625 207.183 31.625ZM217.455 25.0795C217.17 23.6023 215.989 22.6591 213.943 22.6591C211.841 22.6591 210.409 23.6932 210.415 25.3068C210.409 26.5795 211.193 27.4205 212.869 27.767L214.358 28.0795C215.159 28.2557 215.534 28.5795 215.534 29.0739C215.534 29.6705 214.886 30.1193 213.909 30.1193C212.966 30.1193 212.352 29.7102 212.176 28.9261L210.17 29.1193C210.426 30.7216 211.773 31.6705 213.915 31.6705C216.097 31.6705 217.636 30.5398 217.642 28.8864C217.636 27.642 216.835 26.8807 215.188 26.5227L213.699 26.2045C212.812 26.0057 212.46 25.6989 212.466 25.1932C212.46 24.6023 213.114 24.1932 213.972 24.1932C214.92 24.1932 215.42 24.7102 215.58 25.2841L217.455 25.0795ZM221.849 31.6761C223.219 31.6761 224.037 31.0341 224.412 30.3011H224.48V31.5H226.457V25.6591C226.457 23.3523 224.577 22.6591 222.912 22.6591C221.077 22.6591 219.668 23.4773 219.213 25.0682L221.134 25.3409C221.338 24.7443 221.918 24.233 222.923 24.233C223.878 24.233 224.401 24.7216 224.401 25.5795V25.6136C224.401 26.2045 223.781 26.233 222.241 26.3977C220.548 26.5795 218.929 27.0852 218.929 29.0511C218.929 30.767 220.185 31.6761 221.849 31.6761ZM222.384 30.1648C221.526 30.1648 220.912 29.7727 220.912 29.017C220.912 28.2273 221.599 27.8977 222.52 27.767C223.06 27.6932 224.139 27.5568 224.406 27.3409V28.3693C224.406 29.3409 223.622 30.1648 222.384 30.1648ZM236.009 22.7727H233.821L231.81 29.2557H231.719L229.713 22.7727H227.52L230.628 31.5H232.901L236.009 22.7727ZM240.999 31.6705C243.033 31.6705 244.43 30.6761 244.794 29.1591L242.874 28.9432C242.595 29.6818 241.913 30.0682 241.027 30.0682C239.697 30.0682 238.817 29.1932 238.8 27.6989H244.879V27.0682C244.879 24.0057 243.038 22.6591 240.891 22.6591C238.391 22.6591 236.76 24.4943 236.76 27.1875C236.76 29.9261 238.368 31.6705 240.999 31.6705ZM238.805 26.3125C238.868 25.1989 239.692 24.2614 240.919 24.2614C242.101 24.2614 242.896 25.125 242.908 26.3125H238.805Z" fill="#718096"/>
<path d="M380 23C378.895 23 378 22.1046 378 21C378 19.8954 378.895 19 380 19C381.105 19 382 19.8954 382 21C382 22.1046 381.105 23 380 23Z" fill="#A0AEC0"/>
<path d="M380 29C378.895 29 378 28.1046 378 27C378 25.8954 378.895 25 380 25C381.105 25 382 25.8954 382 27C382 28.1046 381.105 29 380 29Z" fill="#A0AEC0"/>
<path d="M380 35C378.895 35 378 34.1046 378 33C378 31.8954 378.895 31 380 31C381.105 31 382 31.8954 382 33C382 34.1046 381.105 35 380 35Z" fill="#A0AEC0"/>
<g filter="url(#filter0_dd)">
<path d="M264 13C264 9.68629 266.686 7 270 7H386C389.314 7 392 9.68629 392 13V103H264V13Z" fill="white"/>
</g>
<path d="M264 13C264 9.68629 266.686 7 270 7H386C389.314 7 392 9.68629 392 13V31H264V13Z" fill="#EDF2F7"/>
<path fill-rule="evenodd" clip-rule="evenodd" d="M281.395 22.295C281.122 22.5683 280.678 22.5683 280.405 22.295L277.605 19.495C277.332 19.2216 277.332 18.7784 277.605 18.505L280.405 15.705C280.678 15.4317 281.122 15.4317 281.395 15.705C281.668 15.9784 281.668 16.4216 281.395 16.695L279.79 18.3H287.9C288.287 18.3 288.6 18.6134 288.6 19C288.6 19.3866 288.287 19.7 287.9 19.7H279.79L281.395 21.305C281.668 21.5784 281.668 22.0216 281.395 22.295Z" fill="#A0AEC0"/>
<path fill-rule="evenodd" clip-rule="evenodd" d="M333.6 19C333.6 22.0928 331.093 24.6 328 24.6C324.907 24.6 322.4 22.0928 322.4 19C322.4 15.9072 324.907 13.4 328 13.4C331.093 13.4 333.6 15.9072 333.6 19ZM328.7 16.2C328.7 16.5866 328.387 16.9 328 16.9C327.613 16.9 327.3 16.5866 327.3 16.2C327.3 15.8134 327.613 15.5 328 15.5C328.387 15.5 328.7 15.8134 328.7 16.2ZM327.3 18.3C326.913 18.3 326.6 18.6134 326.6 19C326.6 19.3866 326.913 19.7 327.3 19.7V21.8C327.3 22.1866 327.613 22.5 328 22.5H328.7C329.087 22.5 329.4 22.1866 329.4 21.8C329.4 21.4134 329.087 21.1 328.7 21.1V19C328.7 18.6134 328.387 18.3 328 18.3H327.3Z" fill="#A0AEC0"/>
<path fill-rule="evenodd" clip-rule="evenodd" d="M368.8 13.4C369.187 13.4 369.5 13.7134 369.5 14.1V15.5709C370.389 14.6634 371.628 14.1 373 14.1C375.135 14.1 376.949 15.4645 377.621 17.3667C377.75 17.7313 377.559 18.1312 377.194 18.26C376.83 18.3888 376.43 18.1978 376.301 17.8333C375.82 16.473 374.523 15.5 373 15.5C371.856 15.5 370.838 16.0495 370.2 16.9H372.3C372.687 16.9 373 17.2134 373 17.6C373 17.9866 372.687 18.3 372.3 18.3H368.8C368.413 18.3 368.1 17.9866 368.1 17.6V14.1C368.1 13.7134 368.413 13.4 368.8 13.4ZM368.806 19.7401C369.17 19.6112 369.57 19.8022 369.699 20.1668C370.18 21.5271 371.477 22.5 373 22.5C374.144 22.5 375.162 21.9505 375.8 21.1H373.7C373.313 21.1 373 20.7866 373 20.4C373 20.0134 373.313 19.7 373.7 19.7H377.2C377.386 19.7 377.564 19.7738 377.695 19.9051C377.826 20.0363 377.9 20.2144 377.9 20.4V23.9C377.9 24.2866 377.587 24.6 377.2 24.6C376.813 24.6 376.5 24.2866 376.5 23.9V22.4291C375.611 23.3366 374.372 23.9 373 23.9C370.865 23.9 369.051 22.5355 368.379 20.6333C368.25 20.2688 368.441 19.8689 368.806 19.7401Z" fill="#A0AEC0"/>
<path d="M301.801 61.3636H302.994C302.94 59.8274 301.523 58.679 299.554 58.679C297.605 58.679 296.074 59.8125 296.074 61.5227C296.074 62.8949 297.068 63.7102 298.659 64.1676L299.912 64.5256C300.986 64.8239 301.94 65.2017 301.94 66.2159C301.94 67.3295 300.866 68.0653 299.455 68.0653C298.241 68.0653 297.168 67.5284 297.068 66.375H295.795C295.915 68.0455 297.267 69.179 299.455 69.179C301.801 69.179 303.134 67.8864 303.134 66.2358C303.134 64.3267 301.324 63.7102 300.27 63.4318L299.236 63.1534C298.48 62.9545 297.267 62.5568 297.267 61.4631C297.267 60.4886 298.162 59.7727 299.514 59.7727C300.747 59.7727 301.682 60.3594 301.801 61.3636ZM306.175 64.4062C306.175 63.0739 307.025 62.3182 308.183 62.3182C309.287 62.3182 309.953 63.0142 309.953 64.2273V69H311.127V64.1477C311.127 62.1839 310.083 61.2642 308.521 61.2642C307.318 61.2642 306.632 61.7663 306.274 62.5568H306.175V58.8182H305.002V69H306.175V64.4062ZM315.52 69.179C316.853 69.179 317.549 68.4631 317.787 67.9659H317.847V69H319.02V63.9688C319.02 61.5426 317.171 61.2642 316.196 61.2642C315.043 61.2642 313.73 61.6619 313.134 63.054L314.248 63.4517C314.506 62.8949 315.118 62.2983 316.236 62.2983C317.315 62.2983 317.847 62.87 317.847 63.8494V63.8892C317.847 64.456 317.27 64.4062 315.878 64.5852C314.461 64.7692 312.915 65.0824 312.915 66.8324C312.915 68.3239 314.069 69.179 315.52 69.179ZM315.699 68.125C314.765 68.125 314.088 67.7074 314.088 66.892C314.088 65.9972 314.904 65.7188 315.819 65.5994C316.316 65.5398 317.648 65.4006 317.847 65.1619V66.2358C317.847 67.1903 317.091 68.125 315.699 68.125ZM321.162 69H322.335V64.1676C322.335 63.1335 323.15 62.3778 324.264 62.3778C324.577 62.3778 324.9 62.4375 324.98 62.4574V61.2642C324.846 61.2543 324.537 61.2443 324.363 61.2443C323.449 61.2443 322.653 61.7614 322.375 62.517H322.295V61.3636H321.162V69ZM329.34 69.1591C330.891 69.1591 332.025 68.3835 332.383 67.2301L331.249 66.9119C330.951 67.7074 330.26 68.1051 329.34 68.1051C327.963 68.1051 327.013 67.2152 326.959 65.5795H332.502V65.0824C332.502 62.2386 330.812 61.2642 329.221 61.2642C327.153 61.2642 325.78 62.8949 325.78 65.2415C325.78 67.5881 327.133 69.1591 329.34 69.1591ZM326.959 64.5653C327.038 63.3771 327.878 62.3182 329.221 62.3182C330.493 62.3182 331.309 63.2727 331.309 64.5653H326.959ZM335.142 69.0795C335.634 69.0795 336.037 68.6768 336.037 68.1847C336.037 67.6925 335.634 67.2898 335.142 67.2898C334.65 67.2898 334.247 67.6925 334.247 68.1847C334.247 68.6768 334.65 69.0795 335.142 69.0795ZM338.997 69.0795C339.49 69.0795 339.892 68.6768 339.892 68.1847C339.892 67.6925 339.49 67.2898 338.997 67.2898C338.505 67.2898 338.102 67.6925 338.102 68.1847C338.102 68.6768 338.505 69.0795 338.997 69.0795ZM342.853 69.0795C343.345 69.0795 343.748 68.6768 343.748 68.1847C343.748 67.6925 343.345 67.2898 342.853 67.2898C342.361 67.2898 341.958 67.6925 341.958 68.1847C341.958 68.6768 342.361 69.0795 342.853 69.0795Z" fill="#1A202C"/>
<path d="M288 62.4C289.325 62.4 290.4 61.3255 290.4 60C290.4 58.6745 289.325 57.6 288 57.6C286.674 57.6 285.6 58.6745 285.6 60C285.6 60.1004 285.606 60.1993 285.618 60.2965L281.666 62.2725C281.234 61.8561 280.647 61.6 280 61.6C278.674 61.6 277.6 62.6745 277.6 64C277.6 65.3255 278.674 66.4 280 66.4C280.647 66.4 281.234 66.1438 281.666 65.7274L285.618 67.7034C285.606 67.8006 285.6 67.8996 285.6 68C285.6 69.3255 286.674 70.4 288 70.4C289.325 70.4 290.4 69.3255 290.4 68C290.4 66.6745 289.325 65.6 288 65.6C287.353 65.6 286.766 65.8561 286.334 66.2725L282.382 64.2965C282.394 64.1993 282.4 64.1004 282.4 64C282.4 63.8996 282.394 63.8006 282.382 63.7034L286.334 61.7274C286.765 62.1438 287.353 62.4 288 62.4Z" fill="#2D3748"/>
<defs>
<filter id="filter0_dd" x="258" y="5" width="140" height="108" filterUnits="userSpaceOnUse" color-interpolation-filters="sRGB">
<feFlood flood-opacity="0" result="BackgroundImageFix"/>
<feColorMatrix in="SourceAlpha" type="matrix" values="0 0 0 0 0 0 0 0 0 0 0 0 0 0 0 0 0 0 127 0"/>
<feOffset dy="4"/>
<feGaussianBlur stdDeviation="3"/>
<feColorMatrix type="matrix" values="0 0 0 0 0 0 0 0 0 0 0 0 0 0 0 0 0 0 0.1 0"/>
<feBlend mode="normal" in2="BackgroundImageFix" result="effect1_dropShadow"/>
<feColorMatrix in="SourceAlpha" type="matrix" values="0 0 0 0 0 0 0 0 0 0 0 0 0 0 0 0 0 0 127 0"/>
<feOffset dy="2"/>
<feGaussianBlur stdDeviation="2"/>
<feColorMatrix type="matrix" values="0 0 0 0 0 0 0 0 0 0 0 0 0 0 0 0 0 0 0.06 0"/>
<feBlend mode="normal" in2="effect1_dropShadow" result="effect2_dropShadow"/>
<feBlend mode="normal" in="SourceGraphic" in2="effect2_dropShadow" result="shape"/>
</filter>
<linearGradient id="paint0_linear" x1="199.5" y1="1" x2="199.5" y2="113" gradientUnits="userSpaceOnUse">
<stop offset="0.697917" stop-color="white"/>
<stop offset="1" stop-color="#F7FAFC"/>
</linearGradient>
</defs>
</svg>
