<svg width="38" height="40" viewBox="0 0 38 40" fill="none" xmlns="http://www.w3.org/2000/svg">
<path d="M36.4127 13.0916C35.5909 11.1142 33.9239 8.97918 32.6185 8.30428C33.5496 10.1075 34.1957 12.0441 34.5339 14.0451L34.5373 14.0768C32.3989 8.74543 28.7726 6.59579 25.8109 1.91488C25.6611 1.6782 25.5112 1.44103 25.3653 1.19068C25.2819 1.0477 25.215 0.918865 25.157 0.800281C25.0341 0.562406 24.9395 0.311013 24.8749 0.0511984C24.875 0.0392093 24.8707 0.0276078 24.8627 0.0186072C24.8548 0.00960657 24.8439 0.0038367 24.8319 0.00239828C24.8203 -0.000799428 24.808 -0.000799428 24.7963 0.00239828C24.7939 0.00239828 24.79 0.0067903 24.7871 0.0077663C24.7841 0.0087423 24.7778 0.0131343 24.7734 0.0150863L24.7807 0.00239828C20.03 2.78401 18.4181 7.9334 18.2698 10.5091C16.3726 10.6395 14.5587 11.3386 13.0648 12.5152C12.9089 12.3832 12.746 12.2597 12.5768 12.1453C12.1458 10.6369 12.1274 9.04046 12.5236 7.5225C10.7789 8.36768 9.22873 9.56578 7.97101 11.041H7.96223C7.21266 10.0909 7.26536 6.95788 7.30831 6.30347C7.08656 6.39259 6.87488 6.50497 6.67683 6.63873C6.01513 7.111 5.39653 7.64092 4.82829 8.22229C4.18076 8.87881 3.58935 9.58841 3.06026 10.3436V10.3466V10.3431C1.84428 12.067 0.981809 14.0147 0.52265 16.0737L0.497273 16.1987C0.461649 16.3651 0.333305 17.1986 0.311345 17.3796C0.311345 17.3938 0.308417 17.407 0.306953 17.4211C0.141393 18.2816 0.0388028 19.1531 0 20.0285V20.1261C0.0041466 24.8618 1.78463 29.4237 4.98958 32.9101C8.19452 36.3966 12.5907 38.5539 17.3093 38.9558C22.028 39.3576 26.7257 37.9748 30.4741 35.0806C34.2224 32.1863 36.7487 27.9913 37.5537 23.3245C37.5854 23.0805 37.6112 22.8389 37.6395 22.5925C38.0291 19.3728 37.6074 16.1067 36.4127 13.0916V13.0916ZM14.6137 27.8966C14.702 27.939 14.785 27.9849 14.8757 28.0254L14.8889 28.0337C14.7972 27.9898 14.7054 27.9441 14.6137 27.8966V27.8966ZM34.5388 14.0812V14.0632L34.5422 14.0832L34.5388 14.0812Z" fill="url(#paint0_linear)"/>
<path d="M36.4127 13.0916C35.5909 11.1142 33.9239 8.97917 32.6185 8.30426C33.5496 10.1075 34.1957 12.0441 34.5339 14.0451V14.0632L34.5373 14.0832C35.9951 18.2548 35.7843 22.8285 33.9488 26.8483C31.7811 31.4995 26.5341 36.2667 18.321 36.0349C9.44673 35.7836 1.63139 29.1985 0.170312 20.5736C-0.0956483 19.2135 0.170313 18.524 0.304025 17.4187C0.121623 18.2772 0.0198394 19.151 0 20.0285V20.1261C0.0041466 24.8618 1.78463 29.4237 4.98958 32.9101C8.19452 36.3965 12.5907 38.5539 17.3093 38.9558C22.028 39.3576 26.7257 37.9748 30.4741 35.0806C34.2224 32.1863 36.7487 27.9913 37.5537 23.3245C37.5854 23.0805 37.6112 22.8389 37.6395 22.5925C38.0291 19.3727 37.6074 16.1067 36.4127 13.0916V13.0916Z" fill="url(#paint1_radial)"/>
<path d="M36.4127 13.0916C35.5909 11.1142 33.9239 8.97917 32.6185 8.30426C33.5496 10.1075 34.1957 12.0441 34.5339 14.0451V14.0632L34.5373 14.0832C35.9951 18.2548 35.7843 22.8285 33.9488 26.8483C31.7811 31.4995 26.5341 36.2667 18.321 36.0349C9.44673 35.7836 1.63139 29.1985 0.170312 20.5736C-0.0956483 19.2135 0.170313 18.524 0.304025 17.4187C0.121623 18.2772 0.0198394 19.151 0 20.0285V20.1261C0.0041466 24.8618 1.78463 29.4237 4.98958 32.9101C8.19452 36.3965 12.5907 38.5539 17.3093 38.9558C22.028 39.3576 26.7257 37.9748 30.4741 35.0806C34.2224 32.1863 36.7487 27.9913 37.5537 23.3245C37.5854 23.0805 37.6112 22.8389 37.6395 22.5925C38.0291 19.3727 37.6074 16.1067 36.4127 13.0916V13.0916Z" fill="url(#paint2_radial)"/>
<path d="M27.2217 15.3149C27.2627 15.3437 27.3007 15.3725 27.3393 15.4013C26.8642 14.5589 26.2728 13.7876 25.5825 13.1102C19.704 7.23072 24.0419 0.362098 24.7734 0.0131774L24.7807 0.00244141C20.03 2.78405 18.4181 7.93344 18.2698 10.5091C18.4904 10.494 18.709 10.4754 18.9344 10.4754C20.6201 10.4785 22.2748 10.9279 23.7305 11.778C25.1861 12.628 26.3907 13.8484 27.2217 15.3149V15.3149Z" fill="url(#paint3_radial)"/>
<path d="M18.9466 16.489C18.9154 16.9595 17.2533 18.5821 16.6721 18.5821C11.2938 18.5821 10.4208 21.8356 10.4208 21.8356C10.6589 24.5752 12.568 26.8317 14.8757 28.0254C14.9812 28.0801 15.088 28.1293 15.1949 28.1777C15.38 28.2596 15.5651 28.3354 15.7502 28.4051C16.5423 28.6854 17.3718 28.8454 18.2112 28.8799C27.638 29.322 29.4641 17.6071 22.6613 14.2076C24.2661 13.9988 25.8913 14.3934 27.2217 15.3149C26.3907 13.8483 25.1861 12.628 23.7305 11.7779C22.2749 10.9279 20.6201 10.4785 18.9344 10.4754C18.71 10.4754 18.4904 10.4939 18.2698 10.5091C16.3726 10.6395 14.5587 11.3386 13.0648 12.5152C13.3532 12.7592 13.6787 13.0852 14.3643 13.7611C15.6478 15.0255 18.9393 16.3353 18.9466 16.489V16.489Z" fill="url(#paint4_radial)"/>
<path d="M18.9466 16.489C18.9154 16.9595 17.2533 18.5821 16.6721 18.5821C11.2938 18.5821 10.4208 21.8356 10.4208 21.8356C10.6589 24.5752 12.568 26.8317 14.8757 28.0254C14.9812 28.0801 15.088 28.1293 15.1949 28.1777C15.38 28.2596 15.5651 28.3354 15.7502 28.4051C16.5423 28.6854 17.3718 28.8454 18.2112 28.8799C27.638 29.322 29.4641 17.6071 22.6613 14.2076C24.2661 13.9988 25.8913 14.3934 27.2217 15.3149C26.3907 13.8483 25.1861 12.628 23.7305 11.7779C22.2749 10.9279 20.6201 10.4785 18.9344 10.4754C18.71 10.4754 18.4904 10.4939 18.2698 10.5091C16.3726 10.6395 14.5587 11.3386 13.0648 12.5152C13.3532 12.7592 13.6787 13.0852 14.3643 13.7611C15.6478 15.0255 18.9393 16.3353 18.9466 16.489V16.489Z" fill="url(#paint5_radial)"/>
<path d="M12.1829 11.8862C12.3361 11.9838 12.4625 12.0687 12.5733 12.1453C12.1423 10.6369 12.124 9.04045 12.5201 7.52249C10.7755 8.36767 9.22524 9.56577 7.96753 11.041C8.05976 11.0385 10.8033 10.9893 12.1829 11.8862V11.8862Z" fill="url(#paint6_radial)"/>
<path d="M0.172685 20.5736C1.6323 29.1986 9.4491 35.7837 18.3234 36.035C26.5365 36.2673 31.7835 31.4995 33.9512 26.8484C35.7866 22.8285 35.9975 18.2549 34.5397 14.0832V14.0652C34.5397 14.051 34.5368 14.0427 34.5397 14.0471L34.5431 14.0788C35.2141 18.4596 32.9859 22.7038 29.5025 25.5737L29.4918 25.5981C22.7047 31.1257 16.2094 28.9331 14.8947 28.0381C14.803 27.9942 14.7112 27.9485 14.6195 27.901C10.6623 26.0095 9.02747 22.4041 9.37785 19.3122C8.4385 19.326 7.51529 19.0672 6.72008 18.567C5.92486 18.0668 5.29177 17.3467 4.89751 16.4939C5.93628 15.8576 7.12071 15.4978 8.33793 15.4489C9.55515 15.4001 10.7646 15.6637 11.851 16.2148C14.0909 17.2316 16.6397 17.3318 18.9524 16.4939C18.9451 16.3402 15.6536 15.0299 14.3701 13.766C13.6845 13.0901 13.359 12.7646 13.0706 12.5201C12.9147 12.3881 12.7518 12.2646 12.5826 12.1502C12.4703 12.0736 12.3439 11.9907 12.1922 11.8911C10.8126 10.9942 8.06904 11.0435 7.97827 11.0459H7.96948C7.21991 10.0958 7.27262 6.96279 7.31556 6.30838C7.09381 6.3975 6.88214 6.50988 6.68409 6.64364C6.02238 7.11591 5.40378 7.64583 4.83554 8.2272C4.18569 8.88187 3.59183 9.58984 3.06019 10.3437V10.3466V10.3432C1.84421 12.0671 0.981742 14.0148 0.522582 16.0738C0.51331 16.1123 -0.158668 19.0501 0.172685 20.5736V20.5736Z" fill="url(#paint7_radial)"/>
<path d="M25.5835 13.1101C26.2739 13.7883 26.8654 14.5604 27.3403 15.4037C27.4442 15.4823 27.5413 15.5604 27.6238 15.636C31.9119 19.5888 29.6651 25.1764 29.4977 25.5742C32.9811 22.7042 35.2073 18.4601 34.5383 14.0793C32.3989 8.74543 28.7725 6.59579 25.8109 1.91488C25.661 1.6782 25.5112 1.44103 25.3653 1.19068C25.2819 1.0477 25.215 0.918865 25.1569 0.800281C25.0341 0.562406 24.9394 0.311013 24.8749 0.0511984C24.875 0.0392093 24.8706 0.0276078 24.8627 0.0186072C24.8548 0.00960657 24.8438 0.0038367 24.8319 0.00239828C24.8203 -0.000799428 24.808 -0.000799428 24.7963 0.00239828C24.7939 0.00239828 24.79 0.0067903 24.787 0.0077663C24.7841 0.0087423 24.7778 0.0131343 24.7734 0.0150863C24.0419 0.362055 19.704 7.23068 25.5835 13.1101V13.1101Z" fill="url(#paint8_radial)"/>
<path d="M27.6209 15.6336C27.5384 15.5579 27.4413 15.4798 27.3373 15.4013C27.2988 15.3725 27.2607 15.3437 27.2197 15.3149C25.8894 14.3934 24.2642 13.9988 22.6594 14.2076C29.4621 17.609 27.637 29.322 18.2093 28.8799C17.3698 28.8454 16.5403 28.6853 15.7483 28.405C15.5632 28.3357 15.378 28.2599 15.1929 28.1776C15.0861 28.1288 14.9792 28.08 14.8738 28.0254L14.887 28.0337C16.2016 28.9311 22.695 31.1237 29.4841 25.5937L29.4948 25.5693C29.6641 25.174 31.9109 19.5849 27.6209 15.6336V15.6336Z" fill="url(#paint9_radial)"/>
<path d="M10.4208 21.8356C10.4208 21.8356 11.2938 18.5821 16.6721 18.5821C17.2533 18.5821 18.9169 16.9595 18.9467 16.489C16.6339 17.3269 14.0851 17.2267 11.8453 16.2099C10.7588 15.6588 9.54936 15.3952 8.33214 15.444C7.11492 15.4929 5.93049 15.8527 4.89172 16.489C5.28598 17.3418 5.91907 18.0619 6.71428 18.5621C7.5095 19.0623 8.43271 19.3211 9.37206 19.3073C9.02168 22.3997 10.6565 26.0051 14.6137 27.8961C14.702 27.9385 14.785 27.9844 14.8757 28.0249C12.566 26.8317 10.6589 24.5752 10.4208 21.8356Z" fill="url(#paint10_radial)"/>
<path d="M36.4127 13.0916C35.5909 11.1142 33.9239 8.97918 32.6185 8.30428C33.5496 10.1075 34.1957 12.0441 34.5339 14.0451L34.5373 14.0768C32.3989 8.74543 28.7726 6.59579 25.8109 1.91488C25.6611 1.6782 25.5112 1.44103 25.3653 1.19068C25.2819 1.0477 25.215 0.918865 25.157 0.800281C25.0341 0.562406 24.9395 0.311013 24.8749 0.0511984C24.875 0.0392093 24.8707 0.0276078 24.8627 0.0186072C24.8548 0.00960657 24.8439 0.0038367 24.8319 0.00239828C24.8203 -0.000799428 24.808 -0.000799428 24.7963 0.00239828C24.7939 0.00239828 24.79 0.0067903 24.7871 0.0077663C24.7841 0.0087423 24.7778 0.0131343 24.7734 0.0150863L24.7807 0.00239828C20.03 2.78401 18.4181 7.9334 18.2698 10.5091C18.4904 10.4939 18.709 10.4754 18.9345 10.4754C20.6201 10.4785 22.2749 10.9279 23.7305 11.7779C25.1861 12.628 26.3907 13.8483 27.2217 15.3149C25.8913 14.3934 24.2661 13.9988 22.6613 14.2076C29.4641 17.609 27.6389 29.322 18.2112 28.8799C17.3718 28.8454 16.5423 28.6854 15.7502 28.4051C15.5651 28.3358 15.38 28.26 15.1949 28.1776C15.088 28.1288 14.9812 28.08 14.8757 28.0254L14.8889 28.0337C14.7972 27.9898 14.7054 27.9441 14.6137 27.8966C14.702 27.939 14.785 27.9849 14.8757 28.0254C12.566 26.8317 10.6589 24.5752 10.4208 21.8356C10.4208 21.8356 11.2938 18.5821 16.6721 18.5821C17.2533 18.5821 18.9169 16.9595 18.9467 16.489C18.9393 16.3353 15.6478 15.025 14.3643 13.7611C13.6787 13.0852 13.3532 12.7597 13.0648 12.5152C12.9089 12.3832 12.746 12.2597 12.5768 12.1453C12.1458 10.6369 12.1274 9.04046 12.5236 7.5225C10.7789 8.36768 9.22873 9.56578 7.97101 11.041H7.96223C7.21266 10.0909 7.26536 6.95788 7.30831 6.30347C7.08656 6.39259 6.87488 6.50497 6.67683 6.63873C6.01513 7.111 5.39653 7.64092 4.82829 8.22229C4.18076 8.87881 3.58935 9.58841 3.06026 10.3436V10.3466V10.3431C1.84428 12.067 0.981809 14.0147 0.52265 16.0737L0.497273 16.1987C0.461649 16.3651 0.302073 17.2103 0.279137 17.3918C0.279137 17.4055 0.279137 17.3777 0.279137 17.3918C0.133181 18.2643 0.0399659 19.1448 0 20.0285V20.1261C0.0041466 24.8618 1.78463 29.4237 4.98958 32.9101C8.19452 36.3966 12.5907 38.5539 17.3093 38.9558C22.028 39.3576 26.7257 37.9748 30.4741 35.0806C34.2224 32.1863 36.7487 27.9913 37.5537 23.3245C37.5854 23.0805 37.6112 22.8389 37.6395 22.5925C38.0291 19.3728 37.6074 16.1067 36.4127 13.0916V13.0916ZM34.5363 14.0632L34.5398 14.0832L34.5363 14.0632Z" fill="url(#paint11_linear)"/>
<defs>
<linearGradient id="paint0_linear" x1="33.9093" y1="6.04581" x2="2.51174" y2="36.3385" gradientUnits="userSpaceOnUse">
<stop offset="0.048" stop-color="#FFF44F"/>
<stop offset="0.111" stop-color="#FFE847"/>
<stop offset="0.225" stop-color="#FFC830"/>
<stop offset="0.368" stop-color="#FF980E"/>
<stop offset="0.401" stop-color="#FF8B16"/>
<stop offset="0.462" stop-color="#FF672A"/>
<stop offset="0.534" stop-color="#FF3647"/>
<stop offset="0.705" stop-color="#E31587"/>
</linearGradient>
<radialGradient id="paint1_radial" cx="0" cy="0" r="1" gradientUnits="userSpaceOnUse" gradientTransform="translate(32.4584 4.3309) scale(39.429)">
<stop offset="0.129" stop-color="#FFBD4F"/>
<stop offset="0.186" stop-color="#FFAC31"/>
<stop offset="0.247" stop-color="#FF9D17"/>
<stop offset="0.283" stop-color="#FF980E"/>
<stop offset="0.403" stop-color="#FF563B"/>
<stop offset="0.467" stop-color="#FF3750"/>
<stop offset="0.71" stop-color="#F5156C"/>
<stop offset="0.782" stop-color="#EB0878"/>
<stop offset="0.86" stop-color="#E50080"/>
</radialGradient>
<radialGradient id="paint2_radial" cx="0" cy="0" r="1" gradientUnits="userSpaceOnUse" gradientTransform="translate(18.0507 20.4507) scale(39.429)">
<stop offset="0.3" stop-color="#960E18"/>
<stop offset="0.351" stop-color="#B11927" stop-opacity="0.74"/>
<stop offset="0.435" stop-color="#DB293D" stop-opacity="0.343"/>
<stop offset="0.497" stop-color="#F5334B" stop-opacity="0.094"/>
<stop offset="0.53" stop-color="#FF3750" stop-opacity="0"/>
</radialGradient>
<radialGradient id="paint3_radial" cx="0" cy="0" r="1" gradientUnits="userSpaceOnUse" gradientTransform="translate(22.8042 -4.61699) scale(28.5647)">
<stop offset="0.132" stop-color="#FFF44F"/>
<stop offset="0.252" stop-color="#FFDC3E"/>
<stop offset="0.506" stop-color="#FF9D12"/>
<stop offset="0.526" stop-color="#FF980E"/>
</radialGradient>
<radialGradient id="paint4_radial" cx="0" cy="0" r="1" gradientUnits="userSpaceOnUse" gradientTransform="translate(13.6895 30.7497) scale(18.7739)">
<stop offset="0.353" stop-color="#3A8EE6"/>
<stop offset="0.472" stop-color="#5C79F0"/>
<stop offset="0.669" stop-color="#9059FF"/>
<stop offset="1" stop-color="#C139E6"/>
</radialGradient>
<radialGradient id="paint5_radial" cx="0" cy="0" r="1" gradientUnits="userSpaceOnUse" gradientTransform="translate(20.2053 17.2193) rotate(-13.5916) scale(9.95381 11.6534)">
<stop offset="0.206" stop-color="#9059FF" stop-opacity="0"/>
<stop offset="0.278" stop-color="#8C4FF3" stop-opacity="0.064"/>
<stop offset="0.747" stop-color="#7716A8" stop-opacity="0.45"/>
<stop offset="0.975" stop-color="#6E008B" stop-opacity="0.6"/>
</radialGradient>
<radialGradient id="paint6_radial" cx="0" cy="0" r="1" gradientUnits="userSpaceOnUse" gradientTransform="translate(17.5529 2.71772) scale(13.5059)">
<stop stop-color="#FFE226"/>
<stop offset="0.121" stop-color="#FFDB27"/>
<stop offset="0.295" stop-color="#FFC82A"/>
<stop offset="0.502" stop-color="#FFA930"/>
<stop offset="0.732" stop-color="#FF7E37"/>
<stop offset="0.792" stop-color="#FF7139"/>
</radialGradient>
<radialGradient id="paint7_radial" cx="0" cy="0" r="1" gradientUnits="userSpaceOnUse" gradientTransform="translate(28.1688 -5.84891) scale(57.6237)">
<stop offset="0.113" stop-color="#FFF44F"/>
<stop offset="0.456" stop-color="#FF980E"/>
<stop offset="0.622" stop-color="#FF5634"/>
<stop offset="0.716" stop-color="#FF3647"/>
<stop offset="0.904" stop-color="#E31587"/>
</radialGradient>
<radialGradient id="paint8_radial" cx="0" cy="0" r="1" gradientUnits="userSpaceOnUse" gradientTransform="translate(23.3122 -2.64476) rotate(83.976) scale(42.2338 27.7177)">
<stop stop-color="#FFF44F"/>
<stop offset="0.06" stop-color="#FFE847"/>
<stop offset="0.168" stop-color="#FFC830"/>
<stop offset="0.304" stop-color="#FF980E"/>
<stop offset="0.356" stop-color="#FF8B16"/>
<stop offset="0.455" stop-color="#FF672A"/>
<stop offset="0.57" stop-color="#FF3647"/>
<stop offset="0.737" stop-color="#E31587"/>
</radialGradient>
<radialGradient id="paint9_radial" cx="0" cy="0" r="1" gradientUnits="userSpaceOnUse" gradientTransform="translate(17.2348 7.72021) scale(35.9755)">
<stop offset="0.137" stop-color="#FFF44F"/>
<stop offset="0.48" stop-color="#FF980E"/>
<stop offset="0.592" stop-color="#FF5634"/>
<stop offset="0.655" stop-color="#FF3647"/>
<stop offset="0.904" stop-color="#E31587"/>
</radialGradient>
<radialGradient id="paint10_radial" cx="0" cy="0" r="1" gradientUnits="userSpaceOnUse" gradientTransform="translate(26.7313 9.82572) scale(39.3749)">
<stop offset="0.094" stop-color="#FFF44F"/>
<stop offset="0.231" stop-color="#FFE141"/>
<stop offset="0.509" stop-color="#FFAF1E"/>
<stop offset="0.626" stop-color="#FF980E"/>
</radialGradient>
<linearGradient id="paint11_linear" x1="33.532" y1="5.88379" x2="6.81591" y2="32.5994" gradientUnits="userSpaceOnUse">
<stop offset="0.167" stop-color="#FFF44F" stop-opacity="0.8"/>
<stop offset="0.266" stop-color="#FFF44F" stop-opacity="0.634"/>
<stop offset="0.489" stop-color="#FFF44F" stop-opacity="0.217"/>
<stop offset="0.6" stop-color="#FFF44F" stop-opacity="0"/>
</linearGradient>
</defs>
</svg>
