<svg width="399" height="117" viewBox="0 0 399 117" fill="none" xmlns="http://www.w3.org/2000/svg">
<path d="M1 17C1 8.16344 8.16345 1 17 1H382C390.837 1 398 8.16344 398 17V113H1V17Z" fill="url(#paint0_linear)"/>
<path d="M1 113.028V51.8344M1 51.8344V17C1 8.16343 8.16345 1 17 1H382C390.837 1 398 8.16344 398 17V51.8344M1 51.8344H398M398 51.8344V113" stroke="#A0AEC0" stroke-width="2"/>
<circle cx="27" cy="27.5" r="8" fill="#FC8181"/>
<circle cx="49" cy="27.5" r="8" fill="#F6E05E"/>
<circle cx="71" cy="27.5" r="8" fill="#68D391"/>
<path d="M128.5 11H333.5C342.06 11 349 17.9396 349 26.5C349 35.0604 342.06 42 333.5 42H128.5C119.94 42 113 35.0604 113 26.5C113 17.9396 119.94 11 128.5 11Z" fill="white" stroke="#A0AEC0" stroke-width="2"/>
<path d="M130.858 31.5H133.006L134.642 25.6023H134.761L136.398 31.5H138.54L141.011 22.7727H138.909L137.398 28.875H137.312L135.744 22.7727H133.67L132.102 28.9091H132.023L130.489 22.7727H128.392L130.858 31.5ZM146.077 31.6705C148.111 31.6705 149.509 30.6761 149.872 29.1591L147.952 28.9432C147.673 29.6818 146.991 30.0682 146.105 30.0682C144.776 30.0682 143.895 29.1932 143.878 27.6989H149.957V27.0682C149.957 24.0057 148.116 22.6591 145.969 22.6591C143.469 22.6591 141.838 24.4943 141.838 27.1875C141.838 29.9261 143.446 31.6705 146.077 31.6705ZM143.884 26.3125C143.946 25.1989 144.77 24.2614 145.997 24.2614C147.179 24.2614 147.974 25.125 147.986 26.3125H143.884ZM151.788 31.5H153.811V30.125H153.93C154.254 30.7614 154.93 31.6534 156.43 31.6534C158.487 31.6534 160.027 30.0227 160.027 27.1477C160.027 24.2386 158.442 22.6591 156.425 22.6591C154.885 22.6591 154.243 23.5852 153.93 24.2159H153.845V19.8636H151.788V31.5ZM153.805 27.1364C153.805 25.4432 154.533 24.3466 155.857 24.3466C157.226 24.3466 157.93 25.5114 157.93 27.1364C157.93 28.7727 157.214 29.9659 155.857 29.9659C154.544 29.9659 153.805 28.8295 153.805 27.1364ZM168.673 25.0795C168.389 23.6023 167.207 22.6591 165.162 22.6591C163.06 22.6591 161.628 23.6932 161.634 25.3068C161.628 26.5795 162.412 27.4205 164.088 27.767L165.577 28.0795C166.378 28.2557 166.753 28.5795 166.753 29.0739C166.753 29.6705 166.105 30.1193 165.128 30.1193C164.185 30.1193 163.571 29.7102 163.395 28.9261L161.389 29.1193C161.645 30.7216 162.991 31.6705 165.134 31.6705C167.315 31.6705 168.855 30.5398 168.861 28.8864C168.855 27.642 168.054 26.8807 166.406 26.5227L164.918 26.2045C164.031 26.0057 163.679 25.6989 163.685 25.1932C163.679 24.6023 164.332 24.1932 165.19 24.1932C166.139 24.1932 166.639 24.7102 166.798 25.2841L168.673 25.0795ZM170.557 31.5H172.614V22.7727H170.557V31.5ZM171.591 21.5341C172.244 21.5341 172.778 21.0341 172.778 20.4205C172.778 19.8011 172.244 19.3011 171.591 19.3011C170.932 19.3011 170.398 19.8011 170.398 20.4205C170.398 21.0341 170.932 21.5341 171.591 21.5341ZM179.087 22.7727H177.365V20.6818H175.308V22.7727H174.07V24.3636H175.308V29.2159C175.297 30.858 176.49 31.6648 178.036 31.6193C178.621 31.6023 179.024 31.4886 179.246 31.4148L178.899 29.8068C178.786 29.8352 178.553 29.8864 178.297 29.8864C177.78 29.8864 177.365 29.7045 177.365 28.875V24.3636H179.087V22.7727ZM184.577 31.6705C186.611 31.6705 188.009 30.6761 188.372 29.1591L186.452 28.9432C186.173 29.6818 185.491 30.0682 184.605 30.0682C183.276 30.0682 182.395 29.1932 182.378 27.6989H188.457V27.0682C188.457 24.0057 186.616 22.6591 184.469 22.6591C181.969 22.6591 180.338 24.4943 180.338 27.1875C180.338 29.9261 181.946 31.6705 184.577 31.6705ZM182.384 26.3125C182.446 25.1989 183.27 24.2614 184.497 24.2614C185.679 24.2614 186.474 25.125 186.486 26.3125H182.384ZM195.487 25.8068H190.249V27.5H195.487V25.8068ZM202.009 22.7727H200.287V20.6818H198.23V22.7727H196.991V24.3636H198.23V29.2159C198.219 30.858 199.412 31.6648 200.957 31.6193C201.543 31.6023 201.946 31.4886 202.168 31.4148L201.821 29.8068C201.707 29.8352 201.474 29.8864 201.219 29.8864C200.702 29.8864 200.287 29.7045 200.287 28.875V24.3636H202.009V22.7727ZM207.442 31.6705C209.999 31.6705 211.624 29.8693 211.624 27.1705C211.624 24.4659 209.999 22.6591 207.442 22.6591C204.885 22.6591 203.26 24.4659 203.26 27.1705C203.26 29.8693 204.885 31.6705 207.442 31.6705ZM207.453 30.0227C206.038 30.0227 205.345 28.7614 205.345 27.1648C205.345 25.5682 206.038 24.2898 207.453 24.2898C208.845 24.2898 209.538 25.5682 209.538 27.1648C209.538 28.7614 208.845 30.0227 207.453 30.0227ZM214.636 31.625C215.307 31.625 215.881 31.0682 215.886 30.375C215.881 29.6932 215.307 29.1364 214.636 29.1364C213.943 29.1364 213.381 29.6932 213.386 30.375C213.381 31.0682 213.943 31.625 214.636 31.625ZM224.908 25.0795C224.624 23.6023 223.442 22.6591 221.396 22.6591C219.294 22.6591 217.862 23.6932 217.868 25.3068C217.862 26.5795 218.646 27.4205 220.322 27.767L221.811 28.0795C222.612 28.2557 222.987 28.5795 222.987 29.0739C222.987 29.6705 222.339 30.1193 221.362 30.1193C220.419 30.1193 219.805 29.7102 219.629 28.9261L217.624 29.1193C217.879 30.7216 219.226 31.6705 221.368 31.6705C223.55 31.6705 225.089 30.5398 225.095 28.8864C225.089 27.642 224.288 26.8807 222.641 26.5227L221.152 26.2045C220.266 26.0057 219.913 25.6989 219.919 25.1932C219.913 24.6023 220.567 24.1932 221.425 24.1932C222.374 24.1932 222.874 24.7102 223.033 25.2841L224.908 25.0795ZM229.303 31.6761C230.672 31.6761 231.49 31.0341 231.865 30.3011H231.933V31.5H233.911V25.6591C233.911 23.3523 232.03 22.6591 230.365 22.6591C228.53 22.6591 227.121 23.4773 226.666 25.0682L228.587 25.3409C228.791 24.7443 229.371 24.233 230.376 24.233C231.331 24.233 231.854 24.7216 231.854 25.5795V25.6136C231.854 26.2045 231.234 26.233 229.695 26.3977C228.001 26.5795 226.382 27.0852 226.382 29.0511C226.382 30.767 227.638 31.6761 229.303 31.6761ZM229.837 30.1648C228.979 30.1648 228.365 29.7727 228.365 29.017C228.365 28.2273 229.053 27.8977 229.973 27.767C230.513 27.6932 231.592 27.5568 231.859 27.3409V28.3693C231.859 29.3409 231.075 30.1648 229.837 30.1648ZM243.462 22.7727H241.274L239.263 29.2557H239.172L237.166 22.7727H234.973L238.081 31.5H240.354L243.462 22.7727ZM248.452 31.6705C250.486 31.6705 251.884 30.6761 252.247 29.1591L250.327 28.9432C250.048 29.6818 249.366 30.0682 248.48 30.0682C247.151 30.0682 246.27 29.1932 246.253 27.6989H252.332V27.0682C252.332 24.0057 250.491 22.6591 248.344 22.6591C245.844 22.6591 244.213 24.4943 244.213 27.1875C244.213 29.9261 245.821 31.6705 248.452 31.6705ZM246.259 26.3125C246.321 25.1989 247.145 24.2614 248.372 24.2614C249.554 24.2614 250.349 25.125 250.361 26.3125H246.259Z" fill="#718096"/>
<rect x="364.9" y="21.3" width="16.2" height="14.4" rx="2.7" stroke="#A0AEC0" stroke-width="1.8"/>
<rect x="370.3" y="18.6" width="1.8" height="5.4" fill="white"/>
<rect x="373.9" y="18.6" width="1.8" height="5.4" fill="white"/>
<path d="M373 28.5V15M373 15L370.3 18.6M373 15L375.7 18.6" stroke="#A0AEC0" stroke-width="1.8" stroke-linecap="round" stroke-linejoin="round"/>
<g filter="url(#filter0_dd)">
<path fill-rule="evenodd" clip-rule="evenodd" d="M378.263 45.2769L373.5 39L368.737 45.2769H378.263ZM294 45.2769C290.686 45.2769 288 47.9632 288 51.2769V101C288 104.314 290.686 107 294 107H386C389.314 107 392 104.314 392 101V51.2769C392 47.9632 389.314 45.2769 386 45.2769H294Z" fill="#EDF2F7"/>
</g>
<rect x="296" y="59" width="28" height="28" rx="4" fill="white"/>
<path d="M316.034 72.6364C318.625 70.0454 317.936 65.3154 314.282 64L303.727 64C302.864 64 302 64.6888 302 65.7273L302 81.2727C302 82.1364 302.691 83 303.727 83H314.523C320.377 80.8409 318.841 73.9318 316.034 72.6364Z" fill="#1A202C"/>
<circle cx="306.75" cy="71.3409" r="1.72727" fill="white"/>
<circle cx="311.932" cy="71.3409" r="1.72727" fill="white"/>
<circle cx="311.932" cy="76.5227" r="1.72727" fill="white"/>
<circle cx="306.75" cy="76.5227" r="1.72727" fill="white"/>
<path d="M302.528 95H304.105C305.136 95 305.562 94.4972 305.562 93.8409C305.562 93.1506 305.085 92.7756 304.685 92.75V92.7074C305.06 92.6051 305.392 92.358 305.392 91.7955C305.392 91.1562 304.966 90.6364 304.054 90.6364H302.528V95ZM303.057 94.5312V93.0142H304.131C304.702 93.0142 305.06 93.3977 305.06 93.8409C305.06 94.2244 304.795 94.5312 304.105 94.5312H303.057ZM303.057 92.554V91.1051H304.054C304.634 91.1051 304.889 91.4119 304.889 91.7955C304.889 92.2557 304.514 92.554 304.037 92.554H303.057ZM306.363 95H306.865V92.929C306.865 92.4858 307.215 92.1619 307.692 92.1619C307.826 92.1619 307.965 92.1875 307.999 92.196V91.6847C307.941 91.6804 307.809 91.6761 307.735 91.6761C307.343 91.6761 307.002 91.8977 306.882 92.2216H306.848V91.7273H306.363V95ZM309.558 95.0767C310.129 95.0767 310.427 94.7699 310.53 94.5568H310.555V95H311.058V92.8438C311.058 91.804 310.265 91.6847 309.848 91.6847C309.354 91.6847 308.791 91.8551 308.535 92.4517L309.013 92.6222C309.123 92.3835 309.385 92.1278 309.865 92.1278C310.327 92.1278 310.555 92.3729 310.555 92.7926V92.8097C310.555 93.0526 310.308 93.0312 309.711 93.108C309.104 93.1868 308.442 93.321 308.442 94.071C308.442 94.7102 308.936 95.0767 309.558 95.0767ZM309.635 94.625C309.234 94.625 308.944 94.446 308.944 94.0966C308.944 93.7131 309.294 93.5938 309.686 93.5426C309.899 93.517 310.47 93.4574 310.555 93.3551V93.8153C310.555 94.2244 310.231 94.625 309.635 94.625ZM313.305 95.0682C314.03 95.0682 314.507 94.625 314.592 94.0455H314.089C313.996 94.4034 313.697 94.6165 313.305 94.6165C312.709 94.6165 312.325 94.1222 312.325 93.3636C312.325 92.6222 312.717 92.1364 313.305 92.1364C313.749 92.1364 314.013 92.4091 314.089 92.7074H314.592C314.507 92.0938 313.987 91.6847 313.297 91.6847C312.411 91.6847 311.822 92.3835 311.822 93.3807C311.822 94.3608 312.385 95.0682 313.305 95.0682ZM316.7 95.0682C317.364 95.0682 317.85 94.7358 318.004 94.2415L317.518 94.1051C317.39 94.446 317.094 94.6165 316.7 94.6165C316.109 94.6165 315.702 94.2351 315.679 93.5341H318.055V93.321C318.055 92.1023 317.33 91.6847 316.648 91.6847C315.762 91.6847 315.174 92.3835 315.174 93.3892C315.174 94.3949 315.754 95.0682 316.7 95.0682ZM315.679 93.0994C315.713 92.5902 316.073 92.1364 316.648 92.1364C317.194 92.1364 317.543 92.5455 317.543 93.0994H315.679Z" fill="#1A202C"/>
<defs>
<filter id="filter0_dd" x="282" y="37" width="116" height="80" filterUnits="userSpaceOnUse" color-interpolation-filters="sRGB">
<feFlood flood-opacity="0" result="BackgroundImageFix"/>
<feColorMatrix in="SourceAlpha" type="matrix" values="0 0 0 0 0 0 0 0 0 0 0 0 0 0 0 0 0 0 127 0"/>
<feOffset dy="4"/>
<feGaussianBlur stdDeviation="3"/>
<feColorMatrix type="matrix" values="0 0 0 0 0 0 0 0 0 0 0 0 0 0 0 0 0 0 0.1 0"/>
<feBlend mode="normal" in2="BackgroundImageFix" result="effect1_dropShadow"/>
<feColorMatrix in="SourceAlpha" type="matrix" values="0 0 0 0 0 0 0 0 0 0 0 0 0 0 0 0 0 0 127 0"/>
<feOffset dy="2"/>
<feGaussianBlur stdDeviation="2"/>
<feColorMatrix type="matrix" values="0 0 0 0 0 0 0 0 0 0 0 0 0 0 0 0 0 0 0.06 0"/>
<feBlend mode="normal" in2="effect1_dropShadow" result="effect2_dropShadow"/>
<feBlend mode="normal" in="SourceGraphic" in2="effect2_dropShadow" result="shape"/>
</filter>
<linearGradient id="paint0_linear" x1="199.5" y1="1" x2="199.5" y2="113" gradientUnits="userSpaceOnUse">
<stop offset="0.697917" stop-color="white"/>
<stop offset="1" stop-color="#F7FAFC"/>
</linearGradient>
</defs>
</svg>
