<svg width="399" height="114" viewBox="0 0 399 114" fill="none" xmlns="http://www.w3.org/2000/svg">
<path d="M1 17C1 8.16344 8.16345 1 17 1H382C390.837 1 398 8.16344 398 17V113H1V17Z" fill="url(#paint0_linear)"/>
<path d="M1 113.028V51.8344M1 51.8344V17C1 8.16343 8.16345 1 17 1H382C390.837 1 398 8.16344 398 17V51.8344M1 51.8344H398M398 51.8344V113" stroke="#A0AEC0" stroke-width="2"/>
<circle cx="27" cy="27.5" r="8" fill="#FC8181"/>
<circle cx="49" cy="27.5" r="8" fill="#F6E05E"/>
<circle cx="71" cy="27.5" r="8" fill="#68D391"/>
<path d="M128.5 11H348.5C357.06 11 364 17.9396 364 26.5C364 35.0604 357.06 42 348.5 42H128.5C119.94 42 113 35.0604 113 26.5C113 17.9396 119.94 11 128.5 11Z" fill="white" stroke="#A0AEC0" stroke-width="2"/>
<path d="M130.858 31.5H133.006L134.642 25.6023H134.761L136.398 31.5H138.54L141.011 22.7727H138.909L137.398 28.875H137.312L135.744 22.7727H133.67L132.102 28.9091H132.023L130.489 22.7727H128.392L130.858 31.5ZM146.077 31.6705C148.111 31.6705 149.509 30.6761 149.872 29.1591L147.952 28.9432C147.673 29.6818 146.991 30.0682 146.105 30.0682C144.776 30.0682 143.895 29.1932 143.878 27.6989H149.957V27.0682C149.957 24.0057 148.116 22.6591 145.969 22.6591C143.469 22.6591 141.838 24.4943 141.838 27.1875C141.838 29.9261 143.446 31.6705 146.077 31.6705ZM143.884 26.3125C143.946 25.1989 144.77 24.2614 145.997 24.2614C147.179 24.2614 147.974 25.125 147.986 26.3125H143.884ZM151.788 31.5H153.811V30.125H153.93C154.254 30.7614 154.93 31.6534 156.43 31.6534C158.487 31.6534 160.027 30.0227 160.027 27.1477C160.027 24.2386 158.442 22.6591 156.425 22.6591C154.885 22.6591 154.243 23.5852 153.93 24.2159H153.845V19.8636H151.788V31.5ZM153.805 27.1364C153.805 25.4432 154.533 24.3466 155.857 24.3466C157.226 24.3466 157.93 25.5114 157.93 27.1364C157.93 28.7727 157.214 29.9659 155.857 29.9659C154.544 29.9659 153.805 28.8295 153.805 27.1364ZM168.673 25.0795C168.389 23.6023 167.207 22.6591 165.162 22.6591C163.06 22.6591 161.628 23.6932 161.634 25.3068C161.628 26.5795 162.412 27.4205 164.088 27.767L165.577 28.0795C166.378 28.2557 166.753 28.5795 166.753 29.0739C166.753 29.6705 166.105 30.1193 165.128 30.1193C164.185 30.1193 163.571 29.7102 163.395 28.9261L161.389 29.1193C161.645 30.7216 162.991 31.6705 165.134 31.6705C167.315 31.6705 168.855 30.5398 168.861 28.8864C168.855 27.642 168.054 26.8807 166.406 26.5227L164.918 26.2045C164.031 26.0057 163.679 25.6989 163.685 25.1932C163.679 24.6023 164.332 24.1932 165.19 24.1932C166.139 24.1932 166.639 24.7102 166.798 25.2841L168.673 25.0795ZM170.557 31.5H172.614V22.7727H170.557V31.5ZM171.591 21.5341C172.244 21.5341 172.778 21.0341 172.778 20.4205C172.778 19.8011 172.244 19.3011 171.591 19.3011C170.932 19.3011 170.398 19.8011 170.398 20.4205C170.398 21.0341 170.932 21.5341 171.591 21.5341ZM179.087 22.7727H177.365V20.6818H175.308V22.7727H174.07V24.3636H175.308V29.2159C175.297 30.858 176.49 31.6648 178.036 31.6193C178.621 31.6023 179.024 31.4886 179.246 31.4148L178.899 29.8068C178.786 29.8352 178.553 29.8864 178.297 29.8864C177.78 29.8864 177.365 29.7045 177.365 28.875V24.3636H179.087V22.7727ZM184.577 31.6705C186.611 31.6705 188.009 30.6761 188.372 29.1591L186.452 28.9432C186.173 29.6818 185.491 30.0682 184.605 30.0682C183.276 30.0682 182.395 29.1932 182.378 27.6989H188.457V27.0682C188.457 24.0057 186.616 22.6591 184.469 22.6591C181.969 22.6591 180.338 24.4943 180.338 27.1875C180.338 29.9261 181.946 31.6705 184.577 31.6705ZM182.384 26.3125C182.446 25.1989 183.27 24.2614 184.497 24.2614C185.679 24.2614 186.474 25.125 186.486 26.3125H182.384ZM195.487 25.8068H190.249V27.5H195.487V25.8068ZM202.009 22.7727H200.287V20.6818H198.23V22.7727H196.991V24.3636H198.23V29.2159C198.219 30.858 199.412 31.6648 200.957 31.6193C201.543 31.6023 201.946 31.4886 202.168 31.4148L201.821 29.8068C201.707 29.8352 201.474 29.8864 201.219 29.8864C200.702 29.8864 200.287 29.7045 200.287 28.875V24.3636H202.009V22.7727ZM207.442 31.6705C209.999 31.6705 211.624 29.8693 211.624 27.1705C211.624 24.4659 209.999 22.6591 207.442 22.6591C204.885 22.6591 203.26 24.4659 203.26 27.1705C203.26 29.8693 204.885 31.6705 207.442 31.6705ZM207.453 30.0227C206.038 30.0227 205.345 28.7614 205.345 27.1648C205.345 25.5682 206.038 24.2898 207.453 24.2898C208.845 24.2898 209.538 25.5682 209.538 27.1648C209.538 28.7614 208.845 30.0227 207.453 30.0227ZM214.636 31.625C215.307 31.625 215.881 31.0682 215.886 30.375C215.881 29.6932 215.307 29.1364 214.636 29.1364C213.943 29.1364 213.381 29.6932 213.386 30.375C213.381 31.0682 213.943 31.625 214.636 31.625ZM224.908 25.0795C224.624 23.6023 223.442 22.6591 221.396 22.6591C219.294 22.6591 217.862 23.6932 217.868 25.3068C217.862 26.5795 218.646 27.4205 220.322 27.767L221.811 28.0795C222.612 28.2557 222.987 28.5795 222.987 29.0739C222.987 29.6705 222.339 30.1193 221.362 30.1193C220.419 30.1193 219.805 29.7102 219.629 28.9261L217.624 29.1193C217.879 30.7216 219.226 31.6705 221.368 31.6705C223.55 31.6705 225.089 30.5398 225.095 28.8864C225.089 27.642 224.288 26.8807 222.641 26.5227L221.152 26.2045C220.266 26.0057 219.913 25.6989 219.919 25.1932C219.913 24.6023 220.567 24.1932 221.425 24.1932C222.374 24.1932 222.874 24.7102 223.033 25.2841L224.908 25.0795ZM229.303 31.6761C230.672 31.6761 231.49 31.0341 231.865 30.3011H231.933V31.5H233.911V25.6591C233.911 23.3523 232.03 22.6591 230.365 22.6591C228.53 22.6591 227.121 23.4773 226.666 25.0682L228.587 25.3409C228.791 24.7443 229.371 24.233 230.376 24.233C231.331 24.233 231.854 24.7216 231.854 25.5795V25.6136C231.854 26.2045 231.234 26.233 229.695 26.3977C228.001 26.5795 226.382 27.0852 226.382 29.0511C226.382 30.767 227.638 31.6761 229.303 31.6761ZM229.837 30.1648C228.979 30.1648 228.365 29.7727 228.365 29.017C228.365 28.2273 229.053 27.8977 229.973 27.767C230.513 27.6932 231.592 27.5568 231.859 27.3409V28.3693C231.859 29.3409 231.075 30.1648 229.837 30.1648ZM243.462 22.7727H241.274L239.263 29.2557H239.172L237.166 22.7727H234.973L238.081 31.5H240.354L243.462 22.7727ZM248.452 31.6705C250.486 31.6705 251.884 30.6761 252.247 29.1591L250.327 28.9432C250.048 29.6818 249.366 30.0682 248.48 30.0682C247.151 30.0682 246.27 29.1932 246.253 27.6989H252.332V27.0682C252.332 24.0057 250.491 22.6591 248.344 22.6591C245.844 22.6591 244.213 24.4943 244.213 27.1875C244.213 29.9261 245.821 31.6705 248.452 31.6705ZM246.259 26.3125C246.321 25.1989 247.145 24.2614 248.372 24.2614C249.554 24.2614 250.349 25.125 250.361 26.3125H246.259Z" fill="#718096"/>
<path d="M380 23C378.895 23 378 22.1046 378 21C378 19.8954 378.895 19 380 19C381.105 19 382 19.8954 382 21C382 22.1046 381.105 23 380 23Z" fill="#A0AEC0"/>
<path d="M380 29C378.895 29 378 28.1046 378 27C378 25.8954 378.895 25 380 25C381.105 25 382 25.8954 382 27C382 28.1046 381.105 29 380 29Z" fill="#A0AEC0"/>
<path d="M380 35C378.895 35 378 34.1046 378 33C378 31.8954 378.895 31 380 31C381.105 31 382 31.8954 382 33C382 34.1046 381.105 35 380 35Z" fill="#A0AEC0"/>
<g filter="url(#filter0_dd)">
<rect x="288" y="7" width="104" height="96" rx="6" fill="white"/>
</g>
<path d="M288 13C288 9.68629 290.686 7 294 7H386C389.314 7 392 9.68629 392 13V31H288V13Z" fill="#EDF2F7"/>
<path fill-rule="evenodd" clip-rule="evenodd" d="M301.395 22.295C301.122 22.5683 300.678 22.5683 300.405 22.295L297.605 19.495C297.332 19.2216 297.332 18.7784 297.605 18.505L300.405 15.705C300.678 15.4317 301.122 15.4317 301.395 15.705C301.668 15.9784 301.668 16.4216 301.395 16.695L299.79 18.3H307.9C308.287 18.3 308.6 18.6134 308.6 19C308.6 19.3866 308.287 19.7 307.9 19.7H299.79L301.395 21.305C301.668 21.5784 301.668 22.0216 301.395 22.295Z" fill="#A0AEC0"/>
<path fill-rule="evenodd" clip-rule="evenodd" d="M345.6 19C345.6 22.0928 343.093 24.6 340 24.6C336.907 24.6 334.4 22.0928 334.4 19C334.4 15.9072 336.907 13.4 340 13.4C343.093 13.4 345.6 15.9072 345.6 19ZM340.7 16.2C340.7 16.5866 340.387 16.9 340 16.9C339.613 16.9 339.3 16.5866 339.3 16.2C339.3 15.8134 339.613 15.5 340 15.5C340.387 15.5 340.7 15.8134 340.7 16.2ZM339.3 18.3C338.913 18.3 338.6 18.6134 338.6 19C338.6 19.3866 338.913 19.7 339.3 19.7V21.8C339.3 22.1866 339.613 22.5 340 22.5H340.7C341.087 22.5 341.4 22.1866 341.4 21.8C341.4 21.4134 341.087 21.1 340.7 21.1V19C340.7 18.6134 340.387 18.3 340 18.3H339.3Z" fill="#A0AEC0"/>
<path fill-rule="evenodd" clip-rule="evenodd" d="M372.8 13.4C373.187 13.4 373.5 13.7134 373.5 14.1V15.5709C374.389 14.6634 375.628 14.1 377 14.1C379.135 14.1 380.949 15.4645 381.621 17.3667C381.75 17.7313 381.559 18.1312 381.194 18.26C380.83 18.3888 380.43 18.1978 380.301 17.8333C379.82 16.473 378.523 15.5 377 15.5C375.856 15.5 374.838 16.0495 374.2 16.9H376.3C376.687 16.9 377 17.2134 377 17.6C377 17.9866 376.687 18.3 376.3 18.3H372.8C372.413 18.3 372.1 17.9866 372.1 17.6V14.1C372.1 13.7134 372.413 13.4 372.8 13.4ZM372.806 19.7401C373.17 19.6112 373.57 19.8022 373.699 20.1668C374.18 21.5271 375.477 22.5 377 22.5C378.144 22.5 379.162 21.9505 379.8 21.1H377.7C377.313 21.1 377 20.7866 377 20.4C377 20.0134 377.313 19.7 377.7 19.7H381.2C381.386 19.7 381.564 19.7738 381.695 19.9051C381.826 20.0363 381.9 20.2144 381.9 20.4V23.9C381.9 24.2866 381.587 24.6 381.2 24.6C380.813 24.6 380.5 24.2866 380.5 23.9V22.4291C379.611 23.3366 378.372 23.9 377 23.9C374.865 23.9 373.051 22.5355 372.379 20.6333C372.25 20.2688 372.441 19.8689 372.806 19.7401Z" fill="#A0AEC0"/>
<path d="M321.801 61.3636H322.994C322.94 59.8274 321.523 58.679 319.554 58.679C317.605 58.679 316.074 59.8125 316.074 61.5227C316.074 62.8949 317.068 63.7102 318.659 64.1676L319.912 64.5256C320.986 64.8239 321.94 65.2017 321.94 66.2159C321.94 67.3295 320.866 68.0653 319.455 68.0653C318.241 68.0653 317.168 67.5284 317.068 66.375H315.795C315.915 68.0455 317.267 69.179 319.455 69.179C321.801 69.179 323.134 67.8864 323.134 66.2358C323.134 64.3267 321.324 63.7102 320.27 63.4318L319.236 63.1534C318.48 62.9545 317.267 62.5568 317.267 61.4631C317.267 60.4886 318.162 59.7727 319.514 59.7727C320.747 59.7727 321.682 60.3594 321.801 61.3636ZM326.175 64.4062C326.175 63.0739 327.025 62.3182 328.183 62.3182C329.287 62.3182 329.953 63.0142 329.953 64.2273V69H331.127V64.1477C331.127 62.1839 330.083 61.2642 328.521 61.2642C327.318 61.2642 326.632 61.7663 326.274 62.5568H326.175V58.8182H325.002V69H326.175V64.4062ZM335.52 69.179C336.853 69.179 337.549 68.4631 337.787 67.9659H337.847V69H339.02V63.9688C339.02 61.5426 337.171 61.2642 336.196 61.2642C335.043 61.2642 333.73 61.6619 333.134 63.054L334.248 63.4517C334.506 62.8949 335.118 62.2983 336.236 62.2983C337.315 62.2983 337.847 62.87 337.847 63.8494V63.8892C337.847 64.456 337.27 64.4062 335.878 64.5852C334.461 64.7692 332.915 65.0824 332.915 66.8324C332.915 68.3239 334.069 69.179 335.52 69.179ZM335.699 68.125C334.765 68.125 334.088 67.7074 334.088 66.892C334.088 65.9972 334.904 65.7188 335.819 65.5994C336.316 65.5398 337.648 65.4006 337.847 65.1619V66.2358C337.847 67.1903 337.091 68.125 335.699 68.125ZM341.162 69H342.335V64.1676C342.335 63.1335 343.15 62.3778 344.264 62.3778C344.577 62.3778 344.9 62.4375 344.98 62.4574V61.2642C344.846 61.2543 344.537 61.2443 344.363 61.2443C343.449 61.2443 342.653 61.7614 342.375 62.517H342.295V61.3636H341.162V69ZM349.34 69.1591C350.891 69.1591 352.025 68.3835 352.383 67.2301L351.249 66.9119C350.951 67.7074 350.26 68.1051 349.34 68.1051C347.963 68.1051 347.013 67.2152 346.959 65.5795H352.502V65.0824C352.502 62.2386 350.812 61.2642 349.221 61.2642C347.153 61.2642 345.78 62.8949 345.78 65.2415C345.78 67.5881 347.133 69.1591 349.34 69.1591ZM346.959 64.5653C347.038 63.3771 347.878 62.3182 349.221 62.3182C350.493 62.3182 351.309 63.2727 351.309 64.5653H346.959ZM355.142 69.0795C355.634 69.0795 356.037 68.6768 356.037 68.1847C356.037 67.6925 355.634 67.2898 355.142 67.2898C354.65 67.2898 354.247 67.6925 354.247 68.1847C354.247 68.6768 354.65 69.0795 355.142 69.0795ZM358.997 69.0795C359.49 69.0795 359.892 68.6768 359.892 68.1847C359.892 67.6925 359.49 67.2898 358.997 67.2898C358.505 67.2898 358.102 67.6925 358.102 68.1847C358.102 68.6768 358.505 69.0795 358.997 69.0795ZM362.853 69.0795C363.345 69.0795 363.748 68.6768 363.748 68.1847C363.748 67.6925 363.345 67.2898 362.853 67.2898C362.361 67.2898 361.958 67.6925 361.958 68.1847C361.958 68.6768 362.361 69.0795 362.853 69.0795Z" fill="#1A202C"/>
<path d="M308 62.4C309.325 62.4 310.4 61.3255 310.4 60C310.4 58.6745 309.325 57.6 308 57.6C306.674 57.6 305.6 58.6745 305.6 60C305.6 60.1004 305.606 60.1993 305.618 60.2965L301.666 62.2725C301.234 61.8561 300.647 61.6 300 61.6C298.674 61.6 297.6 62.6745 297.6 64C297.6 65.3255 298.674 66.4 300 66.4C300.647 66.4 301.234 66.1438 301.666 65.7274L305.618 67.7034C305.606 67.8006 305.6 67.8996 305.6 68C305.6 69.3255 306.674 70.4 308 70.4C309.325 70.4 310.4 69.3255 310.4 68C310.4 66.6745 309.325 65.6 308 65.6C307.353 65.6 306.766 65.8561 306.334 66.2725L302.382 64.2965C302.394 64.1993 302.4 64.1004 302.4 64C302.4 63.8996 302.394 63.8006 302.382 63.7034L306.334 61.7274C306.765 62.1438 307.353 62.4 308 62.4Z" fill="#2D3748"/>
<defs>
<filter id="filter0_dd" x="282" y="5" width="116" height="108" filterUnits="userSpaceOnUse" color-interpolation-filters="sRGB">
<feFlood flood-opacity="0" result="BackgroundImageFix"/>
<feColorMatrix in="SourceAlpha" type="matrix" values="0 0 0 0 0 0 0 0 0 0 0 0 0 0 0 0 0 0 127 0"/>
<feOffset dy="4"/>
<feGaussianBlur stdDeviation="3"/>
<feColorMatrix type="matrix" values="0 0 0 0 0 0 0 0 0 0 0 0 0 0 0 0 0 0 0.1 0"/>
<feBlend mode="normal" in2="BackgroundImageFix" result="effect1_dropShadow"/>
<feColorMatrix in="SourceAlpha" type="matrix" values="0 0 0 0 0 0 0 0 0 0 0 0 0 0 0 0 0 0 127 0"/>
<feOffset dy="2"/>
<feGaussianBlur stdDeviation="2"/>
<feColorMatrix type="matrix" values="0 0 0 0 0 0 0 0 0 0 0 0 0 0 0 0 0 0 0.06 0"/>
<feBlend mode="normal" in2="effect1_dropShadow" result="effect2_dropShadow"/>
<feBlend mode="normal" in="SourceGraphic" in2="effect2_dropShadow" result="shape"/>
</filter>
<linearGradient id="paint0_linear" x1="199.5" y1="1" x2="199.5" y2="113" gradientUnits="userSpaceOnUse">
<stop offset="0.697917" stop-color="white"/>
<stop offset="1" stop-color="#F7FAFC"/>
</linearGradient>
</defs>
</svg>
