<svg width="397" height="113" viewBox="0 0 397 113" fill="none" xmlns="http://www.w3.org/2000/svg">
<g clip-path="url(#clip0_1306_14942)">
<path d="M0 16C0 7.16344 7.16345 0 16 0H381C389.837 0 397 7.16344 397 16V112H0V16Z" fill="#1F2937"/>
<path d="M0 112.028V50.8344M0 50.8344V16C0 7.16343 7.16345 0 16 0H381C389.837 0 397 7.16344 397 16V50.8344M0 50.8344H397M397 50.8344V112" stroke="#6B7280" stroke-width="2"/>
<circle cx="26" cy="26.5" r="8" fill="#FC8181"/>
<circle cx="48" cy="26.5" r="8" fill="#F6E05E"/>
<circle cx="70" cy="26.5" r="8" fill="#68D391"/>
<path d="M127.5 10H347.5C356.06 10 363 16.9396 363 25.5C363 34.0604 356.06 41 347.5 41H127.5C118.94 41 112 34.0604 112 25.5C112 16.9396 118.94 10 127.5 10Z" fill="#1F2937" stroke="#6B7280" stroke-width="2"/>
<path d="M129.858 30.5L127.392 21.7727H129.489L131.023 27.9091H131.102L132.67 21.7727H134.744L136.312 27.875H136.398L137.909 21.7727H140.011L137.54 30.5H135.398L133.761 24.6023H133.642L132.006 30.5H129.858ZM145.061 30.6705C144.186 30.6705 143.43 30.4886 142.794 30.125C142.161 29.7576 141.675 29.2386 141.334 28.5682C140.993 27.8939 140.822 27.1004 140.822 26.1875C140.822 25.2898 140.993 24.5019 141.334 23.8239C141.679 23.142 142.16 22.6117 142.777 22.233C143.394 21.8504 144.12 21.6591 144.953 21.6591C145.491 21.6591 145.999 21.7462 146.476 21.9205C146.957 22.0909 147.381 22.3561 147.749 22.7159C148.12 23.0758 148.411 23.5341 148.624 24.0909C148.836 24.6439 148.942 25.303 148.942 26.0682V26.6989H141.788V25.3125H146.97C146.966 24.9186 146.881 24.5682 146.714 24.2614C146.548 23.9508 146.315 23.7064 146.016 23.5284C145.72 23.3504 145.375 23.2614 144.982 23.2614C144.561 23.2614 144.192 23.3636 143.874 23.5682C143.555 23.7689 143.307 24.0341 143.129 24.3636C142.955 24.6894 142.866 25.0473 142.862 25.4375V26.6477C142.862 27.1553 142.955 27.5909 143.141 27.9545C143.326 28.3144 143.586 28.5909 143.919 28.7841C144.252 28.9735 144.643 29.0682 145.089 29.0682C145.389 29.0682 145.66 29.0265 145.902 28.9432C146.144 28.8561 146.355 28.7292 146.533 28.5625C146.711 28.3958 146.845 28.1894 146.936 27.9432L148.857 28.1591C148.735 28.6667 148.504 29.1098 148.163 29.4886C147.826 29.8636 147.394 30.1553 146.868 30.3636C146.341 30.5682 145.739 30.6705 145.061 30.6705ZM150.773 30.5V18.8636H152.83V23.2159H152.915C153.021 23.0038 153.17 22.7784 153.364 22.5398C153.557 22.2973 153.818 22.0909 154.148 21.9205C154.477 21.7462 154.898 21.6591 155.409 21.6591C156.083 21.6591 156.691 21.8314 157.233 22.1761C157.778 22.517 158.21 23.0227 158.528 23.6932C158.85 24.3598 159.011 25.178 159.011 26.1477C159.011 27.1061 158.854 27.9205 158.54 28.5909C158.225 29.2614 157.797 29.7727 157.256 30.125C156.714 30.4773 156.1 30.6534 155.415 30.6534C154.915 30.6534 154.5 30.5701 154.17 30.4034C153.841 30.2367 153.576 30.036 153.375 29.8011C153.178 29.5625 153.025 29.3371 152.915 29.125H152.795V30.5H150.773ZM152.79 26.1364C152.79 26.7008 152.869 27.1951 153.028 27.6193C153.191 28.0436 153.424 28.375 153.727 28.6136C154.034 28.8485 154.405 28.9659 154.841 28.9659C155.295 28.9659 155.676 28.8447 155.983 28.6023C156.29 28.3561 156.521 28.0208 156.676 27.5966C156.835 27.1686 156.915 26.6818 156.915 26.1364C156.915 25.5947 156.837 25.1136 156.682 24.6932C156.527 24.2727 156.295 23.9432 155.989 23.7045C155.682 23.4659 155.299 23.3466 154.841 23.3466C154.402 23.3466 154.028 23.4621 153.722 23.6932C153.415 23.9242 153.182 24.2481 153.023 24.6648C152.867 25.0814 152.79 25.572 152.79 26.1364ZM167.658 24.0795L165.783 24.2841C165.73 24.0947 165.637 23.9167 165.504 23.75C165.375 23.5833 165.201 23.4489 164.982 23.3466C164.762 23.2443 164.493 23.1932 164.175 23.1932C163.747 23.1932 163.387 23.286 163.095 23.4716C162.807 23.6572 162.665 23.8977 162.669 24.1932C162.665 24.447 162.758 24.6534 162.947 24.8125C163.141 24.9716 163.459 25.1023 163.902 25.2045L165.391 25.5227C166.216 25.7008 166.83 25.983 167.232 26.3693C167.637 26.7557 167.841 27.2614 167.845 27.8864C167.841 28.4356 167.68 28.9205 167.362 29.3409C167.048 29.7576 166.61 30.0833 166.05 30.3182C165.489 30.553 164.845 30.6705 164.118 30.6705C163.05 30.6705 162.19 30.447 161.538 30C160.887 29.5492 160.499 28.9223 160.374 28.1193L162.379 27.9261C162.47 28.3201 162.663 28.6174 162.959 28.8182C163.254 29.0189 163.639 29.1193 164.112 29.1193C164.601 29.1193 164.993 29.0189 165.288 28.8182C165.588 28.6174 165.737 28.3693 165.737 28.0739C165.737 27.8239 165.641 27.6174 165.447 27.4545C165.258 27.2917 164.963 27.1667 164.561 27.0795L163.072 26.767C162.235 26.5928 161.616 26.2992 161.214 25.8864C160.813 25.4697 160.614 24.9432 160.618 24.3068C160.614 23.7689 160.76 23.303 161.055 22.9091C161.355 22.5114 161.769 22.2045 162.3 21.9886C162.834 21.7689 163.449 21.6591 164.146 21.6591C165.169 21.6591 165.974 21.8769 166.561 22.3125C167.152 22.7481 167.518 23.3371 167.658 24.0795ZM169.541 30.5V21.7727H171.598V30.5H169.541ZM170.575 20.5341C170.25 20.5341 169.969 20.4261 169.734 20.2102C169.5 19.9905 169.382 19.7273 169.382 19.4205C169.382 19.1098 169.5 18.8466 169.734 18.6307C169.969 18.411 170.25 18.3011 170.575 18.3011C170.905 18.3011 171.185 18.411 171.416 18.6307C171.651 18.8466 171.768 19.1098 171.768 19.4205C171.768 19.7273 171.651 19.9905 171.416 20.2102C171.185 20.4261 170.905 20.5341 170.575 20.5341ZM178.071 21.7727V23.3636H173.054V21.7727H178.071ZM174.293 19.6818H176.349V27.875C176.349 28.1515 176.391 28.3636 176.474 28.5114C176.562 28.6553 176.675 28.7538 176.815 28.8068C176.955 28.8598 177.111 28.8864 177.281 28.8864C177.41 28.8864 177.527 28.8769 177.634 28.858C177.743 28.839 177.827 28.822 177.884 28.8068L178.23 30.4148C178.12 30.4527 177.963 30.4943 177.759 30.5398C177.558 30.5852 177.312 30.6117 177.02 30.6193C176.505 30.6345 176.041 30.5568 175.628 30.3864C175.215 30.2121 174.887 29.9432 174.645 29.5795C174.406 29.2159 174.289 28.7614 174.293 28.2159V19.6818ZM183.561 30.6705C182.686 30.6705 181.93 30.4886 181.294 30.125C180.661 29.7576 180.175 29.2386 179.834 28.5682C179.493 27.8939 179.322 27.1004 179.322 26.1875C179.322 25.2898 179.493 24.5019 179.834 23.8239C180.179 23.142 180.66 22.6117 181.277 22.233C181.894 21.8504 182.62 21.6591 183.453 21.6591C183.991 21.6591 184.499 21.7462 184.976 21.9205C185.457 22.0909 185.881 22.3561 186.249 22.7159C186.62 23.0758 186.911 23.5341 187.124 24.0909C187.336 24.6439 187.442 25.303 187.442 26.0682V26.6989H180.288V25.3125H185.47C185.466 24.9186 185.381 24.5682 185.214 24.2614C185.048 23.9508 184.815 23.7064 184.516 23.5284C184.22 23.3504 183.875 23.2614 183.482 23.2614C183.061 23.2614 182.692 23.3636 182.374 23.5682C182.055 23.7689 181.807 24.0341 181.629 24.3636C181.455 24.6894 181.366 25.0473 181.362 25.4375V26.6477C181.362 27.1553 181.455 27.5909 181.641 27.9545C181.826 28.3144 182.086 28.5909 182.419 28.7841C182.752 28.9735 183.143 29.0682 183.589 29.0682C183.889 29.0682 184.16 29.0265 184.402 28.9432C184.644 28.8561 184.855 28.7292 185.033 28.5625C185.211 28.3958 185.345 28.1894 185.436 27.9432L187.357 28.1591C187.235 28.6667 187.004 29.1098 186.663 29.4886C186.326 29.8636 185.894 30.1553 185.368 30.3636C184.841 30.5682 184.239 30.6705 183.561 30.6705ZM193.54 21.7727V23.3636H188.523V21.7727H193.54ZM189.761 19.6818H191.818V27.875C191.818 28.1515 191.86 28.3636 191.943 28.5114C192.03 28.6553 192.144 28.7538 192.284 28.8068C192.424 28.8598 192.58 28.8864 192.75 28.8864C192.879 28.8864 192.996 28.8769 193.102 28.858C193.212 28.839 193.295 28.822 193.352 28.8068L193.699 30.4148C193.589 30.4527 193.432 30.4943 193.227 30.5398C193.027 30.5852 192.78 30.6117 192.489 30.6193C191.973 30.6345 191.509 30.5568 191.097 30.3864C190.684 30.2121 190.356 29.9432 190.114 29.5795C189.875 29.2159 189.758 28.7614 189.761 28.2159V19.6818ZM198.973 30.6705C198.121 30.6705 197.382 30.483 196.757 30.108C196.132 29.733 195.647 29.2083 195.303 28.5341C194.962 27.8598 194.791 27.072 194.791 26.1705C194.791 25.2689 194.962 24.4792 195.303 23.8011C195.647 23.1231 196.132 22.5966 196.757 22.2216C197.382 21.8466 198.121 21.6591 198.973 21.6591C199.825 21.6591 200.564 21.8466 201.189 22.2216C201.814 22.5966 202.297 23.1231 202.638 23.8011C202.982 24.4792 203.155 25.2689 203.155 26.1705C203.155 27.072 202.982 27.8598 202.638 28.5341C202.297 29.2083 201.814 29.733 201.189 30.108C200.564 30.483 199.825 30.6705 198.973 30.6705ZM198.984 29.0227C199.446 29.0227 199.833 28.8958 200.143 28.642C200.454 28.3845 200.685 28.0398 200.837 27.608C200.992 27.1761 201.07 26.6951 201.07 26.1648C201.07 25.6307 200.992 25.1477 200.837 24.7159C200.685 24.2803 200.454 23.9337 200.143 23.6761C199.833 23.4186 199.446 23.2898 198.984 23.2898C198.511 23.2898 198.117 23.4186 197.803 23.6761C197.492 23.9337 197.259 24.2803 197.104 24.7159C196.952 25.1477 196.876 25.6307 196.876 26.1648C196.876 26.6951 196.952 27.1761 197.104 27.608C197.259 28.0398 197.492 28.3845 197.803 28.642C198.117 28.8958 198.511 29.0227 198.984 29.0227ZM206.168 30.625C205.823 30.625 205.527 30.5038 205.281 30.2614C205.035 30.0189 204.914 29.7235 204.918 29.375C204.914 29.0341 205.035 28.7424 205.281 28.5C205.527 28.2576 205.823 28.1364 206.168 28.1364C206.501 28.1364 206.791 28.2576 207.037 28.5C207.287 28.7424 207.414 29.0341 207.418 29.375C207.414 29.6061 207.353 29.8163 207.236 30.0057C207.122 30.1951 206.971 30.3466 206.781 30.4602C206.596 30.5701 206.391 30.625 206.168 30.625ZM216.439 24.0795L214.564 24.2841C214.511 24.0947 214.418 23.9167 214.286 23.75C214.157 23.5833 213.982 23.4489 213.763 23.3466C213.543 23.2443 213.274 23.1932 212.956 23.1932C212.528 23.1932 212.168 23.286 211.876 23.4716C211.589 23.6572 211.446 23.8977 211.45 24.1932C211.446 24.447 211.539 24.6534 211.729 24.8125C211.922 24.9716 212.24 25.1023 212.683 25.2045L214.172 25.5227C214.998 25.7008 215.611 25.983 216.013 26.3693C216.418 26.7557 216.623 27.2614 216.626 27.8864C216.623 28.4356 216.462 28.9205 216.143 29.3409C215.829 29.7576 215.392 30.0833 214.831 30.3182C214.27 30.553 213.626 30.6705 212.899 30.6705C211.831 30.6705 210.971 30.447 210.32 30C209.668 29.5492 209.28 28.9223 209.155 28.1193L211.161 27.9261C211.251 28.3201 211.445 28.6174 211.74 28.8182C212.036 29.0189 212.42 29.1193 212.893 29.1193C213.382 29.1193 213.774 29.0189 214.07 28.8182C214.369 28.6174 214.518 28.3693 214.518 28.0739C214.518 27.8239 214.422 27.6174 214.229 27.4545C214.039 27.2917 213.744 27.1667 213.342 27.0795L211.854 26.767C211.017 26.5928 210.397 26.2992 209.996 25.8864C209.594 25.4697 209.395 24.9432 209.399 24.3068C209.395 23.7689 209.541 23.303 209.837 22.9091C210.136 22.5114 210.551 22.2045 211.081 21.9886C211.615 21.7689 212.231 21.6591 212.928 21.6591C213.95 21.6591 214.755 21.8769 215.342 22.3125C215.933 22.7481 216.299 23.3371 216.439 24.0795ZM220.834 30.6761C220.281 30.6761 219.783 30.5777 219.339 30.3807C218.9 30.1799 218.552 29.8845 218.294 29.4943C218.04 29.1042 217.913 28.6231 217.913 28.0511C217.913 27.5587 218.004 27.1515 218.186 26.8295C218.368 26.5076 218.616 26.25 218.93 26.0568C219.245 25.8636 219.599 25.7178 219.993 25.6193C220.391 25.517 220.802 25.4432 221.226 25.3977C221.737 25.3447 222.152 25.2973 222.47 25.2557C222.788 25.2102 223.019 25.142 223.163 25.0511C223.311 24.9564 223.385 24.8106 223.385 24.6136V24.5795C223.385 24.1515 223.258 23.8201 223.004 23.5852C222.75 23.3504 222.385 23.233 221.908 23.233C221.404 23.233 221.004 23.3428 220.709 23.5625C220.417 23.7822 220.22 24.0417 220.118 24.3409L218.197 24.0682C218.349 23.5379 218.599 23.0947 218.947 22.7386C219.296 22.3788 219.722 22.1098 220.226 21.9318C220.73 21.75 221.286 21.6591 221.896 21.6591C222.317 21.6591 222.735 21.7083 223.152 21.8068C223.569 21.9053 223.949 22.0682 224.294 22.2955C224.639 22.5189 224.915 22.8239 225.124 23.2102C225.336 23.5966 225.442 24.0795 225.442 24.6591V30.5H223.464V29.3011H223.396C223.271 29.5436 223.095 29.7708 222.868 29.983C222.644 30.1913 222.362 30.3598 222.021 30.4886C221.684 30.6136 221.288 30.6761 220.834 30.6761ZM221.368 29.1648C221.781 29.1648 222.139 29.0833 222.442 28.9205C222.745 28.7538 222.978 28.5341 223.141 28.2614C223.307 27.9886 223.391 27.6913 223.391 27.3693V26.3409C223.326 26.3939 223.216 26.4432 223.061 26.4886C222.91 26.5341 222.739 26.5739 222.55 26.608C222.36 26.642 222.173 26.6723 221.987 26.6989C221.802 26.7254 221.641 26.7481 221.504 26.767C221.197 26.8087 220.923 26.8769 220.68 26.9716C220.438 27.0663 220.247 27.1989 220.107 27.3693C219.966 27.536 219.896 27.7519 219.896 28.017C219.896 28.3958 220.035 28.6818 220.311 28.875C220.588 29.0682 220.94 29.1648 221.368 29.1648ZM234.993 21.7727L231.885 30.5H229.612L226.504 21.7727H228.697L230.703 28.2557H230.794L232.805 21.7727H234.993ZM239.983 30.6705C239.108 30.6705 238.352 30.4886 237.716 30.125C237.083 29.7576 236.597 29.2386 236.256 28.5682C235.915 27.8939 235.744 27.1004 235.744 26.1875C235.744 25.2898 235.915 24.5019 236.256 23.8239C236.6 23.142 237.081 22.6117 237.699 22.233C238.316 21.8504 239.042 21.6591 239.875 21.6591C240.413 21.6591 240.92 21.7462 241.398 21.9205C241.879 22.0909 242.303 22.3561 242.67 22.7159C243.042 23.0758 243.333 23.5341 243.545 24.0909C243.758 24.6439 243.864 25.303 243.864 26.0682V26.6989H236.71V25.3125H241.892C241.888 24.9186 241.803 24.5682 241.636 24.2614C241.47 23.9508 241.237 23.7064 240.938 23.5284C240.642 23.3504 240.297 23.2614 239.903 23.2614C239.483 23.2614 239.114 23.3636 238.795 23.5682C238.477 23.7689 238.229 24.0341 238.051 24.3636C237.877 24.6894 237.788 25.0473 237.784 25.4375V26.6477C237.784 27.1553 237.877 27.5909 238.062 27.9545C238.248 28.3144 238.508 28.5909 238.841 28.7841C239.174 28.9735 239.564 29.0682 240.011 29.0682C240.311 29.0682 240.581 29.0265 240.824 28.9432C241.066 28.8561 241.277 28.7292 241.455 28.5625C241.633 28.3958 241.767 28.1894 241.858 27.9432L243.778 28.1591C243.657 28.6667 243.426 29.1098 243.085 29.4886C242.748 29.8636 242.316 30.1553 241.79 30.3636C241.263 30.5682 240.661 30.6705 239.983 30.6705Z" fill="#9CA3AF"/>
<g filter="url(#filter0_dd_1306_14942)">
<path d="M263 12C263 8.68629 265.686 6 269 6H385C388.314 6 391 8.68629 391 12V102H263V12Z" fill="white"/>
</g>
<path d="M263 12C263 8.68629 265.686 6 269 6H385C388.314 6 391 8.68629 391 12V30H263V12Z" fill="#F1F5F9"/>
<path fill-rule="evenodd" clip-rule="evenodd" d="M280.395 21.295C280.122 21.5683 279.678 21.5683 279.405 21.295L276.605 18.495C276.332 18.2216 276.332 17.7784 276.605 17.505L279.405 14.705C279.678 14.4317 280.122 14.4317 280.395 14.705C280.668 14.9784 280.668 15.4216 280.395 15.695L278.79 17.3H286.9C287.287 17.3 287.6 17.6134 287.6 18C287.6 18.3866 287.287 18.7 286.9 18.7H278.79L280.395 20.305C280.668 20.5784 280.668 21.0216 280.395 21.295Z" fill="#6B7280"/>
<path fill-rule="evenodd" clip-rule="evenodd" d="M332.6 17.9999C332.6 21.0927 330.093 23.5999 327 23.5999C323.907 23.5999 321.4 21.0927 321.4 17.9999C321.4 14.9071 323.907 12.3999 327 12.3999C330.093 12.3999 332.6 14.9071 332.6 17.9999ZM327.7 15.1999C327.7 15.5865 327.387 15.8999 327 15.8999C326.613 15.8999 326.3 15.5865 326.3 15.1999C326.3 14.8133 326.613 14.4999 327 14.4999C327.387 14.4999 327.7 14.8133 327.7 15.1999ZM326.3 17.2999C325.913 17.2999 325.6 17.6133 325.6 17.9999C325.6 18.3865 325.913 18.6999 326.3 18.6999V20.7999C326.3 21.1865 326.613 21.4999 327 21.4999H327.7C328.087 21.4999 328.4 21.1865 328.4 20.7999C328.4 20.4133 328.087 20.0999 327.7 20.0999V17.9999C327.7 17.6133 327.387 17.2999 327 17.2999H326.3Z" fill="#6B7280"/>
<path fill-rule="evenodd" clip-rule="evenodd" d="M367.8 12.3999C368.187 12.3999 368.5 12.7133 368.5 13.0999V14.5708C369.389 13.6633 370.628 13.0999 372 13.0999C374.135 13.0999 375.949 14.4644 376.621 16.3666C376.75 16.7311 376.559 17.1311 376.194 17.2599C375.83 17.3887 375.43 17.1977 375.301 16.8332C374.82 15.4728 373.523 14.4999 372 14.4999C370.856 14.4999 369.838 15.0494 369.2 15.8999H371.3C371.687 15.8999 372 16.2133 372 16.5999C372 16.9865 371.687 17.2999 371.3 17.2999H367.8C367.413 17.2999 367.1 16.9865 367.1 16.5999V13.0999C367.1 12.7133 367.413 12.3999 367.8 12.3999ZM367.806 18.7399C368.17 18.6111 368.57 18.8021 368.699 19.1667C369.18 20.527 370.477 21.4999 372 21.4999C373.144 21.4999 374.162 20.9504 374.8 20.0999H372.7C372.313 20.0999 372 19.7865 372 19.3999C372 19.0133 372.313 18.6999 372.7 18.6999H376.2C376.386 18.6999 376.564 18.7737 376.695 18.9049C376.826 19.0362 376.9 19.2143 376.9 19.3999V22.8999C376.9 23.2865 376.587 23.5999 376.2 23.5999C375.813 23.5999 375.5 23.2865 375.5 22.8999V21.429C374.611 22.3365 373.372 22.8999 372 22.8999C369.865 22.8999 368.051 21.5354 367.379 19.6331C367.25 19.2687 367.441 18.8687 367.806 18.7399Z" fill="#6B7280"/>
<path d="M300.801 60.3636C300.741 59.8598 300.5 59.4688 300.075 59.1903C299.651 58.9119 299.131 58.7727 298.514 58.7727C298.063 58.7727 297.669 58.8456 297.331 58.9915C296.996 59.1373 296.734 59.3378 296.545 59.593C296.36 59.8482 296.267 60.1383 296.267 60.4631C296.267 60.7348 296.332 60.9685 296.461 61.1641C296.594 61.3563 296.763 61.517 296.968 61.6463C297.174 61.7723 297.389 61.8767 297.614 61.9595C297.84 62.0391 298.047 62.1037 298.236 62.1534L299.27 62.4318C299.535 62.5014 299.83 62.5975 300.155 62.7202C300.483 62.8428 300.796 63.0102 301.094 63.2223C301.396 63.4311 301.645 63.6996 301.84 64.0277C302.036 64.3558 302.134 64.7585 302.134 65.2358C302.134 65.786 301.989 66.2831 301.701 66.7273C301.416 67.1714 300.998 67.5244 300.448 67.7862C299.901 68.0481 299.237 68.179 298.455 68.179C297.725 68.179 297.094 68.0613 296.56 67.826C296.03 67.5907 295.612 67.2625 295.308 66.8416C295.006 66.4207 294.835 65.9318 294.795 65.375H296.068C296.101 65.7595 296.231 66.0777 296.456 66.3295C296.685 66.5781 296.973 66.7637 297.321 66.8864C297.672 67.0057 298.05 67.0653 298.455 67.0653C298.925 67.0653 299.348 66.9891 299.722 66.8366C300.097 66.6809 300.393 66.4654 300.612 66.1903C300.831 65.9119 300.94 65.5871 300.94 65.2159C300.94 64.8778 300.846 64.6027 300.657 64.3906C300.468 64.1785 300.219 64.0062 299.911 63.8736C299.603 63.741 299.27 63.625 298.912 63.5256L297.659 63.1676C296.864 62.9389 296.234 62.6125 295.77 62.1882C295.306 61.764 295.074 61.2088 295.074 60.5227C295.074 59.9527 295.228 59.4555 295.536 59.0312C295.848 58.6037 296.265 58.2723 296.789 58.0369C297.316 57.7983 297.904 57.679 298.554 57.679C299.21 57.679 299.794 57.7966 300.304 58.032C300.814 58.264 301.219 58.5821 301.517 58.9865C301.819 59.3909 301.978 59.8499 301.994 60.3636H300.801ZM305.175 63.4062V68H304.002V57.8182H305.175V61.5568H305.274C305.453 61.1624 305.722 60.8492 306.08 60.6172C306.441 60.3819 306.922 60.2642 307.521 60.2642C308.042 60.2642 308.498 60.3686 308.889 60.5774C309.28 60.7829 309.583 61.0994 309.798 61.527C310.017 61.9512 310.127 62.4915 310.127 63.1477V68H308.953V63.2273C308.953 62.6207 308.796 62.1518 308.481 61.8203C308.169 61.4856 307.737 61.3182 307.183 61.3182C306.799 61.3182 306.454 61.3994 306.149 61.5618C305.848 61.7242 305.609 61.9612 305.433 62.2727C305.261 62.5843 305.175 62.9621 305.175 63.4062ZM314.52 68.179C314.036 68.179 313.597 68.0878 313.203 67.9055C312.808 67.7199 312.495 67.4531 312.263 67.1051C312.031 66.7538 311.915 66.3295 311.915 65.8324C311.915 65.3949 312.001 65.0402 312.174 64.7685C312.346 64.4934 312.576 64.2779 312.865 64.1222C313.153 63.9664 313.471 63.8504 313.819 63.7741C314.171 63.6946 314.524 63.6316 314.878 63.5852C315.342 63.5256 315.718 63.4808 316.007 63.451C316.298 63.4179 316.511 63.3632 316.643 63.2869C316.779 63.2107 316.847 63.0781 316.847 62.8892V62.8494C316.847 62.3589 316.713 61.9777 316.444 61.706C316.179 61.4342 315.776 61.2983 315.236 61.2983C314.676 61.2983 314.237 61.4209 313.919 61.6662C313.6 61.9115 313.377 62.1733 313.248 62.4517L312.134 62.054C312.333 61.59 312.598 61.2287 312.929 60.9702C313.264 60.7083 313.629 60.526 314.023 60.4233C314.421 60.3172 314.812 60.2642 315.196 60.2642C315.442 60.2642 315.723 60.294 316.042 60.3537C316.363 60.41 316.673 60.5277 316.971 60.7067C317.273 60.8857 317.523 61.1558 317.722 61.517C317.921 61.8783 318.02 62.3622 318.02 62.9688V68H316.847V66.9659H316.787C316.708 67.1316 316.575 67.3089 316.39 67.4979C316.204 67.6868 315.957 67.8475 315.649 67.9801C315.341 68.1127 314.964 68.179 314.52 68.179ZM314.699 67.125C315.163 67.125 315.554 67.0339 315.873 66.8516C316.194 66.6693 316.436 66.4339 316.598 66.1456C316.764 65.8572 316.847 65.554 316.847 65.2358V64.1619C316.797 64.2216 316.688 64.2763 316.519 64.326C316.353 64.3724 316.161 64.4138 315.942 64.4503C315.727 64.4834 315.516 64.5133 315.311 64.5398C315.109 64.563 314.944 64.5829 314.819 64.5994C314.514 64.6392 314.229 64.7038 313.963 64.7933C313.702 64.8795 313.489 65.0104 313.327 65.1861C313.168 65.3584 313.088 65.5937 313.088 65.892C313.088 66.2997 313.239 66.608 313.541 66.8168C313.846 67.0223 314.232 67.125 314.699 67.125ZM320.162 68V60.3636H321.295V61.517H321.375C321.514 61.1392 321.766 60.8326 322.131 60.5973C322.495 60.362 322.906 60.2443 323.363 60.2443C323.45 60.2443 323.557 60.246 323.687 60.2493C323.816 60.2526 323.914 60.2576 323.98 60.2642V61.4574C323.94 61.4474 323.849 61.4325 323.706 61.4126C323.567 61.3894 323.42 61.3778 323.264 61.3778C322.893 61.3778 322.561 61.4557 322.27 61.6115C321.981 61.764 321.753 61.9761 321.584 62.2479C321.418 62.5163 321.335 62.8229 321.335 63.1676V68H320.162ZM328.34 68.1591C327.604 68.1591 326.97 67.9967 326.436 67.6719C325.906 67.3438 325.496 66.8864 325.208 66.2997C324.923 65.7098 324.78 65.0237 324.78 64.2415C324.78 63.4593 324.923 62.7699 325.208 62.1733C325.496 61.5734 325.897 61.1061 326.411 60.7713C326.928 60.4332 327.531 60.2642 328.221 60.2642C328.618 60.2642 329.011 60.3305 329.399 60.4631C329.787 60.5956 330.14 60.8111 330.458 61.1094C330.776 61.4044 331.03 61.7955 331.219 62.2827C331.407 62.7699 331.502 63.3698 331.502 64.0824V64.5795H325.616V63.5653H330.309C330.309 63.1345 330.223 62.75 330.05 62.4119C329.881 62.0739 329.639 61.8071 329.324 61.6115C329.013 61.416 328.645 61.3182 328.221 61.3182C327.753 61.3182 327.349 61.4342 327.008 61.6662C326.67 61.8949 326.409 62.1932 326.227 62.5611C326.045 62.929 325.954 63.3234 325.954 63.7443V64.4205C325.954 64.9972 326.053 65.486 326.252 65.8871C326.454 66.2848 326.734 66.5881 327.092 66.7969C327.45 67.0024 327.866 67.1051 328.34 67.1051C328.648 67.1051 328.927 67.062 329.175 66.9759C329.427 66.8864 329.644 66.7538 329.827 66.5781C330.009 66.3991 330.15 66.1771 330.249 65.9119L331.383 66.2301C331.263 66.6146 331.063 66.9527 330.781 67.2443C330.499 67.5327 330.151 67.758 329.737 67.9205C329.323 68.0795 328.857 68.1591 328.34 68.1591ZM334.142 68.0795C333.897 68.0795 333.686 67.9917 333.51 67.8161C333.335 67.6404 333.247 67.4299 333.247 67.1847C333.247 66.9394 333.335 66.7289 333.51 66.5533C333.686 66.3776 333.897 66.2898 334.142 66.2898C334.387 66.2898 334.598 66.3776 334.773 66.5533C334.949 66.7289 335.037 66.9394 335.037 67.1847C335.037 67.3471 334.995 67.4962 334.912 67.6321C334.833 67.768 334.725 67.8774 334.589 67.9602C334.457 68.0398 334.308 68.0795 334.142 68.0795ZM337.997 68.0795C337.752 68.0795 337.542 67.9917 337.366 67.8161C337.19 67.6404 337.102 67.4299 337.102 67.1847C337.102 66.9394 337.19 66.7289 337.366 66.5533C337.542 66.3776 337.752 66.2898 337.997 66.2898C338.243 66.2898 338.453 66.3776 338.629 66.5533C338.804 66.7289 338.892 66.9394 338.892 67.1847C338.892 67.3471 338.851 67.4962 338.768 67.6321C338.688 67.768 338.581 67.8774 338.445 67.9602C338.312 68.0398 338.163 68.0795 337.997 68.0795ZM341.853 68.0795C341.608 68.0795 341.397 67.9917 341.221 67.8161C341.046 67.6404 340.958 67.4299 340.958 67.1847C340.958 66.9394 341.046 66.7289 341.221 66.5533C341.397 66.3776 341.608 66.2898 341.853 66.2898C342.098 66.2898 342.309 66.3776 342.484 66.5533C342.66 66.7289 342.748 66.9394 342.748 67.1847C342.748 67.3471 342.706 67.4962 342.623 67.6321C342.544 67.768 342.436 67.8774 342.3 67.9602C342.168 68.0398 342.019 68.0795 341.853 68.0795Z" fill="#1A202C"/>
<path d="M287 61.4001C288.325 61.4001 289.4 60.3256 289.4 59.0001C289.4 57.6746 288.325 56.6001 287 56.6001C285.674 56.6001 284.6 57.6746 284.6 59.0001C284.6 59.1005 284.606 59.1994 284.618 59.2966L280.666 61.2726C280.234 60.8562 279.647 60.6001 279 60.6001C277.674 60.6001 276.6 61.6746 276.6 63.0001C276.6 64.3256 277.674 65.4001 279 65.4001C279.647 65.4001 280.234 65.1439 280.666 64.7275L284.618 66.7035C284.606 66.8007 284.6 66.8997 284.6 67.0001C284.6 68.3256 285.674 69.4001 287 69.4001C288.325 69.4001 289.4 68.3256 289.4 67.0001C289.4 65.6746 288.325 64.6001 287 64.6001C286.353 64.6001 285.766 64.8562 285.334 65.2726L281.382 63.2966C281.394 63.1995 281.4 63.1005 281.4 63.0001C281.4 62.8997 281.394 62.8007 281.382 62.7036L285.334 60.7276C285.765 61.144 286.353 61.4001 287 61.4001Z" fill="#2D3748"/>
</g>
<defs>
<filter id="filter0_dd_1306_14942" x="257" y="4" width="140" height="108" filterUnits="userSpaceOnUse" color-interpolation-filters="sRGB">
<feFlood flood-opacity="0" result="BackgroundImageFix"/>
<feColorMatrix in="SourceAlpha" type="matrix" values="0 0 0 0 0 0 0 0 0 0 0 0 0 0 0 0 0 0 127 0" result="hardAlpha"/>
<feOffset dy="4"/>
<feGaussianBlur stdDeviation="3"/>
<feColorMatrix type="matrix" values="0 0 0 0 0 0 0 0 0 0 0 0 0 0 0 0 0 0 0.1 0"/>
<feBlend mode="normal" in2="BackgroundImageFix" result="effect1_dropShadow_1306_14942"/>
<feColorMatrix in="SourceAlpha" type="matrix" values="0 0 0 0 0 0 0 0 0 0 0 0 0 0 0 0 0 0 127 0" result="hardAlpha"/>
<feOffset dy="2"/>
<feGaussianBlur stdDeviation="2"/>
<feColorMatrix type="matrix" values="0 0 0 0 0 0 0 0 0 0 0 0 0 0 0 0 0 0 0.06 0"/>
<feBlend mode="normal" in2="effect1_dropShadow_1306_14942" result="effect2_dropShadow_1306_14942"/>
<feBlend mode="normal" in="SourceGraphic" in2="effect2_dropShadow_1306_14942" result="shape"/>
</filter>
<clipPath id="clip0_1306_14942">
<rect width="397" height="112.028" fill="white"/>
</clipPath>
</defs>
</svg>
