<svg width="397" height="113" viewBox="0 0 397 113" fill="none" xmlns="http://www.w3.org/2000/svg">
<g clip-path="url(#clip0_1306_14965)">
<path d="M0 16C0 7.16344 7.16345 0 16 0H381C389.837 0 397 7.16344 397 16V112H0V16Z" fill="#1F2937"/>
<path d="M0 112.028V50.8344M0 50.8344V16C0 7.16343 7.16345 0 16 0H381C389.837 0 397 7.16344 397 16V50.8344M0 50.8344H397M397 50.8344V112" stroke="#6B7280" stroke-width="2"/>
<circle cx="26" cy="26.5" r="8" fill="#FC8181"/>
<circle cx="48" cy="26.5" r="8" fill="#F6E05E"/>
<circle cx="70" cy="26.5" r="8" fill="#68D391"/>
<path d="M127.5 10H332.5C341.06 10 348 16.9396 348 25.5C348 34.0604 341.06 41 332.5 41H127.5C118.94 41 112 34.0604 112 25.5C112 16.9396 118.94 10 127.5 10Z" fill="#1F2937" stroke="#6B7280" stroke-width="2"/>
<path d="M129.858 30.5L127.392 21.7727H129.489L131.023 27.9091H131.102L132.67 21.7727H134.744L136.312 27.875H136.398L137.909 21.7727H140.011L137.54 30.5H135.398L133.761 24.6023H133.642L132.006 30.5H129.858ZM145.061 30.6705C144.186 30.6705 143.43 30.4886 142.794 30.125C142.161 29.7576 141.675 29.2386 141.334 28.5682C140.993 27.8939 140.822 27.1004 140.822 26.1875C140.822 25.2898 140.993 24.5019 141.334 23.8239C141.679 23.142 142.16 22.6117 142.777 22.233C143.394 21.8504 144.12 21.6591 144.953 21.6591C145.491 21.6591 145.999 21.7462 146.476 21.9205C146.957 22.0909 147.381 22.3561 147.749 22.7159C148.12 23.0758 148.411 23.5341 148.624 24.0909C148.836 24.6439 148.942 25.303 148.942 26.0682V26.6989H141.788V25.3125H146.97C146.966 24.9186 146.881 24.5682 146.714 24.2614C146.548 23.9508 146.315 23.7064 146.016 23.5284C145.72 23.3504 145.375 23.2614 144.982 23.2614C144.561 23.2614 144.192 23.3636 143.874 23.5682C143.555 23.7689 143.307 24.0341 143.129 24.3636C142.955 24.6894 142.866 25.0473 142.862 25.4375V26.6477C142.862 27.1553 142.955 27.5909 143.141 27.9545C143.326 28.3144 143.586 28.5909 143.919 28.7841C144.252 28.9735 144.643 29.0682 145.089 29.0682C145.389 29.0682 145.66 29.0265 145.902 28.9432C146.144 28.8561 146.355 28.7292 146.533 28.5625C146.711 28.3958 146.845 28.1894 146.936 27.9432L148.857 28.1591C148.735 28.6667 148.504 29.1098 148.163 29.4886C147.826 29.8636 147.394 30.1553 146.868 30.3636C146.341 30.5682 145.739 30.6705 145.061 30.6705ZM150.773 30.5V18.8636H152.83V23.2159H152.915C153.021 23.0038 153.17 22.7784 153.364 22.5398C153.557 22.2973 153.818 22.0909 154.148 21.9205C154.477 21.7462 154.898 21.6591 155.409 21.6591C156.083 21.6591 156.691 21.8314 157.233 22.1761C157.778 22.517 158.21 23.0227 158.528 23.6932C158.85 24.3598 159.011 25.178 159.011 26.1477C159.011 27.1061 158.854 27.9205 158.54 28.5909C158.225 29.2614 157.797 29.7727 157.256 30.125C156.714 30.4773 156.1 30.6534 155.415 30.6534C154.915 30.6534 154.5 30.5701 154.17 30.4034C153.841 30.2367 153.576 30.036 153.375 29.8011C153.178 29.5625 153.025 29.3371 152.915 29.125H152.795V30.5H150.773ZM152.79 26.1364C152.79 26.7008 152.869 27.1951 153.028 27.6193C153.191 28.0436 153.424 28.375 153.727 28.6136C154.034 28.8485 154.405 28.9659 154.841 28.9659C155.295 28.9659 155.676 28.8447 155.983 28.6023C156.29 28.3561 156.521 28.0208 156.676 27.5966C156.835 27.1686 156.915 26.6818 156.915 26.1364C156.915 25.5947 156.837 25.1136 156.682 24.6932C156.527 24.2727 156.295 23.9432 155.989 23.7045C155.682 23.4659 155.299 23.3466 154.841 23.3466C154.402 23.3466 154.028 23.4621 153.722 23.6932C153.415 23.9242 153.182 24.2481 153.023 24.6648C152.867 25.0814 152.79 25.572 152.79 26.1364ZM167.658 24.0795L165.783 24.2841C165.73 24.0947 165.637 23.9167 165.504 23.75C165.375 23.5833 165.201 23.4489 164.982 23.3466C164.762 23.2443 164.493 23.1932 164.175 23.1932C163.747 23.1932 163.387 23.286 163.095 23.4716C162.807 23.6572 162.665 23.8977 162.669 24.1932C162.665 24.447 162.758 24.6534 162.947 24.8125C163.141 24.9716 163.459 25.1023 163.902 25.2045L165.391 25.5227C166.216 25.7008 166.83 25.983 167.232 26.3693C167.637 26.7557 167.841 27.2614 167.845 27.8864C167.841 28.4356 167.68 28.9205 167.362 29.3409C167.048 29.7576 166.61 30.0833 166.05 30.3182C165.489 30.553 164.845 30.6705 164.118 30.6705C163.05 30.6705 162.19 30.447 161.538 30C160.887 29.5492 160.499 28.9223 160.374 28.1193L162.379 27.9261C162.47 28.3201 162.663 28.6174 162.959 28.8182C163.254 29.0189 163.639 29.1193 164.112 29.1193C164.601 29.1193 164.993 29.0189 165.288 28.8182C165.588 28.6174 165.737 28.3693 165.737 28.0739C165.737 27.8239 165.641 27.6174 165.447 27.4545C165.258 27.2917 164.963 27.1667 164.561 27.0795L163.072 26.767C162.235 26.5928 161.616 26.2992 161.214 25.8864C160.813 25.4697 160.614 24.9432 160.618 24.3068C160.614 23.7689 160.76 23.303 161.055 22.9091C161.355 22.5114 161.769 22.2045 162.3 21.9886C162.834 21.7689 163.449 21.6591 164.146 21.6591C165.169 21.6591 165.974 21.8769 166.561 22.3125C167.152 22.7481 167.518 23.3371 167.658 24.0795ZM169.541 30.5V21.7727H171.598V30.5H169.541ZM170.575 20.5341C170.25 20.5341 169.969 20.4261 169.734 20.2102C169.5 19.9905 169.382 19.7273 169.382 19.4205C169.382 19.1098 169.5 18.8466 169.734 18.6307C169.969 18.411 170.25 18.3011 170.575 18.3011C170.905 18.3011 171.185 18.411 171.416 18.6307C171.651 18.8466 171.768 19.1098 171.768 19.4205C171.768 19.7273 171.651 19.9905 171.416 20.2102C171.185 20.4261 170.905 20.5341 170.575 20.5341ZM178.071 21.7727V23.3636H173.054V21.7727H178.071ZM174.293 19.6818H176.349V27.875C176.349 28.1515 176.391 28.3636 176.474 28.5114C176.562 28.6553 176.675 28.7538 176.815 28.8068C176.955 28.8598 177.111 28.8864 177.281 28.8864C177.41 28.8864 177.527 28.8769 177.634 28.858C177.743 28.839 177.827 28.822 177.884 28.8068L178.23 30.4148C178.12 30.4527 177.963 30.4943 177.759 30.5398C177.558 30.5852 177.312 30.6117 177.02 30.6193C176.505 30.6345 176.041 30.5568 175.628 30.3864C175.215 30.2121 174.887 29.9432 174.645 29.5795C174.406 29.2159 174.289 28.7614 174.293 28.2159V19.6818ZM183.561 30.6705C182.686 30.6705 181.93 30.4886 181.294 30.125C180.661 29.7576 180.175 29.2386 179.834 28.5682C179.493 27.8939 179.322 27.1004 179.322 26.1875C179.322 25.2898 179.493 24.5019 179.834 23.8239C180.179 23.142 180.66 22.6117 181.277 22.233C181.894 21.8504 182.62 21.6591 183.453 21.6591C183.991 21.6591 184.499 21.7462 184.976 21.9205C185.457 22.0909 185.881 22.3561 186.249 22.7159C186.62 23.0758 186.911 23.5341 187.124 24.0909C187.336 24.6439 187.442 25.303 187.442 26.0682V26.6989H180.288V25.3125H185.47C185.466 24.9186 185.381 24.5682 185.214 24.2614C185.048 23.9508 184.815 23.7064 184.516 23.5284C184.22 23.3504 183.875 23.2614 183.482 23.2614C183.061 23.2614 182.692 23.3636 182.374 23.5682C182.055 23.7689 181.807 24.0341 181.629 24.3636C181.455 24.6894 181.366 25.0473 181.362 25.4375V26.6477C181.362 27.1553 181.455 27.5909 181.641 27.9545C181.826 28.3144 182.086 28.5909 182.419 28.7841C182.752 28.9735 183.143 29.0682 183.589 29.0682C183.889 29.0682 184.16 29.0265 184.402 28.9432C184.644 28.8561 184.855 28.7292 185.033 28.5625C185.211 28.3958 185.345 28.1894 185.436 27.9432L187.357 28.1591C187.235 28.6667 187.004 29.1098 186.663 29.4886C186.326 29.8636 185.894 30.1553 185.368 30.3636C184.841 30.5682 184.239 30.6705 183.561 30.6705ZM193.54 21.7727V23.3636H188.523V21.7727H193.54ZM189.761 19.6818H191.818V27.875C191.818 28.1515 191.86 28.3636 191.943 28.5114C192.03 28.6553 192.144 28.7538 192.284 28.8068C192.424 28.8598 192.58 28.8864 192.75 28.8864C192.879 28.8864 192.996 28.8769 193.102 28.858C193.212 28.839 193.295 28.822 193.352 28.8068L193.699 30.4148C193.589 30.4527 193.432 30.4943 193.227 30.5398C193.027 30.5852 192.78 30.6117 192.489 30.6193C191.973 30.6345 191.509 30.5568 191.097 30.3864C190.684 30.2121 190.356 29.9432 190.114 29.5795C189.875 29.2159 189.758 28.7614 189.761 28.2159V19.6818ZM198.973 30.6705C198.121 30.6705 197.382 30.483 196.757 30.108C196.132 29.733 195.647 29.2083 195.303 28.5341C194.962 27.8598 194.791 27.072 194.791 26.1705C194.791 25.2689 194.962 24.4792 195.303 23.8011C195.647 23.1231 196.132 22.5966 196.757 22.2216C197.382 21.8466 198.121 21.6591 198.973 21.6591C199.825 21.6591 200.564 21.8466 201.189 22.2216C201.814 22.5966 202.297 23.1231 202.638 23.8011C202.982 24.4792 203.155 25.2689 203.155 26.1705C203.155 27.072 202.982 27.8598 202.638 28.5341C202.297 29.2083 201.814 29.733 201.189 30.108C200.564 30.483 199.825 30.6705 198.973 30.6705ZM198.984 29.0227C199.446 29.0227 199.833 28.8958 200.143 28.642C200.454 28.3845 200.685 28.0398 200.837 27.608C200.992 27.1761 201.07 26.6951 201.07 26.1648C201.07 25.6307 200.992 25.1477 200.837 24.7159C200.685 24.2803 200.454 23.9337 200.143 23.6761C199.833 23.4186 199.446 23.2898 198.984 23.2898C198.511 23.2898 198.117 23.4186 197.803 23.6761C197.492 23.9337 197.259 24.2803 197.104 24.7159C196.952 25.1477 196.876 25.6307 196.876 26.1648C196.876 26.6951 196.952 27.1761 197.104 27.608C197.259 28.0398 197.492 28.3845 197.803 28.642C198.117 28.8958 198.511 29.0227 198.984 29.0227ZM206.168 30.625C205.823 30.625 205.527 30.5038 205.281 30.2614C205.035 30.0189 204.914 29.7235 204.918 29.375C204.914 29.0341 205.035 28.7424 205.281 28.5C205.527 28.2576 205.823 28.1364 206.168 28.1364C206.501 28.1364 206.791 28.2576 207.037 28.5C207.287 28.7424 207.414 29.0341 207.418 29.375C207.414 29.6061 207.353 29.8163 207.236 30.0057C207.122 30.1951 206.971 30.3466 206.781 30.4602C206.596 30.5701 206.391 30.625 206.168 30.625ZM216.439 24.0795L214.564 24.2841C214.511 24.0947 214.418 23.9167 214.286 23.75C214.157 23.5833 213.982 23.4489 213.763 23.3466C213.543 23.2443 213.274 23.1932 212.956 23.1932C212.528 23.1932 212.168 23.286 211.876 23.4716C211.589 23.6572 211.446 23.8977 211.45 24.1932C211.446 24.447 211.539 24.6534 211.729 24.8125C211.922 24.9716 212.24 25.1023 212.683 25.2045L214.172 25.5227C214.998 25.7008 215.611 25.983 216.013 26.3693C216.418 26.7557 216.623 27.2614 216.626 27.8864C216.623 28.4356 216.462 28.9205 216.143 29.3409C215.829 29.7576 215.392 30.0833 214.831 30.3182C214.27 30.553 213.626 30.6705 212.899 30.6705C211.831 30.6705 210.971 30.447 210.32 30C209.668 29.5492 209.28 28.9223 209.155 28.1193L211.161 27.9261C211.251 28.3201 211.445 28.6174 211.74 28.8182C212.036 29.0189 212.42 29.1193 212.893 29.1193C213.382 29.1193 213.774 29.0189 214.07 28.8182C214.369 28.6174 214.518 28.3693 214.518 28.0739C214.518 27.8239 214.422 27.6174 214.229 27.4545C214.039 27.2917 213.744 27.1667 213.342 27.0795L211.854 26.767C211.017 26.5928 210.397 26.2992 209.996 25.8864C209.594 25.4697 209.395 24.9432 209.399 24.3068C209.395 23.7689 209.541 23.303 209.837 22.9091C210.136 22.5114 210.551 22.2045 211.081 21.9886C211.615 21.7689 212.231 21.6591 212.928 21.6591C213.95 21.6591 214.755 21.8769 215.342 22.3125C215.933 22.7481 216.299 23.3371 216.439 24.0795ZM220.834 30.6761C220.281 30.6761 219.783 30.5777 219.339 30.3807C218.9 30.1799 218.552 29.8845 218.294 29.4943C218.04 29.1042 217.913 28.6231 217.913 28.0511C217.913 27.5587 218.004 27.1515 218.186 26.8295C218.368 26.5076 218.616 26.25 218.93 26.0568C219.245 25.8636 219.599 25.7178 219.993 25.6193C220.391 25.517 220.802 25.4432 221.226 25.3977C221.737 25.3447 222.152 25.2973 222.47 25.2557C222.788 25.2102 223.019 25.142 223.163 25.0511C223.311 24.9564 223.385 24.8106 223.385 24.6136V24.5795C223.385 24.1515 223.258 23.8201 223.004 23.5852C222.75 23.3504 222.385 23.233 221.908 23.233C221.404 23.233 221.004 23.3428 220.709 23.5625C220.417 23.7822 220.22 24.0417 220.118 24.3409L218.197 24.0682C218.349 23.5379 218.599 23.0947 218.947 22.7386C219.296 22.3788 219.722 22.1098 220.226 21.9318C220.73 21.75 221.286 21.6591 221.896 21.6591C222.317 21.6591 222.735 21.7083 223.152 21.8068C223.569 21.9053 223.949 22.0682 224.294 22.2955C224.639 22.5189 224.915 22.8239 225.124 23.2102C225.336 23.5966 225.442 24.0795 225.442 24.6591V30.5H223.464V29.3011H223.396C223.271 29.5436 223.095 29.7708 222.868 29.983C222.644 30.1913 222.362 30.3598 222.021 30.4886C221.684 30.6136 221.288 30.6761 220.834 30.6761ZM221.368 29.1648C221.781 29.1648 222.139 29.0833 222.442 28.9205C222.745 28.7538 222.978 28.5341 223.141 28.2614C223.307 27.9886 223.391 27.6913 223.391 27.3693V26.3409C223.326 26.3939 223.216 26.4432 223.061 26.4886C222.91 26.5341 222.739 26.5739 222.55 26.608C222.36 26.642 222.173 26.6723 221.987 26.6989C221.802 26.7254 221.641 26.7481 221.504 26.767C221.197 26.8087 220.923 26.8769 220.68 26.9716C220.438 27.0663 220.247 27.1989 220.107 27.3693C219.966 27.536 219.896 27.7519 219.896 28.017C219.896 28.3958 220.035 28.6818 220.311 28.875C220.588 29.0682 220.94 29.1648 221.368 29.1648ZM234.993 21.7727L231.885 30.5H229.612L226.504 21.7727H228.697L230.703 28.2557H230.794L232.805 21.7727H234.993ZM239.983 30.6705C239.108 30.6705 238.352 30.4886 237.716 30.125C237.083 29.7576 236.597 29.2386 236.256 28.5682C235.915 27.8939 235.744 27.1004 235.744 26.1875C235.744 25.2898 235.915 24.5019 236.256 23.8239C236.6 23.142 237.081 22.6117 237.699 22.233C238.316 21.8504 239.042 21.6591 239.875 21.6591C240.413 21.6591 240.92 21.7462 241.398 21.9205C241.879 22.0909 242.303 22.3561 242.67 22.7159C243.042 23.0758 243.333 23.5341 243.545 24.0909C243.758 24.6439 243.864 25.303 243.864 26.0682V26.6989H236.71V25.3125H241.892C241.888 24.9186 241.803 24.5682 241.636 24.2614C241.47 23.9508 241.237 23.7064 240.938 23.5284C240.642 23.3504 240.297 23.2614 239.903 23.2614C239.483 23.2614 239.114 23.3636 238.795 23.5682C238.477 23.7689 238.229 24.0341 238.051 24.3636C237.877 24.6894 237.788 25.0473 237.784 25.4375V26.6477C237.784 27.1553 237.877 27.5909 238.062 27.9545C238.248 28.3144 238.508 28.5909 238.841 28.7841C239.174 28.9735 239.564 29.0682 240.011 29.0682C240.311 29.0682 240.581 29.0265 240.824 28.9432C241.066 28.8561 241.277 28.7292 241.455 28.5625C241.633 28.3958 241.767 28.1894 241.858 27.9432L243.778 28.1591C243.657 28.6667 243.426 29.1098 243.085 29.4886C242.748 29.8636 242.316 30.1553 241.79 30.3636C241.263 30.5682 240.661 30.6705 239.983 30.6705Z" fill="#9CA3AF"/>
<rect x="363.9" y="20.2999" width="16.2" height="14.4" rx="2.7" stroke="#D1D5DB" stroke-width="1.8"/>
<rect x="369.3" y="17.6001" width="1.8" height="5.4" fill="#1F2937"/>
<rect x="372.9" y="17.6001" width="1.8" height="5.4" fill="#1F2937"/>
<path d="M372 27.5V14M372 14L369.3 17.6M372 14L374.7 17.6" stroke="#D1D5DB" stroke-width="1.8" stroke-linecap="round" stroke-linejoin="round"/>
<g filter="url(#filter0_dd_1306_14965)">
<path fill-rule="evenodd" clip-rule="evenodd" d="M374.093 44.2769L368.231 38L362.368 44.2769H374.093ZM269 44.2769C265.686 44.2769 263 46.9632 263 50.2769V100C263 103.314 265.686 106 269 106H385C388.314 106 391 103.314 391 100V50.2769C391 46.9632 388.314 44.2769 385 44.2769H269Z" fill="#F1F5F9"/>
</g>
<rect x="275" y="58" width="28" height="28" rx="4" fill="white"/>
<path d="M295.034 71.6364C297.625 69.0454 296.936 64.3154 293.282 63L282.727 63C281.864 63 281 63.6888 281 64.7273L281 80.2727C281 81.1364 281.691 82 282.727 82H293.523C299.377 79.8409 297.841 72.9318 295.034 71.6364Z" fill="#1A202C"/>
<circle cx="285.75" cy="70.3408" r="1.72727" fill="white"/>
<circle cx="290.932" cy="70.3408" r="1.72727" fill="white"/>
<circle cx="290.932" cy="75.5227" r="1.72727" fill="white"/>
<circle cx="285.75" cy="75.5227" r="1.72727" fill="white"/>
<path d="M281.528 94V89.6364H283.054C283.358 89.6364 283.609 89.6889 283.806 89.794C284.004 89.8977 284.151 90.0376 284.247 90.2138C284.344 90.3885 284.392 90.5824 284.392 90.7955C284.392 90.983 284.359 91.1378 284.292 91.2599C284.227 91.3821 284.14 91.4787 284.032 91.5497C283.925 91.6207 283.81 91.6733 283.685 91.7074V91.75C283.818 91.7585 283.952 91.8054 284.087 91.8906C284.222 91.9759 284.335 92.098 284.426 92.2571C284.517 92.4162 284.562 92.6108 284.562 92.8409C284.562 93.0597 284.513 93.2564 284.413 93.4311C284.314 93.6058 284.157 93.7443 283.942 93.8466C283.728 93.9489 283.449 94 283.105 94H281.528ZM282.057 93.5312H283.105C283.45 93.5312 283.695 93.4645 283.84 93.331C283.987 93.196 284.06 93.0327 284.06 92.8409C284.06 92.6932 284.022 92.5568 283.947 92.4318C283.871 92.3054 283.764 92.2045 283.625 92.1293C283.486 92.0526 283.321 92.0142 283.131 92.0142H282.057V93.5312ZM282.057 91.554H283.037C283.196 91.554 283.339 91.5227 283.467 91.4602C283.597 91.3977 283.699 91.3097 283.774 91.196C283.851 91.0824 283.889 90.9489 283.889 90.7955C283.889 90.6037 283.822 90.4411 283.689 90.3075C283.555 90.1726 283.344 90.1051 283.054 90.1051H282.057V91.554ZM285.363 94V90.7273H285.848V91.2216H285.882C285.942 91.0597 286.05 90.9283 286.206 90.8274C286.363 90.7266 286.539 90.6761 286.735 90.6761C286.772 90.6761 286.818 90.6768 286.873 90.6783C286.929 90.6797 286.971 90.6818 286.999 90.6847V91.196C286.982 91.1918 286.943 91.1854 286.882 91.1768C286.822 91.1669 286.759 91.1619 286.692 91.1619C286.533 91.1619 286.391 91.1953 286.266 91.2621C286.142 91.3274 286.044 91.4183 285.972 91.5348C285.901 91.6499 285.865 91.7812 285.865 91.929V94H285.363ZM288.558 94.0767C288.351 94.0767 288.162 94.0376 287.993 93.9595C287.824 93.88 287.69 93.7656 287.591 93.6165C287.491 93.4659 287.442 93.2841 287.442 93.071C287.442 92.8835 287.479 92.7315 287.552 92.6151C287.626 92.4972 287.725 92.4048 287.849 92.3381C287.972 92.2713 288.108 92.2216 288.258 92.1889C288.408 92.1548 288.559 92.1278 288.711 92.108C288.91 92.0824 289.072 92.0632 289.195 92.0504C289.32 92.0362 289.411 92.0128 289.468 91.9801C289.526 91.9474 289.555 91.8906 289.555 91.8097V91.7926C289.555 91.5824 289.498 91.419 289.383 91.3026C289.269 91.1861 289.096 91.1278 288.865 91.1278C288.625 91.1278 288.437 91.1804 288.3 91.2855C288.164 91.3906 288.068 91.5028 288.013 91.6222L287.535 91.4517C287.621 91.2528 287.734 91.098 287.876 90.9872C288.02 90.875 288.176 90.7969 288.345 90.7528C288.515 90.7074 288.683 90.6847 288.848 90.6847C288.953 90.6847 289.074 90.6974 289.21 90.723C289.348 90.7472 289.481 90.7976 289.608 90.8743C289.738 90.951 289.845 91.0668 289.93 91.2216C290.015 91.3764 290.058 91.5838 290.058 91.8438V94H289.555V93.5568H289.53C289.496 93.6278 289.439 93.7038 289.359 93.7848C289.28 93.8658 289.174 93.9347 289.042 93.9915C288.91 94.0483 288.748 94.0767 288.558 94.0767ZM288.635 93.625C288.834 93.625 289.001 93.5859 289.138 93.5078C289.275 93.4297 289.379 93.3288 289.449 93.2053C289.52 93.0817 289.555 92.9517 289.555 92.8153V92.3551C289.534 92.3807 289.487 92.4041 289.415 92.4254C289.344 92.4453 289.261 92.4631 289.167 92.4787C289.075 92.4929 288.985 92.5057 288.897 92.517C288.81 92.527 288.74 92.5355 288.686 92.5426C288.555 92.5597 288.433 92.5874 288.319 92.6257C288.207 92.6626 288.116 92.7187 288.047 92.794C287.979 92.8679 287.944 92.9687 287.944 93.0966C287.944 93.2713 288.009 93.4034 288.138 93.4929C288.269 93.581 288.434 93.625 288.635 93.625ZM292.305 94.0682C291.999 94.0682 291.734 93.9957 291.513 93.8509C291.291 93.706 291.121 93.5064 291.001 93.2521C290.882 92.9979 290.822 92.7074 290.822 92.3807C290.822 92.0483 290.884 91.755 291.006 91.5007C291.129 91.245 291.301 91.0455 291.521 90.902C291.743 90.7571 292.001 90.6847 292.297 90.6847C292.527 90.6847 292.734 90.7273 292.919 90.8125C293.104 90.8977 293.255 91.017 293.373 91.1705C293.491 91.3239 293.564 91.5028 293.592 91.7074H293.089C293.051 91.5582 292.966 91.4261 292.834 91.3111C292.703 91.1946 292.527 91.1364 292.305 91.1364C292.109 91.1364 291.938 91.1875 291.79 91.2898C291.643 91.3906 291.529 91.5334 291.447 91.718C291.366 91.9013 291.325 92.1165 291.325 92.3636C291.325 92.6165 291.365 92.8366 291.445 93.0241C291.526 93.2116 291.639 93.3572 291.786 93.4609C291.933 93.5646 292.107 93.6165 292.305 93.6165C292.436 93.6165 292.555 93.5938 292.661 93.5483C292.768 93.5028 292.858 93.4375 292.932 93.3523C293.006 93.267 293.058 93.1648 293.089 93.0455H293.592C293.564 93.2386 293.494 93.4126 293.381 93.5675C293.271 93.7209 293.124 93.843 292.94 93.9339C292.759 94.0234 292.547 94.0682 292.305 94.0682ZM295.7 94.0682C295.384 94.0682 295.112 93.9986 294.884 93.8594C294.656 93.7188 294.481 93.5227 294.357 93.2713C294.235 93.0185 294.174 92.7244 294.174 92.3892C294.174 92.054 294.235 91.7585 294.357 91.5028C294.481 91.2457 294.653 91.0455 294.873 90.902C295.094 90.7571 295.353 90.6847 295.648 90.6847C295.819 90.6847 295.987 90.7131 296.153 90.7699C296.32 90.8267 296.471 90.919 296.607 91.0469C296.744 91.1733 296.852 91.3409 296.933 91.5497C297.014 91.7585 297.055 92.0156 297.055 92.321V92.5341H294.532V92.0994H296.543C296.543 91.9148 296.506 91.75 296.433 91.6051C296.36 91.4602 296.256 91.3459 296.121 91.2621C295.988 91.1783 295.83 91.1364 295.648 91.1364C295.448 91.1364 295.275 91.1861 295.129 91.2855C294.984 91.3835 294.872 91.5114 294.794 91.669C294.716 91.8267 294.677 91.9957 294.677 92.1761V92.4659C294.677 92.7131 294.719 92.9226 294.805 93.0945C294.891 93.2649 295.011 93.3949 295.165 93.4844C295.318 93.5724 295.496 93.6165 295.7 93.6165C295.832 93.6165 295.951 93.598 296.058 93.5611C296.165 93.5227 296.259 93.4659 296.337 93.3906C296.415 93.3139 296.475 93.2187 296.518 93.1051L297.004 93.2415C296.952 93.4062 296.866 93.5511 296.746 93.6761C296.625 93.7997 296.476 93.8963 296.298 93.9659C296.121 94.0341 295.921 94.0682 295.7 94.0682Z" fill="#1A202C"/>
</g>
<defs>
<filter id="filter0_dd_1306_14965" x="257" y="36" width="140" height="80" filterUnits="userSpaceOnUse" color-interpolation-filters="sRGB">
<feFlood flood-opacity="0" result="BackgroundImageFix"/>
<feColorMatrix in="SourceAlpha" type="matrix" values="0 0 0 0 0 0 0 0 0 0 0 0 0 0 0 0 0 0 127 0" result="hardAlpha"/>
<feOffset dy="4"/>
<feGaussianBlur stdDeviation="3"/>
<feColorMatrix type="matrix" values="0 0 0 0 0 0 0 0 0 0 0 0 0 0 0 0 0 0 0.1 0"/>
<feBlend mode="normal" in2="BackgroundImageFix" result="effect1_dropShadow_1306_14965"/>
<feColorMatrix in="SourceAlpha" type="matrix" values="0 0 0 0 0 0 0 0 0 0 0 0 0 0 0 0 0 0 127 0" result="hardAlpha"/>
<feOffset dy="2"/>
<feGaussianBlur stdDeviation="2"/>
<feColorMatrix type="matrix" values="0 0 0 0 0 0 0 0 0 0 0 0 0 0 0 0 0 0 0.06 0"/>
<feBlend mode="normal" in2="effect1_dropShadow_1306_14965" result="effect2_dropShadow_1306_14965"/>
<feBlend mode="normal" in="SourceGraphic" in2="effect2_dropShadow_1306_14965" result="shape"/>
</filter>
<clipPath id="clip0_1306_14965">
<rect width="397" height="112.028" fill="white"/>
</clipPath>
</defs>
</svg>
