<svg width="399" height="117" viewBox="0 0 399 117" fill="none" xmlns="http://www.w3.org/2000/svg">
<path d="M1 17C1 8.16344 8.16345 1 17 1H382C390.837 1 398 8.16344 398 17V113H1V17Z" fill="#1F2937"/>
<path d="M1 113.028V51.8344M1 51.8344V17C1 8.16343 8.16345 1 17 1H382C390.837 1 398 8.16344 398 17V51.8344M1 51.8344H398M398 51.8344V113" stroke="#6B7280" stroke-width="2"/>
<circle cx="27" cy="27.5" r="8" fill="#FC8181"/>
<circle cx="49" cy="27.5" r="8" fill="#F6E05E"/>
<circle cx="71" cy="27.5" r="8" fill="#68D391"/>
<path d="M128.5 11H333.5C342.06 11 349 17.9396 349 26.5C349 35.0604 342.06 42 333.5 42H128.5C119.94 42 113 35.0604 113 26.5C113 17.9396 119.94 11 128.5 11Z" fill="#1F2937" stroke="#6B7280" stroke-width="2"/>
<path d="M130.858 31.5L128.392 22.7727H130.489L132.023 28.9091H132.102L133.67 22.7727H135.744L137.312 28.875H137.398L138.909 22.7727H141.011L138.54 31.5H136.398L134.761 25.6023H134.642L133.006 31.5H130.858ZM146.061 31.6705C145.186 31.6705 144.43 31.4886 143.794 31.125C143.161 30.7576 142.675 30.2386 142.334 29.5682C141.993 28.8939 141.822 28.1004 141.822 27.1875C141.822 26.2898 141.993 25.5019 142.334 24.8239C142.679 24.142 143.16 23.6117 143.777 23.233C144.394 22.8504 145.12 22.6591 145.953 22.6591C146.491 22.6591 146.999 22.7462 147.476 22.9205C147.957 23.0909 148.381 23.3561 148.749 23.7159C149.12 24.0758 149.411 24.5341 149.624 25.0909C149.836 25.6439 149.942 26.303 149.942 27.0682V27.6989H142.788V26.3125H147.97C147.966 25.9186 147.881 25.5682 147.714 25.2614C147.548 24.9508 147.315 24.7064 147.016 24.5284C146.72 24.3504 146.375 24.2614 145.982 24.2614C145.561 24.2614 145.192 24.3636 144.874 24.5682C144.555 24.7689 144.307 25.0341 144.129 25.3636C143.955 25.6894 143.866 26.0473 143.862 26.4375V27.6477C143.862 28.1553 143.955 28.5909 144.141 28.9545C144.326 29.3144 144.586 29.5909 144.919 29.7841C145.252 29.9735 145.643 30.0682 146.089 30.0682C146.389 30.0682 146.66 30.0265 146.902 29.9432C147.144 29.8561 147.355 29.7292 147.533 29.5625C147.711 29.3958 147.845 29.1894 147.936 28.9432L149.857 29.1591C149.735 29.6667 149.504 30.1098 149.163 30.4886C148.826 30.8636 148.394 31.1553 147.868 31.3636C147.341 31.5682 146.739 31.6705 146.061 31.6705ZM151.773 31.5V19.8636H153.83V24.2159H153.915C154.021 24.0038 154.17 23.7784 154.364 23.5398C154.557 23.2973 154.818 23.0909 155.148 22.9205C155.477 22.7462 155.898 22.6591 156.409 22.6591C157.083 22.6591 157.691 22.8314 158.233 23.1761C158.778 23.517 159.21 24.0227 159.528 24.6932C159.85 25.3598 160.011 26.178 160.011 27.1477C160.011 28.1061 159.854 28.9205 159.54 29.5909C159.225 30.2614 158.797 30.7727 158.256 31.125C157.714 31.4773 157.1 31.6534 156.415 31.6534C155.915 31.6534 155.5 31.5701 155.17 31.4034C154.841 31.2367 154.576 31.036 154.375 30.8011C154.178 30.5625 154.025 30.3371 153.915 30.125H153.795V31.5H151.773ZM153.79 27.1364C153.79 27.7008 153.869 28.1951 154.028 28.6193C154.191 29.0436 154.424 29.375 154.727 29.6136C155.034 29.8485 155.405 29.9659 155.841 29.9659C156.295 29.9659 156.676 29.8447 156.983 29.6023C157.29 29.3561 157.521 29.0208 157.676 28.5966C157.835 28.1686 157.915 27.6818 157.915 27.1364C157.915 26.5947 157.837 26.1136 157.682 25.6932C157.527 25.2727 157.295 24.9432 156.989 24.7045C156.682 24.4659 156.299 24.3466 155.841 24.3466C155.402 24.3466 155.028 24.4621 154.722 24.6932C154.415 24.9242 154.182 25.2481 154.023 25.6648C153.867 26.0814 153.79 26.572 153.79 27.1364ZM168.658 25.0795L166.783 25.2841C166.73 25.0947 166.637 24.9167 166.504 24.75C166.375 24.5833 166.201 24.4489 165.982 24.3466C165.762 24.2443 165.493 24.1932 165.175 24.1932C164.747 24.1932 164.387 24.286 164.095 24.4716C163.807 24.6572 163.665 24.8977 163.669 25.1932C163.665 25.447 163.758 25.6534 163.947 25.8125C164.141 25.9716 164.459 26.1023 164.902 26.2045L166.391 26.5227C167.216 26.7008 167.83 26.983 168.232 27.3693C168.637 27.7557 168.841 28.2614 168.845 28.8864C168.841 29.4356 168.68 29.9205 168.362 30.3409C168.048 30.7576 167.61 31.0833 167.05 31.3182C166.489 31.553 165.845 31.6705 165.118 31.6705C164.05 31.6705 163.19 31.447 162.538 31C161.887 30.5492 161.499 29.9223 161.374 29.1193L163.379 28.9261C163.47 29.3201 163.663 29.6174 163.959 29.8182C164.254 30.0189 164.639 30.1193 165.112 30.1193C165.601 30.1193 165.993 30.0189 166.288 29.8182C166.588 29.6174 166.737 29.3693 166.737 29.0739C166.737 28.8239 166.641 28.6174 166.447 28.4545C166.258 28.2917 165.963 28.1667 165.561 28.0795L164.072 27.767C163.235 27.5928 162.616 27.2992 162.214 26.8864C161.813 26.4697 161.614 25.9432 161.618 25.3068C161.614 24.7689 161.76 24.303 162.055 23.9091C162.355 23.5114 162.769 23.2045 163.3 22.9886C163.834 22.7689 164.449 22.6591 165.146 22.6591C166.169 22.6591 166.974 22.8769 167.561 23.3125C168.152 23.7481 168.518 24.3371 168.658 25.0795ZM170.541 31.5V22.7727H172.598V31.5H170.541ZM171.575 21.5341C171.25 21.5341 170.969 21.4261 170.734 21.2102C170.5 20.9905 170.382 20.7273 170.382 20.4205C170.382 20.1098 170.5 19.8466 170.734 19.6307C170.969 19.411 171.25 19.3011 171.575 19.3011C171.905 19.3011 172.185 19.411 172.416 19.6307C172.651 19.8466 172.768 20.1098 172.768 20.4205C172.768 20.7273 172.651 20.9905 172.416 21.2102C172.185 21.4261 171.905 21.5341 171.575 21.5341ZM179.071 22.7727V24.3636H174.054V22.7727H179.071ZM175.293 20.6818H177.349V28.875C177.349 29.1515 177.391 29.3636 177.474 29.5114C177.562 29.6553 177.675 29.7538 177.815 29.8068C177.955 29.8598 178.111 29.8864 178.281 29.8864C178.41 29.8864 178.527 29.8769 178.634 29.858C178.743 29.839 178.827 29.822 178.884 29.8068L179.23 31.4148C179.12 31.4527 178.963 31.4943 178.759 31.5398C178.558 31.5852 178.312 31.6117 178.02 31.6193C177.505 31.6345 177.041 31.5568 176.628 31.3864C176.215 31.2121 175.887 30.9432 175.645 30.5795C175.406 30.2159 175.289 29.7614 175.293 29.2159V20.6818ZM184.561 31.6705C183.686 31.6705 182.93 31.4886 182.294 31.125C181.661 30.7576 181.175 30.2386 180.834 29.5682C180.493 28.8939 180.322 28.1004 180.322 27.1875C180.322 26.2898 180.493 25.5019 180.834 24.8239C181.179 24.142 181.66 23.6117 182.277 23.233C182.894 22.8504 183.62 22.6591 184.453 22.6591C184.991 22.6591 185.499 22.7462 185.976 22.9205C186.457 23.0909 186.881 23.3561 187.249 23.7159C187.62 24.0758 187.911 24.5341 188.124 25.0909C188.336 25.6439 188.442 26.303 188.442 27.0682V27.6989H181.288V26.3125H186.47C186.466 25.9186 186.381 25.5682 186.214 25.2614C186.048 24.9508 185.815 24.7064 185.516 24.5284C185.22 24.3504 184.875 24.2614 184.482 24.2614C184.061 24.2614 183.692 24.3636 183.374 24.5682C183.055 24.7689 182.807 25.0341 182.629 25.3636C182.455 25.6894 182.366 26.0473 182.362 26.4375V27.6477C182.362 28.1553 182.455 28.5909 182.641 28.9545C182.826 29.3144 183.086 29.5909 183.419 29.7841C183.752 29.9735 184.143 30.0682 184.589 30.0682C184.889 30.0682 185.16 30.0265 185.402 29.9432C185.644 29.8561 185.855 29.7292 186.033 29.5625C186.211 29.3958 186.345 29.1894 186.436 28.9432L188.357 29.1591C188.235 29.6667 188.004 30.1098 187.663 30.4886C187.326 30.8636 186.894 31.1553 186.368 31.3636C185.841 31.5682 185.239 31.6705 184.561 31.6705ZM194.54 22.7727V24.3636H189.523V22.7727H194.54ZM190.761 20.6818H192.818V28.875C192.818 29.1515 192.86 29.3636 192.943 29.5114C193.03 29.6553 193.144 29.7538 193.284 29.8068C193.424 29.8598 193.58 29.8864 193.75 29.8864C193.879 29.8864 193.996 29.8769 194.102 29.858C194.212 29.839 194.295 29.822 194.352 29.8068L194.699 31.4148C194.589 31.4527 194.432 31.4943 194.227 31.5398C194.027 31.5852 193.78 31.6117 193.489 31.6193C192.973 31.6345 192.509 31.5568 192.097 31.3864C191.684 31.2121 191.356 30.9432 191.114 30.5795C190.875 30.2159 190.758 29.7614 190.761 29.2159V20.6818ZM199.973 31.6705C199.121 31.6705 198.382 31.483 197.757 31.108C197.132 30.733 196.647 30.2083 196.303 29.5341C195.962 28.8598 195.791 28.072 195.791 27.1705C195.791 26.2689 195.962 25.4792 196.303 24.8011C196.647 24.1231 197.132 23.5966 197.757 23.2216C198.382 22.8466 199.121 22.6591 199.973 22.6591C200.825 22.6591 201.564 22.8466 202.189 23.2216C202.814 23.5966 203.297 24.1231 203.638 24.8011C203.982 25.4792 204.155 26.2689 204.155 27.1705C204.155 28.072 203.982 28.8598 203.638 29.5341C203.297 30.2083 202.814 30.733 202.189 31.108C201.564 31.483 200.825 31.6705 199.973 31.6705ZM199.984 30.0227C200.446 30.0227 200.833 29.8958 201.143 29.642C201.454 29.3845 201.685 29.0398 201.837 28.608C201.992 28.1761 202.07 27.6951 202.07 27.1648C202.07 26.6307 201.992 26.1477 201.837 25.7159C201.685 25.2803 201.454 24.9337 201.143 24.6761C200.833 24.4186 200.446 24.2898 199.984 24.2898C199.511 24.2898 199.117 24.4186 198.803 24.6761C198.492 24.9337 198.259 25.2803 198.104 25.7159C197.952 26.1477 197.876 26.6307 197.876 27.1648C197.876 27.6951 197.952 28.1761 198.104 28.608C198.259 29.0398 198.492 29.3845 198.803 29.642C199.117 29.8958 199.511 30.0227 199.984 30.0227ZM207.168 31.625C206.823 31.625 206.527 31.5038 206.281 31.2614C206.035 31.0189 205.914 30.7235 205.918 30.375C205.914 30.0341 206.035 29.7424 206.281 29.5C206.527 29.2576 206.823 29.1364 207.168 29.1364C207.501 29.1364 207.791 29.2576 208.037 29.5C208.287 29.7424 208.414 30.0341 208.418 30.375C208.414 30.6061 208.353 30.8163 208.236 31.0057C208.122 31.1951 207.971 31.3466 207.781 31.4602C207.596 31.5701 207.391 31.625 207.168 31.625ZM217.439 25.0795L215.564 25.2841C215.511 25.0947 215.418 24.9167 215.286 24.75C215.157 24.5833 214.982 24.4489 214.763 24.3466C214.543 24.2443 214.274 24.1932 213.956 24.1932C213.528 24.1932 213.168 24.286 212.876 24.4716C212.589 24.6572 212.446 24.8977 212.45 25.1932C212.446 25.447 212.539 25.6534 212.729 25.8125C212.922 25.9716 213.24 26.1023 213.683 26.2045L215.172 26.5227C215.998 26.7008 216.611 26.983 217.013 27.3693C217.418 27.7557 217.623 28.2614 217.626 28.8864C217.623 29.4356 217.462 29.9205 217.143 30.3409C216.829 30.7576 216.392 31.0833 215.831 31.3182C215.27 31.553 214.626 31.6705 213.899 31.6705C212.831 31.6705 211.971 31.447 211.32 31C210.668 30.5492 210.28 29.9223 210.155 29.1193L212.161 28.9261C212.251 29.3201 212.445 29.6174 212.74 29.8182C213.036 30.0189 213.42 30.1193 213.893 30.1193C214.382 30.1193 214.774 30.0189 215.07 29.8182C215.369 29.6174 215.518 29.3693 215.518 29.0739C215.518 28.8239 215.422 28.6174 215.229 28.4545C215.039 28.2917 214.744 28.1667 214.342 28.0795L212.854 27.767C212.017 27.5928 211.397 27.2992 210.996 26.8864C210.594 26.4697 210.395 25.9432 210.399 25.3068C210.395 24.7689 210.541 24.303 210.837 23.9091C211.136 23.5114 211.551 23.2045 212.081 22.9886C212.615 22.7689 213.231 22.6591 213.928 22.6591C214.95 22.6591 215.755 22.8769 216.342 23.3125C216.933 23.7481 217.299 24.3371 217.439 25.0795ZM221.834 31.6761C221.281 31.6761 220.783 31.5777 220.339 31.3807C219.9 31.1799 219.552 30.8845 219.294 30.4943C219.04 30.1042 218.913 29.6231 218.913 29.0511C218.913 28.5587 219.004 28.1515 219.186 27.8295C219.368 27.5076 219.616 27.25 219.93 27.0568C220.245 26.8636 220.599 26.7178 220.993 26.6193C221.391 26.517 221.802 26.4432 222.226 26.3977C222.737 26.3447 223.152 26.2973 223.47 26.2557C223.788 26.2102 224.019 26.142 224.163 26.0511C224.311 25.9564 224.385 25.8106 224.385 25.6136V25.5795C224.385 25.1515 224.258 24.8201 224.004 24.5852C223.75 24.3504 223.385 24.233 222.908 24.233C222.404 24.233 222.004 24.3428 221.709 24.5625C221.417 24.7822 221.22 25.0417 221.118 25.3409L219.197 25.0682C219.349 24.5379 219.599 24.0947 219.947 23.7386C220.296 23.3788 220.722 23.1098 221.226 22.9318C221.73 22.75 222.286 22.6591 222.896 22.6591C223.317 22.6591 223.735 22.7083 224.152 22.8068C224.569 22.9053 224.949 23.0682 225.294 23.2955C225.639 23.5189 225.915 23.8239 226.124 24.2102C226.336 24.5966 226.442 25.0795 226.442 25.6591V31.5H224.464V30.3011H224.396C224.271 30.5436 224.095 30.7708 223.868 30.983C223.644 31.1913 223.362 31.3598 223.021 31.4886C222.684 31.6136 222.288 31.6761 221.834 31.6761ZM222.368 30.1648C222.781 30.1648 223.139 30.0833 223.442 29.9205C223.745 29.7538 223.978 29.5341 224.141 29.2614C224.307 28.9886 224.391 28.6913 224.391 28.3693V27.3409C224.326 27.3939 224.216 27.4432 224.061 27.4886C223.91 27.5341 223.739 27.5739 223.55 27.608C223.36 27.642 223.173 27.6723 222.987 27.6989C222.802 27.7254 222.641 27.7481 222.504 27.767C222.197 27.8087 221.923 27.8769 221.68 27.9716C221.438 28.0663 221.247 28.1989 221.107 28.3693C220.966 28.536 220.896 28.7519 220.896 29.017C220.896 29.3958 221.035 29.6818 221.311 29.875C221.588 30.0682 221.94 30.1648 222.368 30.1648ZM235.993 22.7727L232.885 31.5H230.612L227.504 22.7727H229.697L231.703 29.2557H231.794L233.805 22.7727H235.993ZM240.983 31.6705C240.108 31.6705 239.352 31.4886 238.716 31.125C238.083 30.7576 237.597 30.2386 237.256 29.5682C236.915 28.8939 236.744 28.1004 236.744 27.1875C236.744 26.2898 236.915 25.5019 237.256 24.8239C237.6 24.142 238.081 23.6117 238.699 23.233C239.316 22.8504 240.042 22.6591 240.875 22.6591C241.413 22.6591 241.92 22.7462 242.398 22.9205C242.879 23.0909 243.303 23.3561 243.67 23.7159C244.042 24.0758 244.333 24.5341 244.545 25.0909C244.758 25.6439 244.864 26.303 244.864 27.0682V27.6989H237.71V26.3125H242.892C242.888 25.9186 242.803 25.5682 242.636 25.2614C242.47 24.9508 242.237 24.7064 241.938 24.5284C241.642 24.3504 241.297 24.2614 240.903 24.2614C240.483 24.2614 240.114 24.3636 239.795 24.5682C239.477 24.7689 239.229 25.0341 239.051 25.3636C238.877 25.6894 238.788 26.0473 238.784 26.4375V27.6477C238.784 28.1553 238.877 28.5909 239.062 28.9545C239.248 29.3144 239.508 29.5909 239.841 29.7841C240.174 29.9735 240.564 30.0682 241.011 30.0682C241.311 30.0682 241.581 30.0265 241.824 29.9432C242.066 29.8561 242.277 29.7292 242.455 29.5625C242.633 29.3958 242.767 29.1894 242.858 28.9432L244.778 29.1591C244.657 29.6667 244.426 30.1098 244.085 30.4886C243.748 30.8636 243.316 31.1553 242.79 31.3636C242.263 31.5682 241.661 31.6705 240.983 31.6705Z" fill="#9CA3AF"/>
<rect x="364.9" y="21.2999" width="16.2" height="14.4" rx="2.7" stroke="#D1D5DB" stroke-width="1.8"/>
<rect x="370.3" y="18.6001" width="1.8" height="5.4" fill="#1F2937"/>
<rect x="373.9" y="18.6001" width="1.8" height="5.4" fill="#1F2937"/>
<path d="M373 28.5V15M373 15L370.3 18.6M373 15L375.7 18.6" stroke="#D1D5DB" stroke-width="1.8" stroke-linecap="round" stroke-linejoin="round"/>
<g filter="url(#filter0_dd_1306_14965)">
<path fill-rule="evenodd" clip-rule="evenodd" d="M375.093 45.2769L369.231 39L363.368 45.2769H375.093ZM270 45.2769C266.686 45.2769 264 47.9632 264 51.2769V101C264 104.314 266.686 107 270 107H386C389.314 107 392 104.314 392 101V51.2769C392 47.9632 389.314 45.2769 386 45.2769H270Z" fill="#374151"/>
</g>
<g clip-path="url(#clip0_1306_14965)">
<rect width="28" height="28" transform="translate(277 58)" fill="#374151"/>
<circle cx="291" cy="72" r="14" fill="#6B7280"/>
<path d="M295.969 71.2479C298.178 68.9918 297.591 64.8727 294.474 63.7273L285.473 63.7273C284.737 63.7273 284 64.3272 284 65.2314L284 78.7686C284 79.5207 284.59 80.2727 285.473 80.2727H294.68C299.673 78.3926 298.363 72.376 295.969 71.2479Z" fill="#1A202C"/>
<ellipse cx="288.051" cy="70.1199" rx="1.47308" ry="1.50413" fill="#D1D5DB"/>
<ellipse cx="292.47" cy="70.1199" rx="1.47308" ry="1.50413" fill="#D1D5DB"/>
<ellipse cx="292.47" cy="74.6323" rx="1.47308" ry="1.50413" fill="#D1D5DB"/>
<ellipse cx="288.051" cy="74.6323" rx="1.47308" ry="1.50413" fill="#D1D5DB"/>
</g>
<path d="M283.528 94V89.6364H285.054C285.358 89.6364 285.609 89.6889 285.806 89.794C286.004 89.8977 286.151 90.0376 286.247 90.2138C286.344 90.3885 286.392 90.5824 286.392 90.7955C286.392 90.983 286.359 91.1378 286.292 91.2599C286.227 91.3821 286.14 91.4787 286.032 91.5497C285.925 91.6207 285.81 91.6733 285.685 91.7074V91.75C285.818 91.7585 285.952 91.8054 286.087 91.8906C286.222 91.9759 286.335 92.098 286.426 92.2571C286.517 92.4162 286.562 92.6108 286.562 92.8409C286.562 93.0597 286.513 93.2564 286.413 93.4311C286.314 93.6058 286.157 93.7443 285.942 93.8466C285.728 93.9489 285.449 94 285.105 94H283.528ZM284.057 93.5312H285.105C285.45 93.5312 285.695 93.4645 285.84 93.331C285.987 93.196 286.06 93.0327 286.06 92.8409C286.06 92.6932 286.022 92.5568 285.947 92.4318C285.871 92.3054 285.764 92.2045 285.625 92.1293C285.486 92.0526 285.321 92.0142 285.131 92.0142H284.057V93.5312ZM284.057 91.554H285.037C285.196 91.554 285.339 91.5227 285.467 91.4602C285.597 91.3977 285.699 91.3097 285.774 91.196C285.851 91.0824 285.889 90.9489 285.889 90.7955C285.889 90.6037 285.822 90.4411 285.689 90.3075C285.555 90.1726 285.344 90.1051 285.054 90.1051H284.057V91.554ZM287.363 94V90.7273H287.848V91.2216H287.882C287.942 91.0597 288.05 90.9283 288.206 90.8274C288.363 90.7266 288.539 90.6761 288.735 90.6761C288.772 90.6761 288.818 90.6768 288.873 90.6783C288.929 90.6797 288.971 90.6818 288.999 90.6847V91.196C288.982 91.1918 288.943 91.1854 288.882 91.1768C288.822 91.1669 288.759 91.1619 288.692 91.1619C288.533 91.1619 288.391 91.1953 288.266 91.2621C288.142 91.3274 288.044 91.4183 287.972 91.5348C287.901 91.6499 287.865 91.7812 287.865 91.929V94H287.363ZM290.558 94.0767C290.351 94.0767 290.162 94.0376 289.993 93.9595C289.824 93.88 289.69 93.7656 289.591 93.6165C289.491 93.4659 289.442 93.2841 289.442 93.071C289.442 92.8835 289.479 92.7315 289.552 92.6151C289.626 92.4972 289.725 92.4048 289.849 92.3381C289.972 92.2713 290.108 92.2216 290.258 92.1889C290.408 92.1548 290.559 92.1278 290.711 92.108C290.91 92.0824 291.072 92.0632 291.195 92.0504C291.32 92.0362 291.411 92.0128 291.468 91.9801C291.526 91.9474 291.555 91.8906 291.555 91.8097V91.7926C291.555 91.5824 291.498 91.419 291.383 91.3026C291.269 91.1861 291.096 91.1278 290.865 91.1278C290.625 91.1278 290.437 91.1804 290.3 91.2855C290.164 91.3906 290.068 91.5028 290.013 91.6222L289.535 91.4517C289.621 91.2528 289.734 91.098 289.876 90.9872C290.02 90.875 290.176 90.7969 290.345 90.7528C290.515 90.7074 290.683 90.6847 290.848 90.6847C290.953 90.6847 291.074 90.6974 291.21 90.723C291.348 90.7472 291.481 90.7976 291.608 90.8743C291.738 90.951 291.845 91.0668 291.93 91.2216C292.015 91.3764 292.058 91.5838 292.058 91.8438V94H291.555V93.5568H291.53C291.496 93.6278 291.439 93.7038 291.359 93.7848C291.28 93.8658 291.174 93.9347 291.042 93.9915C290.91 94.0483 290.748 94.0767 290.558 94.0767ZM290.635 93.625C290.834 93.625 291.001 93.5859 291.138 93.5078C291.275 93.4297 291.379 93.3288 291.449 93.2053C291.52 93.0817 291.555 92.9517 291.555 92.8153V92.3551C291.534 92.3807 291.487 92.4041 291.415 92.4254C291.344 92.4453 291.261 92.4631 291.167 92.4787C291.075 92.4929 290.985 92.5057 290.897 92.517C290.81 92.527 290.74 92.5355 290.686 92.5426C290.555 92.5597 290.433 92.5874 290.319 92.6257C290.207 92.6626 290.116 92.7187 290.047 92.794C289.979 92.8679 289.944 92.9687 289.944 93.0966C289.944 93.2713 290.009 93.4034 290.138 93.4929C290.269 93.581 290.434 93.625 290.635 93.625ZM294.305 94.0682C293.999 94.0682 293.734 93.9957 293.513 93.8509C293.291 93.706 293.121 93.5064 293.001 93.2521C292.882 92.9979 292.822 92.7074 292.822 92.3807C292.822 92.0483 292.884 91.755 293.006 91.5007C293.129 91.245 293.301 91.0455 293.521 90.902C293.743 90.7571 294.001 90.6847 294.297 90.6847C294.527 90.6847 294.734 90.7273 294.919 90.8125C295.104 90.8977 295.255 91.017 295.373 91.1705C295.491 91.3239 295.564 91.5028 295.592 91.7074H295.089C295.051 91.5582 294.966 91.4261 294.834 91.3111C294.703 91.1946 294.527 91.1364 294.305 91.1364C294.109 91.1364 293.938 91.1875 293.79 91.2898C293.643 91.3906 293.529 91.5334 293.447 91.718C293.366 91.9013 293.325 92.1165 293.325 92.3636C293.325 92.6165 293.365 92.8366 293.445 93.0241C293.526 93.2116 293.639 93.3572 293.786 93.4609C293.933 93.5646 294.107 93.6165 294.305 93.6165C294.436 93.6165 294.555 93.5938 294.661 93.5483C294.768 93.5028 294.858 93.4375 294.932 93.3523C295.006 93.267 295.058 93.1648 295.089 93.0455H295.592C295.564 93.2386 295.494 93.4126 295.381 93.5675C295.271 93.7209 295.124 93.843 294.94 93.9339C294.759 94.0234 294.547 94.0682 294.305 94.0682ZM297.7 94.0682C297.384 94.0682 297.112 93.9986 296.884 93.8594C296.656 93.7188 296.481 93.5227 296.357 93.2713C296.235 93.0185 296.174 92.7244 296.174 92.3892C296.174 92.054 296.235 91.7585 296.357 91.5028C296.481 91.2457 296.653 91.0455 296.873 90.902C297.094 90.7571 297.353 90.6847 297.648 90.6847C297.819 90.6847 297.987 90.7131 298.153 90.7699C298.32 90.8267 298.471 90.919 298.607 91.0469C298.744 91.1733 298.852 91.3409 298.933 91.5497C299.014 91.7585 299.055 92.0156 299.055 92.321V92.5341H296.532V92.0994H298.543C298.543 91.9148 298.506 91.75 298.433 91.6051C298.36 91.4602 298.256 91.3459 298.121 91.2621C297.988 91.1783 297.83 91.1364 297.648 91.1364C297.448 91.1364 297.275 91.1861 297.129 91.2855C296.984 91.3835 296.872 91.5114 296.794 91.669C296.716 91.8267 296.677 91.9957 296.677 92.1761V92.4659C296.677 92.7131 296.719 92.9226 296.805 93.0945C296.891 93.2649 297.011 93.3949 297.165 93.4844C297.318 93.5724 297.496 93.6165 297.7 93.6165C297.832 93.6165 297.951 93.598 298.058 93.5611C298.165 93.5227 298.259 93.4659 298.337 93.3906C298.415 93.3139 298.475 93.2187 298.518 93.1051L299.004 93.2415C298.952 93.4062 298.866 93.5511 298.746 93.6761C298.625 93.7997 298.476 93.8963 298.298 93.9659C298.121 94.0341 297.921 94.0682 297.7 94.0682Z" fill="white"/>
<defs>
<filter id="filter0_dd_1306_14965" x="258" y="37" width="140" height="80" filterUnits="userSpaceOnUse" color-interpolation-filters="sRGB">
<feFlood flood-opacity="0" result="BackgroundImageFix"/>
<feColorMatrix in="SourceAlpha" type="matrix" values="0 0 0 0 0 0 0 0 0 0 0 0 0 0 0 0 0 0 127 0" result="hardAlpha"/>
<feOffset dy="4"/>
<feGaussianBlur stdDeviation="3"/>
<feColorMatrix type="matrix" values="0 0 0 0 0 0 0 0 0 0 0 0 0 0 0 0 0 0 0.1 0"/>
<feBlend mode="normal" in2="BackgroundImageFix" result="effect1_dropShadow_1306_14965"/>
<feColorMatrix in="SourceAlpha" type="matrix" values="0 0 0 0 0 0 0 0 0 0 0 0 0 0 0 0 0 0 127 0" result="hardAlpha"/>
<feOffset dy="2"/>
<feGaussianBlur stdDeviation="2"/>
<feColorMatrix type="matrix" values="0 0 0 0 0 0 0 0 0 0 0 0 0 0 0 0 0 0 0.06 0"/>
<feBlend mode="normal" in2="effect1_dropShadow_1306_14965" result="effect2_dropShadow_1306_14965"/>
<feBlend mode="normal" in="SourceGraphic" in2="effect2_dropShadow_1306_14965" result="shape"/>
</filter>
<clipPath id="clip0_1306_14965">
<rect width="28" height="28" fill="white" transform="translate(277 58)"/>
</clipPath>
</defs>
</svg>
