<svg width="399" height="117" viewBox="0 0 399 117" fill="none" xmlns="http://www.w3.org/2000/svg">
<path d="M1 17C1 8.16344 8.16344 1 17 1H382C390.837 1 398 8.16344 398 17V113H1V17Z" fill="url(#paint0_linear)"/>
<path d="M1 113.028V51.8344M1 51.8344V17C1 8.16343 8.16345 1 17 1H382C390.837 1 398 8.16344 398 17V51.8344M1 51.8344H398M398 51.8344V113" stroke="#A0AEC0" stroke-width="2"/>
<circle cx="27" cy="27.5" r="8" fill="#FC8181"/>
<circle cx="49" cy="27.5" r="8" fill="#F6E05E"/>
<circle cx="71" cy="27.5" r="8" fill="#68D391"/>
<path d="M128.5 11H333.5C342.06 11 349 17.9396 349 26.5C349 35.0604 342.06 42 333.5 42H128.5C119.94 42 113 35.0604 113 26.5C113 17.9396 119.94 11 128.5 11Z" fill="white" stroke="#A0AEC0" stroke-width="2"/>
<path d="M130.858 31.5H133.006L134.642 25.6023H134.761L136.398 31.5H138.54L141.011 22.7727H138.909L137.398 28.875H137.312L135.744 22.7727H133.67L132.102 28.9091H132.023L130.489 22.7727H128.392L130.858 31.5ZM146.077 31.6705C148.111 31.6705 149.509 30.6761 149.872 29.1591L147.952 28.9432C147.673 29.6818 146.991 30.0682 146.105 30.0682C144.776 30.0682 143.895 29.1932 143.878 27.6989H149.957V27.0682C149.957 24.0057 148.116 22.6591 145.969 22.6591C143.469 22.6591 141.838 24.4943 141.838 27.1875C141.838 29.9261 143.446 31.6705 146.077 31.6705ZM143.884 26.3125C143.946 25.1989 144.77 24.2614 145.997 24.2614C147.179 24.2614 147.974 25.125 147.986 26.3125H143.884ZM151.788 31.5H153.811V30.125H153.93C154.254 30.7614 154.93 31.6534 156.43 31.6534C158.487 31.6534 160.027 30.0227 160.027 27.1477C160.027 24.2386 158.442 22.6591 156.425 22.6591C154.885 22.6591 154.243 23.5852 153.93 24.2159H153.845V19.8636H151.788V31.5ZM153.805 27.1364C153.805 25.4432 154.533 24.3466 155.857 24.3466C157.226 24.3466 157.93 25.5114 157.93 27.1364C157.93 28.7727 157.214 29.9659 155.857 29.9659C154.544 29.9659 153.805 28.8295 153.805 27.1364ZM168.673 25.0795C168.389 23.6023 167.207 22.6591 165.162 22.6591C163.06 22.6591 161.628 23.6932 161.634 25.3068C161.628 26.5795 162.412 27.4205 164.088 27.767L165.577 28.0795C166.378 28.2557 166.753 28.5795 166.753 29.0739C166.753 29.6705 166.105 30.1193 165.128 30.1193C164.185 30.1193 163.571 29.7102 163.395 28.9261L161.389 29.1193C161.645 30.7216 162.991 31.6705 165.134 31.6705C167.315 31.6705 168.855 30.5398 168.861 28.8864C168.855 27.642 168.054 26.8807 166.406 26.5227L164.918 26.2045C164.031 26.0057 163.679 25.6989 163.685 25.1932C163.679 24.6023 164.332 24.1932 165.19 24.1932C166.139 24.1932 166.639 24.7102 166.798 25.2841L168.673 25.0795ZM170.557 31.5H172.614V22.7727H170.557V31.5ZM171.591 21.5341C172.244 21.5341 172.778 21.0341 172.778 20.4205C172.778 19.8011 172.244 19.3011 171.591 19.3011C170.932 19.3011 170.398 19.8011 170.398 20.4205C170.398 21.0341 170.932 21.5341 171.591 21.5341ZM179.087 22.7727H177.365V20.6818H175.308V22.7727H174.07V24.3636H175.308V29.2159C175.297 30.858 176.49 31.6648 178.036 31.6193C178.621 31.6023 179.024 31.4886 179.246 31.4148L178.899 29.8068C178.786 29.8352 178.553 29.8864 178.297 29.8864C177.78 29.8864 177.365 29.7045 177.365 28.875V24.3636H179.087V22.7727ZM184.577 31.6705C186.611 31.6705 188.009 30.6761 188.372 29.1591L186.452 28.9432C186.173 29.6818 185.491 30.0682 184.605 30.0682C183.276 30.0682 182.395 29.1932 182.378 27.6989H188.457V27.0682C188.457 24.0057 186.616 22.6591 184.469 22.6591C181.969 22.6591 180.338 24.4943 180.338 27.1875C180.338 29.9261 181.946 31.6705 184.577 31.6705ZM182.384 26.3125C182.446 25.1989 183.27 24.2614 184.497 24.2614C185.679 24.2614 186.474 25.125 186.486 26.3125H182.384ZM194.555 22.7727H192.834V20.6818H190.777V22.7727H189.538V24.3636H190.777V29.2159C190.766 30.858 191.959 31.6648 193.504 31.6193C194.089 31.6023 194.493 31.4886 194.714 31.4148L194.368 29.8068C194.254 29.8352 194.021 29.8864 193.766 29.8864C193.249 29.8864 192.834 29.7045 192.834 28.875V24.3636H194.555V22.7727ZM199.989 31.6705C202.545 31.6705 204.17 29.8693 204.17 27.1705C204.17 24.4659 202.545 22.6591 199.989 22.6591C197.432 22.6591 195.807 24.4659 195.807 27.1705C195.807 29.8693 197.432 31.6705 199.989 31.6705ZM200 30.0227C198.585 30.0227 197.892 28.7614 197.892 27.1648C197.892 25.5682 198.585 24.2898 200 24.2898C201.392 24.2898 202.085 25.5682 202.085 27.1648C202.085 28.7614 201.392 30.0227 200 30.0227ZM207.183 31.625C207.854 31.625 208.428 31.0682 208.433 30.375C208.428 29.6932 207.854 29.1364 207.183 29.1364C206.49 29.1364 205.928 29.6932 205.933 30.375C205.928 31.0682 206.49 31.625 207.183 31.625ZM217.455 25.0795C217.17 23.6023 215.989 22.6591 213.943 22.6591C211.841 22.6591 210.409 23.6932 210.415 25.3068C210.409 26.5795 211.193 27.4205 212.869 27.767L214.358 28.0795C215.159 28.2557 215.534 28.5795 215.534 29.0739C215.534 29.6705 214.886 30.1193 213.909 30.1193C212.966 30.1193 212.352 29.7102 212.176 28.9261L210.17 29.1193C210.426 30.7216 211.773 31.6705 213.915 31.6705C216.097 31.6705 217.636 30.5398 217.642 28.8864C217.636 27.642 216.835 26.8807 215.188 26.5227L213.699 26.2045C212.812 26.0057 212.46 25.6989 212.466 25.1932C212.46 24.6023 213.114 24.1932 213.972 24.1932C214.92 24.1932 215.42 24.7102 215.58 25.2841L217.455 25.0795ZM221.849 31.6761C223.219 31.6761 224.037 31.0341 224.412 30.3011H224.48V31.5H226.457V25.6591C226.457 23.3523 224.577 22.6591 222.912 22.6591C221.077 22.6591 219.668 23.4773 219.213 25.0682L221.134 25.3409C221.338 24.7443 221.918 24.233 222.923 24.233C223.878 24.233 224.401 24.7216 224.401 25.5795V25.6136C224.401 26.2045 223.781 26.233 222.241 26.3977C220.548 26.5795 218.929 27.0852 218.929 29.0511C218.929 30.767 220.185 31.6761 221.849 31.6761ZM222.384 30.1648C221.526 30.1648 220.912 29.7727 220.912 29.017C220.912 28.2273 221.599 27.8977 222.52 27.767C223.06 27.6932 224.139 27.5568 224.406 27.3409V28.3693C224.406 29.3409 223.622 30.1648 222.384 30.1648ZM236.009 22.7727H233.821L231.81 29.2557H231.719L229.713 22.7727H227.52L230.628 31.5H232.901L236.009 22.7727ZM240.999 31.6705C243.033 31.6705 244.43 30.6761 244.794 29.1591L242.874 28.9432C242.595 29.6818 241.913 30.0682 241.027 30.0682C239.697 30.0682 238.817 29.1932 238.8 27.6989H244.879V27.0682C244.879 24.0057 243.038 22.6591 240.891 22.6591C238.391 22.6591 236.76 24.4943 236.76 27.1875C236.76 29.9261 238.368 31.6705 240.999 31.6705ZM238.805 26.3125C238.868 25.1989 239.692 24.2614 240.919 24.2614C242.101 24.2614 242.896 25.125 242.908 26.3125H238.805Z" fill="#718096"/>
<rect x="364.9" y="21.3" width="16.2" height="14.4" rx="2.7" stroke="#A0AEC0" stroke-width="1.8"/>
<rect x="370.3" y="18.6" width="1.8" height="5.4" fill="white"/>
<rect x="373.9" y="18.6" width="1.8" height="5.4" fill="white"/>
<path d="M373 28.5V15M373 15L370.3 18.6M373 15L375.7 18.6" stroke="#A0AEC0" stroke-width="1.8" stroke-linecap="round" stroke-linejoin="round"/>
<g filter="url(#filter0_dd)">
<path fill-rule="evenodd" clip-rule="evenodd" d="M375.093 45.2769L369.231 39L363.368 45.2769H375.093ZM270 45.2769C266.686 45.2769 264 47.9632 264 51.2769V101C264 104.314 266.686 107 270 107H386C389.314 107 392 104.314 392 101V51.2769C392 47.9632 389.314 45.2769 386 45.2769H270Z" fill="#EDF2F7"/>
</g>
<rect x="276" y="59" width="28" height="28" rx="4" fill="white"/>
<path d="M296.034 72.6364C298.625 70.0454 297.936 65.3154 294.282 64L283.727 64C282.864 64 282 64.6888 282 65.7273L282 81.2727C282 82.1364 282.691 83 283.727 83H294.523C300.377 80.8409 298.841 73.9318 296.034 72.6364Z" fill="#1A202C"/>
<circle cx="286.75" cy="71.3409" r="1.72727" fill="white"/>
<circle cx="291.932" cy="71.3409" r="1.72727" fill="white"/>
<circle cx="291.932" cy="76.5227" r="1.72727" fill="white"/>
<circle cx="286.75" cy="76.5227" r="1.72727" fill="white"/>
<path d="M282.528 95H284.105C285.136 95 285.562 94.4972 285.562 93.8409C285.562 93.1506 285.085 92.7756 284.685 92.75V92.7074C285.06 92.6051 285.392 92.358 285.392 91.7955C285.392 91.1562 284.966 90.6364 284.054 90.6364H282.528V95ZM283.057 94.5312V93.0142H284.131C284.702 93.0142 285.06 93.3977 285.06 93.8409C285.06 94.2244 284.795 94.5312 284.105 94.5312H283.057ZM283.057 92.554V91.1051H284.054C284.634 91.1051 284.889 91.4119 284.889 91.7955C284.889 92.2557 284.514 92.554 284.037 92.554H283.057ZM286.363 95H286.865V92.929C286.865 92.4858 287.215 92.1619 287.692 92.1619C287.826 92.1619 287.965 92.1875 287.999 92.196V91.6847C287.941 91.6804 287.809 91.6761 287.735 91.6761C287.343 91.6761 287.002 91.8977 286.882 92.2216H286.848V91.7273H286.363V95ZM289.558 95.0767C290.129 95.0767 290.427 94.7699 290.53 94.5568H290.555V95H291.058V92.8438C291.058 91.804 290.265 91.6847 289.848 91.6847C289.354 91.6847 288.791 91.8551 288.535 92.4517L289.013 92.6222C289.123 92.3835 289.385 92.1278 289.865 92.1278C290.327 92.1278 290.555 92.3729 290.555 92.7926V92.8097C290.555 93.0526 290.308 93.0312 289.711 93.108C289.104 93.1868 288.442 93.321 288.442 94.071C288.442 94.7102 288.936 95.0767 289.558 95.0767ZM289.635 94.625C289.234 94.625 288.944 94.446 288.944 94.0966C288.944 93.7131 289.294 93.5938 289.686 93.5426C289.899 93.517 290.47 93.4574 290.555 93.3551V93.8153C290.555 94.2244 290.231 94.625 289.635 94.625ZM293.305 95.0682C294.03 95.0682 294.507 94.625 294.592 94.0455H294.089C293.996 94.4034 293.697 94.6165 293.305 94.6165C292.709 94.6165 292.325 94.1222 292.325 93.3636C292.325 92.6222 292.717 92.1364 293.305 92.1364C293.749 92.1364 294.013 92.4091 294.089 92.7074H294.592C294.507 92.0938 293.987 91.6847 293.297 91.6847C292.411 91.6847 291.822 92.3835 291.822 93.3807C291.822 94.3608 292.385 95.0682 293.305 95.0682ZM296.7 95.0682C297.364 95.0682 297.85 94.7358 298.004 94.2415L297.518 94.1051C297.39 94.446 297.094 94.6165 296.7 94.6165C296.109 94.6165 295.702 94.2351 295.679 93.5341H298.055V93.321C298.055 92.1023 297.33 91.6847 296.648 91.6847C295.762 91.6847 295.174 92.3835 295.174 93.3892C295.174 94.3949 295.754 95.0682 296.7 95.0682ZM295.679 93.0994C295.713 92.5902 296.073 92.1364 296.648 92.1364C297.194 92.1364 297.543 92.5455 297.543 93.0994H295.679Z" fill="#1A202C"/>
<defs>
<filter id="filter0_dd" x="258" y="37" width="140" height="80" filterUnits="userSpaceOnUse" color-interpolation-filters="sRGB">
<feFlood flood-opacity="0" result="BackgroundImageFix"/>
<feColorMatrix in="SourceAlpha" type="matrix" values="0 0 0 0 0 0 0 0 0 0 0 0 0 0 0 0 0 0 127 0"/>
<feOffset dy="4"/>
<feGaussianBlur stdDeviation="3"/>
<feColorMatrix type="matrix" values="0 0 0 0 0 0 0 0 0 0 0 0 0 0 0 0 0 0 0.1 0"/>
<feBlend mode="normal" in2="BackgroundImageFix" result="effect1_dropShadow"/>
<feColorMatrix in="SourceAlpha" type="matrix" values="0 0 0 0 0 0 0 0 0 0 0 0 0 0 0 0 0 0 127 0"/>
<feOffset dy="2"/>
<feGaussianBlur stdDeviation="2"/>
<feColorMatrix type="matrix" values="0 0 0 0 0 0 0 0 0 0 0 0 0 0 0 0 0 0 0.06 0"/>
<feBlend mode="normal" in2="effect1_dropShadow" result="effect2_dropShadow"/>
<feBlend mode="normal" in="SourceGraphic" in2="effect2_dropShadow" result="shape"/>
</filter>
<linearGradient id="paint0_linear" x1="199.5" y1="1" x2="199.5" y2="113" gradientUnits="userSpaceOnUse">
<stop offset="0.697917" stop-color="white"/>
<stop offset="1" stop-color="#F7FAFC"/>
</linearGradient>
</defs>
</svg>
