<svg width="21" height="21" viewBox="0 0 21 21" fill="none" xmlns="http://www.w3.org/2000/svg">
<path d="M12.5919 14.3055L7.33242 19.565C6.52836 20.369 5.43787 20.8207 4.30081 20.8207C3.16375 20.8207 2.07326 20.369 1.2692 19.565C1.19823 19.494 1.12983 19.4209 1.06484 19.3457C0.957764 19.2234 0.857978 19.0949 0.766002 18.9609C0.428668 18.4729 0.197922 17.9194 0.0887972 17.3363C0.064428 17.2093 0.0460439 17.0811 0.0336456 16.9515C0.0203922 16.8134 0.0136942 16.6741 0.0135517 16.5334C0.0131821 16.14 0.0666931 15.7485 0.172592 15.3697C0.208934 15.2393 0.251544 15.111 0.300423 14.9849C0.516339 14.4283 0.846339 13.9232 1.2692 13.5018L3.56375 11.2072C3.684 11.087 3.84709 11.0194 4.01714 11.0194C4.1872 11.0194 4.35029 11.087 4.47054 11.2072C4.59079 11.3275 4.65834 11.4906 4.65834 11.6606C4.65834 11.8307 4.59079 11.9938 4.47054 12.114L2.17599 14.4086C2.00261 14.5817 1.85087 14.7752 1.72409 14.9849C1.44254 15.4522 1.29452 15.9878 1.29614 16.5334C1.29618 16.6733 1.30575 16.813 1.32478 16.9515C1.34264 17.0814 1.3692 17.21 1.4043 17.3363C1.54439 17.8428 1.81487 18.3036 2.18874 18.6729C2.56261 19.0422 3.0268 19.3069 3.53497 19.4407C4.04314 19.5744 4.57751 19.5726 5.08474 19.4353C5.59198 19.298 6.05432 19.0301 6.42563 18.6582L7.74755 17.3363L10.099 14.9849L11.6851 13.3988C12.1838 12.8987 12.4908 12.2391 12.5523 11.5356C12.6138 10.832 12.4259 10.1292 12.0215 9.55015C11.9263 9.41056 11.89 9.23906 11.9206 9.07287C11.9511 8.90669 12.0459 8.75925 12.1844 8.66257C12.323 8.5659 12.4941 8.52779 12.6606 8.55653C12.8271 8.58527 12.9756 8.67854 13.0737 8.81608C13.6499 9.64233 13.9173 10.6448 13.8293 11.6483C13.7412 12.6517 13.3032 13.5923 12.5919 14.3055Z" fill="#3F3D56"/>
<path d="M20.8342 4.28726C20.8342 4.31889 20.8338 4.35053 20.8329 4.38217C20.8219 4.94182 20.7009 5.49384 20.4768 6.00678C20.4194 6.13828 20.3551 6.26672 20.2844 6.39155C20.0923 6.73126 19.8548 7.04323 19.5785 7.31886L17.284 9.61341C17.1637 9.73337 17.0007 9.80069 16.8308 9.80057C16.6609 9.80045 16.498 9.7329 16.3778 9.61277C16.2577 9.49263 16.1902 9.32972 16.19 9.15983C16.1899 8.98993 16.2572 8.82693 16.3772 8.70662L18.6717 6.41208C18.6786 6.40523 18.6854 6.39839 18.6918 6.39155C19.2213 5.85414 19.5279 5.13628 19.5499 4.38217C19.5512 4.35053 19.5516 4.31889 19.5516 4.28726C19.5516 4.18978 19.547 4.09316 19.5379 3.99739C19.471 3.30374 19.1647 2.655 18.6717 2.16244C18.626 2.11669 18.5794 2.07266 18.5311 2.03076C17.9826 1.54855 17.2773 1.28259 16.5469 1.28259C15.8166 1.28259 15.1113 1.54855 14.5628 2.03076C14.5145 2.07266 14.4679 2.11669 14.4221 2.16244L9.16265 7.4219C8.60004 7.98592 8.28408 8.75006 8.28408 9.54671C8.28408 10.3434 8.60004 11.1075 9.16265 11.6715C9.2829 11.7918 9.35045 11.9549 9.35045 12.1249C9.35045 12.295 9.2829 12.4581 9.16265 12.5783C9.0424 12.6986 8.87931 12.7661 8.70926 12.7661C8.5392 12.7661 8.37611 12.6986 8.25586 12.5783C7.45302 11.7737 7.00214 10.6834 7.00214 9.54672C7.00214 8.41004 7.45302 7.31977 8.25586 6.51511L13.5153 1.25565C13.9729 0.799033 14.5277 0.451676 15.1383 0.239513C15.7489 0.0273495 16.3996 -0.0441375 17.0417 0.0303879C17.6838 0.104913 18.3008 0.323526 18.8466 0.669905C19.3924 1.01628 19.8529 1.48148 20.1937 2.03076C20.2714 2.15514 20.3423 2.28358 20.4062 2.41554C20.6467 2.91077 20.7887 3.44801 20.8244 3.99739C20.8308 4.09359 20.834 4.19021 20.8342 4.28726Z" fill="#3F3D56"/>
<path d="M17.2002 4.21113C17.2002 4.26856 17.1945 4.32585 17.1831 4.38214C17.1437 4.57526 17.0387 4.74882 16.886 4.87346C16.7333 4.99811 16.5423 5.06619 16.3452 5.06619C16.1481 5.06619 15.957 4.99811 15.8043 4.87346C15.6516 4.74882 15.5467 4.57526 15.5072 4.38214C15.4815 4.25478 15.4848 4.12325 15.517 3.99736C15.5689 3.79566 15.6926 3.61982 15.8649 3.50284C16.0372 3.38587 16.2463 3.3358 16.4529 3.36204C16.6595 3.38828 16.8494 3.48902 16.987 3.64535C17.1246 3.80169 17.2004 4.00287 17.2002 4.21113Z" fill="#3F3D56"/>
<path d="M4.58811 17.1653C4.58809 17.2227 4.58236 17.28 4.571 17.3363C4.53154 17.5294 4.42659 17.703 4.2739 17.8276C4.12121 17.9523 3.93015 18.0203 3.73305 18.0203C3.53594 18.0203 3.34489 17.9523 3.1922 17.8276C3.0395 17.703 2.93455 17.5294 2.89509 17.3363C2.86935 17.2089 2.87271 17.0774 2.90493 16.9515C2.95679 16.7498 3.08048 16.574 3.25279 16.457C3.42509 16.34 3.63417 16.29 3.84078 16.3162C4.04738 16.3424 4.2373 16.4432 4.3749 16.5995C4.5125 16.7559 4.58831 16.957 4.58811 17.1653Z" fill="#3F3D56"/>
<path d="M12.7402 2.03076H14.5628C14.5145 2.07266 14.4679 2.1167 14.4221 2.16244L14.169 2.41554H12.3555L12.7402 2.03076Z" fill="#6C63FF"/>
<path d="M20.4063 2.41554H18.8979C18.8274 2.32697 18.7519 2.24247 18.6718 2.16244C18.626 2.1167 18.5794 2.07266 18.5311 2.03076H20.1938C20.2714 2.15514 20.3423 2.28359 20.4063 2.41554Z" fill="#6C63FF"/>
<path d="M10.7736 3.99738H12.5871L12.2024 4.38215H10.3888L10.7736 3.99738Z" fill="#6C63FF"/>
<path d="M17.1733 3.99738C17.2055 4.12326 17.2089 4.25479 17.1831 4.38215H15.5072C15.4815 4.25479 15.4848 4.12326 15.517 3.99738H17.1733Z" fill="#6C63FF"/>
<path d="M20.8342 4.28724C20.8342 4.31888 20.8338 4.35051 20.8329 4.38215H19.5499C19.5512 4.35051 19.5516 4.31888 19.5516 4.28724C19.5516 4.18976 19.5471 4.09314 19.538 3.99738H20.8244C20.8308 4.09357 20.8341 4.19019 20.8342 4.28724Z" fill="#6C63FF"/>
<path d="M8.76417 6.00677H10.5777L10.193 6.39155H8.37939L8.76417 6.00677Z" fill="#6C63FF"/>
<path d="M20.4768 6.00677C20.4193 6.13828 20.3551 6.26671 20.2844 6.39155H18.6918C18.8092 6.27254 18.9163 6.14382 19.0121 6.00677H20.4768Z" fill="#6C63FF"/>
<path d="M1.72411 14.9849C1.64978 15.1082 1.58448 15.2368 1.52873 15.3696H0.172607C0.208949 15.2392 0.251559 15.111 0.300438 14.9849H1.72411Z" fill="#6C63FF"/>
<path d="M11.9125 14.9849L11.5277 15.3696H9.71417L10.0989 14.9849H11.9125Z" fill="#6C63FF"/>
<path d="M1.40429 17.3363H0.0887819C0.0644128 17.2093 0.0460287 17.0811 0.0336304 16.9515H1.32477C1.34262 17.0814 1.36919 17.21 1.40429 17.3363Z" fill="#6C63FF"/>
<path d="M4.58811 17.1653C4.58809 17.2227 4.58236 17.28 4.57101 17.3363H2.89509C2.86935 17.209 2.87271 17.0774 2.90493 16.9515H4.56117C4.57906 17.0214 4.58811 17.0932 4.58811 17.1653Z" fill="#6C63FF"/>
<path d="M9.94591 16.9515L9.56114 17.3363H7.74756L8.13233 16.9515H9.94591Z" fill="#6C63FF"/>
<path d="M3.23882 19.3457H1.06483C0.957753 19.2234 0.857967 19.0949 0.765991 18.9609H2.52912C2.7471 19.1208 2.98587 19.2502 3.23882 19.3457Z" fill="#6C63FF"/>
<path d="M7.93652 18.9609L7.55174 19.3457H5.36279C5.61574 19.2502 5.85451 19.1208 6.07249 18.9609H7.93652Z" fill="#6C63FF"/>
</svg>
