<svg width="436" height="303" viewBox="0 0 436 303" fill="none" xmlns="http://www.w3.org/2000/svg">
<g filter="url(#filter0_dd)">
<path fill-rule="evenodd" clip-rule="evenodd" d="M402.024 196H91.9741C75.8558 196 65 193.287 65 192.133V188.626C65 188.28 65.7021 188 66.5752 188H427.423C428.297 188 429 188.28 429 188.626V192.271C428.996 193.183 420.59 196 402.024 196Z" fill="#F7FAFC" stroke="#A0AEC0" stroke-width="2"/>
<path fill-rule="evenodd" clip-rule="evenodd" d="M376.136 5H117.74C110.709 5 104.716 10.769 104.716 17.9146V187.871H389.16V17.9146C389.16 10.7685 383.188 5 376.136 5Z" fill="#FEFEFE" stroke="#A0AEC0" stroke-width="2"/>
<path d="M377 25H117V177H377V25Z" fill="white" stroke="#A0AEC0" stroke-width="2"/>
<path d="M246.087 17.1742C247.24 17.1742 248.174 16.2398 248.174 15.0871C248.174 13.9344 247.24 13 246.087 13C244.934 13 244 13.9344 244 15.0871C244 16.2398 244.934 17.1742 246.087 17.1742Z" stroke="#A0AEC0" stroke-width="2"/>
</g>
<g filter="url(#filter1_dd)">
<path fill-rule="evenodd" clip-rule="evenodd" d="M126.292 258H19.7081C16.0034 258 13 255.217 13 251.785V100.215C13 96.7825 16.0028 94 19.7081 94H126.292C129.997 94 133 96.7825 133 100.215V251.785C133 255.217 129.997 258 126.292 258Z" fill="#F7FAFC" stroke="#A0AEC0" stroke-width="2"/>
<path d="M125 110H21V242H125V110Z" fill="white" stroke="#A0AEC0" stroke-width="2"/>
<g filter="url(#filter2_i)">
<path d="M73 254C75.2091 254 77 252.209 77 250C77 247.791 75.2091 246 73 246C70.7909 246 69 247.791 69 250C69 252.209 70.7909 254 73 254Z" fill="#EDF2F7"/>
</g>
<path d="M73 254C75.2091 254 77 252.209 77 250C77 247.791 75.2091 246 73 246C70.7909 246 69 247.791 69 250C69 252.209 70.7909 254 73 254Z" stroke="#A0AEC0" stroke-width="2"/>
<path d="M73 104C74.1046 104 75 103.105 75 102C75 100.895 74.1046 100 73 100C71.8954 100 71 100.895 71 102C71 103.105 71.8954 104 73 104Z" stroke="#A0AEC0" stroke-width="2"/>
</g>
<g filter="url(#filter3_dd)">
<path fill-rule="evenodd" clip-rule="evenodd" d="M356 247.694C356 251.177 352.46 254 348.092 254H299.908C295.54 254 292 251.177 292 247.694V152.306C292 148.823 295.54 146 299.908 146H348.092C352.46 146 356 148.823 356 152.306V247.694Z" fill="white" stroke="#A0AEC0" stroke-width="2"/>
<path d="M348 150H300C297.791 150 296 151.791 296 154V242C296 244.209 297.791 246 300 246H348C350.209 246 352 244.209 352 242V154C352 151.791 350.209 150 348 150Z" fill="white" stroke="#A0AEC0" stroke-width="2"/>
<path fill-rule="evenodd" clip-rule="evenodd" d="M330 250.529C330 250.79 329.761 251 329.467 251H318.533C318.238 251 318 250.789 318 250.529V249.471C318 249.21 318.239 249 318.533 249H329.467C329.761 249 330 249.211 330 249.471V250.529Z" fill="#A0AEC0"/>
</g>
<path d="M241.679 102.345L243.413 96.5366H253.346L255.08 102.345H263.897L253.963 72H242.795L232.862 102.345H241.679Z" fill="#1A202C"/>
<path fill-rule="evenodd" clip-rule="evenodd" d="M288.724 96.216C282.356 106.765 263.207 103.698 263.207 87.0025C263.207 71.0004 281.244 67.9918 288.14 77.0572L276.962 87.0527L288.724 96.216Z" fill="#1A202C"/>
<path d="M205.966 72V102.345H230.962L221.279 93.1094C235.691 93.1094 235.916 72 221.279 72H205.966Z" fill="#1A202C"/>
<rect x="177" y="72" width="4.13793" height="30.3448" rx="2.06897" fill="#1A202C"/>
<path d="M196.615 72H179.069V102.345H197C206.35 98.8966 203.897 87.8621 199.414 85.7931C203.552 81.6552 202.451 74.1008 196.615 72Z" fill="#1A202C"/>
<circle cx="184.586" cy="83.7241" r="2.75862" fill="white"/>
<circle cx="192.862" cy="83.7241" r="2.75862" fill="white"/>
<circle cx="192.862" cy="92" r="2.75862" fill="white"/>
<circle cx="184.586" cy="92" r="2.75862" fill="white"/>
<path d="M292.172 72H312.862C314.386 72 315.621 73.2351 315.621 74.7586V82.3448H292.172V72Z" fill="#1A202C"/>
<path d="M292.172 92H315.621V99.5862C315.621 101.11 314.386 102.345 312.862 102.345H292.172V92Z" fill="#1A202C"/>
<rect x="292.172" y="84.4138" width="20" height="5.51724" fill="#1A202C"/>
<path d="M70.3973 166.73L71.239 163.911H76.061L76.9027 166.73H81.1826L76.3606 152H70.9394L66.1174 166.73H70.3973Z" fill="#1A202C"/>
<path fill-rule="evenodd" clip-rule="evenodd" d="M93.2348 163.755C90.1435 168.876 80.8478 167.388 80.8478 159.283C80.8478 151.515 89.6037 150.054 92.9512 154.455L87.5248 159.307L93.2348 163.755Z" fill="#1A202C"/>
<path d="M53.0609 152V166.73H65.195L60.4944 162.247C67.4906 162.247 67.5999 152 60.4944 152H53.0609Z" fill="#1A202C"/>
<rect x="39" y="152" width="2.0087" height="14.7304" rx="1.00435" fill="#1A202C"/>
<path d="M48.522 152H40.0043V166.73H48.7087C53.2475 165.057 52.0565 159.7 49.8804 158.696C51.8891 156.687 51.3548 153.02 48.522 152Z" fill="#1A202C"/>
<circle cx="42.6826" cy="157.691" r="1.33913" fill="white"/>
<circle cx="46.7" cy="157.691" r="1.33913" fill="white"/>
<circle cx="46.7" cy="161.709" r="1.33913" fill="white"/>
<circle cx="42.6826" cy="161.709" r="1.33913" fill="white"/>
<path d="M94.9087 152H104.952C105.692 152 106.291 152.6 106.291 153.339V157.022H94.9087V152Z" fill="#1A202C"/>
<path d="M94.9087 161.709H106.291V165.391C106.291 166.131 105.692 166.73 104.952 166.73H94.9087V161.709Z" fill="#1A202C"/>
<rect x="94.9087" y="158.026" width="9.7087" height="2.67826" fill="#1A202C"/>
<rect x="313" y="181" width="3.54545" height="26" rx="1.77273" fill="#1A202C"/>
<path d="M329.807 181H314.773V207H330.136C338.148 204.045 336.045 194.591 332.205 192.818C335.75 189.273 334.807 182.8 329.807 181Z" fill="#1A202C"/>
<circle cx="319.5" cy="191.045" r="2.36364" fill="white"/>
<circle cx="326.591" cy="191.045" r="2.36364" fill="white"/>
<circle cx="326.591" cy="198.136" r="2.36364" fill="white"/>
<circle cx="319.5" cy="198.136" r="2.36364" fill="white"/>
<defs>
<filter id="filter0_dd" x="58.104" y="0.0693066" width="377.792" height="204.792" filterUnits="userSpaceOnUse" color-interpolation-filters="sRGB">
<feFlood flood-opacity="0" result="BackgroundImageFix"/>
<feColorMatrix in="SourceAlpha" type="matrix" values="0 0 0 0 0 0 0 0 0 0 0 0 0 0 0 0 0 0 127 0"/>
<feOffset dy="1.96535"/>
<feGaussianBlur stdDeviation="2.94802"/>
<feColorMatrix type="matrix" values="0 0 0 0 0 0 0 0 0 0 0 0 0 0 0 0 0 0 0.1 0"/>
<feBlend mode="normal" in2="BackgroundImageFix" result="effect1_dropShadow"/>
<feColorMatrix in="SourceAlpha" type="matrix" values="0 0 0 0 0 0 0 0 0 0 0 0 0 0 0 0 0 0 127 0"/>
<feOffset dy="1.96535"/>
<feGaussianBlur stdDeviation="1.96535"/>
<feColorMatrix type="matrix" values="0 0 0 0 0 0 0 0 0 0 0 0 0 0 0 0 0 0 0.06 0"/>
<feBlend mode="normal" in2="effect1_dropShadow" result="effect2_dropShadow"/>
<feBlend mode="normal" in="SourceGraphic" in2="effect2_dropShadow" result="shape"/>
</filter>
<filter id="filter1_dd" x="0.20792" y="89.0693" width="145.584" height="189.584" filterUnits="userSpaceOnUse" color-interpolation-filters="sRGB">
<feFlood flood-opacity="0" result="BackgroundImageFix"/>
<feColorMatrix in="SourceAlpha" type="matrix" values="0 0 0 0 0 0 0 0 0 0 0 0 0 0 0 0 0 0 127 0"/>
<feOffset dy="7.86139"/>
<feGaussianBlur stdDeviation="5.89604"/>
<feColorMatrix type="matrix" values="0 0 0 0 0 0 0 0 0 0 0 0 0 0 0 0 0 0 0.1 0"/>
<feBlend mode="normal" in2="BackgroundImageFix" result="effect1_dropShadow"/>
<feColorMatrix in="SourceAlpha" type="matrix" values="0 0 0 0 0 0 0 0 0 0 0 0 0 0 0 0 0 0 127 0"/>
<feOffset dy="3.93069"/>
<feGaussianBlur stdDeviation="3.93069"/>
<feColorMatrix type="matrix" values="0 0 0 0 0 0 0 0 0 0 0 0 0 0 0 0 0 0 0.06 0"/>
<feBlend mode="normal" in2="effect1_dropShadow" result="effect2_dropShadow"/>
<feBlend mode="normal" in="SourceGraphic" in2="effect2_dropShadow" result="shape"/>
</filter>
<filter id="filter2_i" x="66.0347" y="245" width="11.9653" height="10" filterUnits="userSpaceOnUse" color-interpolation-filters="sRGB">
<feFlood flood-opacity="0" result="BackgroundImageFix"/>
<feBlend mode="normal" in="SourceGraphic" in2="BackgroundImageFix" result="shape"/>
<feColorMatrix in="SourceAlpha" type="matrix" values="0 0 0 0 0 0 0 0 0 0 0 0 0 0 0 0 0 0 127 0" result="hardAlpha"/>
<feOffset dx="-1.96535"/>
<feGaussianBlur stdDeviation="1.96535"/>
<feComposite in2="hardAlpha" operator="arithmetic" k2="-1" k3="1"/>
<feColorMatrix type="matrix" values="0 0 0 0 0 0 0 0 0 0 0 0 0 0 0 0 0 0 0.25 0"/>
<feBlend mode="normal" in2="shape" result="effect1_innerShadow"/>
</filter>
<filter id="filter3_dd" x="261.52" y="135.173" width="124.96" height="168.96" filterUnits="userSpaceOnUse" color-interpolation-filters="sRGB">
<feFlood flood-opacity="0" result="BackgroundImageFix"/>
<feColorMatrix in="SourceAlpha" type="matrix" values="0 0 0 0 0 0 0 0 0 0 0 0 0 0 0 0 0 0 127 0"/>
<feOffset dy="7.86139"/>
<feGaussianBlur stdDeviation="5.89604"/>
<feColorMatrix type="matrix" values="0 0 0 0 0 0 0 0 0 0 0 0 0 0 0 0 0 0 0.05 0"/>
<feBlend mode="normal" in2="BackgroundImageFix" result="effect1_dropShadow"/>
<feColorMatrix in="SourceAlpha" type="matrix" values="0 0 0 0 0 0 0 0 0 0 0 0 0 0 0 0 0 0 127 0"/>
<feOffset dy="19.6535"/>
<feGaussianBlur stdDeviation="14.7401"/>
<feColorMatrix type="matrix" values="0 0 0 0 0 0 0 0 0 0 0 0 0 0 0 0 0 0 0.1 0"/>
<feBlend mode="normal" in2="effect1_dropShadow" result="effect2_dropShadow"/>
<feBlend mode="normal" in="SourceGraphic" in2="effect2_dropShadow" result="shape"/>
</filter>
</defs>
</svg>
