<svg width="34" height="40" viewBox="0 0 34 40" fill="none" xmlns="http://www.w3.org/2000/svg">
<g clip-path="url(#clip0)">
<path d="M32.7615 30.9599C32.1607 32.3479 31.4495 33.6255 30.6256 34.8001C29.5025 36.4013 28.5829 37.5098 27.8742 38.1253C26.7756 39.1356 25.5986 39.653 24.3381 39.6824C23.4333 39.6824 22.3421 39.4249 21.0718 38.9026C19.7974 38.3827 18.6262 38.1253 17.5553 38.1253C16.4322 38.1253 15.2277 38.3827 13.9393 38.9026C12.649 39.4249 11.6095 39.6971 10.8147 39.7241C9.60603 39.7756 8.40126 39.2435 7.1987 38.1253C6.43116 37.4558 5.47112 36.3082 4.32103 34.6824C3.08708 32.9462 2.0726 30.9329 1.27784 28.6377C0.426684 26.1585 0 23.7578 0 21.4336C0 18.7712 0.575288 16.475 1.72758 14.5507C2.63318 13.0051 3.83795 11.7859 5.34581 10.8908C6.85367 9.99575 8.48292 9.53964 10.2375 9.51046C11.1975 9.51046 12.4565 9.80742 14.021 10.391C15.5811 10.9766 16.5828 11.2736 17.022 11.2736C17.3503 11.2736 18.4632 10.9264 20.3496 10.2341C22.1336 9.59211 23.6393 9.32629 24.8727 9.431C28.2151 9.70075 30.7261 11.0183 32.3961 13.3921C29.4069 15.2033 27.9282 17.7401 27.9576 20.9944C27.9846 23.5292 28.9042 25.6386 30.7114 27.3135C31.5305 28.0908 32.4451 28.6916 33.4628 29.1183C33.2421 29.7583 33.0092 30.3714 32.7615 30.9599ZM25.0959 0.795315C25.0959 2.78212 24.37 4.63719 22.9232 6.35422C21.1773 8.39544 19.0654 9.57495 16.7753 9.38883C16.7461 9.15047 16.7292 8.89961 16.7292 8.636C16.7292 6.72867 17.5595 4.68746 19.034 3.01848C19.7702 2.17345 20.7064 1.47082 21.8418 0.910322C22.9747 0.358183 24.0463 0.0528383 25.0542 0.000549316C25.0836 0.266154 25.0959 0.531775 25.0959 0.795289V0.795315Z" fill="black"/>
</g>
<defs>
<clipPath id="clip0">
<rect width="33.4628" height="39.727" fill="white"/>
</clipPath>
</defs>
</svg>
