<svg width="321" height="75" viewBox="0 0 321 75" fill="none" xmlns="http://www.w3.org/2000/svg">
<g clip-path="url(#clip0)">
<path d="M15.4999 11.7512H70.4999V59.2512H15.4999V11.7512Z" fill="#EEEEEE"/>
<path d="M49.2499 16.75H36.7499C35.3686 16.75 34.2499 17.8687 34.2499 19.25C34.2499 20.6312 35.3686 21.75 36.7499 21.75H49.2499C50.6311 21.75 51.7499 20.6312 51.7499 19.25C51.7499 17.8687 50.6311 16.75 49.2499 16.75Z" fill="white"/>
<path d="M23.0219 31.75V60.8969H33.65L43 44.7031H66.75V31.75H23.0219ZM23.0219 31.75V60.8969H33.65L43 44.7031H66.75V31.75H23.0219Z" fill="#DB4437"/>
<path d="M19.2499 79.2495H41.8561L52.3499 68.7557V60.8995L33.6499 60.8964L19.2499 36.1995V79.2495ZM19.2499 79.2495H41.8561L52.3499 68.7557V60.8995L33.6499 60.8964L19.2499 36.1995V79.2495Z" fill="#0F9D58"/>
<path d="M42.9999 44.7029L52.3499 60.8966L41.8593 79.2498H66.7499V44.7029H42.9999ZM42.9999 44.7029L52.3499 60.8966L41.8593 79.2498H66.7499V44.7029H42.9999Z" fill="#FFCD40"/>
<path d="M43.0001 66.2966C48.963 66.2966 53.7969 61.4627 53.7969 55.4998C53.7969 49.5368 48.963 44.7029 43.0001 44.7029C37.0371 44.7029 32.2032 49.5368 32.2032 55.4998C32.2032 61.4627 37.0371 66.2966 43.0001 66.2966Z" fill="#F1F1F1"/>
<path d="M42.9999 64.1385C47.7703 64.1385 51.6374 60.2714 51.6374 55.501C51.6374 50.7306 47.7703 46.8635 42.9999 46.8635C38.2296 46.8635 34.3624 50.7306 34.3624 55.501C34.3624 60.2714 38.2296 64.1385 42.9999 64.1385Z" fill="#4285F4"/>
<path d="M15.4999 11.7512H70.4999V35.5012H15.4999V11.7512Z" fill="#212121" fill-opacity="0.05"/>
<path d="M15.4999 35.1887H70.4999V35.5012H15.4999V35.1887Z" fill="#212121" fill-opacity="0.02"/>
<path d="M15.4999 35.5H70.4999V35.8125H15.4999V35.5Z" fill="white" fill-opacity="0.05"/>
<path d="M49.2499 21.7512H36.7499C35.4218 21.7512 34.3374 20.7137 34.2593 19.4075C34.253 19.4606 34.2499 19.5106 34.2499 19.5637C34.2499 20.945 35.3686 22.0637 36.7499 22.0637H49.2499C50.6311 22.0637 51.7499 20.945 51.7499 19.5637C51.7499 19.5106 51.7468 19.4606 51.7405 19.4075C51.6624 20.7137 50.578 21.7512 49.2499 21.7512ZM15.4999 11.7512V12.0637H70.4999V11.7512H15.4999Z" fill="#212121" fill-opacity="0.02"/>
<path d="M36.7499 16.7512H49.2499C50.578 16.7512 51.6624 17.7887 51.7405 19.095C51.7436 19.0418 51.7499 18.9918 51.7499 18.9387C51.7499 17.5575 50.6311 16.4387 49.2499 16.4387H36.7499C35.3686 16.4387 34.2499 17.5575 34.2499 18.9387C34.2499 18.9918 34.253 19.0418 34.2593 19.095C34.3374 17.7887 35.4218 16.7512 36.7499 16.7512ZM66.7499 58.9387H19.2499C17.1874 58.9387 15.4999 57.2512 15.4999 55.1887V55.5012C15.4999 57.5637 17.1874 59.2512 19.2499 59.2512H66.7499C68.8124 59.2512 70.4999 57.5637 70.4999 55.5012V55.1887C70.4999 57.2512 68.8124 58.9387 66.7499 58.9387Z" fill="#231F20" fill-opacity="0.1"/>
<path d="M15.4999 11.7512V55.5012C15.4999 57.5637 17.1874 59.2512 19.2499 59.2512H66.7499C68.8124 59.2512 70.4999 57.5637 70.4999 55.5012V11.7512H15.4999ZM49.2499 21.7512H36.7499C35.3686 21.7512 34.2499 20.6325 34.2499 19.2512C34.2499 17.87 35.3686 16.7512 36.7499 16.7512H49.2499C50.6311 16.7512 51.7499 17.87 51.7499 19.2512C51.7499 20.6325 50.6311 21.7512 49.2499 21.7512Z" fill="url(#paint0_radial)"/>
</g>
<path d="M92.642 32L93.6023 29.1307H97.9773L98.9432 32H101.193L97.0909 20.3636H94.4886L90.392 32H92.642ZM94.1705 27.4375L95.7443 22.75H95.8352L97.4091 27.4375H94.1705ZM109.337 23.2727H107.149L105.138 29.7557H105.047L103.041 23.2727H100.848L103.956 32H106.229L109.337 23.2727ZM113.021 32.1761C114.391 32.1761 115.209 31.5341 115.584 30.8011H115.652V32H117.629V26.1591C117.629 23.8523 115.749 23.1591 114.084 23.1591C112.249 23.1591 110.839 23.9773 110.385 25.5682L112.305 25.8409C112.51 25.2443 113.089 24.733 114.095 24.733C115.05 24.733 115.572 25.2216 115.572 26.0795V26.1136C115.572 26.7045 114.953 26.733 113.413 26.8977C111.72 27.0795 110.101 27.5852 110.101 29.5511C110.101 31.267 111.357 32.1761 113.021 32.1761ZM113.555 30.6648C112.697 30.6648 112.084 30.2727 112.084 29.517C112.084 28.7273 112.771 28.3977 113.692 28.267C114.232 28.1932 115.311 28.0568 115.578 27.8409V28.8693C115.578 29.8409 114.794 30.6648 113.555 30.6648ZM119.697 32H121.754V23.2727H119.697V32ZM120.732 22.0341C121.385 22.0341 121.919 21.5341 121.919 20.9205C121.919 20.3011 121.385 19.8011 120.732 19.8011C120.072 19.8011 119.538 20.3011 119.538 20.9205C119.538 21.5341 120.072 22.0341 120.732 22.0341ZM125.926 20.3636H123.869V32H125.926V20.3636ZM130.553 32.1761C131.922 32.1761 132.74 31.5341 133.115 30.8011H133.183V32H135.161V26.1591C135.161 23.8523 133.28 23.1591 131.615 23.1591C129.78 23.1591 128.371 23.9773 127.916 25.5682L129.837 25.8409C130.041 25.2443 130.621 24.733 131.626 24.733C132.581 24.733 133.104 25.2216 133.104 26.0795V26.1136C133.104 26.7045 132.484 26.733 130.945 26.8977C129.251 27.0795 127.632 27.5852 127.632 29.5511C127.632 31.267 128.888 32.1761 130.553 32.1761ZM131.087 30.6648C130.229 30.6648 129.615 30.2727 129.615 29.517C129.615 28.7273 130.303 28.3977 131.223 28.267C131.763 28.1932 132.842 28.0568 133.109 27.8409V28.8693C133.109 29.8409 132.325 30.6648 131.087 30.6648ZM137.32 32H139.342V30.625H139.462C139.786 31.2614 140.462 32.1534 141.962 32.1534C144.018 32.1534 145.558 30.5227 145.558 27.6477C145.558 24.7386 143.973 23.1591 141.956 23.1591C140.416 23.1591 139.774 24.0852 139.462 24.7159H139.376V20.3636H137.32V32ZM139.337 27.6364C139.337 25.9432 140.064 24.8466 141.388 24.8466C142.757 24.8466 143.462 26.0114 143.462 27.6364C143.462 29.2727 142.746 30.4659 141.388 30.4659C140.075 30.4659 139.337 29.3295 139.337 27.6364ZM149.364 20.3636H147.307V32H149.364V20.3636ZM155.342 32.1705C157.376 32.1705 158.774 31.1761 159.138 29.6591L157.217 29.4432C156.939 30.1818 156.257 30.5682 155.371 30.5682C154.041 30.5682 153.161 29.6932 153.143 28.1989H159.223V27.5682C159.223 24.5057 157.382 23.1591 155.234 23.1591C152.734 23.1591 151.104 24.9943 151.104 27.6875C151.104 30.4261 152.712 32.1705 155.342 32.1705ZM153.149 26.8125C153.212 25.6989 154.036 24.7614 155.263 24.7614C156.445 24.7614 157.24 25.625 157.251 26.8125H153.149ZM164.932 32H166.989V23.2727H164.932V32ZM165.966 22.0341C166.619 22.0341 167.153 21.5341 167.153 20.9205C167.153 20.3011 166.619 19.8011 165.966 19.8011C165.307 19.8011 164.773 20.3011 164.773 20.9205C164.773 21.5341 165.307 22.0341 165.966 22.0341ZM171.161 26.8864C171.161 25.625 171.922 24.8977 173.007 24.8977C174.07 24.8977 174.706 25.5966 174.706 26.7614V32H176.763V26.4432C176.768 24.3523 175.575 23.1591 173.774 23.1591C172.467 23.1591 171.57 23.7841 171.172 24.7557H171.07V23.2727H169.104V32H171.161V26.8864ZM187.18 23.2727H185.459V21.1818H183.402V23.2727H182.163V24.8636H183.402V29.7159C183.391 31.358 184.584 32.1648 186.129 32.1193C186.714 32.1023 187.118 31.9886 187.339 31.9148L186.993 30.3068C186.879 30.3352 186.646 30.3864 186.391 30.3864C185.874 30.3864 185.459 30.2045 185.459 29.375V24.8636H187.18V23.2727ZM191.145 26.8864C191.145 25.625 191.929 24.8977 193.031 24.8977C194.111 24.8977 194.747 25.5852 194.747 26.7614V32H196.804V26.4432C196.804 24.3352 195.611 23.1591 193.798 23.1591C192.457 23.1591 191.605 23.767 191.202 24.7557H191.099V20.3636H189.088V32H191.145V26.8864ZM202.764 32.1705C204.798 32.1705 206.196 31.1761 206.56 29.6591L204.639 29.4432C204.361 30.1818 203.679 30.5682 202.793 30.5682C201.463 30.5682 200.582 29.6932 200.565 28.1989H206.645V27.5682C206.645 24.5057 204.804 23.1591 202.656 23.1591C200.156 23.1591 198.526 24.9943 198.526 27.6875C198.526 30.4261 200.134 32.1705 202.764 32.1705ZM200.571 26.8125C200.634 25.6989 201.457 24.7614 202.685 24.7614C203.866 24.7614 204.662 25.625 204.673 26.8125H200.571Z" fill="#E2E8F0"/>
<path d="M105.662 43.4347C105.125 39.5568 102.142 37.3068 98.2727 37.3068C93.7131 37.3068 90.2784 40.6307 90.2784 46.2727C90.2784 51.9062 93.6705 55.2386 98.2727 55.2386C102.423 55.2386 105.176 52.554 105.662 49.2216L102.474 49.2045C102.074 51.25 100.403 52.4006 98.3153 52.4006C95.4858 52.4006 93.4574 50.2784 93.4574 46.2727C93.4574 42.3352 95.4688 40.1449 98.3239 40.1449C100.446 40.1449 102.108 41.3466 102.474 43.4347H105.662ZM111.506 47.3295C111.506 45.4375 112.683 44.3466 114.336 44.3466C115.955 44.3466 116.91 45.3778 116.91 47.142V55H119.995V46.6648C119.995 43.5028 118.205 41.7386 115.487 41.7386C113.475 41.7386 112.197 42.6506 111.592 44.1335H111.438V37.5455H108.421V55H111.506V47.3295ZM123.14 55H126.225V47.304C126.225 45.642 127.478 44.4659 129.174 44.4659C129.694 44.4659 130.342 44.5597 130.606 44.6449V41.8068C130.325 41.7557 129.839 41.7216 129.498 41.7216C127.998 41.7216 126.745 42.5739 126.268 44.0909H126.131V41.9091H123.14V55ZM137.827 55.2557C141.662 55.2557 144.099 52.554 144.099 48.5057C144.099 44.4489 141.662 41.7386 137.827 41.7386C133.991 41.7386 131.554 44.4489 131.554 48.5057C131.554 52.554 133.991 55.2557 137.827 55.2557ZM137.844 52.7841C135.722 52.7841 134.682 50.892 134.682 48.4972C134.682 46.1023 135.722 44.1847 137.844 44.1847C139.932 44.1847 140.972 46.1023 140.972 48.4972C140.972 50.892 139.932 52.7841 137.844 52.7841ZM146.718 55H149.803V47.0398C149.803 45.429 150.877 44.3381 152.207 44.3381C153.511 44.3381 154.406 45.2159 154.406 46.5625V55H157.431V46.8352C157.431 45.3608 158.309 44.3381 159.8 44.3381C161.045 44.3381 162.033 45.071 162.033 46.6903V55H165.127V46.2131C165.127 43.2898 163.44 41.7386 161.036 41.7386C159.136 41.7386 157.687 42.6761 157.107 44.1335H156.971C156.468 42.6506 155.198 41.7386 153.434 41.7386C151.678 41.7386 150.366 42.642 149.82 44.1335H149.667V41.9091H146.718V55ZM174.053 55.2557C177.104 55.2557 179.2 53.7642 179.746 51.4886L176.865 51.1648C176.447 52.2727 175.425 52.8523 174.095 52.8523C172.101 52.8523 170.78 51.5398 170.754 49.2983H179.874V48.3523C179.874 43.7585 177.112 41.7386 173.891 41.7386C170.141 41.7386 167.695 44.4915 167.695 48.5312C167.695 52.6392 170.107 55.2557 174.053 55.2557ZM170.763 47.2188C170.857 45.5483 172.092 44.142 173.933 44.142C175.706 44.142 176.899 45.4375 176.916 47.2188H170.763ZM192.246 55H195.366L198.869 42.7528H199.005L202.499 55H205.619L210.545 37.5455H207.144L203.999 50.3807H203.846L200.479 37.5455H197.386L194.028 50.3722H193.866L190.721 37.5455H187.32L192.246 55ZM217.06 55.2557C220.112 55.2557 222.208 53.7642 222.754 51.4886L219.873 51.1648C219.455 52.2727 218.433 52.8523 217.103 52.8523C215.109 52.8523 213.788 51.5398 213.762 49.2983H222.881V48.3523C222.881 43.7585 220.12 41.7386 216.898 41.7386C213.148 41.7386 210.702 44.4915 210.702 48.5312C210.702 52.6392 213.114 55.2557 217.06 55.2557ZM213.771 47.2188C213.864 45.5483 215.1 44.142 216.941 44.142C218.714 44.142 219.907 45.4375 219.924 47.2188H213.771ZM225.628 55H228.662V52.9375H228.841C229.327 53.892 230.341 55.2301 232.591 55.2301C235.676 55.2301 237.986 52.7841 237.986 48.4716C237.986 44.108 235.608 41.7386 232.582 41.7386C230.273 41.7386 229.31 43.1278 228.841 44.0739H228.713V37.5455H225.628V55ZM228.653 48.4545C228.653 45.9148 229.744 44.2699 231.73 44.2699C233.784 44.2699 234.841 46.017 234.841 48.4545C234.841 50.9091 233.767 52.6989 231.73 52.6989C229.761 52.6989 228.653 50.9943 228.653 48.4545ZM256.184 42.3438H259.227C259.167 39.3949 256.653 37.3068 252.937 37.3068C249.272 37.3068 246.519 39.3693 246.528 42.4545C246.528 44.9602 248.309 46.4006 251.181 47.142L253.167 47.6534C255.05 48.1307 256.295 48.7188 256.303 50.0739C256.295 51.5653 254.88 52.5625 252.817 52.5625C250.84 52.5625 249.306 51.6761 249.178 49.8438H246.067C246.195 53.3125 248.778 55.2642 252.843 55.2642C257.028 55.2642 259.457 53.1761 259.465 50.0994C259.457 47.0739 256.96 45.6932 254.335 45.071L252.698 44.6619C251.266 44.321 249.715 43.7159 249.732 42.2585C249.741 40.946 250.917 39.983 252.894 39.983C254.778 39.983 256.022 40.8608 256.184 42.3438ZM268.685 41.9091H266.102V38.7727H263.017V41.9091H261.159V44.2955H263.017V51.5739C263 54.0369 264.79 55.2472 267.108 55.179C267.986 55.1534 268.591 54.983 268.923 54.8722L268.403 52.4602C268.233 52.5028 267.884 52.5795 267.5 52.5795C266.724 52.5795 266.102 52.3068 266.102 51.0625V44.2955H268.685V41.9091ZM276.835 55.2557C280.67 55.2557 283.107 52.554 283.107 48.5057C283.107 44.4489 280.67 41.7386 276.835 41.7386C272.999 41.7386 270.562 44.4489 270.562 48.5057C270.562 52.554 272.999 55.2557 276.835 55.2557ZM276.852 52.7841C274.729 52.7841 273.69 50.892 273.69 48.4972C273.69 46.1023 274.729 44.1847 276.852 44.1847C278.94 44.1847 279.979 46.1023 279.979 48.4972C279.979 50.892 278.94 52.7841 276.852 52.7841ZM285.726 55H288.811V47.304C288.811 45.642 290.064 44.4659 291.76 44.4659C292.28 44.4659 292.928 44.5597 293.192 44.6449V41.8068C292.911 41.7557 292.425 41.7216 292.084 41.7216C290.584 41.7216 289.331 42.5739 288.854 44.0909H288.717V41.9091H285.726V55ZM300.498 55.2557C303.549 55.2557 305.646 53.7642 306.191 51.4886L303.31 51.1648C302.893 52.2727 301.87 52.8523 300.54 52.8523C298.546 52.8523 297.225 51.5398 297.2 49.2983H306.319V48.3523C306.319 43.7585 303.558 41.7386 300.336 41.7386C296.586 41.7386 294.14 44.4915 294.14 48.5312C294.14 52.6392 296.552 55.2557 300.498 55.2557ZM297.208 47.2188C297.302 45.5483 298.538 44.142 300.379 44.142C302.151 44.142 303.344 45.4375 303.362 47.2188H297.208Z" fill="#E2E8F0"/>
<rect x="0.5" y="0.5" width="320" height="74" rx="3.5" stroke="#A6A6A6"/>
<defs>
<radialGradient id="paint0_radial" cx="0" cy="0" r="1" gradientUnits="userSpaceOnUse" gradientTransform="translate(15.3443 11.5462) scale(71.1238)">
<stop stop-color="white" stop-opacity="0.1"/>
<stop offset="1" stop-color="white" stop-opacity="0"/>
</radialGradient>
<clipPath id="clip0">
<rect width="60" height="60" fill="white" transform="translate(13 4)"/>
</clipPath>
</defs>
</svg>
