<svg width="311" height="92" viewBox="0 0 311 92" fill="none" xmlns="http://www.w3.org/2000/svg">
<g clip-path="url(#clip0)">
<path d="M299.453 92H10.8767C4.8806 92 0 87.1056 0 81.1141V10.8698C0 4.876 4.8806 0 10.8767 0H299.453C305.447 0 310.5 4.876 310.5 10.8698V81.1141C310.5 87.1056 305.447 92 299.453 92Z" fill="#A6A6A6"/>
<path d="M308.274 81.1164C308.274 85.9832 304.331 89.9254 299.455 89.9254H10.8767C6.00303 89.9254 2.04703 85.9832 2.04703 81.1164V10.8675C2.04703 6.00303 6.00303 2.04703 10.8767 2.04703H299.453C304.331 2.04703 308.271 6.00303 308.271 10.8675L308.274 81.1164Z" fill="black"/>
<path d="M69.2944 45.5032C69.2277 38.0903 75.3641 34.4839 75.6447 34.316C72.1694 29.2491 66.7828 28.5568 64.8899 28.5016C60.3658 28.0255 55.9774 31.2087 53.6728 31.2087C51.3222 31.2087 47.7733 28.5476 43.9484 28.6258C39.0264 28.7017 34.4218 31.5514 31.8964 35.9766C26.6846 44.9995 30.5716 58.259 35.5649 65.5523C38.0627 69.1242 40.9814 73.1124 44.8017 72.9721C48.5392 72.818 49.9353 70.5893 54.4456 70.5893C58.9145 70.5893 60.2255 72.9721 64.1217 72.8824C68.1329 72.818 70.6583 69.2944 73.0687 65.6903C75.9552 61.5963 77.1144 57.5644 77.1604 57.3574C77.0661 57.3252 69.3703 54.3881 69.2944 45.5032Z" fill="white"/>
<path d="M61.9344 23.7038C63.9446 21.1899 65.32 17.7698 64.9382 14.2991C62.0287 14.4279 58.3901 16.3116 56.2948 18.7703C54.441 20.9369 52.785 24.4881 53.2128 27.8277C56.4811 28.0715 59.8368 26.1786 61.9344 23.7038Z" fill="white"/>
<path d="M123.383 72.4592H118.16L115.299 63.4685H105.354L102.628 72.4592H97.5429L107.396 41.8508H113.482L123.383 72.4592ZM114.436 59.6965L111.849 51.704C111.575 50.8875 111.062 48.9647 110.306 45.9379H110.214C109.912 47.2397 109.427 49.1625 108.76 51.704L106.219 59.6965H114.436Z" fill="white"/>
<path d="M148.723 61.1524C148.723 64.906 147.708 67.873 145.68 70.0511C143.863 71.99 141.606 72.9583 138.913 72.9583C136.006 72.9583 133.917 71.9141 132.645 69.8257H132.553V81.4522H127.65V57.6541C127.65 55.2943 127.588 52.8724 127.468 50.3884H131.781L132.054 53.8867H132.146C133.782 51.2509 136.263 49.9353 139.594 49.9353C142.197 49.9353 144.371 50.9634 146.11 53.0219C147.853 55.0827 148.723 57.7921 148.723 61.1524ZM143.727 61.3318C143.727 59.1836 143.244 57.4126 142.273 56.0188C141.213 54.5652 139.789 53.8384 138.004 53.8384C136.795 53.8384 135.695 54.2432 134.713 55.0413C133.729 55.8463 133.085 56.8974 132.783 58.1992C132.632 58.8064 132.556 59.3032 132.556 59.6942V63.3742C132.556 64.9796 133.048 66.3343 134.032 67.4406C135.017 68.5469 136.296 69.0989 137.869 69.0989C139.716 69.0989 141.153 68.3859 142.181 66.9645C143.212 65.5408 143.727 63.664 143.727 61.3318Z" fill="white"/>
<path d="M174.108 61.1524C174.108 64.906 173.093 67.873 171.062 70.0511C169.248 71.99 166.991 72.9583 164.298 72.9583C161.391 72.9583 159.303 71.9141 158.033 69.8257H157.941V81.4522H153.037V57.6541C153.037 55.2943 152.975 52.8724 152.856 50.3884H157.168L157.442 53.8867H157.534C159.167 51.2509 161.649 49.9353 164.981 49.9353C167.583 49.9353 169.756 50.9634 171.499 53.0219C173.236 55.0827 174.108 57.7921 174.108 61.1524ZM169.112 61.3318C169.112 59.1836 168.627 57.4126 167.656 56.0188C166.596 54.5652 165.177 53.8384 163.39 53.8384C162.178 53.8384 161.08 54.2432 160.096 55.0413C159.112 55.8463 158.47 56.8974 158.169 58.1992C158.019 58.8064 157.941 59.3032 157.941 59.6942V63.3742C157.941 64.9796 158.433 66.3343 159.413 67.4406C160.397 68.5446 161.676 69.0989 163.254 69.0989C165.101 69.0989 166.538 68.3859 167.566 66.9645C168.597 65.5408 169.112 63.664 169.112 61.3318Z" fill="white"/>
<path d="M202.49 63.8756C202.49 66.4792 201.586 68.5975 199.771 70.2328C197.777 72.0199 195.001 72.9123 191.434 72.9123C188.14 72.9123 185.499 72.2775 183.501 71.0056L184.637 66.9185C186.79 68.2203 189.152 68.8735 191.726 68.8735C193.573 68.8735 195.01 68.4549 196.043 67.6223C197.071 66.7897 197.584 65.6719 197.584 64.2781C197.584 63.0361 197.16 61.9896 196.312 61.1409C195.468 60.2922 194.058 59.5033 192.089 58.7742C186.73 56.7755 184.053 53.8476 184.053 49.9974C184.053 47.4812 184.991 45.4181 186.87 43.8127C188.743 42.205 191.24 41.4023 194.364 41.4023C197.149 41.4023 199.463 41.8876 201.31 42.8559L200.084 46.8533C198.359 45.9149 196.408 45.4457 194.226 45.4457C192.501 45.4457 191.153 45.8712 190.187 46.7176C189.37 47.4743 188.961 48.3966 188.961 49.4891C188.961 50.6989 189.428 51.6994 190.366 52.486C191.183 53.2128 192.666 53.9994 194.819 54.8481C197.453 55.9084 199.387 57.1481 200.631 58.5695C201.871 59.9863 202.49 61.7596 202.49 63.8756Z" fill="white"/>
<path d="M218.702 54.0684H213.297V64.7841C213.297 67.5096 214.25 68.8712 216.159 68.8712C217.035 68.8712 217.762 68.7953 218.337 68.6435L218.472 72.3672C217.506 72.7283 216.234 72.91 214.659 72.91C212.722 72.91 211.209 72.3189 210.116 71.139C209.029 69.9568 208.481 67.9742 208.481 65.1889V54.0638H205.261V50.3838H208.481V46.3427L213.297 44.8891V50.3838H218.702V54.0684Z" fill="white"/>
<path d="M243.089 61.2421C243.089 64.6346 242.119 67.4199 240.182 69.598C238.151 71.8405 235.456 72.9583 232.095 72.9583C228.857 72.9583 226.279 71.8842 224.356 69.736C222.433 67.5878 221.472 64.8761 221.472 61.6078C221.472 58.1877 222.461 55.3863 224.445 53.2082C226.426 51.0278 229.098 49.9376 232.459 49.9376C235.697 49.9376 238.303 51.0117 240.269 53.1622C242.151 55.2483 243.089 57.9416 243.089 61.2421ZM238.002 61.4008C238.002 59.3653 237.567 57.6196 236.686 56.1637C235.658 54.4019 234.188 53.5233 232.284 53.5233C230.313 53.5233 228.815 54.4042 227.787 56.1637C226.906 57.6219 226.472 59.3952 226.472 61.4928C226.472 63.5283 226.906 65.274 227.787 66.7276C228.848 68.4894 230.329 69.368 232.24 69.368C234.112 69.368 235.582 68.471 236.642 66.6816C237.546 65.1981 238.002 63.434 238.002 61.4008Z" fill="white"/>
<path d="M259.028 54.7009C258.543 54.6112 258.025 54.5652 257.483 54.5652C255.758 54.5652 254.424 55.2161 253.485 56.5202C252.669 57.6702 252.259 59.1238 252.259 60.8787V72.4592H247.358L247.404 57.339C247.404 54.7952 247.342 52.4791 247.22 50.3907H251.491L251.67 54.6135H251.806C252.324 53.1622 253.14 51.9938 254.258 51.1175C255.35 50.3286 256.53 49.9353 257.802 49.9353C258.255 49.9353 258.665 49.9675 259.028 50.025V54.7009Z" fill="white"/>
<path d="M280.959 60.3796C280.959 61.2582 280.901 61.9988 280.779 62.6037H266.069C266.126 64.7841 266.837 66.4516 268.203 67.6016C269.443 68.6297 271.046 69.1449 273.015 69.1449C275.193 69.1449 277.18 68.7976 278.967 68.1007L279.735 71.5047C277.647 72.4155 275.181 72.8686 272.336 72.8686C268.914 72.8686 266.227 71.8612 264.272 69.8487C262.322 67.8362 261.344 65.1337 261.344 61.7435C261.344 58.4154 262.253 55.6439 264.072 53.4336C265.977 51.0738 268.55 49.8939 271.789 49.8939C274.969 49.8939 277.378 51.0738 279.013 53.4336C280.308 55.3081 280.959 57.6265 280.959 60.3796ZM276.283 59.1077C276.315 57.6541 275.995 56.3983 275.331 55.338C274.482 53.9741 273.178 53.2933 271.423 53.2933C269.82 53.2933 268.516 53.958 267.52 55.292C266.703 56.3523 266.218 57.6242 266.069 59.1054H276.283V59.1077Z" fill="white"/>
<path d="M112.815 23.0207C112.815 25.7278 112.003 27.7656 110.382 29.1341C108.88 30.3968 106.745 31.0293 103.981 31.0293C102.61 31.0293 101.437 30.9695 100.455 30.8499V16.0586C101.736 15.8516 103.116 15.7458 104.606 15.7458C107.24 15.7458 109.225 16.3185 110.563 17.4639C112.063 18.7588 112.815 20.6103 112.815 23.0207ZM110.274 23.0874C110.274 21.3325 109.809 19.987 108.88 19.0486C107.951 18.1125 106.594 17.6433 104.806 17.6433C104.047 17.6433 103.401 17.6939 102.865 17.7997V29.0444C103.162 29.0904 103.705 29.1111 104.494 29.1111C106.338 29.1111 107.762 28.5982 108.765 27.5724C109.768 26.5466 110.274 25.0516 110.274 23.0874Z" fill="white"/>
<path d="M126.291 25.3851C126.291 27.0526 125.815 28.4188 124.862 29.4906C123.864 30.5923 122.542 31.142 120.89 31.142C119.299 31.142 118.031 30.6153 117.086 29.5573C116.143 28.5016 115.672 27.1699 115.672 25.5645C115.672 23.8855 116.157 22.5078 117.132 21.4383C118.107 20.3688 119.418 19.8329 121.07 19.8329C122.661 19.8329 123.94 20.3596 124.908 21.4153C125.828 22.4411 126.291 23.7659 126.291 25.3851ZM123.791 25.4633C123.791 24.4628 123.574 23.6049 123.144 22.8896C122.638 22.0248 121.918 21.5924 120.982 21.5924C120.014 21.5924 119.278 22.0248 118.772 22.8896C118.34 23.6049 118.126 24.4766 118.126 25.507C118.126 26.5075 118.342 27.3654 118.772 28.0807C119.294 28.9455 120.021 29.3779 120.959 29.3779C121.879 29.3779 122.602 28.9386 123.121 28.0577C123.568 27.3286 123.791 26.4638 123.791 25.4633Z" fill="white"/>
<path d="M144.36 20.0537L140.967 30.8959H138.759L137.354 26.1878C136.997 25.0125 136.708 23.8441 136.482 22.6849H136.438C136.229 23.8763 135.939 25.0424 135.567 26.1878L134.074 30.8959H131.841L128.651 20.0537H131.128L132.354 25.208C132.65 26.427 132.894 27.5885 133.09 28.6879H133.133C133.313 27.7817 133.609 26.6271 134.028 25.231L135.567 20.056H137.531L139.005 25.1206C139.362 26.3557 139.652 27.5448 139.875 28.6902H139.941C140.105 27.5747 140.351 26.3856 140.677 25.1206L141.993 20.056H144.36V20.0537Z" fill="white"/>
<path d="M156.856 30.8959H154.445V24.6859C154.445 22.7723 153.718 21.8155 152.26 21.8155C151.545 21.8155 150.968 22.0777 150.519 22.6044C150.075 23.1311 149.85 23.7521 149.85 24.4628V30.8936H147.439V23.1518C147.439 22.1996 147.409 21.1669 147.352 20.0491H149.47L149.583 21.7442H149.65C149.93 21.2175 150.349 20.7828 150.899 20.4355C151.552 20.0307 152.283 19.826 153.084 19.826C154.096 19.826 154.937 20.1526 155.607 20.8081C156.439 21.6108 156.856 22.8091 156.856 24.4007V30.8959Z" fill="white"/>
<path d="M163.502 30.8959H161.094V15.0788H163.502V30.8959Z" fill="white"/>
<path d="M177.694 25.3851C177.694 27.0526 177.217 28.4188 176.265 29.4906C175.267 30.5923 173.942 31.142 172.293 31.142C170.699 31.142 169.432 30.6153 168.489 29.5573C167.546 28.5016 167.074 27.1699 167.074 25.5645C167.074 23.8855 167.56 22.5078 168.535 21.4383C169.51 20.3688 170.821 19.8329 172.47 19.8329C174.064 19.8329 175.341 20.3596 176.311 21.4153C177.231 22.4411 177.694 23.7659 177.694 25.3851ZM175.191 25.4633C175.191 24.4628 174.975 23.6049 174.545 22.8896C174.041 22.0248 173.319 21.5924 172.385 21.5924C171.415 21.5924 170.679 22.0248 170.175 22.8896C169.742 23.6049 169.529 24.4766 169.529 25.507C169.529 26.5075 169.745 27.3654 170.175 28.0807C170.697 28.9455 171.424 29.3779 172.362 29.3779C173.282 29.3779 174.002 28.9386 174.522 28.0577C174.97 27.3286 175.191 26.4638 175.191 25.4633Z" fill="white"/>
<path d="M189.359 30.8959H187.195L187.015 29.647H186.949C186.208 30.6429 185.152 31.142 183.782 31.142C182.758 31.142 181.93 30.8131 181.307 30.1599C180.741 29.5665 180.458 28.8282 180.458 27.9519C180.458 26.6271 181.01 25.6174 182.121 24.9182C183.23 24.219 184.789 23.8763 186.797 23.8924V23.69C186.797 22.2617 186.047 21.5487 184.545 21.5487C183.476 21.5487 182.533 21.8178 181.718 22.3514L181.229 20.769C182.236 20.1457 183.48 19.8329 184.948 19.8329C187.781 19.8329 189.203 21.3279 189.203 24.3179V28.3107C189.203 29.394 189.256 30.2565 189.359 30.8959ZM186.857 27.1699V25.4978C184.198 25.4518 182.868 26.1809 182.868 27.6828C182.868 28.2486 183.02 28.6718 183.331 28.9547C183.641 29.2376 184.037 29.3779 184.508 29.3779C185.037 29.3779 185.532 29.21 185.983 28.8765C186.436 28.5407 186.714 28.1152 186.818 27.5931C186.843 27.4758 186.857 27.3332 186.857 27.1699Z" fill="white"/>
<path d="M203.056 30.8959H200.917L200.804 29.1548H200.737C200.054 30.4796 198.89 31.142 197.255 31.142C195.949 31.142 194.861 30.6291 193.998 29.6033C193.136 28.5775 192.706 27.2458 192.706 25.6105C192.706 23.8556 193.172 22.4342 194.111 21.3486C195.019 20.3366 196.133 19.8306 197.457 19.8306C198.913 19.8306 199.932 20.3205 200.512 21.3026H200.558V15.0788H202.97V27.9749C202.97 29.0306 202.998 30.0035 203.056 30.8959ZM200.558 26.3235V24.5157C200.558 24.2029 200.535 23.9499 200.491 23.7567C200.355 23.1771 200.063 22.6895 199.619 22.2962C199.171 21.9029 198.63 21.7051 198.007 21.7051C197.108 21.7051 196.404 22.0616 195.886 22.7769C195.374 23.4922 195.114 24.4053 195.114 25.5208C195.114 26.5926 195.36 27.462 195.854 28.1313C196.376 28.8443 197.08 29.2008 197.961 29.2008C198.752 29.2008 199.385 28.9041 199.865 28.3084C200.33 27.7587 200.558 27.0963 200.558 26.3235Z" fill="white"/>
<path d="M223.671 25.3851C223.671 27.0526 223.194 28.4188 222.242 29.4906C221.244 30.5923 219.924 31.142 218.27 31.142C216.681 31.142 215.414 30.6153 214.466 29.5573C213.523 28.5016 213.051 27.1699 213.051 25.5645C213.051 23.8855 213.537 22.5078 214.512 21.4383C215.487 20.3688 216.798 19.8329 218.452 19.8329C220.041 19.8329 221.322 20.3596 222.288 21.4153C223.208 22.4411 223.671 23.7659 223.671 25.3851ZM221.173 25.4633C221.173 24.4628 220.956 23.6049 220.526 22.8896C220.018 22.0248 219.301 21.5924 218.362 21.5924C217.396 21.5924 216.66 22.0248 216.152 22.8896C215.719 23.6049 215.505 24.4766 215.505 25.507C215.505 26.5075 215.722 27.3654 216.152 28.0807C216.674 28.9455 217.401 29.3779 218.339 29.3779C219.259 29.3779 219.984 28.9386 220.503 28.0577C220.947 27.3286 221.173 26.4638 221.173 25.4633Z" fill="white"/>
<path d="M236.631 30.8959H234.223V24.6859C234.223 22.7723 233.496 21.8155 232.035 21.8155C231.32 21.8155 230.743 22.0777 230.297 22.6044C229.85 23.1311 229.627 23.7521 229.627 24.4628V30.8936H227.215V23.1518C227.215 22.1996 227.187 21.1669 227.13 20.0491H229.246L229.358 21.7442H229.425C229.708 21.2175 230.126 20.7828 230.674 20.4355C231.329 20.0307 232.058 19.826 232.861 19.826C233.871 19.826 234.713 20.1526 235.382 20.8081C236.217 21.6108 236.631 22.8091 236.631 24.4007V30.8959Z" fill="white"/>
<path d="M252.853 21.8592H250.199V27.1262C250.199 28.4648 250.67 29.1341 251.604 29.1341C252.036 29.1341 252.395 29.0973 252.678 29.0214L252.74 30.8499C252.264 31.0293 251.638 31.119 250.868 31.119C249.916 31.119 249.175 30.8292 248.639 30.2496C248.101 29.67 247.834 28.6948 247.834 27.3263V21.8592H246.25V20.0537H247.834V18.0665L250.196 17.3535V20.0514H252.851V21.8592H252.853Z" fill="white"/>
<path d="M265.613 30.8959H263.201V24.7319C263.201 22.7884 262.474 21.8155 261.018 21.8155C259.9 21.8155 259.136 22.379 258.718 23.506C258.647 23.7429 258.605 24.0327 258.605 24.3731V30.8936H256.197V15.0788H258.605V21.6131H258.651C259.41 20.424 260.498 19.8306 261.908 19.8306C262.906 19.8306 263.732 20.1572 264.387 20.8127C265.204 21.6292 265.613 22.8436 265.613 24.449V30.8959Z" fill="white"/>
<path d="M278.776 24.9619C278.776 25.3943 278.744 25.7577 278.686 26.0544H271.457C271.49 27.1262 271.835 27.9427 272.504 28.5085C273.116 29.0145 273.905 29.2675 274.871 29.2675C275.94 29.2675 276.915 29.0973 277.794 28.7546L278.171 30.429C277.143 30.8752 275.933 31.0983 274.533 31.0983C272.854 31.0983 271.531 30.6038 270.574 29.6148C269.613 28.6258 269.137 27.2987 269.137 25.6335C269.137 23.9982 269.581 22.6366 270.475 21.551C271.409 20.3918 272.672 19.8122 274.266 19.8122C275.825 19.8122 277.01 20.3918 277.81 21.551C278.456 22.471 278.776 23.6095 278.776 24.9619ZM276.476 24.3386C276.494 23.6233 276.336 23.0069 276.009 22.4871C275.591 21.8178 274.953 21.482 274.091 21.482C273.304 21.482 272.663 21.8086 272.173 22.4641C271.773 22.9862 271.536 23.6095 271.457 24.3386H276.476Z" fill="white"/>
</g>
<defs>
<clipPath id="clip0">
<rect width="310.5" height="92" fill="white"/>
</clipPath>
</defs>
</svg>
