<svg width="40" height="40" viewBox="0 0 40 40" fill="none" xmlns="http://www.w3.org/2000/svg">
<path fill-rule="evenodd" clip-rule="evenodd" d="M0.493457 3.61699C-1.78814e-07 4.7573 -1.26995e-07 6.21143 1.28988e-10 9.11969L4.75693e-07 19.9993L9.51257e-07 30.879C1.07838e-06 33.7872 1.13249e-06 35.2414 0.493457 36.3817C1.09952 37.7822 2.21647 38.8991 3.61699 39.5052C4.7573 39.9987 6.21143 39.9987 9.11969 39.9987H19.9993H30.879C33.7872 39.9987 35.2414 39.9987 36.3817 39.5052C37.7822 38.8991 38.8991 37.7822 39.5052 36.3817C39.9987 35.2414 39.9987 33.7872 39.9987 30.879V19.9993V9.11969C39.9987 6.21143 39.9987 4.7573 39.5052 3.61699C38.8991 2.21647 37.7822 1.09951 36.3817 0.493455C35.2414 -2.08616e-07 33.7872 -1.26995e-07 30.879 1.29012e-10L19.9993 4.75693e-07L9.11969 9.51258e-07C6.21143 1.07838e-06 4.7573 1.13249e-06 3.61699 0.493456C2.21647 1.09952 1.09952 2.21647 0.493457 3.61699ZM26.3846 17.2316C24.3886 17.2316 22.7701 15.6131 22.7701 13.6166C22.7701 11.6211 24.3886 10.0026 26.3846 10.0026C28.3807 10.0026 29.9992 11.6211 29.9992 13.6166C29.9992 15.6131 28.3807 17.2316 26.3846 17.2316ZM17.2257 13.6162C17.2257 15.6114 15.6079 17.2292 13.6123 17.2292C11.6177 17.2292 9.99991 15.6114 9.99991 13.6162C9.99991 11.621 11.6177 10.0032 13.6123 10.0032C15.6079 10.0032 17.2257 11.621 17.2257 13.6162ZM26.385 22.7812C24.3885 22.7812 22.77 24.3997 22.77 26.3958C22.77 28.3919 24.3885 30.0104 26.385 30.0104C28.3805 30.0104 29.999 28.3919 29.999 26.3958C29.999 24.3997 28.3805 22.7812 26.385 22.7812ZM13.6126 22.7847C15.6078 22.7847 17.2255 24.4025 17.2255 26.3981C17.2255 28.3927 15.6078 30.0104 13.6126 30.0104C11.6174 30.0104 9.99967 28.3927 9.99967 26.3981C9.99967 24.4025 11.6174 22.7847 13.6126 22.7847Z" fill="#211F6D"/>
</svg>
