<svg width="206" height="40" viewBox="0 0 206 40" fill="none" xmlns="http://www.w3.org/2000/svg">
<path fill-rule="evenodd" clip-rule="evenodd" d="M0.493457 3.61699C-1.78814e-07 4.7573 -1.26995e-07 6.21143 1.28988e-10 9.11969L4.75693e-07 19.9993L9.51257e-07 30.879C1.07838e-06 33.7872 1.13249e-06 35.2414 0.493457 36.3817C1.09952 37.7822 2.21647 38.8991 3.61699 39.5052C4.7573 39.9987 6.21143 39.9987 9.11969 39.9987H19.9993H30.879C33.7872 39.9987 35.2414 39.9987 36.3817 39.5052C37.7822 38.8991 38.8991 37.7822 39.5052 36.3817C39.9987 35.2414 39.9987 33.7872 39.9987 30.879V19.9993V9.11969C39.9987 6.21143 39.9987 4.7573 39.5052 3.61699C38.8991 2.21647 37.7822 1.09951 36.3817 0.493455C35.2414 -2.08616e-07 33.7872 -1.26995e-07 30.879 1.29012e-10L19.9993 4.75693e-07L9.11969 9.51258e-07C6.21143 1.07838e-06 4.7573 1.13249e-06 3.61699 0.493456C2.21647 1.09952 1.09952 2.21647 0.493457 3.61699ZM26.3846 17.2316C24.3886 17.2316 22.7701 15.6131 22.7701 13.6166C22.7701 11.6211 24.3886 10.0026 26.3846 10.0026C28.3807 10.0026 29.9992 11.6211 29.9992 13.6166C29.9992 15.6131 28.3807 17.2316 26.3846 17.2316ZM17.2257 13.6162C17.2257 15.6114 15.6079 17.2292 13.6123 17.2292C11.6177 17.2292 9.99991 15.6114 9.99991 13.6162C9.99991 11.621 11.6177 10.0032 13.6123 10.0032C15.6079 10.0032 17.2257 11.621 17.2257 13.6162ZM26.385 22.7812C24.3885 22.7812 22.77 24.3997 22.77 26.3958C22.77 28.3919 24.3885 30.0104 26.385 30.0104C28.3805 30.0104 29.999 28.3919 29.999 26.3958C29.999 24.3997 28.3805 22.7812 26.385 22.7812ZM13.6126 22.7847C15.6078 22.7847 17.2255 24.4025 17.2255 26.3981C17.2255 28.3927 15.6078 30.0104 13.6126 30.0104C11.6174 30.0104 9.99967 28.3927 9.99967 26.3981C9.99967 24.4025 11.6174 22.7847 13.6126 22.7847Z" fill="#211F6D"/>
<path d="M63.0466 31.9989C67.8433 31.9989 70.7338 29.5927 70.7338 25.6241C70.7338 22.6242 68.6714 20.4524 65.609 20.1087V19.9837C67.8589 19.6087 69.6245 17.4681 69.6245 15.0776C69.6245 11.6715 66.9996 9.45279 62.9997 9.45279H54V31.9989H63.0466ZM57.4999 12.3121H62.156C64.6871 12.3121 66.1246 13.4683 66.1246 15.562C66.1246 17.7963 64.4528 19.0462 61.4216 19.0462H57.4999V12.3121ZM57.4999 29.1396V21.718H62.1247C65.4371 21.718 67.1558 22.968 67.1558 25.4054C67.1558 27.8428 65.484 29.1396 62.3278 29.1396H57.4999Z" fill="#211F6D"/>
<path d="M73.7881 31.9989H77.163V9.45279H73.7881V31.9989Z" fill="#211F6D"/>
<path d="M88.0139 32.3114C92.7168 32.3114 95.8105 29.0771 95.8105 23.7804C95.8105 18.4994 92.7012 15.2651 88.0139 15.2651C83.3265 15.2651 80.2172 18.4994 80.2172 23.7804C80.2172 29.0771 83.3109 32.3114 88.0139 32.3114ZM88.0139 29.5302C85.3733 29.5302 83.6546 27.4366 83.6546 23.7804C83.6546 20.1399 85.3733 18.0463 88.0139 18.0463C90.6544 18.0463 92.3731 20.1399 92.3731 23.7804C92.3731 27.4366 90.67 29.5302 88.0139 29.5302Z" fill="#211F6D"/>
<path d="M112.849 21.218C112.552 17.9838 109.974 15.2651 105.74 15.2651C101.068 15.2651 98.0054 18.5619 98.0054 23.7804C98.0054 29.0928 101.068 32.3114 105.771 32.3114C109.724 32.3114 112.521 29.9365 112.88 26.4366H109.63C109.239 28.3428 107.88 29.4834 105.802 29.4834C103.177 29.4834 101.443 27.3897 101.443 23.7804C101.443 20.2493 103.161 18.0775 105.771 18.0775C107.974 18.0775 109.286 19.4681 109.63 21.218H112.849Z" fill="#211F6D"/>
<path d="M119.122 22.6086H119.09V9.45279H115.715V31.9989H119.09V26.0929L120.497 24.7023L126.074 31.9989H129.996L122.918 22.6398L129.731 15.562H125.762L119.122 22.6086Z" fill="#211F6D"/>
<path d="M131.238 20.2181C131.238 22.6086 132.785 24.1086 135.91 24.8273L138.582 25.4523C140.378 25.8585 140.988 26.4835 140.988 27.5459C140.988 28.8896 139.738 29.7334 137.707 29.7334C135.644 29.7334 134.472 28.8896 134.16 27.1709H130.816C131.129 30.2958 133.597 32.3114 137.707 32.3114C141.581 32.3114 144.378 30.249 144.378 27.2491C144.378 24.8741 143.097 23.5617 139.738 22.7805L137.066 22.1711C135.285 21.7649 134.535 21.0618 134.535 20.0306C134.535 18.7181 135.754 17.8275 137.582 17.8275C139.472 17.8275 140.644 18.8275 140.831 20.4212H144.003C143.894 17.39 141.41 15.2651 137.582 15.2651C133.8 15.2651 131.238 17.2807 131.238 20.2181Z" fill="#211F6D"/>
<path d="M148.307 11.6715V15.562H145.917V18.2337H148.307V27.6709C148.307 30.8427 149.604 32.1083 152.932 32.1083C153.682 32.1083 154.432 32.0458 154.807 31.952V29.2803C154.589 29.3271 154.042 29.3584 153.698 29.3584C152.323 29.3584 151.698 28.7178 151.698 27.2959V18.2337H154.823V15.562H151.698V11.6715H148.307Z" fill="#211F6D"/>
<path d="M163.424 29.6084C161.611 29.6084 160.424 28.6709 160.424 27.2334C160.424 25.8272 161.565 24.9366 163.58 24.796L167.627 24.546V25.8429C167.627 27.9834 165.783 29.6084 163.424 29.6084ZM162.486 32.2802C164.643 32.2802 166.721 31.1239 167.674 29.2959H167.752V31.9989H170.986V20.6712C170.986 17.3744 168.439 15.2651 164.455 15.2651C160.393 15.2651 157.862 17.4525 157.674 20.4212H160.861C161.158 18.9525 162.377 18.015 164.33 18.015C166.392 18.015 167.627 19.1087 167.627 20.9368V22.2024L163.127 22.468C159.221 22.6867 157.018 24.4523 157.018 27.3272C157.018 30.2802 159.268 32.2802 162.486 32.2802Z" fill="#211F6D"/>
<path d="M188.696 21.218C188.399 17.9838 185.821 15.2651 181.587 15.2651C176.915 15.2651 173.853 18.5619 173.853 23.7804C173.853 29.0928 176.915 32.3114 181.618 32.3114C185.571 32.3114 188.368 29.9365 188.727 26.4366H185.477C185.087 28.3428 183.728 29.4834 181.649 29.4834C179.025 29.4834 177.29 27.3897 177.29 23.7804C177.29 20.2493 179.009 18.0775 181.618 18.0775C183.821 18.0775 185.134 19.4681 185.477 21.218H188.696Z" fill="#211F6D"/>
<path d="M194.969 22.6086H194.938V9.45279H191.563V31.9989H194.938V26.0929L196.344 24.7023L201.922 31.9989H205.844L198.766 22.6398L205.578 15.562H201.609L194.969 22.6086Z" fill="#211F6D"/>
</svg>
