<svg width="36" height="35" viewBox="0 0 36 35" fill="none" xmlns="http://www.w3.org/2000/svg">
<g clip-path="url(#clip0)">
<path d="M-0.333496 0.16748H36.3332V31.8342H-0.333496V0.16748Z" fill="#EEEEEE"/>
<path d="M4.68115 13.5V32.9313H11.7666L17.9999 22.1354H33.8332V13.5H4.68115ZM4.68115 13.5V32.9313H11.7666L17.9999 22.1354H33.8332V13.5H4.68115Z" fill="#DB4437"/>
<path d="M2.1665 45.1663H17.2373L24.2332 38.1705V32.933L11.7665 32.9309L2.1665 16.4663V45.1663ZM2.1665 45.1663H17.2373L24.2332 38.1705V32.933L11.7665 32.9309L2.1665 16.4663V45.1663Z" fill="#0F9D58"/>
<path d="M17.9999 22.1353L24.2333 32.9311L17.2395 45.1665H33.8333V22.1353H17.9999ZM17.9999 22.1353L24.2333 32.9311L17.2395 45.1665H33.8333V22.1353H17.9999Z" fill="#FFCD40"/>
<path d="M17.9999 36.5311C21.9752 36.5311 25.1978 33.3085 25.1978 29.3332C25.1978 25.3579 21.9752 22.1353 17.9999 22.1353C14.0246 22.1353 10.802 25.3579 10.802 29.3332C10.802 33.3085 14.0246 36.5311 17.9999 36.5311Z" fill="#F1F1F1"/>
<path d="M17.9999 35.0923C21.1801 35.0923 23.7582 32.5142 23.7582 29.334C23.7582 26.1537 21.1801 23.5757 17.9999 23.5757C14.8197 23.5757 12.2416 26.1537 12.2416 29.334C12.2416 32.5142 14.8197 35.0923 17.9999 35.0923Z" fill="#4285F4"/>
<path d="M-0.333496 0.16748H36.3332V16.0008H-0.333496V0.16748Z" fill="#212121" fill-opacity="0.05"/>
<path d="M-0.333496 15.7925H36.3332V16.0008H-0.333496V15.7925Z" fill="#212121" fill-opacity="0.02"/>
<path d="M-0.333496 16H36.3332V16.2083H-0.333496V16Z" fill="white" fill-opacity="0.05"/>
<path d="M22.1665 6.83415H13.8332C12.9478 6.83415 12.2248 6.14248 12.1728 5.27165C12.1686 5.30706 12.1665 5.3404 12.1665 5.37581C12.1665 6.29665 12.9123 7.04248 13.8332 7.04248H22.1665C23.0873 7.04248 23.8332 6.29665 23.8332 5.37581C23.8332 5.3404 23.8311 5.30706 23.8269 5.27165C23.7748 6.14248 23.0519 6.83415 22.1665 6.83415ZM-0.333496 0.16748V0.375814H36.3332V0.16748H-0.333496Z" fill="#212121" fill-opacity="0.02"/>
<path d="M13.8332 3.50081H22.1665C23.0519 3.50081 23.7748 4.19248 23.8269 5.06331C23.829 5.0279 23.8332 4.99456 23.8332 4.95915C23.8332 4.03831 23.0873 3.29248 22.1665 3.29248H13.8332C12.9123 3.29248 12.1665 4.03831 12.1665 4.95915C12.1665 4.99456 12.1686 5.0279 12.1728 5.06331C12.2248 4.19248 12.9478 3.50081 13.8332 3.50081ZM33.8332 31.6258H2.1665C0.791504 31.6258 -0.333496 30.5008 -0.333496 29.1258V29.3342C-0.333496 30.7092 0.791504 31.8342 2.1665 31.8342H33.8332C35.2082 31.8342 36.3332 30.7092 36.3332 29.3342V29.1258C36.3332 30.5008 35.2082 31.6258 33.8332 31.6258Z" fill="#231F20" fill-opacity="0.1"/>
<path d="M-0.333496 0.16748V29.3342C-0.333496 30.7092 0.791504 31.8342 2.1665 31.8342H33.8332C35.2082 31.8342 36.3332 30.7092 36.3332 29.3342V0.16748H-0.333496ZM22.1665 6.83415H13.8332C12.9123 6.83415 12.1665 6.08831 12.1665 5.16748C12.1665 4.24665 12.9123 3.50081 13.8332 3.50081H22.1665C23.0873 3.50081 23.8332 4.24665 23.8332 5.16748C23.8332 6.08831 23.0873 6.83415 22.1665 6.83415Z" fill="url(#paint0_radial)"/>
<path d="M22.1665 3.5H13.8332C12.9123 3.5 12.1665 4.24583 12.1665 5.16667C12.1665 6.0875 12.9123 6.83333 13.8332 6.83333H22.1665C23.0873 6.83333 23.8332 6.0875 23.8332 5.16667C23.8332 4.24583 23.0873 3.5 22.1665 3.5Z" fill="white"/>
</g>
<defs>
<radialGradient id="paint0_radial" cx="0" cy="0" r="1" gradientUnits="userSpaceOnUse" gradientTransform="translate(-0.437246 0.0308165) scale(47.4158)">
<stop stop-color="white" stop-opacity="0.1"/>
<stop offset="1" stop-color="white" stop-opacity="0"/>
</radialGradient>
<clipPath id="clip0">
<rect width="36" height="35" fill="white"/>
</clipPath>
</defs>
</svg>
