<svg width="108" height="99" viewBox="0 0 108 99" fill="none" xmlns="http://www.w3.org/2000/svg">
<g filter="url(#filter0_dd)">
<path d="M59.5 4.5V50.5L105 62.5V16.5L59.5 4.5Z" fill="white"/>
<path opacity="0.2" d="M59.5 4.5V50.5L105 62.5V16.5L59.5 4.5Z" fill="black"/>
<path d="M59.5 50.5L26 69V23L59.5 4.5V50.5Z" fill="white"/>
<path opacity="0.17" d="M59.5 50.5L26 69V23L59.5 4.5V50.5Z" fill="black"/>
<path d="M59.5 50.5L26 69L71.5 81L105 62.5L59.5 50.5Z" fill="white"/>
<path opacity="0.1" d="M59.5 50.5L26 69L71.5 81L105 62.5L59.5 50.5Z" fill="black"/>
<path d="M59.5 4.5L26 23L71.5 35L105 16.5L59.5 4.5Z" fill="white"/>
<path d="M105 16.5L71.5 35V81L105 62.5V16.5Z" fill="white"/>
<path d="M75.9773 70.375C74.8853 70.9679 74 70.4413 74 69.1987C74 67.9561 74.8853 66.4681 75.9773 65.8752L101.023 52.2766C102.115 51.6837 103 52.2103 103 53.4529C103 54.6955 102.115 56.1835 101.023 56.7764L75.9773 70.375Z" fill="#1A202C"/>
<path d="M74 50.1174V69.1986L103 53.4529V33.9535C99.7045 25.5749 89.1591 33.9688 87.1818 39.9172C83.2273 37.5645 76.0077 42.6814 74 50.1174Z" fill="#1A202C"/>
<path d="M85.2045 54.1154C86.6606 53.3248 87.8409 54.0271 87.8409 55.6839C87.8409 57.3407 86.6606 59.3246 85.2045 60.1152C83.7485 60.9057 82.5682 60.2035 82.5682 58.5467C82.5682 56.8899 83.7485 54.9059 85.2045 54.1154Z" fill="white"/>
<path d="M85.2045 45.1157C86.6606 44.3251 87.8409 45.0273 87.8409 46.6841C87.8409 48.3409 86.6606 50.3249 85.2045 51.1155C83.7485 51.906 82.5682 51.2038 82.5682 49.547C82.5682 47.8902 83.7485 45.9062 85.2045 45.1157Z" fill="white"/>
<path d="M93.1136 40.8214C94.5696 40.0309 95.75 40.7331 95.75 42.3899C95.75 44.0467 94.5696 46.0307 93.1136 46.8212C91.6576 47.6118 90.4772 46.9095 90.4772 45.2527C90.4772 43.5959 91.6576 41.612 93.1136 40.8214Z" fill="white"/>
<path d="M93.1136 49.8211C94.5696 49.0305 95.75 49.7328 95.75 51.3896C95.75 53.0464 94.5696 55.0303 93.1136 55.8209C91.6576 56.6115 90.4772 55.9092 90.4772 54.2524C90.4772 52.5956 91.6576 50.6117 93.1136 49.8211Z" fill="white"/>
<path opacity="0.1" d="M105 16.5L71.5 35V81L105 62.5V16.5Z" fill="black"/>
<path d="M6 80.5L26 69L71.5 81L51.5 92.5L6 80.5Z" fill="white"/>
<path d="M16.5 2L26 23L71.5 35L62 14L16.5 2Z" fill="white"/>
<path opacity="0.1" d="M16.5 2L26 23L71.5 35L62 14L16.5 2Z" fill="black"/>
<path d="M90 49L71.5 35V81L90 95V49Z" fill="white"/>
<path opacity="0.07" d="M90 49L71.5 35V81L90 95V49Z" fill="black"/>
<path d="M3 25.5L26 23V69L3 71.5V25.5Z" fill="white"/>
<path opacity="0.05" d="M3 25.5L26 23V69L3 71.5V25.5Z" fill="black"/>
<path opacity="0.1" d="M34 64.5L26 23L71.5 35V74L34 64.5Z" fill="black"/>
<path opacity="0.03" d="M90 49V70.7971L93.7545 68.7109L90 49Z" fill="black"/>
</g>
<defs>
<filter id="filter0_dd" x="0" y="0" width="108" height="99" filterUnits="userSpaceOnUse" color-interpolation-filters="sRGB">
<feFlood flood-opacity="0" result="BackgroundImageFix"/>
<feColorMatrix in="SourceAlpha" type="matrix" values="0 0 0 0 0 0 0 0 0 0 0 0 0 0 0 0 0 0 127 0"/>
<feOffset dy="1"/>
<feGaussianBlur stdDeviation="1.5"/>
<feColorMatrix type="matrix" values="0 0 0 0 0 0 0 0 0 0 0 0 0 0 0 0 0 0 0.1 0"/>
<feBlend mode="normal" in2="BackgroundImageFix" result="effect1_dropShadow"/>
<feColorMatrix in="SourceAlpha" type="matrix" values="0 0 0 0 0 0 0 0 0 0 0 0 0 0 0 0 0 0 127 0"/>
<feOffset dy="1"/>
<feGaussianBlur stdDeviation="1"/>
<feColorMatrix type="matrix" values="0 0 0 0 0 0 0 0 0 0 0 0 0 0 0 0 0 0 0.06 0"/>
<feBlend mode="normal" in2="effect1_dropShadow" result="effect2_dropShadow"/>
<feBlend mode="normal" in="SourceGraphic" in2="effect2_dropShadow" result="shape"/>
</filter>
</defs>
</svg>
