<svg width="398" height="113" viewBox="0 0 398 113" fill="none" xmlns="http://www.w3.org/2000/svg">
<path d="M1 1H398V113H1V1Z" fill="url(#paint0_radial)"/>
<path d="M1 113V51.8344M398 1H17C8.16345 1 1 8.16343 1 17V51.8344M1 51.8344H398" stroke="#A0AEC0" stroke-width="2"/>
<circle cx="27" cy="27.5" r="8" fill="#FC8181"/>
<circle cx="49" cy="27.5" r="8" fill="#F6E05E"/>
<circle cx="71" cy="27.5" r="8" fill="#68D391"/>
<path d="M397.5 11H128.5C119.94 11 113 17.9396 113 26.5V26.5C113 35.0604 119.94 42 128.5 42H397.5" stroke="#A0AEC0" stroke-width="2"/>
<path d="M133.148 31.5H135.17V30.125H135.29C135.614 30.7614 136.29 31.6534 137.79 31.6534C139.847 31.6534 141.386 30.0227 141.386 27.1477C141.386 24.2386 139.801 22.6591 137.784 22.6591C136.244 22.6591 135.602 23.5852 135.29 24.2159H135.205V19.8636H133.148V31.5ZM135.165 27.1364C135.165 25.4432 135.892 24.3466 137.216 24.3466C138.585 24.3466 139.29 25.5114 139.29 27.1364C139.29 28.7727 138.574 29.9659 137.216 29.9659C135.903 29.9659 135.165 28.8295 135.165 27.1364ZM143.135 31.5H145.192V26.3693C145.192 25.2614 146.027 24.4773 147.158 24.4773C147.504 24.4773 147.936 24.5398 148.112 24.5966V22.7045C147.925 22.6705 147.601 22.6477 147.374 22.6477C146.374 22.6477 145.538 23.2159 145.22 24.2273H145.129V22.7727H143.135V31.5ZM151.818 31.6761C153.188 31.6761 154.006 31.0341 154.381 30.3011H154.449V31.5H156.426V25.6591C156.426 23.3523 154.545 22.6591 152.881 22.6591C151.045 22.6591 149.636 23.4773 149.182 25.0682L151.102 25.3409C151.307 24.7443 151.886 24.233 152.892 24.233C153.847 24.233 154.369 24.7216 154.369 25.5795V25.6136C154.369 26.2045 153.75 26.233 152.21 26.3977C150.517 26.5795 148.898 27.0852 148.898 29.0511C148.898 30.767 150.153 31.6761 151.818 31.6761ZM152.352 30.1648C151.494 30.1648 150.881 29.7727 150.881 29.017C150.881 28.2273 151.568 27.8977 152.489 27.767C153.028 27.6932 154.108 27.5568 154.375 27.3409V28.3693C154.375 29.3409 153.591 30.1648 152.352 30.1648ZM162.301 31.6705C164.494 31.6705 165.892 30.3693 166.04 28.517H164.074C163.898 29.4545 163.222 29.9943 162.318 29.9943C161.034 29.9943 160.205 28.9205 160.205 27.1364C160.205 25.375 161.051 24.3182 162.318 24.3182C163.307 24.3182 163.915 24.9545 164.074 25.7955H166.04C165.898 23.9034 164.42 22.6591 162.29 22.6591C159.733 22.6591 158.119 24.5057 158.119 27.1705C158.119 29.8125 159.693 31.6705 162.301 31.6705ZM171.592 31.6705C173.626 31.6705 175.024 30.6761 175.388 29.1591L173.467 28.9432C173.189 29.6818 172.507 30.0682 171.621 30.0682C170.291 30.0682 169.411 29.1932 169.393 27.6989H175.473V27.0682C175.473 24.0057 173.632 22.6591 171.484 22.6591C168.984 22.6591 167.354 24.4943 167.354 27.1875C167.354 29.9261 168.962 31.6705 171.592 31.6705ZM169.399 26.3125C169.462 25.1989 170.286 24.2614 171.513 24.2614C172.695 24.2614 173.49 25.125 173.501 26.3125H169.399ZM178.48 31.625C179.151 31.625 179.724 31.0682 179.73 30.375C179.724 29.6932 179.151 29.1364 178.48 29.1364C177.787 29.1364 177.224 29.6932 177.23 30.375C177.224 31.0682 177.787 31.625 178.48 31.625ZM186.212 22.7727H184.49V20.6818H182.433V22.7727H181.195V24.3636H182.433V29.2159C182.422 30.858 183.615 31.6648 185.161 31.6193C185.746 31.6023 186.149 31.4886 186.371 31.4148L186.024 29.8068C185.911 29.8352 185.678 29.8864 185.422 29.8864C184.905 29.8864 184.49 29.7045 184.49 28.875V24.3636H186.212V22.7727ZM191.645 31.6705C194.202 31.6705 195.827 29.8693 195.827 27.1705C195.827 24.4659 194.202 22.6591 191.645 22.6591C189.088 22.6591 187.463 24.4659 187.463 27.1705C187.463 29.8693 189.088 31.6705 191.645 31.6705ZM191.656 30.0227C190.241 30.0227 189.548 28.7614 189.548 27.1648C189.548 25.5682 190.241 24.2898 191.656 24.2898C193.048 24.2898 193.741 25.5682 193.741 27.1648C193.741 28.7614 193.048 30.0227 191.656 30.0227ZM202.322 19.3182H200.521L196.771 33.25H198.572L202.322 19.3182Z" fill="#C53030"/>
<path d="M205.692 26.3864C205.692 25.125 206.476 24.3977 207.578 24.3977C208.658 24.3977 209.294 25.0852 209.294 26.2614V31.5H211.351V25.9432C211.351 23.8352 210.158 22.6591 208.345 22.6591C207.004 22.6591 206.152 23.267 205.749 24.2557H205.646V19.8636H203.635V31.5H205.692V26.3864ZM217.805 22.7727H216.084V20.6818H214.027V22.7727H212.788V24.3636H214.027V29.2159C214.016 30.858 215.209 31.6648 216.754 31.6193C217.339 31.6023 217.743 31.4886 217.964 31.4148L217.618 29.8068C217.504 29.8352 217.271 29.8864 217.016 29.8864C216.499 29.8864 216.084 29.7045 216.084 28.875V24.3636H217.805V22.7727ZM223.884 22.7727H222.162V20.6818H220.105V22.7727H218.866V24.3636H220.105V29.2159C220.094 30.858 221.287 31.6648 222.832 31.6193C223.418 31.6023 223.821 31.4886 224.043 31.4148L223.696 29.8068C223.582 29.8352 223.349 29.8864 223.094 29.8864C222.577 29.8864 222.162 29.7045 222.162 28.875V24.3636H223.884V22.7727ZM225.604 34.7727H227.661V30.125H227.746C228.07 30.7614 228.746 31.6534 230.246 31.6534C232.303 31.6534 233.842 30.0227 233.842 27.1477C233.842 24.2386 232.257 22.6591 230.24 22.6591C228.7 22.6591 228.058 23.5852 227.746 24.2159H227.626V22.7727H225.604V34.7727ZM227.621 27.1364C227.621 25.4432 228.348 24.3466 229.672 24.3466C231.041 24.3466 231.746 25.5114 231.746 27.1364C231.746 28.7727 231.03 29.9659 229.672 29.9659C228.359 29.9659 227.621 28.8295 227.621 27.1364ZM242.501 25.0795C242.217 23.6023 241.036 22.6591 238.99 22.6591C236.888 22.6591 235.456 23.6932 235.462 25.3068C235.456 26.5795 236.24 27.4205 237.916 27.767L239.405 28.0795C240.206 28.2557 240.581 28.5795 240.581 29.0739C240.581 29.6705 239.933 30.1193 238.956 30.1193C238.013 30.1193 237.399 29.7102 237.223 28.9261L235.217 29.1193C235.473 30.7216 236.82 31.6705 238.962 31.6705C241.143 31.6705 242.683 30.5398 242.689 28.8864C242.683 27.642 241.882 26.8807 240.234 26.5227L238.746 26.2045C237.859 26.0057 237.507 25.6989 237.513 25.1932C237.507 24.6023 238.161 24.1932 239.018 24.1932C239.967 24.1932 240.467 24.7102 240.626 25.2841L242.501 25.0795ZM245.652 31.625C246.322 31.625 246.896 31.0682 246.902 30.375C246.896 29.6932 246.322 29.1364 245.652 29.1364C244.959 29.1364 244.396 29.6932 244.402 30.375C244.396 31.0682 244.959 31.625 245.652 31.625ZM245.652 25.392C246.322 25.392 246.896 24.8352 246.902 24.142C246.896 23.4602 246.322 22.9034 245.652 22.9034C244.959 22.9034 244.396 23.4602 244.402 24.142C244.396 24.8352 244.959 25.392 245.652 25.392ZM253.776 19.3182H251.974L248.224 33.25H250.026L253.776 19.3182ZM259.838 19.3182H258.037L254.287 33.25H256.088L259.838 19.3182ZM263.662 31.6761C265.031 31.6761 265.849 31.0341 266.224 30.3011H266.293V31.5H268.27V25.6591C268.27 23.3523 266.389 22.6591 264.724 22.6591C262.889 22.6591 261.48 23.4773 261.026 25.0682L262.946 25.3409C263.151 24.7443 263.73 24.233 264.736 24.233C265.69 24.233 266.213 24.7216 266.213 25.5795V25.6136C266.213 26.2045 265.594 26.233 264.054 26.3977C262.361 26.5795 260.741 27.0852 260.741 29.0511C260.741 30.767 261.997 31.6761 263.662 31.6761ZM264.196 30.1648C263.338 30.1648 262.724 29.7727 262.724 29.017C262.724 28.2273 263.412 27.8977 264.332 27.767C264.872 27.6932 265.952 27.5568 266.219 27.3409V28.3693C266.219 29.3409 265.435 30.1648 264.196 30.1648ZM272.395 26.3864C272.395 25.125 273.156 24.3977 274.241 24.3977C275.304 24.3977 275.94 25.0966 275.94 26.2614V31.5H277.997V25.9432C278.003 23.8523 276.81 22.6591 275.009 22.6591C273.702 22.6591 272.804 23.2841 272.406 24.2557H272.304V22.7727H270.338V31.5H272.395V26.3864ZM281.054 34.7557C282.656 34.7557 283.582 33.9261 284.077 32.5568L287.582 22.7841L285.384 22.7727L283.366 29.3636H283.276L281.264 22.7727H279.082L282.247 31.6818L282.071 32.1534C281.679 33.1193 281.088 33.1932 280.19 32.9375L279.713 34.5341C279.991 34.6534 280.491 34.7557 281.054 34.7557ZM291.067 19.8636H289.01V31.5H291.067V19.8636ZM293.182 31.5H295.239V22.7727H293.182V31.5ZM294.216 21.5341C294.869 21.5341 295.403 21.0341 295.403 20.4205C295.403 19.8011 294.869 19.3011 294.216 19.3011C293.557 19.3011 293.023 19.8011 293.023 20.4205C293.023 21.0341 293.557 21.5341 294.216 21.5341ZM299.411 26.3864C299.411 25.125 300.172 24.3977 301.257 24.3977C302.32 24.3977 302.956 25.0966 302.956 26.2614V31.5H305.013V25.9432C305.018 23.8523 303.825 22.6591 302.024 22.6591C300.717 22.6591 299.82 23.2841 299.422 24.2557H299.32V22.7727H297.354V31.5H299.411V26.3864ZM307.104 31.5H309.161V28.5682L309.911 27.767L312.581 31.5H315.041L311.462 26.5398L314.842 22.7727H312.439L309.303 26.2784H309.161V19.8636H307.104V31.5ZM319.649 34.9205C322.007 34.9205 323.746 33.8409 323.746 31.642V22.7727H321.717V24.2159H321.604C321.291 23.5852 320.638 22.6591 319.098 22.6591C317.081 22.6591 315.496 24.2386 315.496 27.108C315.496 29.9545 317.081 31.375 319.092 31.375C320.587 31.375 321.286 30.5739 321.604 29.9318H321.706V31.5852C321.706 32.8352 320.854 33.3636 319.683 33.3636C318.445 33.3636 317.899 32.7784 317.649 32.3011L315.797 32.75C316.172 33.9375 317.428 34.9205 319.649 34.9205ZM319.666 29.7614C318.308 29.7614 317.592 28.7045 317.592 27.0966C317.592 25.5114 318.297 24.3466 319.666 24.3466C320.99 24.3466 321.717 25.4432 321.717 27.0966C321.717 28.7614 320.979 29.7614 319.666 29.7614ZM329.661 31.6705C332.217 31.6705 333.842 29.8693 333.842 27.1705C333.842 24.4659 332.217 22.6591 329.661 22.6591C327.104 22.6591 325.479 24.4659 325.479 27.1705C325.479 29.8693 327.104 31.6705 329.661 31.6705ZM329.672 30.0227C328.257 30.0227 327.564 28.7614 327.564 27.1648C327.564 25.5682 328.257 24.2898 329.672 24.2898C331.064 24.2898 331.757 25.5682 331.757 27.1648C331.757 28.7614 331.064 30.0227 329.672 30.0227ZM337.645 26.3864C337.645 25.125 338.429 24.3977 339.531 24.3977C340.611 24.3977 341.247 25.0852 341.247 26.2614V31.5H343.304V25.9432C343.304 23.8352 342.111 22.6591 340.298 22.6591C338.957 22.6591 338.105 23.267 337.702 24.2557H337.599V19.8636H335.588V31.5H337.645V26.3864ZM349.264 31.6705C351.298 31.6705 352.696 30.6761 353.06 29.1591L351.139 28.9432C350.861 29.6818 350.179 30.0682 349.293 30.0682C347.963 30.0682 347.082 29.1932 347.065 27.6989H353.145V27.0682C353.145 24.0057 351.304 22.6591 349.156 22.6591C346.656 22.6591 345.026 24.4943 345.026 27.1875C345.026 29.9261 346.634 31.6705 349.264 31.6705ZM347.071 26.3125C347.134 25.1989 347.957 24.2614 349.185 24.2614C350.366 24.2614 351.162 25.125 351.173 26.3125H347.071ZM356.152 31.625C356.822 31.625 357.396 31.0682 357.402 30.375C357.396 29.6932 356.822 29.1364 356.152 29.1364C355.459 29.1364 354.896 29.6932 354.902 30.375C354.896 31.0682 355.459 31.625 356.152 31.625ZM359.526 31.5H361.582V26.3693C361.582 25.2614 362.418 24.4773 363.548 24.4773C363.895 24.4773 364.327 24.5398 364.503 24.5966V22.7045C364.315 22.6705 363.991 22.6477 363.764 22.6477C362.764 22.6477 361.929 23.2159 361.611 24.2273H361.52V22.7727H359.526V31.5ZM369.374 31.6705C371.408 31.6705 372.805 30.6761 373.169 29.1591L371.249 28.9432C370.97 29.6818 370.288 30.0682 369.402 30.0682C368.072 30.0682 367.192 29.1932 367.175 27.6989H373.254V27.0682C373.254 24.0057 371.413 22.6591 369.266 22.6591C366.766 22.6591 365.135 24.4943 365.135 27.1875C365.135 29.9261 366.743 31.6705 369.374 31.6705ZM367.18 26.3125C367.243 25.1989 368.067 24.2614 369.294 24.2614C370.476 24.2614 371.271 25.125 371.283 26.3125H367.18Z" fill="#4A5568"/>
<defs>
<radialGradient id="paint0_radial" cx="0" cy="0" r="1" gradientUnits="userSpaceOnUse" gradientTransform="translate(5.63449 5.63448) rotate(3.55332) scale(479.819 117.09)">
<stop offset="0.740017" stop-color="white"/>
<stop offset="0.981937" stop-color="#F7FAFC"/>
</radialGradient>
</defs>
</svg>
