<svg width="232" height="270" viewBox="0 0 232 270" fill="none" xmlns="http://www.w3.org/2000/svg">
<g filter="url(#filter0_dd)">
<path d="M54.1963 34.4151V34.8331C54.1963 35.5857 54.2137 36.2118 53.8351 36.8809C53.5289 37.4254 53.0403 37.7591 52.4986 37.7591C51.757 37.7591 51.3234 37.1944 51.3234 36.3584C51.3243 34.7139 52.8002 34.4151 54.1963 34.4151ZM64 29.5833V42.4167C64 44.9476 61.9485 47 59.4167 47H46.5833C44.0524 47 42 44.9476 42 42.4167V29.5833C42 27.0524 44.0524 25 46.5833 25H59.4167C61.9485 25 64 27.0524 64 29.5833ZM54.1963 32.6175V32.8687C53.0761 32.9933 51.6131 33.0767 50.5653 33.5378C49.3553 34.0603 48.5056 35.1255 48.5056 36.693C48.5056 38.6996 49.7706 39.7024 51.3968 39.7024C52.7699 39.7024 53.5207 39.3788 54.5803 38.299C54.9323 38.8068 55.046 39.0534 55.6895 39.586C55.8316 39.6639 56.0223 39.6602 56.1497 39.5448C56.5338 39.2019 57.235 38.5933 57.6301 38.2623C57.7868 38.1349 57.7603 37.925 57.6356 37.749C57.2836 37.2613 56.9068 36.8644 56.9068 35.9597V32.9512C56.9068 31.6761 56.9958 30.5055 56.0562 29.6283C55.3164 28.9169 54.0881 28.6667 53.1485 28.6667C51.3115 28.6667 49.2609 29.3523 48.8301 31.6238C48.7843 31.8649 48.9612 31.9923 49.1188 32.0272L50.9897 32.2307C51.1648 32.2215 51.2923 32.0492 51.3253 31.875C51.4857 31.0931 52.1411 30.7154 52.8772 30.7154C53.275 30.7154 53.7269 30.8621 53.9616 31.2159C54.2329 31.6138 54.1963 32.1573 54.1963 32.6175Z" fill="#2D3748"/>
<path d="M58.2762 41.1968C56.5968 42.0961 54.7717 42.5296 53.1107 42.5296C50.6504 42.5296 48.2671 41.6781 46.3393 40.2646C46.1697 40.1408 46.0451 40.359 46.1862 40.5185C47.9728 42.5516 50.3323 43.7736 52.954 43.7736C54.824 43.7736 56.9965 43.032 58.4943 41.6377C58.7427 41.4076 58.5301 41.0611 58.2762 41.1968ZM59.7373 40.3168C59.5705 40.1115 58.1414 39.9346 57.2687 40.5478C57.134 40.6422 57.1578 40.7724 57.3063 40.7541C57.7977 40.6954 58.8922 40.5634 59.0865 40.8136C59.2817 41.063 58.8702 42.0924 58.6859 42.5516C58.63 42.6901 58.7501 42.7469 58.8757 42.6415C59.6933 41.9567 59.9042 40.5231 59.7373 40.3168Z" fill="#ED8936"/>
</g>
<g filter="url(#filter1_dd)">
<path d="M16 69C9.373 69 4 74.373 4 81C4 87.627 9.373 93 16 93C22.627 93 28 87.627 28 81C28 74.373 22.627 69 16 69ZM19 77H17.65C17.112 77 17 77.221 17 77.778V79H19L18.791 81H17V88H14V81H12V79H14V76.692C14 74.923 14.931 74 17.029 74H19V77Z" fill="#2B6CB0"/>
</g>
<g filter="url(#filter2_dd)">
<path d="M54 106C47.9262 106 43 110.925 43 117C43 121.86 46.1515 125.983 50.5231 127.438C51.0722 127.54 51.25 127.199 51.25 126.909V124.861C48.1902 125.527 47.5531 123.563 47.5531 123.563C47.0526 122.292 46.3312 121.954 46.3312 121.954C45.3329 121.271 46.4073 121.285 46.4073 121.285C47.5118 121.362 48.093 122.419 48.093 122.419C49.0738 124.101 50.6661 123.615 51.294 123.333C51.3921 122.623 51.6772 122.137 51.9925 121.863C49.5496 121.583 46.9811 120.64 46.9811 116.426C46.9811 115.224 47.411 114.244 48.1141 113.474C48.0004 113.196 47.6237 112.077 48.2213 110.562C48.2213 110.562 49.1453 110.267 51.2472 111.69C52.1245 111.446 53.065 111.324 54 111.319C54.935 111.324 55.8764 111.446 56.7555 111.69C58.8556 110.267 59.7778 110.562 59.7778 110.562C60.3763 112.077 59.9996 113.197 59.8859 113.474C60.5917 114.244 61.018 115.225 61.018 116.426C61.018 120.651 58.4449 121.581 55.9956 121.854C56.3898 122.195 56.75 122.864 56.75 123.891V126.909C56.75 127.202 56.926 127.545 57.4843 127.437C61.8522 125.981 65 121.858 65 117C65 110.925 60.0748 106 54 106Z" fill="#1A202C"/>
</g>
<g filter="url(#filter3_dd)">
<path fill-rule="evenodd" clip-rule="evenodd" d="M129.372 52.2392C129.397 51.9933 129.303 51.7508 129.119 51.5858L127.252 49.3358V49H133.051L137.532 58.8292L141.472 49H147V49.3358L145.403 50.8667C145.266 50.9717 145.198 51.1442 145.226 51.315V62.5633C145.198 62.7333 145.266 62.9058 145.403 63.0108L146.962 64.5417V64.8775H139.119V64.5417L140.735 62.9733C140.893 62.815 140.893 62.7683 140.893 62.5258V53.4342L136.403 64.8408H135.796L130.567 53.4342V61.0792C130.523 61.4 130.63 61.7242 130.856 61.9558L132.957 64.5042V64.8408H127V64.5042L129.101 61.9558C129.326 61.7233 129.426 61.3975 129.372 61.0792V52.2392Z" fill="#1A202C"/>
</g>
<g filter="url(#filter4_dd)">
<path d="M180 90.309C179.117 90.701 178.168 90.965 177.172 91.084C178.189 90.475 178.97 89.51 179.337 88.36C178.386 88.924 177.332 89.334 176.21 89.555C175.313 88.598 174.032 88 172.616 88C169.437 88 167.101 90.966 167.819 94.045C163.728 93.84 160.1 91.88 157.671 88.901C156.381 91.114 157.002 94.009 159.194 95.475C158.388 95.449 157.628 95.228 156.965 94.859C156.911 97.14 158.546 99.274 160.914 99.749C160.221 99.937 159.462 99.981 158.69 99.833C159.316 101.789 161.134 103.212 163.29 103.252C161.22 104.875 158.612 105.6 156 105.292C158.179 106.689 160.768 107.504 163.548 107.504C172.69 107.504 177.855 99.783 177.543 92.858C178.505 92.163 179.34 91.296 180 90.309Z" fill="#63B3ED"/>
</g>
<g filter="url(#filter5_dd)">
<path d="M223.98 61.1688C220.677 60.9433 213.319 60.9442 210.02 61.1688C206.447 61.4126 206.027 63.5704 206 69.2501C206.027 74.9197 206.444 77.0867 210.02 77.3314C213.32 77.556 220.677 77.5569 223.98 77.3314C227.553 77.0876 227.973 74.9298 228 69.2501C227.973 63.5805 227.556 61.4135 223.98 61.1688ZM214.25 72.9168V65.5834L221.583 69.2437L214.25 72.9168Z" fill="#E53E3E"/>
</g>
<g filter="url(#filter6_dd)">
<path d="M102.77 3L98.3832 7.38319H94V3H102.77ZM105.693 3L101.308 7.38319V21.9993H105.693V7.38319H113V3H105.693Z" fill="black"/>
</g>
<g filter="url(#filter7_dd)">
<path d="M129.991 141.368H128.639C128.57 141.991 128.154 142.79 127.116 142.79C126.17 142.79 125.487 142.134 124.832 141.138C126.871 139.559 128.279 137.1 128.279 134.077C128.283 128.655 123.821 125 119.123 125C114.522 125 110 128.678 110 134.077C110 140.265 116.059 144.303 121.491 142.799C122.4 144.349 123.6 145.674 125.884 145.674C129.659 145.674 130.074 142.199 129.991 141.368ZM123.369 138.715C122.469 137.367 121.352 136.306 119.146 136.306C117.739 136.306 116.641 136.767 115.962 137.358L116.525 138.48C116.811 138.341 117.125 138.295 117.439 138.295C119.077 138.295 119.917 139.716 120.632 141.124C120.171 141.262 119.677 141.318 119.123 141.318C115.662 141.318 114.162 138.872 114.162 134.086C114.162 129.269 115.662 126.8 119.123 126.8C122.64 126.8 124.139 129.269 124.139 134.077C124.144 136.006 123.89 137.566 123.369 138.715Z" fill="#C53030"/>
</g>
<g filter="url(#filter8_dd)">
<path d="M159.113 23.1773C158.817 21.8391 158.751 21.6095 158.318 21.4991L158 21.4107V21.0927H162.019V21.4107L161.679 21.477C160.955 21.636 161.021 22.3603 161.224 23.3363L163.017 32.2353L164.333 25.1514L163.856 22.7224C163.675 21.8612 163.604 21.5874 163.154 21.4726L162.858 21.4107V21.0927H167.014V21.4107L166.515 21.5035C165.764 21.6404 165.879 22.4574 166.06 23.3407L167.787 32.2397L169.491 23.8177C169.809 22.0688 169.65 21.6404 168.97 21.5035L168.493 21.4107V21.0927H171.377V21.4107L171.059 21.5256C170.604 21.6845 170.49 22.1174 170.176 23.6145L167.407 36.8284H166.815L164.682 26.5205L162.752 36.8284H162.001L159.113 23.1773ZM175.047 36.824C173.731 36.824 173.276 35.9142 172.844 35.9142C172.592 35.9142 172.3 35.9804 172.071 36.7312H171.797V31.5552H172.137C172.411 34.4833 173.497 36.3205 175.021 36.3205C176.041 36.3205 176.748 35.3886 176.748 33.7104C176.748 30.1685 171.686 28.6492 171.686 24.723C171.686 22.612 172.755 21 174.681 21C175.931 21 176.178 21.817 176.699 21.817C176.995 21.817 177.198 21.5918 177.313 21.0927H177.587V26.2688H177.247C176.973 23.6587 176.293 21.5035 174.659 21.5035C173.524 21.5035 173.321 22.6385 173.321 23.4114C173.321 26.7943 178.382 27.9514 178.382 32.6726C178.386 35.0751 177.07 36.824 175.047 36.824ZM184.878 33.123C184.878 35.5521 183.65 36.824 181.769 36.824C180.064 36.824 179.066 35.4372 179.088 33.918C179.11 32.7388 179.972 32.147 180.678 32.2397C181.177 32.306 181.676 32.6726 181.61 33.4675C181.544 34.6025 180.316 34.5584 180.272 35.2606C180.228 35.6934 180.793 36.3293 181.522 36.3293C182.794 36.3293 182.794 34.7174 182.794 33.4896V22.4751C182.794 21.8391 182.591 21.658 182.091 21.5432L181.526 21.4063V21.0927H186V21.4107L185.501 21.5476C185.046 21.6625 184.887 21.8656 184.887 22.5016L184.878 33.123Z" fill="black"/>
</g>
<g filter="url(#filter9_dd)">
<path d="M213.503 111.372C213.852 111.861 214.032 112.449 214.017 113.049C214.017 113.83 213.788 114.594 213.36 115.248C212.815 116.03 212.125 116.7 211.328 117.222V114.517H210.895V123.871C210.062 123.573 209.183 123.424 208.298 123.431C207.718 123.435 207.139 123.489 206.568 123.593C207.392 123.069 208.162 122.465 208.866 121.789C209.215 121.43 209.479 120.999 209.639 120.525C209.794 119.894 209.86 119.243 209.836 118.593V113.841C209.814 113.228 209.863 112.615 209.983 112.014C210.075 111.664 210.253 111.342 210.501 111.079C210.937 110.691 211.427 110.369 211.957 110.124C212.562 110.416 213.091 110.843 213.503 111.372ZM210.335 109.108C209.725 109.312 209.095 109.453 208.457 109.529C208.051 109.585 207.642 109.613 207.232 109.614C206.586 109.619 205.943 109.528 205.323 109.344C204.764 109.158 204.184 109.043 203.596 109C203.121 109.005 202.658 109.156 202.271 109.433C201.853 109.712 201.514 110.094 201.286 110.542C201.094 110.897 201.003 111.298 201.023 111.701C201.204 111.385 201.46 111.12 201.769 110.928C202.035 110.777 202.342 110.716 202.646 110.754C202.881 110.773 203.113 110.82 203.338 110.893C203.853 111.058 204.388 111.153 204.929 111.175C205.683 111.177 206.43 111.031 207.128 110.746C206.454 111.222 205.833 111.767 205.273 112.373C204.937 112.779 204.687 113.25 204.539 113.756C204.361 114.538 204.278 115.338 204.292 116.14C203.988 116.101 203.682 116.079 203.376 116.074C203.073 116.065 202.771 116.118 202.49 116.231C202.209 116.344 201.954 116.514 201.742 116.731C201.297 117.214 201.035 117.837 201 118.493V118.563C201.178 118.319 201.389 118.1 201.626 117.913C201.977 117.705 202.377 117.592 202.785 117.585C203.063 117.578 203.337 117.652 203.574 117.798C203.811 117.944 204 118.156 204.118 118.408C204.339 118.929 204.438 119.493 204.408 120.058H204.06C203.786 120.055 203.514 120.111 203.263 120.222C203.011 120.332 202.787 120.495 202.603 120.699C202.191 121.13 201.954 121.699 201.939 122.295C201.935 122.37 201.935 122.444 201.939 122.519L201.962 122.65C202.079 122.241 202.339 121.887 202.696 121.654C202.931 121.518 203.198 121.451 203.469 121.46C203.606 121.461 203.742 121.492 203.865 121.551C203.989 121.611 204.098 121.697 204.184 121.804C204.384 122.038 204.489 122.339 204.477 122.646C204.467 122.971 204.379 123.289 204.222 123.574C203.889 124.134 203.501 124.66 203.063 125.142C202.606 125.646 202.21 126.201 201.881 126.796C201.715 127.111 201.621 127.46 201.607 127.816C201.6 128.085 201.683 128.349 201.842 128.566C201.969 128.749 202.152 128.884 202.364 128.952C202.492 128.997 202.628 129.01 202.763 128.992C202.897 128.974 203.025 128.925 203.137 128.848C203.179 128.815 203.214 128.775 203.24 128.728C203.266 128.682 203.282 128.63 203.287 128.577C203.292 128.524 203.286 128.471 203.269 128.42C203.253 128.37 203.226 128.323 203.191 128.284C203.175 128.264 203.157 128.246 203.137 128.229C202.901 128.075 202.793 128.284 202.445 127.92C202.306 127.631 202.268 127.303 202.337 126.989C202.452 126.545 202.727 126.158 203.11 125.904C203.82 125.347 204.748 125.131 205.918 125.131C206.843 125.121 207.76 125.287 208.623 125.618C209.219 125.857 209.773 126.19 210.265 126.603C211.913 125.004 214.043 123.994 216.323 123.728V119.706C216.358 119.052 216.273 118.398 216.072 117.774C215.887 117.373 215.574 117.043 215.184 116.836C214.581 116.537 213.923 116.363 213.252 116.326C214.079 115.643 214.801 114.841 215.392 113.945C215.756 113.365 215.958 112.698 215.979 112.014C215.988 111.268 215.723 110.545 215.234 109.981C214.819 109.524 214.283 109.195 213.688 109.031C211.535 109.804 210.134 110.418 209.485 110.874C208.888 111.289 208.43 111.875 208.171 112.555C207.939 113.211 207.823 114.332 207.823 115.928V119.347C207.823 120.635 207.621 121.612 207.217 122.279C206.812 122.947 206.024 123.569 204.852 124.146C205.362 123.559 205.768 122.89 206.054 122.167C206.278 121.38 206.378 120.563 206.351 119.745V114.938C206.308 113.858 206.568 112.788 207.101 111.848C207.837 110.849 208.781 110.023 209.867 109.425C210.095 109.294 210.234 109.224 210.385 109.143L210.335 109.108ZM212.804 116.689C213.257 116.898 213.654 117.212 213.963 117.604C214.26 117.991 214.272 118.663 214.272 119.169H211.328V117.767C211.59 117.604 212.082 117.246 212.804 116.693V116.689ZM211.328 121.441V119.61H214.276V121.441H211.328ZM212.135 124.532C211.881 124.343 211.61 124.177 211.328 124.034V121.897H214.276V123.601C213.525 123.833 212.806 124.158 212.135 124.567V124.532Z" fill="#2A4365"/>
</g>
<g filter="url(#filter10_dd)">
<path d="M102 77.6834C102 75.5497 100 74.8829 98.2667 75.0163V75.3497C99.2667 75.3497 100.067 75.6831 100.067 76.4165C100.067 76.8832 99.7333 77.4833 98.7333 77.4833C97.9333 77.4833 96.4 77.0166 95.1333 76.6165C93.7333 76.1498 92.4667 75.6831 91.4 75.6831C89.2667 75.6831 87.6667 77.2833 87.6667 79.2169C87.6667 80.8172 88.8667 81.3506 89.3333 81.5506L89.4667 81.2839C89.1333 81.0839 88.8667 80.8172 88.8667 80.2171C88.8667 79.7503 89.2667 79.0169 90.4 79.0169C91.4 79.0169 92.6667 79.4836 94.4 79.9504C95.8667 80.3504 97.5333 80.7505 98.4 80.8838V84.2177L96.7333 85.6179V85.7512L98.4 87.2181V91.8188C97.5333 92.2855 96.5333 92.4189 95.7333 92.4189C94.1333 92.4189 92.6667 92.0188 91.4667 90.6853L95.9333 88.5516V81.0839L90.4 83.4842C91 82.0173 92.1333 81.0839 93.2667 80.3504L93.2 80.1504C89.9333 81.0172 87 84.0176 87 87.6848C87 92.0855 90.6 95.3526 94.6667 95.3526C99.0667 95.3526 101.867 91.8855 101.8 88.2849H101.533C100.867 89.6851 99.9333 91.0187 98.7333 91.6854V87.1514L100.467 85.7512V85.6179L98.7333 84.151V80.8172C100.333 80.8172 102 79.7503 102 77.6834ZM92.5333 89.7518L91.2 90.4186C90.4667 89.4184 89.9333 88.0849 89.9333 86.2846C89.9333 85.5512 90 84.6177 90.2667 83.951L92.5333 82.9508V89.7518Z" fill="black"/>
</g>
<g filter="url(#filter11_dd)">
<path d="M62 188.584L81.265 204.102L119.795 195.118L100.53 178.783L62 188.584Z" fill="white"/>
<path opacity="0.05" d="M62 188.584L81.265 204.102L119.795 195.118L100.53 178.783L62 188.584Z" fill="black"/>
<path d="M139.47 178.375L119.795 195.118L157.915 204.511L178 188.176L139.47 178.375Z" fill="white"/>
<path d="M119.795 195.118V214.312L81.265 204.102L119.795 195.118Z" fill="white"/>
<path opacity="0.17" d="M119.795 195.118V214.312L81.265 204.102L119.795 195.118Z" fill="black"/>
<path d="M157.915 204.511L119.795 195.118V214.312L157.915 204.511Z" fill="white"/>
<path opacity="0.1" d="M157.915 204.511L119.795 195.118V214.312L157.915 204.511Z" fill="black"/>
<path d="M123.96 213.936L120.547 217.818C120.025 218.412 119.288 218.774 118.497 218.826C117.707 218.878 116.929 218.616 116.333 218.096C116.28 218.05 116.229 218.002 116.181 217.953C116.101 217.873 116.025 217.789 115.955 217.7C115.699 217.378 115.513 217.005 115.41 216.606C115.387 216.52 115.369 216.432 115.354 216.343C115.339 216.248 115.328 216.151 115.321 216.054C115.303 215.782 115.322 215.508 115.378 215.241C115.397 215.149 115.421 215.058 115.449 214.969C115.574 214.573 115.78 214.209 116.055 213.898L117.544 212.204C117.622 212.115 117.732 212.061 117.85 212.053C117.969 212.045 118.085 212.085 118.174 212.162C118.263 212.24 118.318 212.35 118.325 212.468C118.333 212.586 118.294 212.702 118.216 212.79L116.726 214.484C116.614 214.612 116.517 214.753 116.439 214.904C116.265 215.24 116.186 215.618 116.212 215.995C116.219 216.092 116.232 216.188 116.252 216.284C116.27 216.373 116.294 216.46 116.324 216.546C116.445 216.891 116.654 217.197 116.931 217.436C117.208 217.674 117.542 217.837 117.902 217.906C118.261 217.975 118.632 217.95 118.979 217.831C119.325 217.713 119.634 217.506 119.875 217.232L120.733 216.256L122.259 214.521L123.289 213.35C123.612 212.981 123.795 212.51 123.806 212.02C123.816 211.53 123.653 211.052 123.346 210.67C123.273 210.578 123.24 210.46 123.254 210.344C123.267 210.228 123.326 210.121 123.418 210.048C123.51 209.975 123.627 209.94 123.744 209.953C123.861 209.965 123.969 210.023 124.043 210.113C124.482 210.659 124.714 211.341 124.698 212.04C124.683 212.739 124.422 213.41 123.96 213.936Z" fill="#4A5568"/>
<path d="M129.229 206.623C129.23 206.645 129.232 206.667 129.232 206.689C129.25 207.077 129.192 207.464 129.059 207.83C129.026 207.924 128.987 208.015 128.943 208.105C128.826 208.349 128.675 208.576 128.495 208.779L127.006 210.473C126.928 210.562 126.818 210.616 126.7 210.623C126.582 210.631 126.465 210.592 126.376 210.514C126.287 210.436 126.233 210.327 126.225 210.209C126.217 210.091 126.256 209.975 126.334 209.887L127.824 208.193C127.828 208.188 127.833 208.183 127.837 208.178C128.18 207.782 128.36 207.271 128.341 206.747C128.34 206.725 128.339 206.704 128.338 206.682C128.333 206.614 128.326 206.547 128.315 206.482C128.236 206.004 127.994 205.569 127.629 205.251C127.595 205.221 127.56 205.193 127.525 205.166C127.122 204.857 126.619 204.705 126.112 204.739C125.604 204.772 125.126 204.988 124.767 205.347C124.735 205.379 124.705 205.411 124.675 205.445L121.261 209.327C120.896 209.743 120.712 210.287 120.748 210.838C120.785 211.39 121.04 211.905 121.456 212.269C121.546 212.347 121.6 212.457 121.608 212.575C121.616 212.692 121.576 212.808 121.498 212.897C121.42 212.986 121.31 213.04 121.192 213.048C121.073 213.056 120.957 213.016 120.868 212.939C120.273 212.418 119.91 211.684 119.857 210.897C119.805 210.11 120.069 209.334 120.59 208.741L124.003 204.859C124.301 204.521 124.67 204.256 125.085 204.081C125.499 203.906 125.948 203.827 126.398 203.849C126.848 203.871 127.286 203.994 127.682 204.209C128.077 204.424 128.418 204.725 128.68 205.09C128.74 205.172 128.795 205.258 128.846 205.347C129.036 205.678 129.159 206.044 129.209 206.423C129.218 206.489 129.224 206.556 129.229 206.623Z" fill="#4A5568"/>
<path d="M126.7 206.736C126.703 206.776 126.701 206.816 126.696 206.856C126.677 206.991 126.612 207.116 126.512 207.209C126.412 207.303 126.282 207.359 126.145 207.368C126.008 207.377 125.872 207.338 125.76 207.259C125.648 207.18 125.567 207.064 125.531 206.932C125.507 206.845 125.504 206.754 125.52 206.665C125.547 206.523 125.625 206.396 125.739 206.307C125.854 206.218 125.997 206.174 126.142 206.183C126.286 206.191 126.423 206.253 126.526 206.354C126.629 206.456 126.69 206.592 126.7 206.736Z" fill="#4A5568"/>
<path d="M118.529 216.282C118.532 216.322 118.531 216.362 118.525 216.402C118.507 216.537 118.442 216.662 118.341 216.755C118.241 216.849 118.111 216.904 117.974 216.913C117.837 216.922 117.701 216.884 117.59 216.805C117.478 216.725 117.397 216.61 117.361 216.478C117.337 216.391 117.333 216.3 117.35 216.211C117.376 216.069 117.454 215.942 117.569 215.853C117.683 215.764 117.826 215.72 117.971 215.729C118.116 215.737 118.252 215.798 118.355 215.9C118.458 216.002 118.52 216.138 118.529 216.282Z" fill="#4A5568"/>
<path d="M123.5 205.431L124.767 205.347C124.735 205.379 124.705 205.411 124.675 205.445L124.511 205.633L123.251 205.716L123.5 205.431Z" fill="#805AD5"/>
<path d="M128.846 205.348L127.797 205.417C127.744 205.358 127.688 205.303 127.629 205.251C127.595 205.221 127.56 205.193 127.525 205.166L128.68 205.09C128.74 205.173 128.795 205.259 128.846 205.348Z" fill="#805AD5"/>
<path d="M122.224 206.882L123.484 206.799L123.234 207.084L121.974 207.167L122.224 206.882Z" fill="#805AD5"/>
<path d="M126.671 206.59C126.7 206.676 126.708 206.767 126.696 206.857L125.531 206.933C125.507 206.846 125.504 206.754 125.52 206.665L126.671 206.59Z" fill="#805AD5"/>
<path d="M129.229 206.624C129.23 206.646 129.232 206.668 129.232 206.69L128.341 206.748C128.34 206.726 128.339 206.704 128.338 206.682C128.333 206.615 128.326 206.548 128.315 206.482L129.209 206.423C129.218 206.489 129.224 206.556 129.229 206.624Z" fill="#805AD5"/>
<path d="M120.919 208.365L122.18 208.282L121.93 208.567L120.67 208.65L120.919 208.365Z" fill="#805AD5"/>
<path d="M129.059 207.83C129.026 207.924 128.987 208.016 128.943 208.106L127.837 208.179C127.913 208.091 127.981 207.996 128.041 207.897L129.059 207.83Z" fill="#805AD5"/>
<path d="M116.439 214.904C116.393 214.993 116.353 215.085 116.321 215.18L115.378 215.242C115.398 215.15 115.421 215.059 115.449 214.969L116.439 214.904Z" fill="#805AD5"/>
<path d="M123.519 214.438L123.27 214.723L122.009 214.806L122.259 214.521L123.519 214.438Z" fill="#805AD5"/>
<path d="M116.325 216.547L115.41 216.607C115.387 216.52 115.369 216.432 115.354 216.343L116.252 216.284C116.27 216.373 116.294 216.461 116.325 216.547Z" fill="#805AD5"/>
<path d="M118.529 216.283C118.532 216.323 118.531 216.363 118.525 216.402L117.361 216.479C117.337 216.392 117.333 216.3 117.35 216.211L118.501 216.136C118.516 216.183 118.526 216.233 118.529 216.283Z" fill="#805AD5"/>
<path d="M122.243 215.889L121.993 216.174L120.733 216.257L120.983 215.972L122.243 215.889Z" fill="#805AD5"/>
<path d="M117.692 217.855L116.181 217.954C116.101 217.874 116.026 217.789 115.955 217.7L117.181 217.62C117.34 217.721 117.512 217.8 117.692 217.855Z" fill="#805AD5"/>
<path d="M120.939 217.373L120.689 217.658L119.168 217.758C119.339 217.68 119.499 217.579 119.643 217.458L120.939 217.373Z" fill="#805AD5"/>
<path d="M104.333 201.23L107.05 208.424C107.466 209.524 107.428 210.743 106.945 211.811C106.462 212.88 105.574 213.712 104.475 214.124C104.378 214.161 104.28 214.194 104.182 214.223C104.021 214.271 103.858 214.31 103.693 214.339C103.09 214.447 102.471 214.427 101.875 214.281C101.746 214.249 101.617 214.212 101.49 214.168C101.354 214.121 101.22 214.068 101.088 214.008C100.717 213.84 100.371 213.622 100.059 213.361C99.9522 213.271 99.8495 213.176 99.7515 213.076C99.3193 212.635 98.9838 212.109 98.7667 211.531L97.581 208.392C97.5188 208.228 97.5245 208.046 97.5967 207.886C97.669 207.726 97.8018 207.601 97.9661 207.54C98.1304 207.478 98.3126 207.484 98.4727 207.557C98.6329 207.63 98.7577 207.763 98.8198 207.928L100.006 211.066C100.095 211.303 100.213 211.529 100.356 211.738C100.677 212.202 101.118 212.57 101.632 212.802C101.764 212.862 101.9 212.913 102.038 212.954C102.168 212.993 102.3 213.023 102.434 213.044C102.971 213.129 103.519 213.072 104.026 212.878C104.532 212.685 104.979 212.362 105.32 211.941C105.662 211.521 105.887 211.017 105.974 210.482C106.06 209.946 106.004 209.397 105.811 208.889L105.128 207.081L103.913 203.865L103.094 201.695C102.835 201.012 102.344 200.442 101.708 200.083C101.072 199.724 100.33 199.6 99.6132 199.733C99.4413 199.762 99.2644 199.723 99.1209 199.623C98.9774 199.524 98.8789 199.371 98.8467 199.2C98.8145 199.028 98.8513 198.851 98.9491 198.707C99.0469 198.563 99.1978 198.463 99.3689 198.429C100.392 198.241 101.449 198.419 102.356 198.931C103.264 199.443 103.963 200.257 104.333 201.23Z" fill="#4A5568"/>
<path d="M98.4013 189.197C98.4311 189.21 98.4607 189.224 98.4901 189.239C99.0123 189.488 99.4807 189.838 99.8684 190.268C99.9678 190.379 100.061 190.494 100.149 190.614C100.387 190.94 100.58 191.296 100.722 191.674L101.908 194.812C101.97 194.977 101.964 195.159 101.892 195.319C101.819 195.478 101.687 195.602 101.522 195.664C101.358 195.726 101.176 195.719 101.016 195.647C100.856 195.574 100.731 195.441 100.669 195.277L99.4833 192.139C99.4798 192.129 99.4763 192.12 99.4725 192.111C99.1915 191.383 98.6458 190.788 97.9452 190.445C97.9159 190.43 97.8863 190.416 97.8565 190.403C97.7648 190.361 97.6719 190.324 97.5778 190.291C96.8963 190.058 96.1555 190.068 95.4824 190.321C95.4199 190.344 95.3586 190.369 95.2986 190.397C94.6117 190.706 94.0617 191.255 93.7515 191.942C93.4413 192.628 93.3921 193.405 93.6132 194.127C93.6321 194.19 93.6538 194.253 93.6774 194.316L96.3952 201.51C96.6873 202.28 97.2725 202.904 98.0225 203.244C98.7726 203.585 99.6262 203.615 100.396 203.327C100.56 203.266 100.743 203.272 100.903 203.345C101.063 203.418 101.188 203.551 101.25 203.715C101.312 203.88 101.306 204.062 101.234 204.222C101.162 204.382 101.029 204.506 100.865 204.568C99.7662 204.978 98.5482 204.936 97.4781 204.45C96.4079 203.963 95.5729 203.073 95.1564 201.974L92.4385 194.78C92.203 194.155 92.1116 193.485 92.1712 192.82C92.2308 192.155 92.4398 191.513 92.7827 190.941C93.1256 190.369 93.5935 189.883 94.1514 189.518C94.7094 189.153 95.3429 188.919 96.0048 188.834C96.1549 188.814 96.306 188.802 96.4573 188.798C97.0257 188.784 97.5919 188.881 98.1242 189.082C98.2175 189.117 98.3099 189.155 98.4013 189.197Z" fill="#4A5568"/>
<path d="M96.7862 192.58C96.8403 192.605 96.8918 192.635 96.9399 192.67C97.105 192.789 97.2238 192.962 97.2763 193.159C97.3288 193.356 97.3118 193.565 97.228 193.75C97.1443 193.935 96.9991 194.086 96.8169 194.176C96.6347 194.266 96.4267 194.291 96.2281 194.245C96.0973 194.215 95.9749 194.155 95.87 194.071C95.7022 193.936 95.5891 193.745 95.5522 193.533C95.5153 193.321 95.5569 193.103 95.6694 192.92C95.7818 192.737 95.9573 192.601 96.163 192.539C96.3686 192.476 96.5902 192.491 96.7862 192.58Z" fill="#4A5568"/>
<path d="M103.625 209.978C103.68 210.002 103.731 210.032 103.779 210.067C103.944 210.187 104.063 210.36 104.116 210.556C104.168 210.753 104.151 210.962 104.067 211.147C103.984 211.333 103.838 211.483 103.656 211.573C103.474 211.664 103.266 211.688 103.067 211.642C102.937 211.612 102.814 211.553 102.709 211.469C102.541 211.334 102.428 211.142 102.391 210.93C102.355 210.718 102.396 210.5 102.509 210.317C102.621 210.134 102.797 209.999 103.002 209.936C103.208 209.874 103.429 209.889 103.625 209.978Z" fill="#4A5568"/>
<path d="M92.8391 195.84L93.6132 194.127C93.6321 194.19 93.6538 194.253 93.6774 194.316L93.8082 194.662L93.0379 196.367L92.8391 195.84Z" fill="#3182CE"/>
<path d="M96.4573 188.799L95.8167 190.216C95.7034 190.245 95.5917 190.28 95.4824 190.321C95.4199 190.344 95.3586 190.369 95.2986 190.397L96.0048 188.834C96.1549 188.814 96.306 188.802 96.4573 188.799Z" fill="#3182CE"/>
<path d="M93.8553 198.53L94.6256 196.826L94.8244 197.352L94.0541 199.057L93.8553 198.53Z" fill="#3182CE"/>
<path d="M96.5735 192.514C96.7057 192.538 96.8309 192.591 96.9399 192.67L96.2281 194.245C96.0972 194.215 95.9748 194.155 95.87 194.071L96.5735 192.514Z" fill="#3182CE"/>
<path d="M98.4013 189.197C98.4311 189.21 98.4607 189.224 98.4901 189.239L97.9452 190.445C97.916 190.43 97.8864 190.416 97.8566 190.402C97.7648 190.361 97.6719 190.324 97.5779 190.291L98.1243 189.082C98.2175 189.117 98.3099 189.155 98.4013 189.197Z" fill="#3182CE"/>
<path d="M94.8936 201.279L95.6639 199.574L95.8627 200.1L95.0924 201.805L94.8936 201.279Z" fill="#3182CE"/>
<path d="M99.8684 190.268C99.9679 190.379 100.062 190.494 100.149 190.614L99.4726 192.111C99.4104 191.95 99.3347 191.794 99.2463 191.645L99.8684 190.268Z" fill="#3182CE"/>
<path d="M100.356 211.737C100.441 211.86 100.534 211.976 100.635 212.086L100.059 213.361C99.9522 213.271 99.8495 213.176 99.7515 213.076L100.356 211.737Z" fill="#3182CE"/>
<path d="M104.684 202.16L104.882 202.686L104.112 204.391L103.913 203.865L104.684 202.16Z" fill="#3182CE"/>
<path d="M102.434 213.044L101.875 214.281C101.746 214.249 101.617 214.212 101.49 214.168L102.038 212.954C102.168 212.993 102.3 213.023 102.434 213.044Z" fill="#3182CE"/>
<path d="M103.625 209.978C103.68 210.002 103.731 210.032 103.779 210.067L103.067 211.642C102.937 211.612 102.814 211.553 102.709 211.469L103.413 209.912C103.486 209.925 103.558 209.947 103.625 209.978Z" fill="#3182CE"/>
<path d="M105.7 204.85L105.899 205.376L105.128 207.081L104.93 206.554L105.7 204.85Z" fill="#3182CE"/>
<path d="M105.105 212.179L104.182 214.223C104.021 214.271 103.858 214.31 103.693 214.339L104.441 212.681C104.685 212.545 104.908 212.376 105.105 212.179Z" fill="#3182CE"/>
<path d="M106.738 207.598L106.937 208.124L106.007 210.182C106.025 209.904 106.004 209.624 105.946 209.35L106.738 207.598Z" fill="#3182CE"/>
<path d="M81.265 256.782V204.102L119.795 214.312V266.583L81.265 256.782Z" fill="white"/>
<path d="M111.597 238.814C116.365 235.12 115.096 225.852 108.373 221.663L88.9521 216.749C87.363 216.347 85.7739 217.248 85.7739 219.212L85.7739 248.615C85.7739 250.248 87.0457 252.204 88.9521 252.686L108.816 257.712C119.589 256.354 116.762 242.571 111.597 238.814Z" fill="#1A202C"/>
<ellipse rx="3.27842" ry="3.26697" transform="matrix(0.969449 0.245294 0 1 94.5141 232.041)" fill="white"/>
<ellipse rx="3.27842" ry="3.26697" transform="matrix(0.969449 0.245294 0 1 104.049 234.454)" fill="white"/>
<ellipse rx="3.27842" ry="3.26697" transform="matrix(0.969449 0.245294 0 1 104.049 244.255)" fill="white"/>
<ellipse rx="3.27842" ry="3.26697" transform="matrix(0.969449 0.245294 0 1 94.5141 241.842)" fill="white"/>
<path d="M157.915 204.511L119.795 214.312V266.583L157.915 256.782V204.511Z" fill="white"/>
<path opacity="0.07" d="M157.915 204.511L119.795 214.312V266.583L157.915 256.782V204.511Z" fill="black"/>
<path opacity="0.1" d="M119.795 222.888V214.312L157.915 204.511V231.463L137.42 236.772L119.795 222.888Z" fill="black"/>
<path opacity="0.1" d="M81.265 204.102V231.463L102.58 236.772L119.795 222.888V214.312L81.265 204.102Z" fill="black"/>
<path d="M119.795 214.312L81.265 204.102L62 220.029L100.12 229.83L119.795 214.312Z" fill="white"/>
<path d="M139.88 229.83L119.795 214.312L157.915 204.511L177.59 220.029L139.88 229.83Z" fill="white"/>
<path opacity="0.07" d="M139.88 229.83L119.795 214.312L157.915 204.511L177.59 220.029L139.88 229.83Z" fill="black"/>
</g>
<path d="M123.102 171.262L124.3 176.302C124.483 177.072 124.353 177.884 123.937 178.558C123.522 179.232 122.856 179.714 122.085 179.897C122.017 179.914 121.949 179.927 121.881 179.938C121.769 179.957 121.656 179.97 121.543 179.975C121.131 179.997 120.718 179.932 120.333 179.783C120.248 179.751 120.166 179.716 120.084 179.676C119.998 179.633 119.912 179.586 119.829 179.535C119.596 179.391 119.383 179.217 119.197 179.015C119.133 178.946 119.072 178.874 119.015 178.799C118.764 178.468 118.585 178.088 118.49 177.683L117.967 175.484C117.94 175.369 117.959 175.247 118.021 175.147C118.083 175.046 118.183 174.974 118.298 174.946C118.414 174.919 118.535 174.938 118.636 175C118.737 175.063 118.809 175.162 118.836 175.277L119.359 177.476C119.398 177.642 119.457 177.803 119.535 177.955C119.71 178.292 119.973 178.576 120.297 178.774C120.38 178.825 120.467 178.871 120.556 178.91C120.639 178.947 120.725 178.978 120.813 179.003C121.165 179.105 121.537 179.113 121.892 179.026C122.248 178.939 122.574 178.761 122.839 178.508C123.104 178.256 123.298 177.938 123.402 177.587C123.506 177.236 123.516 176.864 123.431 176.508L123.13 175.242L122.594 172.988L122.233 171.468C122.119 170.99 121.84 170.567 121.445 170.273C121.05 169.98 120.565 169.835 120.074 169.863C119.956 169.869 119.841 169.827 119.754 169.749C119.666 169.67 119.613 169.56 119.607 169.442C119.6 169.325 119.64 169.209 119.718 169.121C119.796 169.033 119.905 168.979 120.022 168.971C120.723 168.931 121.415 169.139 121.978 169.557C122.541 169.976 122.939 170.579 123.102 171.262Z" fill="#4A5568"/>
<path d="M120.171 162.715C120.19 162.726 120.209 162.738 120.227 162.75C120.555 162.961 120.838 163.234 121.06 163.555C121.117 163.637 121.17 163.722 121.218 163.809C121.35 164.047 121.448 164.302 121.51 164.567L122.033 166.765C122.06 166.881 122.041 167.002 121.979 167.102C121.916 167.203 121.817 167.275 121.702 167.302C121.587 167.33 121.465 167.31 121.365 167.248C121.264 167.186 121.192 167.087 121.164 166.972L120.642 164.773C120.64 164.767 120.638 164.76 120.637 164.754C120.511 164.243 120.198 163.799 119.758 163.511C119.74 163.499 119.722 163.487 119.703 163.475C119.645 163.44 119.586 163.407 119.526 163.377C119.09 163.164 118.594 163.108 118.121 163.221C118.078 163.231 118.034 163.243 117.992 163.256C117.506 163.405 117.09 163.727 116.824 164.16C116.557 164.593 116.457 165.108 116.542 165.61C116.55 165.654 116.559 165.697 116.569 165.741L117.767 170.781C117.896 171.321 118.234 171.787 118.706 172.078C119.179 172.369 119.747 172.461 120.287 172.333C120.403 172.306 120.524 172.325 120.625 172.387C120.726 172.45 120.798 172.549 120.825 172.664C120.853 172.78 120.833 172.901 120.771 173.002C120.709 173.103 120.609 173.175 120.494 173.202C119.724 173.384 118.912 173.254 118.238 172.838C117.564 172.423 117.082 171.758 116.898 170.988L115.7 165.948C115.597 165.51 115.593 165.054 115.69 164.614C115.788 164.174 115.983 163.762 116.262 163.409C116.54 163.055 116.895 162.769 117.3 162.572C117.705 162.375 118.149 162.272 118.599 162.27C118.701 162.27 118.803 162.274 118.905 162.285C119.286 162.323 119.657 162.435 119.996 162.615C120.055 162.646 120.114 162.679 120.171 162.715Z" fill="#4A5568"/>
<path d="M118.799 164.842C118.833 164.863 118.865 164.887 118.894 164.914C118.994 165.008 119.059 165.134 119.077 165.27C119.095 165.406 119.066 165.544 118.994 165.661C118.922 165.778 118.812 165.867 118.682 165.912C118.552 165.957 118.411 165.955 118.282 165.908C118.197 165.877 118.12 165.827 118.057 165.762C117.957 165.658 117.898 165.52 117.891 165.375C117.885 165.23 117.931 165.088 118.022 164.975C118.113 164.862 118.243 164.786 118.385 164.762C118.528 164.737 118.675 164.766 118.799 164.842Z" fill="#4A5568"/>
<path d="M121.875 177.053C121.909 177.074 121.94 177.098 121.97 177.125C122.07 177.219 122.134 177.345 122.153 177.481C122.171 177.617 122.141 177.755 122.069 177.872C121.997 177.989 121.887 178.077 121.757 178.122C121.628 178.167 121.487 178.166 121.358 178.119C121.273 178.088 121.196 178.038 121.133 177.973C121.032 177.868 120.973 177.731 120.967 177.586C120.96 177.441 121.007 177.299 121.098 177.186C121.189 177.073 121.318 176.997 121.461 176.972C121.604 176.948 121.751 176.976 121.875 177.053Z" fill="#4A5568"/>
<path d="M115.877 166.69L116.543 165.61C116.55 165.654 116.559 165.697 116.569 165.741L116.627 165.984L115.964 167.059L115.877 166.69Z" fill="#D53F8C"/>
<path d="M118.905 162.285L118.354 163.179C118.276 163.189 118.198 163.203 118.121 163.221C118.078 163.231 118.034 163.243 117.992 163.256L118.599 162.27C118.701 162.27 118.803 162.274 118.905 162.285Z" fill="#D53F8C"/>
<path d="M116.325 168.575L116.987 167.5L117.075 167.868L116.412 168.944L116.325 168.575Z" fill="#D53F8C"/>
<path d="M118.662 164.78C118.749 164.807 118.828 164.853 118.894 164.914L118.282 165.908C118.197 165.877 118.12 165.827 118.057 165.762L118.662 164.78Z" fill="#D53F8C"/>
<path d="M120.171 162.715C120.19 162.726 120.209 162.738 120.227 162.75L119.758 163.511C119.74 163.499 119.722 163.487 119.703 163.475C119.645 163.44 119.586 163.407 119.526 163.377L119.996 162.615C120.055 162.646 120.114 162.679 120.171 162.715Z" fill="#D53F8C"/>
<path d="M116.783 170.501L117.445 169.425L117.533 169.794L116.87 170.869L116.783 170.501Z" fill="#D53F8C"/>
<path d="M121.06 163.555C121.117 163.637 121.17 163.722 121.218 163.809L120.637 164.754C120.609 164.641 120.572 164.53 120.525 164.423L121.06 163.555Z" fill="#D53F8C"/>
<path d="M119.535 177.955C119.581 178.044 119.634 178.13 119.692 178.211L119.197 179.015C119.133 178.946 119.072 178.874 119.015 178.799L119.535 177.955Z" fill="#D53F8C"/>
<path d="M123.257 171.913L123.344 172.281L122.682 173.357L122.594 172.988L123.257 171.913Z" fill="#D53F8C"/>
<path d="M120.813 179.003L120.333 179.783C120.248 179.751 120.166 179.715 120.084 179.675L120.556 178.91C120.639 178.947 120.725 178.978 120.813 179.003Z" fill="#D53F8C"/>
<path d="M121.875 177.053C121.909 177.074 121.94 177.098 121.97 177.125L121.358 178.119C121.273 178.088 121.196 178.038 121.133 177.973L121.738 176.991C121.786 177.005 121.832 177.026 121.875 177.053Z" fill="#D53F8C"/>
<path d="M123.705 173.797L123.792 174.166L123.13 175.241L123.042 174.873L123.705 173.797Z" fill="#D53F8C"/>
<path d="M122.675 178.649L121.881 179.938C121.769 179.957 121.656 179.969 121.543 179.975L122.187 178.929C122.362 178.859 122.526 178.764 122.675 178.649Z" fill="#D53F8C"/>
<path d="M124.162 175.723L124.25 176.091L123.451 177.39C123.486 177.205 123.497 177.016 123.482 176.828L124.162 175.723Z" fill="#D53F8C"/>
<path d="M129.149 195.294L128.072 200.362C127.908 201.136 127.442 201.814 126.778 202.245C126.114 202.677 125.306 202.827 124.531 202.662C124.462 202.647 124.395 202.631 124.328 202.611C124.219 202.581 124.112 202.543 124.008 202.5C123.626 202.343 123.281 202.107 122.996 201.808C122.933 201.743 122.874 201.675 122.818 201.604C122.757 201.529 122.701 201.45 122.647 201.368C122.498 201.138 122.38 200.889 122.299 200.628C122.27 200.538 122.247 200.447 122.227 200.354C122.142 199.947 122.143 199.527 122.23 199.121L122.7 196.91C122.725 196.794 122.794 196.693 122.894 196.628C122.993 196.564 123.114 196.541 123.23 196.566C123.345 196.59 123.447 196.66 123.511 196.759C123.576 196.859 123.598 196.98 123.574 197.096L123.104 199.306C123.068 199.473 123.053 199.644 123.059 199.814C123.072 200.194 123.188 200.563 123.396 200.881C123.449 200.963 123.508 201.041 123.572 201.114C123.631 201.184 123.696 201.249 123.764 201.309C124.038 201.552 124.371 201.718 124.729 201.792C125.088 201.866 125.459 201.844 125.807 201.73C126.155 201.615 126.466 201.411 126.71 201.139C126.954 200.866 127.123 200.534 127.199 200.176L127.469 198.902L127.95 196.637L128.275 195.109C128.376 194.627 128.306 194.126 128.074 193.691C127.843 193.257 127.467 192.918 127.011 192.733C126.903 192.688 126.816 192.601 126.771 192.493C126.726 192.384 126.725 192.262 126.77 192.153C126.814 192.044 126.899 191.957 127.008 191.91C127.116 191.864 127.238 191.862 127.347 191.905C127.997 192.169 128.534 192.653 128.863 193.273C129.192 193.892 129.293 194.608 129.149 195.294Z" fill="#4A5568"/>
<path d="M130.162 186.316C130.174 186.334 130.185 186.353 130.197 186.372C130.403 186.703 130.542 187.071 130.605 187.456C130.622 187.554 130.633 187.653 130.639 187.753C130.656 188.025 130.635 188.297 130.578 188.563L130.109 190.773C130.084 190.889 130.014 190.99 129.915 191.055C129.816 191.119 129.695 191.141 129.579 191.117C129.464 191.092 129.362 191.023 129.298 190.924C129.233 190.824 129.211 190.704 129.235 190.588L129.705 188.377C129.706 188.37 129.708 188.364 129.709 188.357C129.814 187.843 129.721 187.307 129.448 186.858C129.436 186.839 129.425 186.821 129.413 186.802C129.376 186.745 129.336 186.691 129.295 186.638C128.992 186.258 128.567 185.996 128.092 185.895C128.048 185.886 128.004 185.878 127.96 185.871C127.457 185.798 126.944 185.91 126.518 186.187C126.091 186.464 125.78 186.887 125.643 187.377C125.63 187.42 125.62 187.463 125.61 187.507L124.534 192.575C124.419 193.118 124.525 193.684 124.827 194.149C125.129 194.614 125.604 194.941 126.146 195.057C126.262 195.081 126.364 195.151 126.428 195.25C126.493 195.35 126.515 195.471 126.49 195.586C126.466 195.702 126.396 195.804 126.297 195.868C126.197 195.933 126.077 195.955 125.961 195.93C125.187 195.765 124.51 195.299 124.078 194.635C123.647 193.972 123.497 193.164 123.66 192.389L124.737 187.322C124.831 186.881 125.023 186.468 125.299 186.112C125.575 185.757 125.928 185.468 126.331 185.268C126.735 185.068 127.178 184.962 127.628 184.957C128.079 184.952 128.524 185.049 128.931 185.241C129.024 185.284 129.114 185.332 129.202 185.385C129.53 185.583 129.817 185.843 130.046 186.15C130.086 186.204 130.125 186.259 130.162 186.316Z" fill="#4A5568"/>
<path d="M128.01 187.65C128.032 187.683 128.051 187.719 128.065 187.756C128.115 187.884 128.12 188.025 128.078 188.156C128.036 188.287 127.95 188.399 127.835 188.474C127.72 188.548 127.583 188.581 127.446 188.566C127.31 188.551 127.183 188.49 127.086 188.392C127.023 188.327 126.975 188.249 126.946 188.164C126.9 188.026 126.905 187.877 126.962 187.743C127.018 187.609 127.121 187.501 127.252 187.437C127.382 187.374 127.531 187.361 127.671 187.4C127.811 187.439 127.931 187.528 128.01 187.65Z" fill="#4A5568"/>
<path d="M125.559 200.001C125.581 200.035 125.599 200.07 125.614 200.107C125.664 200.235 125.668 200.376 125.627 200.507C125.585 200.638 125.499 200.75 125.384 200.825C125.269 200.9 125.131 200.932 124.995 200.918C124.858 200.903 124.731 200.841 124.635 200.743C124.572 200.679 124.524 200.601 124.495 200.515C124.448 200.377 124.454 200.228 124.51 200.094C124.566 199.96 124.67 199.852 124.8 199.789C124.931 199.726 125.08 199.712 125.22 199.752C125.359 199.791 125.48 199.879 125.559 200.001Z" fill="#4A5568"/>
<path d="M124.578 188.069L125.643 187.377C125.63 187.42 125.62 187.463 125.61 187.507L125.559 187.751L124.499 188.439L124.578 188.069Z" fill="#E53E3E"/>
<path d="M129.202 185.385L128.321 185.957C128.246 185.932 128.17 185.911 128.092 185.895C128.048 185.886 128.004 185.878 127.96 185.871L128.931 185.241C129.024 185.284 129.114 185.332 129.202 185.385Z" fill="#E53E3E"/>
<path d="M124.176 189.963L125.235 189.275L125.156 189.646L124.097 190.334L124.176 189.963Z" fill="#E53E3E"/>
<path d="M127.913 187.535C127.98 187.597 128.032 187.672 128.065 187.756L127.086 188.392C127.023 188.327 126.975 188.249 126.946 188.164L127.913 187.535Z" fill="#E53E3E"/>
<path d="M130.162 186.316C130.174 186.334 130.185 186.353 130.197 186.371L129.448 186.858C129.436 186.839 129.425 186.821 129.413 186.802C129.376 186.745 129.336 186.691 129.295 186.638L130.046 186.15C130.086 186.204 130.125 186.259 130.162 186.316Z" fill="#E53E3E"/>
<path d="M123.764 191.899L124.824 191.211L124.745 191.582L123.686 192.27L123.764 191.899Z" fill="#E53E3E"/>
<path d="M130.605 187.456C130.622 187.554 130.633 187.653 130.639 187.753L129.709 188.357C129.732 188.243 129.746 188.128 129.75 188.011L130.605 187.456Z" fill="#E53E3E"/>
<path d="M123.059 199.814C123.062 199.915 123.073 200.014 123.091 200.113L122.299 200.628C122.27 200.538 122.247 200.447 122.227 200.354L123.059 199.814Z" fill="#E53E3E"/>
<path d="M129.01 195.949L128.931 196.319L127.872 197.007L127.95 196.637L129.01 195.949Z" fill="#E53E3E"/>
<path d="M123.764 201.309L122.996 201.808C122.933 201.743 122.874 201.675 122.818 201.604L123.572 201.114C123.631 201.183 123.696 201.248 123.764 201.309Z" fill="#E53E3E"/>
<path d="M125.559 200.001C125.581 200.035 125.599 200.07 125.614 200.108L124.635 200.743C124.572 200.679 124.524 200.601 124.495 200.515L125.462 199.887C125.499 199.921 125.531 199.959 125.559 200.001Z" fill="#E53E3E"/>
<path d="M128.607 197.843L128.528 198.214L127.469 198.902L127.548 198.532L128.607 197.843Z" fill="#E53E3E"/>
<path d="M125.598 201.787L124.328 202.611C124.219 202.581 124.112 202.543 124.008 202.5L125.038 201.831C125.226 201.842 125.414 201.827 125.598 201.787Z" fill="#E53E3E"/>
<path d="M128.196 199.78L128.117 200.15L126.839 200.981C126.95 200.829 127.04 200.663 127.107 200.487L128.196 199.78Z" fill="#E53E3E"/>
<path d="M101.293 170.754L103.226 172.087C103.522 172.291 103.724 172.604 103.789 172.957C103.854 173.31 103.776 173.674 103.572 173.97C103.554 173.996 103.535 174.021 103.516 174.045C103.484 174.086 103.45 174.124 103.413 174.16C103.281 174.293 103.122 174.396 102.948 174.463C102.91 174.478 102.871 174.491 102.831 174.502C102.789 174.514 102.746 174.524 102.703 174.532C102.58 174.555 102.456 174.561 102.332 174.549C102.29 174.546 102.247 174.54 102.205 174.532C102.02 174.496 101.845 174.423 101.69 174.315L100.846 173.734C100.802 173.704 100.772 173.657 100.762 173.604C100.753 173.551 100.764 173.497 100.795 173.453C100.825 173.408 100.872 173.378 100.925 173.368C100.978 173.359 101.032 173.37 101.076 173.401L101.92 173.982C101.983 174.026 102.052 174.062 102.124 174.09C102.285 174.15 102.46 174.166 102.629 174.134C102.673 174.126 102.716 174.115 102.758 174.101C102.797 174.088 102.835 174.073 102.873 174.055C103.022 173.982 103.149 173.872 103.243 173.735C103.336 173.598 103.392 173.439 103.404 173.273C103.417 173.108 103.386 172.942 103.314 172.792C103.243 172.643 103.133 172.514 102.996 172.42L102.511 172.085L101.646 171.49L101.063 171.088C100.88 170.961 100.657 170.904 100.436 170.925C100.214 170.946 100.006 171.044 99.8494 171.203C99.8115 171.24 99.7604 171.261 99.707 171.261C99.6537 171.261 99.6025 171.24 99.5646 171.203C99.5267 171.165 99.5051 171.114 99.5045 171.061C99.5039 171.008 99.5244 170.956 99.5615 170.918C99.7851 170.692 100.081 170.552 100.398 170.522C100.714 170.492 101.031 170.574 101.293 170.754Z" fill="#4A5568"/>
<path d="M97.7127 168.767C97.7225 168.765 97.7324 168.764 97.7422 168.762C97.9166 168.734 98.0949 168.74 98.2669 168.78C98.311 168.79 98.3546 168.803 98.3974 168.818C98.5138 168.858 98.6242 168.914 98.7255 168.984L99.5688 169.566C99.6129 169.596 99.6431 169.643 99.6528 169.696C99.6624 169.748 99.6508 169.803 99.6203 169.847C99.5899 169.891 99.5432 169.921 99.4904 169.931C99.4377 169.941 99.3832 169.929 99.339 169.899L98.4958 169.317C98.4932 169.316 98.4907 169.314 98.4882 169.312C98.2912 169.179 98.0508 169.124 97.8155 169.161C97.8056 169.162 97.7957 169.164 97.7859 169.165C97.7556 169.171 97.7259 169.178 97.6967 169.186C97.4852 169.247 97.3012 169.379 97.1764 169.56C97.1648 169.577 97.1538 169.594 97.1436 169.611C97.0252 169.809 96.9829 170.043 97.0245 170.27C97.0662 170.496 97.189 170.7 97.37 170.843C97.3858 170.856 97.4021 170.868 97.4189 170.879L99.3519 172.212C99.5591 172.354 99.8143 172.409 100.062 172.363C100.309 172.318 100.528 172.176 100.671 171.969C100.702 171.925 100.748 171.895 100.801 171.885C100.854 171.875 100.908 171.887 100.953 171.918C100.997 171.948 101.027 171.995 101.037 172.048C101.047 172.1 101.035 172.155 101.004 172.199C100.8 172.494 100.488 172.696 100.135 172.761C99.7819 172.826 99.4177 172.748 99.1221 172.545L97.1892 171.212C97.0213 171.096 96.8818 170.944 96.7811 170.767C96.6804 170.589 96.621 170.391 96.6075 170.188C96.594 169.984 96.6267 169.78 96.7031 169.591C96.7795 169.401 96.8976 169.232 97.0487 169.095C97.0829 169.064 97.1187 169.034 97.156 169.007C97.2961 168.904 97.4547 168.829 97.6233 168.787C97.6528 168.779 97.6826 168.773 97.7127 168.767Z" fill="#4A5568"/>
<path d="M97.8964 169.9C97.9142 169.896 97.9323 169.895 97.9505 169.895C98.0127 169.897 98.0725 169.919 98.12 169.96C98.1674 170 98.1994 170.055 98.2107 170.116C98.2219 170.178 98.2117 170.241 98.1817 170.295C98.1517 170.35 98.1038 170.392 98.0461 170.416C98.008 170.431 97.967 170.437 97.9261 170.435C97.8605 170.43 97.7989 170.402 97.7527 170.355C97.7066 170.308 97.6791 170.246 97.6754 170.18C97.6718 170.115 97.6922 170.05 97.7329 169.998C97.7736 169.947 97.8317 169.912 97.8964 169.9Z" fill="#4A5568"/>
<path d="M102.638 173.076C102.656 173.073 102.674 173.071 102.692 173.072C102.754 173.073 102.814 173.096 102.861 173.136C102.909 173.176 102.941 173.232 102.952 173.293C102.963 173.354 102.953 173.417 102.923 173.472C102.893 173.526 102.845 173.569 102.787 173.592C102.749 173.607 102.708 173.614 102.667 173.611C102.602 173.606 102.54 173.578 102.494 173.531C102.448 173.484 102.42 173.422 102.417 173.357C102.413 173.291 102.434 173.226 102.474 173.175C102.515 173.123 102.573 173.088 102.638 173.076Z" fill="#4A5568"/>
<path d="M97.474 171.409L97.37 170.843C97.3858 170.856 97.4021 170.868 97.4189 170.879L97.5119 170.943L97.6154 171.506L97.474 171.409Z" fill="#E53E3E"/>
<path d="M97.1561 169.007L97.2421 169.475C97.2186 169.502 97.1967 169.53 97.1764 169.56C97.1649 169.577 97.1538 169.594 97.1436 169.611L97.0487 169.095C97.0829 169.064 97.1187 169.034 97.1561 169.007Z" fill="#E53E3E"/>
<path d="M98.1968 171.907L98.0933 171.344L98.2347 171.442L98.3382 172.005L98.1968 171.907Z" fill="#E53E3E"/>
<path d="M97.8316 169.92C97.8688 169.903 97.9095 169.895 97.9505 169.895L98.0461 170.416C98.0081 170.431 97.967 170.437 97.9261 170.435L97.8316 169.92Z" fill="#E53E3E"/>
<path d="M97.7127 168.767C97.7225 168.765 97.7323 168.764 97.7422 168.762L97.8154 169.161C97.8055 169.162 97.7957 169.164 97.7859 169.165C97.7556 169.171 97.7259 169.178 97.6967 169.186L97.6233 168.787C97.6527 168.779 97.6826 168.773 97.7127 168.767Z" fill="#E53E3E"/>
<path d="M98.9353 172.416L98.8318 171.853L98.9732 171.951L99.0767 172.514L98.9353 172.416Z" fill="#E53E3E"/>
<path d="M98.2669 168.78C98.311 168.79 98.3545 168.803 98.3973 168.818L98.4882 169.312C98.4446 169.283 98.3985 169.257 98.3505 169.235L98.2669 168.78Z" fill="#E53E3E"/>
<path d="M102.124 174.09C102.167 174.106 102.21 174.119 102.255 174.128L102.332 174.549C102.29 174.545 102.247 174.54 102.205 174.532L102.124 174.09Z" fill="#E53E3E"/>
<path d="M101.543 170.927L101.684 171.024L101.788 171.587L101.646 171.49L101.543 170.927Z" fill="#E53E3E"/>
<path d="M102.872 174.055L102.948 174.463C102.91 174.478 102.871 174.491 102.831 174.502L102.758 174.101C102.797 174.088 102.835 174.073 102.872 174.055Z" fill="#E53E3E"/>
<path d="M102.638 173.076C102.656 173.073 102.674 173.071 102.692 173.072L102.787 173.592C102.749 173.607 102.708 173.614 102.667 173.611L102.573 173.097C102.594 173.087 102.615 173.08 102.638 173.076Z" fill="#E53E3E"/>
<path d="M102.266 171.425L102.407 171.522L102.511 172.085L102.369 171.988L102.266 171.425Z" fill="#E53E3E"/>
<path d="M103.392 173.371L103.516 174.046C103.484 174.086 103.45 174.124 103.413 174.16L103.313 173.613C103.35 173.536 103.376 173.455 103.392 173.371Z" fill="#E53E3E"/>
<path d="M103.004 171.934L103.146 172.032L103.27 172.711C103.226 172.638 103.173 172.571 103.11 172.513L103.004 171.934Z" fill="#E53E3E"/>
<path d="M117.92 195.398L115.149 202.598C114.726 203.699 113.884 204.587 112.81 205.068C111.736 205.548 110.517 205.581 109.422 205.159C109.325 205.122 109.23 205.082 109.137 205.038C108.985 204.968 108.837 204.888 108.694 204.8C108.172 204.481 107.723 204.054 107.376 203.548C107.3 203.438 107.229 203.325 107.163 203.207C107.093 203.082 107.028 202.953 106.969 202.82C106.805 202.448 106.692 202.054 106.633 201.651C106.613 201.512 106.6 201.373 106.593 201.233C106.565 200.615 106.665 199.997 106.889 199.42L108.098 196.278C108.161 196.114 108.287 195.981 108.447 195.909C108.608 195.837 108.79 195.832 108.954 195.895C109.118 195.958 109.25 196.084 109.321 196.245C109.392 196.406 109.396 196.589 109.333 196.754L108.124 199.895C108.033 200.132 107.97 200.379 107.938 200.631C107.867 201.193 107.951 201.762 108.181 202.278C108.239 202.411 108.307 202.539 108.383 202.662C108.454 202.777 108.533 202.888 108.619 202.993C108.962 203.413 109.41 203.735 109.918 203.927C110.425 204.118 110.974 204.173 111.51 204.085C112.046 203.997 112.55 203.769 112.972 203.425C113.394 203.081 113.719 202.632 113.914 202.123L114.61 200.313L115.849 197.094L116.685 194.922C116.947 194.238 116.961 193.484 116.725 192.792C116.49 192.1 116.019 191.514 115.395 191.137C115.246 191.045 115.14 190.898 115.1 190.728C115.059 190.557 115.087 190.378 115.178 190.228C115.268 190.078 115.414 189.969 115.583 189.926C115.752 189.883 115.932 189.909 116.082 189.997C116.971 190.536 117.643 191.372 117.979 192.359C118.315 193.347 118.294 194.422 117.92 195.398Z" fill="#4A5568"/>
<path d="M121.52 182.432C121.534 182.462 121.546 182.492 121.559 182.522C121.782 183.057 121.899 183.631 121.901 184.211C121.902 184.36 121.895 184.508 121.88 184.656C121.841 185.059 121.747 185.455 121.601 185.832L120.392 188.974C120.329 189.138 120.203 189.271 120.042 189.342C119.882 189.414 119.7 189.419 119.536 189.356C119.372 189.293 119.24 189.167 119.169 189.006C119.098 188.846 119.094 188.663 119.157 188.498L120.365 185.357C120.369 185.348 120.373 185.338 120.376 185.329C120.652 184.597 120.641 183.788 120.347 183.064C120.335 183.034 120.322 183.004 120.309 182.974C120.268 182.881 120.223 182.792 120.175 182.705C119.822 182.077 119.261 181.592 118.59 181.334C118.528 181.31 118.465 181.288 118.402 181.269C117.683 181.044 116.905 181.09 116.215 181.399C115.525 181.707 114.97 182.257 114.654 182.945C114.625 183.005 114.6 183.066 114.576 183.129L111.805 190.33C111.509 191.101 111.53 191.958 111.863 192.712C112.196 193.466 112.813 194.056 113.58 194.353C113.744 194.416 113.876 194.542 113.947 194.703C114.018 194.864 114.023 195.046 113.959 195.211C113.896 195.376 113.77 195.509 113.61 195.58C113.449 195.652 113.267 195.657 113.103 195.594C112.008 195.172 111.127 194.33 110.652 193.254C110.177 192.178 110.147 190.955 110.57 189.854L113.34 182.654C113.582 182.028 113.961 181.465 114.449 181.006C114.937 180.547 115.522 180.205 116.159 180.004C116.797 179.803 117.471 179.75 118.132 179.847C118.792 179.945 119.421 180.19 119.973 180.566C120.098 180.651 120.219 180.743 120.334 180.841C120.768 181.208 121.127 181.657 121.39 182.162C121.436 182.25 121.48 182.34 121.52 182.432Z" fill="#4A5568"/>
<path d="M118.056 183.895C118.08 183.949 118.098 184.006 118.111 184.064C118.155 184.264 118.128 184.472 118.036 184.655C117.944 184.837 117.792 184.982 117.605 185.066C117.419 185.149 117.21 185.165 117.014 185.112C116.818 185.058 116.646 184.938 116.528 184.772C116.451 184.662 116.399 184.536 116.377 184.404C116.341 184.191 116.385 183.972 116.499 183.789C116.613 183.605 116.789 183.469 116.995 183.407C117.201 183.344 117.423 183.36 117.618 183.449C117.813 183.539 117.969 183.698 118.056 183.895Z" fill="#4A5568"/>
<path d="M111.555 201.486C111.578 201.54 111.597 201.597 111.61 201.655C111.653 201.854 111.627 202.063 111.534 202.245C111.442 202.428 111.29 202.573 111.104 202.656C110.918 202.74 110.709 202.756 110.513 202.702C110.316 202.649 110.145 202.529 110.027 202.363C109.949 202.253 109.897 202.127 109.875 201.994C109.84 201.782 109.883 201.563 109.997 201.379C110.111 201.196 110.288 201.06 110.494 200.998C110.7 200.935 110.921 200.95 111.117 201.04C111.312 201.13 111.468 201.289 111.555 201.486Z" fill="#4A5568"/>
<path d="M112.932 183.715L114.654 182.945C114.625 183.005 114.6 183.066 114.576 183.129L114.442 183.476L112.729 184.242L112.932 183.715Z" fill="#D69E2E"/>
<path d="M120.334 180.841L118.909 181.478C118.806 181.424 118.699 181.376 118.59 181.334C118.528 181.31 118.465 181.288 118.402 181.269L119.973 180.566C120.098 180.651 120.219 180.743 120.334 180.841Z" fill="#D69E2E"/>
<path d="M111.896 186.407L113.609 185.641L113.406 186.168L111.693 186.934L111.896 186.407Z" fill="#D69E2E"/>
<path d="M117.941 183.704C118.024 183.81 118.082 183.933 118.111 184.064L116.528 184.772C116.451 184.662 116.399 184.536 116.377 184.404L117.941 183.704Z" fill="#D69E2E"/>
<path d="M121.52 182.432C121.534 182.462 121.546 182.492 121.559 182.522L120.347 183.064C120.335 183.034 120.322 183.004 120.309 182.974C120.268 182.881 120.223 182.792 120.175 182.705L121.39 182.162C121.436 182.25 121.48 182.34 121.52 182.432Z" fill="#D69E2E"/>
<path d="M110.837 189.158L112.55 188.392L112.348 188.919L110.635 189.685L110.837 189.158Z" fill="#D69E2E"/>
<path d="M121.901 184.211C121.902 184.36 121.895 184.508 121.88 184.656L120.376 185.329C120.437 185.167 120.484 185 120.518 184.83L121.901 184.211Z" fill="#D69E2E"/>
<path d="M107.938 200.631C107.92 200.78 107.912 200.929 107.914 201.078L106.633 201.651C106.613 201.512 106.6 201.373 106.593 201.233L107.938 200.631Z" fill="#D69E2E"/>
<path d="M117.562 196.328L117.36 196.854L115.646 197.621L115.849 197.094L117.562 196.328Z" fill="#D69E2E"/>
<path d="M108.619 202.993L107.376 203.548C107.3 203.438 107.229 203.325 107.163 203.207L108.383 202.662C108.454 202.777 108.533 202.888 108.619 202.993Z" fill="#D69E2E"/>
<path d="M111.555 201.486C111.578 201.54 111.597 201.597 111.61 201.655L110.027 202.363C109.949 202.253 109.897 202.127 109.875 201.994L111.44 201.295C111.486 201.353 111.524 201.418 111.555 201.486Z" fill="#D69E2E"/>
<path d="M116.526 199.02L116.324 199.547L114.61 200.313L114.813 199.786L116.526 199.02Z" fill="#D69E2E"/>
<path d="M111.191 204.12L109.137 205.038C108.985 204.968 108.837 204.888 108.694 204.8L110.36 204.055C110.633 204.115 110.912 204.136 111.191 204.12Z" fill="#D69E2E"/>
<path d="M115.468 201.771L115.265 202.298L113.197 203.223C113.396 203.025 113.568 202.802 113.707 202.559L115.468 201.771Z" fill="#D69E2E"/>
<path d="M128.712 160.399L125.793 160.032C125.346 159.976 124.941 159.745 124.665 159.39C124.389 159.034 124.266 158.584 124.322 158.138C124.327 158.099 124.333 158.059 124.341 158.021C124.353 157.958 124.369 157.895 124.389 157.834C124.459 157.61 124.576 157.404 124.732 157.228C124.766 157.19 124.801 157.153 124.839 157.118C124.879 157.08 124.92 157.044 124.964 157.01C125.087 156.915 125.222 156.836 125.366 156.778C125.416 156.757 125.466 156.74 125.518 156.724C125.744 156.657 125.982 156.637 126.216 156.667L127.489 156.827C127.556 156.836 127.617 156.87 127.658 156.923C127.699 156.977 127.718 157.044 127.709 157.111C127.701 157.177 127.667 157.238 127.613 157.279C127.56 157.32 127.493 157.339 127.426 157.331L126.153 157.17C126.057 157.158 125.959 157.158 125.863 157.169C125.649 157.194 125.446 157.278 125.275 157.411C125.232 157.445 125.19 157.482 125.152 157.521C125.116 157.558 125.082 157.598 125.051 157.639C124.927 157.806 124.848 158.002 124.824 158.209C124.799 158.415 124.829 158.624 124.91 158.816C124.992 159.007 125.122 159.173 125.288 159.298C125.454 159.424 125.65 159.503 125.856 159.529L126.59 159.621L127.895 159.785L128.775 159.896C129.052 159.931 129.333 159.866 129.567 159.715C129.802 159.564 129.976 159.334 130.059 159.068C130.079 159.004 130.124 158.951 130.183 158.92C130.243 158.889 130.312 158.883 130.376 158.903C130.439 158.923 130.493 158.967 130.524 159.026C130.556 159.085 130.563 159.154 130.543 159.218C130.425 159.599 130.177 159.925 129.842 160.141C129.507 160.357 129.107 160.449 128.712 160.399Z" fill="#4A5568"/>
<path d="M133.841 160.544C133.831 160.552 133.821 160.559 133.811 160.567C133.633 160.699 133.432 160.795 133.217 160.85C133.162 160.864 133.106 160.875 133.05 160.883C132.897 160.905 132.742 160.907 132.589 160.887L131.316 160.727C131.249 160.719 131.188 160.684 131.147 160.631C131.106 160.578 131.088 160.51 131.096 160.444C131.104 160.377 131.139 160.317 131.192 160.275C131.245 160.234 131.312 160.216 131.379 160.224L132.652 160.384C132.656 160.385 132.66 160.385 132.664 160.385C132.96 160.42 133.259 160.342 133.5 160.166C133.51 160.159 133.52 160.151 133.53 160.143C133.56 160.12 133.589 160.095 133.617 160.069C133.817 159.88 133.946 159.627 133.98 159.353C133.983 159.328 133.986 159.303 133.987 159.277C134.005 158.989 133.917 158.704 133.74 158.476C133.562 158.248 133.308 158.092 133.024 158.038C133 158.033 132.975 158.029 132.949 158.026L130.03 157.658C129.718 157.619 129.402 157.706 129.153 157.899C128.904 158.092 128.742 158.377 128.703 158.689C128.694 158.756 128.66 158.817 128.607 158.858C128.553 158.899 128.486 158.918 128.419 158.909C128.353 158.901 128.292 158.866 128.251 158.813C128.209 158.76 128.191 158.693 128.199 158.626C128.256 158.18 128.487 157.774 128.842 157.499C129.197 157.223 129.647 157.099 130.094 157.155L133.013 157.522C133.266 157.554 133.509 157.644 133.724 157.783C133.938 157.922 134.118 158.108 134.251 158.327C134.383 158.545 134.465 158.791 134.489 159.046C134.513 159.3 134.479 159.557 134.39 159.797C134.37 159.851 134.347 159.904 134.322 159.956C134.225 160.152 134.092 160.326 133.929 160.471C133.901 160.496 133.871 160.521 133.841 160.544Z" fill="#4A5568"/>
<path d="M132.983 159.39C132.965 159.404 132.946 159.416 132.925 159.427C132.856 159.461 132.776 159.47 132.7 159.453C132.624 159.435 132.556 159.392 132.509 159.331C132.461 159.269 132.436 159.193 132.438 159.115C132.439 159.037 132.468 158.962 132.519 158.903C132.552 158.864 132.594 158.833 132.642 158.813C132.717 158.78 132.802 158.776 132.88 158.801C132.959 158.827 133.025 158.88 133.067 158.951C133.109 159.022 133.124 159.106 133.108 159.187C133.093 159.267 133.048 159.34 132.983 159.39Z" fill="#4A5568"/>
<path d="M125.877 158.593C125.859 158.607 125.839 158.619 125.819 158.629C125.749 158.663 125.67 158.673 125.594 158.655C125.518 158.638 125.45 158.595 125.402 158.533C125.354 158.471 125.329 158.395 125.331 158.317C125.333 158.239 125.362 158.164 125.413 158.105C125.446 158.066 125.488 158.035 125.535 158.015C125.611 157.982 125.696 157.978 125.774 158.004C125.852 158.029 125.919 158.082 125.961 158.153C126.003 158.224 126.017 158.308 126.002 158.389C125.986 158.47 125.942 158.542 125.877 158.593Z" fill="#4A5568"/>
<path d="M132.582 157.468L133.024 158.038C133 158.033 132.975 158.029 132.949 158.026L132.809 158.008L132.369 157.441L132.582 157.468Z" fill="#38A169"/>
<path d="M134.322 159.956L133.956 159.485C133.966 159.442 133.975 159.398 133.98 159.353C133.983 159.328 133.986 159.303 133.987 159.277L134.39 159.797C134.37 159.851 134.347 159.904 134.322 159.956Z" fill="#38A169"/>
<path d="M131.491 157.331L131.931 157.897L131.717 157.871L131.277 157.304L131.491 157.331Z" fill="#38A169"/>
<path d="M133.043 159.33C133.012 159.371 132.972 159.404 132.925 159.427L132.519 158.903C132.552 158.864 132.594 158.833 132.642 158.813L133.043 159.33Z" fill="#38A169"/>
<path d="M133.841 160.544C133.831 160.552 133.821 160.559 133.811 160.567L133.5 160.166C133.51 160.159 133.52 160.151 133.53 160.143C133.56 160.12 133.589 160.095 133.617 160.069L133.929 160.471C133.901 160.496 133.871 160.521 133.841 160.544Z" fill="#38A169"/>
<path d="M130.376 157.19L130.816 157.757L130.602 157.73L130.162 157.164L130.376 157.19Z" fill="#38A169"/>
<path d="M133.217 160.85C133.162 160.864 133.106 160.875 133.05 160.883L132.664 160.385C132.729 160.393 132.796 160.395 132.862 160.392L133.217 160.85Z" fill="#38A169"/>
<path d="M125.863 157.169C125.807 157.176 125.75 157.187 125.695 157.201L125.367 156.778C125.416 156.757 125.466 156.74 125.518 156.724L125.863 157.169Z" fill="#38A169"/>
<path d="M128.335 160.352L128.121 160.325L127.681 159.759L127.895 159.785L128.335 160.352Z" fill="#38A169"/>
<path d="M125.051 157.64L124.732 157.229C124.766 157.19 124.801 157.153 124.839 157.118L125.152 157.521C125.116 157.558 125.082 157.598 125.051 157.64Z" fill="#38A169"/>
<path d="M125.877 158.593C125.859 158.607 125.839 158.619 125.819 158.629L125.413 158.105C125.446 158.066 125.488 158.035 125.535 158.015L125.937 158.532C125.919 158.555 125.899 158.575 125.877 158.593Z" fill="#38A169"/>
<path d="M127.243 160.215L127.03 160.188L126.59 159.621L126.803 159.648L127.243 160.215Z" fill="#38A169"/>
<path d="M124.868 158.7L124.341 158.021C124.353 157.958 124.369 157.895 124.389 157.834L124.816 158.385C124.819 158.492 124.837 158.598 124.868 158.7Z" fill="#38A169"/>
<path d="M126.128 160.074L125.914 160.047L125.383 159.364C125.475 159.419 125.573 159.463 125.676 159.492L126.128 160.074Z" fill="#38A169"/>
<path d="M135.962 203.899L133.043 203.532C132.596 203.476 132.191 203.245 131.915 202.89C131.639 202.534 131.516 202.084 131.572 201.638C131.577 201.599 131.583 201.559 131.591 201.521C131.603 201.458 131.619 201.395 131.639 201.334C131.709 201.11 131.826 200.904 131.982 200.728C132.016 200.69 132.051 200.653 132.089 200.618C132.129 200.58 132.17 200.544 132.214 200.51C132.337 200.415 132.472 200.336 132.616 200.278C132.666 200.257 132.716 200.24 132.768 200.224C132.994 200.157 133.232 200.137 133.466 200.167L134.739 200.327C134.806 200.336 134.867 200.37 134.908 200.423C134.949 200.477 134.968 200.544 134.959 200.611C134.951 200.677 134.917 200.738 134.863 200.779C134.81 200.82 134.743 200.839 134.676 200.831L133.403 200.67C133.307 200.658 133.209 200.658 133.113 200.669C132.899 200.694 132.696 200.778 132.525 200.911C132.482 200.945 132.44 200.982 132.402 201.021C132.366 201.058 132.332 201.098 132.301 201.139C132.177 201.306 132.098 201.502 132.074 201.709C132.049 201.915 132.079 202.124 132.16 202.316C132.242 202.507 132.372 202.673 132.538 202.798C132.704 202.924 132.9 203.003 133.106 203.029L133.84 203.121L135.145 203.285L136.025 203.396C136.302 203.431 136.583 203.366 136.817 203.215C137.052 203.064 137.226 202.834 137.309 202.568C137.329 202.504 137.374 202.451 137.433 202.42C137.493 202.389 137.562 202.383 137.626 202.403C137.689 202.423 137.743 202.467 137.774 202.526C137.806 202.585 137.813 202.654 137.793 202.718C137.675 203.099 137.427 203.425 137.092 203.641C136.757 203.857 136.357 203.949 135.962 203.899Z" fill="#4A5568"/>
<path d="M141.091 204.044C141.081 204.052 141.071 204.059 141.061 204.067C140.883 204.199 140.682 204.295 140.467 204.35C140.412 204.364 140.356 204.375 140.3 204.383C140.147 204.405 139.992 204.407 139.839 204.387L138.566 204.227C138.499 204.219 138.438 204.184 138.397 204.131C138.356 204.078 138.338 204.01 138.346 203.944C138.354 203.877 138.389 203.817 138.442 203.775C138.495 203.734 138.562 203.715 138.629 203.724L139.902 203.884C139.906 203.884 139.91 203.885 139.914 203.885C140.21 203.92 140.509 203.842 140.75 203.666C140.76 203.659 140.77 203.651 140.78 203.643C140.81 203.62 140.839 203.595 140.867 203.569C141.067 203.38 141.196 203.127 141.23 202.853C141.233 202.828 141.236 202.803 141.237 202.777C141.255 202.489 141.167 202.204 140.99 201.976C140.812 201.748 140.558 201.592 140.274 201.538C140.25 201.533 140.225 201.529 140.199 201.526L137.28 201.158C136.968 201.119 136.652 201.206 136.403 201.399C136.154 201.592 135.992 201.877 135.953 202.189C135.944 202.256 135.91 202.317 135.857 202.358C135.803 202.399 135.736 202.417 135.669 202.409C135.603 202.401 135.542 202.366 135.501 202.313C135.459 202.26 135.441 202.193 135.449 202.126C135.506 201.68 135.737 201.274 136.092 200.999C136.447 200.723 136.897 200.599 137.344 200.655L140.263 201.022C140.516 201.054 140.759 201.144 140.974 201.283C141.188 201.422 141.368 201.608 141.501 201.827C141.633 202.045 141.715 202.291 141.739 202.546C141.763 202.8 141.729 203.057 141.64 203.297C141.62 203.351 141.597 203.404 141.572 203.456C141.475 203.652 141.342 203.826 141.179 203.971C141.151 203.996 141.121 204.021 141.091 204.044Z" fill="#4A5568"/>
<path d="M140.233 202.89C140.215 202.904 140.196 202.916 140.175 202.927C140.106 202.961 140.026 202.97 139.95 202.953C139.874 202.935 139.806 202.892 139.759 202.831C139.711 202.769 139.686 202.693 139.688 202.615C139.689 202.537 139.718 202.462 139.769 202.403C139.802 202.364 139.844 202.333 139.892 202.313C139.967 202.28 140.052 202.276 140.13 202.301C140.209 202.327 140.275 202.38 140.317 202.451C140.359 202.522 140.374 202.606 140.358 202.687C140.343 202.767 140.298 202.84 140.233 202.89Z" fill="#4A5568"/>
<path d="M133.127 202.093C133.109 202.107 133.089 202.119 133.069 202.129C132.999 202.163 132.92 202.173 132.844 202.155C132.768 202.138 132.7 202.095 132.652 202.033C132.604 201.971 132.579 201.895 132.581 201.817C132.583 201.739 132.612 201.664 132.663 201.605C132.696 201.566 132.738 201.535 132.785 201.515C132.861 201.482 132.946 201.478 133.024 201.504C133.102 201.529 133.169 201.582 133.211 201.653C133.253 201.724 133.267 201.808 133.252 201.889C133.236 201.97 133.192 202.042 133.127 202.093Z" fill="#4A5568"/>
<path d="M139.832 200.968L140.274 201.538C140.25 201.533 140.225 201.529 140.199 201.526L140.059 201.508L139.619 200.941L139.832 200.968Z" fill="#5A67D8"/>
<path d="M141.572 203.456L141.206 202.985C141.216 202.942 141.225 202.898 141.23 202.853C141.233 202.828 141.236 202.803 141.237 202.777L141.64 203.297C141.62 203.351 141.597 203.404 141.572 203.456Z" fill="#5A67D8"/>
<path d="M138.741 200.831L139.181 201.397L138.967 201.371L138.527 200.804L138.741 200.831Z" fill="#5A67D8"/>
<path d="M140.293 202.83C140.262 202.871 140.222 202.904 140.175 202.927L139.769 202.403C139.802 202.364 139.844 202.333 139.892 202.313L140.293 202.83Z" fill="#5A67D8"/>
<path d="M141.091 204.044C141.081 204.052 141.071 204.059 141.061 204.067L140.75 203.666C140.76 203.659 140.77 203.651 140.78 203.643C140.81 203.62 140.839 203.595 140.867 203.569L141.179 203.971C141.151 203.996 141.121 204.021 141.091 204.044Z" fill="#5A67D8"/>
<path d="M137.626 200.69L138.066 201.257L137.852 201.23L137.412 200.664L137.626 200.69Z" fill="#5A67D8"/>
<path d="M140.467 204.35C140.412 204.364 140.356 204.375 140.3 204.383L139.914 203.885C139.979 203.893 140.046 203.895 140.112 203.892L140.467 204.35Z" fill="#5A67D8"/>
<path d="M133.113 200.669C133.057 200.676 133 200.686 132.945 200.701L132.617 200.278C132.666 200.257 132.716 200.24 132.768 200.224L133.113 200.669Z" fill="#5A67D8"/>
<path d="M135.585 203.852L135.371 203.825L134.931 203.259L135.145 203.285L135.585 203.852Z" fill="#5A67D8"/>
<path d="M132.301 201.139L131.982 200.729C132.016 200.69 132.051 200.653 132.089 200.618L132.402 201.021C132.366 201.058 132.332 201.098 132.301 201.139Z" fill="#5A67D8"/>
<path d="M133.127 202.093C133.109 202.107 133.089 202.119 133.069 202.129L132.663 201.605C132.696 201.566 132.738 201.535 132.785 201.515L133.187 202.032C133.169 202.055 133.149 202.075 133.127 202.093Z" fill="#5A67D8"/>
<path d="M134.493 203.715L134.28 203.688L133.84 203.121L134.053 203.148L134.493 203.715Z" fill="#5A67D8"/>
<path d="M132.118 202.2L131.591 201.521C131.603 201.458 131.619 201.395 131.639 201.334L132.066 201.885C132.069 201.992 132.087 202.098 132.118 202.2Z" fill="#5A67D8"/>
<path d="M133.378 203.574L133.164 203.547L132.633 202.864C132.725 202.919 132.823 202.963 132.926 202.992L133.378 203.574Z" fill="#5A67D8"/>
<path d="M132.5 185.796L131.387 182.192C131.216 181.642 131.272 181.046 131.541 180.536C131.811 180.026 132.271 179.644 132.822 179.474C132.871 179.459 132.92 179.445 132.969 179.434C133.049 179.415 133.13 179.4 133.212 179.391C133.511 179.355 133.814 179.383 134.101 179.472C134.164 179.491 134.226 179.513 134.287 179.538C134.352 179.565 134.416 179.595 134.479 179.628C134.656 179.721 134.819 179.838 134.963 179.975C135.013 180.022 135.061 180.072 135.106 180.124C135.304 180.352 135.452 180.62 135.541 180.909L136.027 182.481C136.052 182.564 136.044 182.653 136.004 182.729C135.963 182.806 135.895 182.863 135.812 182.888C135.73 182.914 135.641 182.905 135.564 182.865C135.488 182.825 135.431 182.756 135.406 182.673L134.92 181.101C134.883 180.982 134.832 180.869 134.768 180.762C134.626 180.525 134.42 180.332 134.175 180.203C134.113 180.17 134.048 180.142 133.981 180.117C133.919 180.095 133.855 180.076 133.79 180.062C133.529 180.005 133.259 180.017 133.005 180.097C132.751 180.177 132.522 180.323 132.342 180.519C132.161 180.715 132.036 180.955 131.977 181.215C131.918 181.475 131.929 181.746 132.008 182.001L132.288 182.906L132.785 184.518L133.121 185.604C133.227 185.946 133.45 186.24 133.751 186.434C134.052 186.629 134.412 186.711 134.767 186.667C134.852 186.657 134.938 186.681 135.005 186.734C135.073 186.787 135.116 186.865 135.127 186.95C135.137 187.035 135.114 187.121 135.062 187.188C135.009 187.256 134.932 187.301 134.847 187.312C134.34 187.375 133.828 187.258 133.398 186.98C132.969 186.703 132.651 186.284 132.5 185.796Z" fill="#4A5568"/>
<path d="M135.041 191.865C135.027 191.857 135.012 191.849 134.998 191.842C134.75 191.704 134.531 191.519 134.354 191.297C134.309 191.24 134.266 191.181 134.227 191.12C134.12 190.953 134.037 190.773 133.979 190.584L133.493 189.011C133.468 188.929 133.476 188.84 133.516 188.764C133.557 188.688 133.625 188.631 133.708 188.605C133.79 188.58 133.879 188.588 133.955 188.628C134.032 188.668 134.089 188.737 134.114 188.82L134.6 190.392C134.601 190.397 134.603 190.401 134.604 190.406C134.72 190.77 134.969 191.078 135.302 191.266C135.316 191.274 135.33 191.282 135.344 191.29C135.388 191.313 135.433 191.333 135.478 191.352C135.805 191.486 136.168 191.503 136.506 191.398C136.537 191.388 136.568 191.378 136.598 191.366C136.944 191.234 137.23 190.981 137.403 190.654C137.576 190.326 137.624 189.947 137.538 189.587C137.53 189.555 137.521 189.524 137.512 189.492L136.399 185.889C136.279 185.503 136.011 185.18 135.654 184.991C135.297 184.803 134.879 184.764 134.493 184.882C134.411 184.908 134.321 184.899 134.245 184.859C134.169 184.819 134.112 184.75 134.086 184.668C134.061 184.585 134.069 184.496 134.109 184.42C134.15 184.344 134.219 184.286 134.301 184.261C134.852 184.091 135.448 184.147 135.957 184.417C136.467 184.686 136.849 185.146 137.02 185.697L138.133 189.3C138.23 189.614 138.254 189.945 138.205 190.269C138.155 190.593 138.033 190.902 137.848 191.172C137.662 191.442 137.418 191.667 137.133 191.83C136.849 191.993 136.531 192.089 136.204 192.112C136.13 192.117 136.056 192.119 135.981 192.116C135.702 192.107 135.428 192.043 135.173 191.929C135.128 191.909 135.084 191.888 135.041 191.865Z" fill="#4A5568"/>
<path d="M135.935 190.253C135.91 190.24 135.885 190.223 135.863 190.205C135.785 190.142 135.732 190.053 135.713 189.955C135.693 189.857 135.708 189.756 135.754 189.667C135.801 189.579 135.877 189.509 135.969 189.47C136.061 189.431 136.164 189.425 136.259 189.453C136.323 189.472 136.381 189.505 136.43 189.549C136.508 189.62 136.557 189.717 136.569 189.822C136.581 189.927 136.554 190.033 136.493 190.119C136.432 190.205 136.342 190.267 136.239 190.291C136.137 190.316 136.029 190.303 135.935 190.253Z" fill="#4A5568"/>
<path d="M133.113 181.53C133.087 181.516 133.063 181.5 133.04 181.482C132.963 181.418 132.91 181.33 132.89 181.232C132.87 181.134 132.885 181.033 132.932 180.944C132.978 180.856 133.054 180.786 133.146 180.747C133.238 180.708 133.341 180.702 133.437 180.73C133.5 180.749 133.558 180.782 133.607 180.826C133.685 180.897 133.735 180.994 133.746 181.099C133.758 181.204 133.731 181.31 133.67 181.396C133.61 181.482 133.519 181.544 133.417 181.568C133.314 181.593 133.206 181.579 133.113 181.53Z" fill="#4A5568"/>
<path d="M137.969 188.769L137.538 189.587C137.53 189.555 137.521 189.524 137.512 189.492L137.458 189.319L137.888 188.506L137.969 188.769Z" fill="#319795"/>
<path d="M135.981 192.116L136.339 191.44C136.395 191.429 136.451 191.415 136.506 191.398C136.537 191.388 136.568 191.378 136.598 191.366L136.204 192.112C136.13 192.117 136.056 192.119 135.981 192.116Z" fill="#319795"/>
<path d="M137.553 187.422L137.123 188.235L137.042 187.971L137.471 187.158L137.553 187.422Z" fill="#319795"/>
<path d="M136.037 190.292C135.973 190.276 135.914 190.247 135.863 190.205L136.259 189.453C136.323 189.472 136.381 189.505 136.43 189.549L136.037 190.292Z" fill="#319795"/>
<path d="M135.041 191.865C135.026 191.857 135.012 191.85 134.998 191.842L135.302 191.266C135.316 191.274 135.33 191.282 135.344 191.29C135.388 191.313 135.432 191.333 135.478 191.352L135.173 191.929C135.128 191.909 135.084 191.888 135.041 191.865Z" fill="#319795"/>
<path d="M137.128 186.045L136.698 186.858L136.617 186.594L137.046 185.781L137.128 186.045Z" fill="#319795"/>
<path d="M134.354 191.297C134.309 191.24 134.266 191.181 134.227 191.12L134.604 190.406C134.63 190.487 134.662 190.565 134.701 190.64L134.354 191.297Z" fill="#319795"/>
<path d="M134.768 180.762C134.731 180.699 134.689 180.64 134.642 180.583L134.963 179.975C135.013 180.022 135.061 180.072 135.106 180.124L134.768 180.762Z" fill="#319795"/>
<path d="M132.356 185.331L132.275 185.067L132.704 184.254L132.785 184.518L132.356 185.331Z" fill="#319795"/>
<path d="M133.79 180.062L134.101 179.472C134.164 179.491 134.226 179.513 134.287 179.538L133.981 180.117C133.919 180.094 133.855 180.076 133.79 180.062Z" fill="#319795"/>
<path d="M133.113 181.53C133.087 181.516 133.062 181.5 133.04 181.482L133.437 180.73C133.5 180.749 133.558 180.782 133.607 180.826L133.215 181.569C133.179 181.56 133.145 181.547 133.113 181.53Z" fill="#319795"/>
<path d="M131.94 183.983L131.858 183.72L132.288 182.906L132.369 183.17L131.94 183.983Z" fill="#319795"/>
<path d="M132.454 180.409L132.969 179.434C133.049 179.415 133.13 179.4 133.212 179.391L132.795 180.182C132.672 180.241 132.557 180.318 132.454 180.409Z" fill="#319795"/>
<path d="M131.515 182.606L131.433 182.343L131.951 181.361C131.934 181.497 131.936 181.635 131.956 181.771L131.515 182.606Z" fill="#319795"/>
<path d="M104.766 177.84L109.014 176.371C109.664 176.147 110.376 176.189 110.994 176.49C111.612 176.79 112.085 177.324 112.31 177.973C112.33 178.031 112.348 178.089 112.363 178.147C112.389 178.241 112.409 178.338 112.424 178.435C112.478 178.789 112.457 179.151 112.363 179.497C112.342 179.572 112.318 179.647 112.291 179.721C112.262 179.799 112.228 179.877 112.191 179.953C112.088 180.167 111.955 180.366 111.797 180.544C111.743 180.605 111.686 180.663 111.626 180.719C111.362 180.964 111.049 181.152 110.708 181.269L108.854 181.91C108.757 181.943 108.651 181.937 108.558 181.892C108.466 181.847 108.395 181.767 108.361 181.67C108.328 181.573 108.334 181.467 108.379 181.374C108.424 181.282 108.504 181.211 108.601 181.177L110.454 180.537C110.594 180.488 110.728 180.423 110.852 180.343C111.129 180.163 111.351 179.911 111.494 179.614C111.531 179.538 111.563 179.46 111.589 179.379C111.614 179.304 111.633 179.227 111.648 179.149C111.705 178.837 111.68 178.515 111.574 178.215C111.469 177.916 111.286 177.649 111.046 177.442C110.805 177.235 110.514 177.095 110.202 177.036C109.89 176.976 109.568 177 109.268 177.104L108.2 177.473L106.3 178.13L105.019 178.573C104.616 178.713 104.275 178.99 104.055 179.356C103.836 179.722 103.752 180.154 103.819 180.576C103.834 180.677 103.808 180.779 103.748 180.862C103.687 180.944 103.597 180.999 103.496 181.015C103.395 181.031 103.292 181.006 103.209 180.947C103.126 180.887 103.07 180.797 103.053 180.696C102.958 180.095 103.078 179.48 103.391 178.957C103.704 178.435 104.191 178.04 104.766 177.84Z" fill="#4A5568"/>
<path d="M97.6382 181.107C97.6465 181.09 97.6551 181.073 97.664 181.056C97.8178 180.755 98.0295 180.487 98.2869 180.267C98.3528 180.211 98.4217 180.158 98.4931 180.109C98.6873 179.975 98.8988 179.868 99.1218 179.791L100.975 179.15C101.072 179.117 101.179 179.124 101.271 179.169C101.364 179.213 101.434 179.293 101.468 179.39C101.501 179.487 101.495 179.594 101.45 179.686C101.405 179.778 101.326 179.849 101.229 179.883L99.3751 180.524C99.3696 180.526 99.364 180.528 99.3587 180.53C98.9289 180.682 98.5726 180.991 98.3613 181.395C98.3523 181.412 98.3437 181.429 98.3353 181.446C98.3096 181.499 98.2865 181.553 98.2662 181.607C98.1192 182.002 98.1143 182.436 98.252 182.834C98.2648 182.871 98.2785 182.907 98.2937 182.942C98.4644 183.349 98.7775 183.68 99.1745 183.873C99.5714 184.066 100.025 184.108 100.451 183.991C100.488 183.981 100.525 183.969 100.562 183.957L104.811 182.488C105.265 182.33 105.639 181.998 105.85 181.565C106.06 181.132 106.09 180.633 105.934 180.178C105.9 180.081 105.906 179.974 105.951 179.882C105.996 179.789 106.076 179.719 106.173 179.685C106.27 179.652 106.377 179.658 106.469 179.703C106.562 179.748 106.633 179.828 106.666 179.925C106.89 180.574 106.847 181.286 106.546 181.904C106.246 182.522 105.713 182.995 105.064 183.22L100.815 184.689C100.446 184.816 100.052 184.859 99.6645 184.813C99.2765 184.767 98.9039 184.633 98.5746 184.423C98.2453 184.213 97.9677 183.931 97.7626 183.599C97.5574 183.266 97.4301 182.892 97.39 182.503C97.3806 182.415 97.376 182.326 97.3762 182.238C97.3763 181.905 97.4411 181.575 97.5669 181.267C97.5889 181.213 97.6126 181.16 97.6382 181.107Z" fill="#4A5568"/>
<path d="M99.5933 182.109C99.6085 182.078 99.6267 182.048 99.6478 182.02C99.7202 181.926 99.8232 181.859 99.9391 181.832C100.055 181.805 100.177 181.818 100.284 181.87C100.391 181.922 100.477 182.01 100.527 182.118C100.577 182.226 100.588 182.348 100.559 182.463C100.539 182.539 100.502 182.61 100.452 182.67C100.37 182.766 100.256 182.829 100.132 182.847C100.007 182.865 99.8805 182.837 99.7751 182.768C99.6697 182.699 99.5931 182.594 99.5596 182.473C99.5262 182.351 99.5381 182.222 99.5933 182.109Z" fill="#4A5568"/>
<path d="M109.872 178.401C109.887 178.37 109.905 178.34 109.926 178.312C109.999 178.218 110.102 178.151 110.218 178.124C110.334 178.096 110.455 178.11 110.563 178.162C110.67 178.214 110.756 178.302 110.806 178.41C110.856 178.518 110.867 178.64 110.837 178.755C110.818 178.831 110.781 178.902 110.73 178.962C110.649 179.058 110.535 179.121 110.411 179.139C110.286 179.157 110.159 179.129 110.054 179.06C109.948 178.991 109.872 178.886 109.838 178.765C109.805 178.643 109.817 178.514 109.872 178.401Z" fill="#4A5568"/>
<path d="M101.441 184.473L100.451 183.991C100.488 183.981 100.525 183.969 100.562 183.957L100.766 183.886L101.752 184.365L101.441 184.473Z" fill="#319795"/>
<path d="M97.3762 182.238L98.196 182.636C98.2109 182.703 98.2297 182.769 98.252 182.834C98.2648 182.871 98.2785 182.907 98.2937 182.942L97.39 182.503C97.3806 182.415 97.376 182.326 97.3762 182.238Z" fill="#319795"/>
<path d="M103.03 183.923L102.044 183.444L102.355 183.337L103.341 183.816L103.03 183.923Z" fill="#319795"/>
<path d="M99.5514 182.232C99.5672 182.155 99.6001 182.083 99.6478 182.02L100.559 182.463C100.539 182.539 100.502 182.61 100.452 182.67L99.5514 182.232Z" fill="#319795"/>
<path d="M97.6382 181.107C97.6465 181.09 97.6551 181.073 97.664 181.056L98.3613 181.395C98.3523 181.412 98.3437 181.429 98.3353 181.446C98.3096 181.499 98.2865 181.553 98.2662 181.607L97.5669 181.267C97.5889 181.213 97.6126 181.16 97.6382 181.107Z" fill="#319795"/>
<path d="M104.653 183.362L103.667 182.883L103.978 182.776L104.964 183.255L104.653 183.362Z" fill="#319795"/>
<path d="M98.2869 180.267C98.3529 180.211 98.4217 180.158 98.4932 180.109L99.3588 180.53C99.2635 180.563 99.1713 180.605 99.083 180.654L98.2869 180.267Z" fill="#319795"/>
<path d="M110.852 180.343C110.925 180.295 110.995 180.243 111.06 180.185L111.797 180.544C111.743 180.605 111.686 180.663 111.626 180.719L110.852 180.343Z" fill="#319795"/>
<path d="M105.315 177.65L105.625 177.543L106.611 178.022L106.3 178.13L105.315 177.65Z" fill="#319795"/>
<path d="M111.648 179.149L112.363 179.497C112.342 179.572 112.318 179.647 112.291 179.72L111.589 179.379C111.614 179.304 111.633 179.227 111.648 179.149Z" fill="#319795"/>
<path d="M109.872 178.401C109.887 178.37 109.905 178.34 109.926 178.312L110.837 178.755C110.818 178.831 110.781 178.902 110.73 178.962L109.83 178.524C109.839 178.481 109.853 178.44 109.872 178.401Z" fill="#319795"/>
<path d="M106.903 177.101L107.214 176.994L108.2 177.473L107.889 177.58L106.903 177.101Z" fill="#319795"/>
<path d="M111.181 177.572L112.363 178.147C112.389 178.241 112.409 178.338 112.424 178.435L111.465 177.969C111.389 177.824 111.294 177.691 111.181 177.572Z" fill="#319795"/>
<path d="M108.526 176.54L108.837 176.432L110.027 177.011C109.864 176.996 109.7 177.003 109.54 177.033L108.526 176.54Z" fill="#319795"/>
<defs>
<filter id="filter0_dd" x="32" y="21.6667" width="42" height="42" filterUnits="userSpaceOnUse" color-interpolation-filters="sRGB">
<feFlood flood-opacity="0" result="BackgroundImageFix"/>
<feColorMatrix in="SourceAlpha" type="matrix" values="0 0 0 0 0 0 0 0 0 0 0 0 0 0 0 0 0 0 127 0"/>
<feOffset dy="2.66667"/>
<feGaussianBlur stdDeviation="2"/>
<feColorMatrix type="matrix" values="0 0 0 0 0 0 0 0 0 0 0 0 0 0 0 0 0 0 0.05 0"/>
<feBlend mode="normal" in2="BackgroundImageFix" result="effect1_dropShadow"/>
<feColorMatrix in="SourceAlpha" type="matrix" values="0 0 0 0 0 0 0 0 0 0 0 0 0 0 0 0 0 0 127 0"/>
<feOffset dy="6.66667"/>
<feGaussianBlur stdDeviation="5"/>
<feColorMatrix type="matrix" values="0 0 0 0 0 0 0 0 0 0 0 0 0 0 0 0 0 0 0.1 0"/>
<feBlend mode="normal" in2="effect1_dropShadow" result="effect2_dropShadow"/>
<feBlend mode="normal" in="SourceGraphic" in2="effect2_dropShadow" result="shape"/>
</filter>
<filter id="filter1_dd" x="0" y="67.6667" width="32" height="32" filterUnits="userSpaceOnUse" color-interpolation-filters="sRGB">
<feFlood flood-opacity="0" result="BackgroundImageFix"/>
<feColorMatrix in="SourceAlpha" type="matrix" values="0 0 0 0 0 0 0 0 0 0 0 0 0 0 0 0 0 0 127 0"/>
<feOffset dy="2.66667"/>
<feGaussianBlur stdDeviation="2"/>
<feColorMatrix type="matrix" values="0 0 0 0 0 0 0 0 0 0 0 0 0 0 0 0 0 0 0.1 0"/>
<feBlend mode="normal" in2="BackgroundImageFix" result="effect1_dropShadow"/>
<feColorMatrix in="SourceAlpha" type="matrix" values="0 0 0 0 0 0 0 0 0 0 0 0 0 0 0 0 0 0 127 0"/>
<feOffset dy="1.33333"/>
<feGaussianBlur stdDeviation="1.33333"/>
<feColorMatrix type="matrix" values="0 0 0 0 0 0 0 0 0 0 0 0 0 0 0 0 0 0 0.06 0"/>
<feBlend mode="normal" in2="effect1_dropShadow" result="effect2_dropShadow"/>
<feBlend mode="normal" in="SourceGraphic" in2="effect2_dropShadow" result="shape"/>
</filter>
<filter id="filter2_dd" x="39" y="104.667" width="30" height="29.4575" filterUnits="userSpaceOnUse" color-interpolation-filters="sRGB">
<feFlood flood-opacity="0" result="BackgroundImageFix"/>
<feColorMatrix in="SourceAlpha" type="matrix" values="0 0 0 0 0 0 0 0 0 0 0 0 0 0 0 0 0 0 127 0"/>
<feOffset dy="2.66667"/>
<feGaussianBlur stdDeviation="2"/>
<feColorMatrix type="matrix" values="0 0 0 0 0 0 0 0 0 0 0 0 0 0 0 0 0 0 0.1 0"/>
<feBlend mode="normal" in2="BackgroundImageFix" result="effect1_dropShadow"/>
<feColorMatrix in="SourceAlpha" type="matrix" values="0 0 0 0 0 0 0 0 0 0 0 0 0 0 0 0 0 0 127 0"/>
<feOffset dy="1.33333"/>
<feGaussianBlur stdDeviation="1.33333"/>
<feColorMatrix type="matrix" values="0 0 0 0 0 0 0 0 0 0 0 0 0 0 0 0 0 0 0.06 0"/>
<feBlend mode="normal" in2="effect1_dropShadow" result="effect2_dropShadow"/>
<feBlend mode="normal" in="SourceGraphic" in2="effect2_dropShadow" result="shape"/>
</filter>
<filter id="filter3_dd" x="123" y="47.6667" width="28" height="23.8775" filterUnits="userSpaceOnUse" color-interpolation-filters="sRGB">
<feFlood flood-opacity="0" result="BackgroundImageFix"/>
<feColorMatrix in="SourceAlpha" type="matrix" values="0 0 0 0 0 0 0 0 0 0 0 0 0 0 0 0 0 0 127 0"/>
<feOffset dy="2.66667"/>
<feGaussianBlur stdDeviation="2"/>
<feColorMatrix type="matrix" values="0 0 0 0 0 0 0 0 0 0 0 0 0 0 0 0 0 0 0.1 0"/>
<feBlend mode="normal" in2="BackgroundImageFix" result="effect1_dropShadow"/>
<feColorMatrix in="SourceAlpha" type="matrix" values="0 0 0 0 0 0 0 0 0 0 0 0 0 0 0 0 0 0 127 0"/>
<feOffset dy="1.33333"/>
<feGaussianBlur stdDeviation="1.33333"/>
<feColorMatrix type="matrix" values="0 0 0 0 0 0 0 0 0 0 0 0 0 0 0 0 0 0 0.06 0"/>
<feBlend mode="normal" in2="effect1_dropShadow" result="effect2_dropShadow"/>
<feBlend mode="normal" in="SourceGraphic" in2="effect2_dropShadow" result="shape"/>
</filter>
<filter id="filter4_dd" x="152.001" y="86.6669" width="31.9984" height="27.5024" filterUnits="userSpaceOnUse" color-interpolation-filters="sRGB">
<feFlood flood-opacity="0" result="BackgroundImageFix"/>
<feColorMatrix in="SourceAlpha" type="matrix" values="0 0 0 0 0 0 0 0 0 0 0 0 0 0 0 0 0 0 127 0"/>
<feOffset dy="2.66612"/>
<feGaussianBlur stdDeviation="1.99959"/>
<feColorMatrix type="matrix" values="0 0 0 0 0 0 0 0 0 0 0 0 0 0 0 0 0 0 0.1 0"/>
<feBlend mode="normal" in2="BackgroundImageFix" result="effect1_dropShadow"/>
<feColorMatrix in="SourceAlpha" type="matrix" values="0 0 0 0 0 0 0 0 0 0 0 0 0 0 0 0 0 0 127 0"/>
<feOffset dy="1.33306"/>
<feGaussianBlur stdDeviation="1.33306"/>
<feColorMatrix type="matrix" values="0 0 0 0 0 0 0 0 0 0 0 0 0 0 0 0 0 0 0.06 0"/>
<feBlend mode="normal" in2="effect1_dropShadow" result="effect2_dropShadow"/>
<feBlend mode="normal" in="SourceGraphic" in2="effect2_dropShadow" result="shape"/>
</filter>
<filter id="filter5_dd" x="202" y="59.6667" width="30" height="24.5002" filterUnits="userSpaceOnUse" color-interpolation-filters="sRGB">
<feFlood flood-opacity="0" result="BackgroundImageFix"/>
<feColorMatrix in="SourceAlpha" type="matrix" values="0 0 0 0 0 0 0 0 0 0 0 0 0 0 0 0 0 0 127 0"/>
<feOffset dy="2.66667"/>
<feGaussianBlur stdDeviation="2"/>
<feColorMatrix type="matrix" values="0 0 0 0 0 0 0 0 0 0 0 0 0 0 0 0 0 0 0.1 0"/>
<feBlend mode="normal" in2="BackgroundImageFix" result="effect1_dropShadow"/>
<feColorMatrix in="SourceAlpha" type="matrix" values="0 0 0 0 0 0 0 0 0 0 0 0 0 0 0 0 0 0 127 0"/>
<feOffset dy="1.33333"/>
<feGaussianBlur stdDeviation="1.33333"/>
<feColorMatrix type="matrix" values="0 0 0 0 0 0 0 0 0 0 0 0 0 0 0 0 0 0 0.06 0"/>
<feBlend mode="normal" in2="effect1_dropShadow" result="effect2_dropShadow"/>
<feBlend mode="normal" in="SourceGraphic" in2="effect2_dropShadow" result="shape"/>
</filter>
<filter id="filter6_dd" x="86.1739" y="0.391305" width="34.6522" height="34.6515" filterUnits="userSpaceOnUse" color-interpolation-filters="sRGB">
<feFlood flood-opacity="0" result="BackgroundImageFix"/>
<feColorMatrix in="SourceAlpha" type="matrix" values="0 0 0 0 0 0 0 0 0 0 0 0 0 0 0 0 0 0 127 0"/>
<feOffset dy="2.08696"/>
<feGaussianBlur stdDeviation="1.56522"/>
<feColorMatrix type="matrix" values="0 0 0 0 0 0 0 0 0 0 0 0 0 0 0 0 0 0 0.05 0"/>
<feBlend mode="normal" in2="BackgroundImageFix" result="effect1_dropShadow"/>
<feColorMatrix in="SourceAlpha" type="matrix" values="0 0 0 0 0 0 0 0 0 0 0 0 0 0 0 0 0 0 127 0"/>
<feOffset dy="5.21739"/>
<feGaussianBlur stdDeviation="3.91304"/>
<feColorMatrix type="matrix" values="0 0 0 0 0 0 0 0 0 0 0 0 0 0 0 0 0 0 0.1 0"/>
<feBlend mode="normal" in2="effect1_dropShadow" result="effect2_dropShadow"/>
<feBlend mode="normal" in="SourceGraphic" in2="effect2_dropShadow" result="shape"/>
</filter>
<filter id="filter7_dd" x="106.422" y="123.807" width="27.1563" height="27.8302" filterUnits="userSpaceOnUse" color-interpolation-filters="sRGB">
<feFlood flood-opacity="0" result="BackgroundImageFix"/>
<feColorMatrix in="SourceAlpha" type="matrix" values="0 0 0 0 0 0 0 0 0 0 0 0 0 0 0 0 0 0 127 0"/>
<feOffset dy="2.38544"/>
<feGaussianBlur stdDeviation="1.78908"/>
<feColorMatrix type="matrix" values="0 0 0 0 0 0 0 0 0 0 0 0 0 0 0 0 0 0 0.1 0"/>
<feBlend mode="normal" in2="BackgroundImageFix" result="effect1_dropShadow"/>
<feColorMatrix in="SourceAlpha" type="matrix" values="0 0 0 0 0 0 0 0 0 0 0 0 0 0 0 0 0 0 127 0"/>
<feOffset dy="1.19272"/>
<feGaussianBlur stdDeviation="1.19272"/>
<feColorMatrix type="matrix" values="0 0 0 0 0 0 0 0 0 0 0 0 0 0 0 0 0 0 0.06 0"/>
<feBlend mode="normal" in2="effect1_dropShadow" result="effect2_dropShadow"/>
<feBlend mode="normal" in="SourceGraphic" in2="effect2_dropShadow" result="shape"/>
</filter>
<filter id="filter8_dd" x="150.895" y="18.6316" width="42.2105" height="30.0389" filterUnits="userSpaceOnUse" color-interpolation-filters="sRGB">
<feFlood flood-opacity="0" result="BackgroundImageFix"/>
<feColorMatrix in="SourceAlpha" type="matrix" values="0 0 0 0 0 0 0 0 0 0 0 0 0 0 0 0 0 0 127 0"/>
<feOffset dy="1.89474"/>
<feGaussianBlur stdDeviation="1.42105"/>
<feColorMatrix type="matrix" values="0 0 0 0 0 0 0 0 0 0 0 0 0 0 0 0 0 0 0.05 0"/>
<feBlend mode="normal" in2="BackgroundImageFix" result="effect1_dropShadow"/>
<feColorMatrix in="SourceAlpha" type="matrix" values="0 0 0 0 0 0 0 0 0 0 0 0 0 0 0 0 0 0 127 0"/>
<feOffset dy="4.73684"/>
<feGaussianBlur stdDeviation="3.55263"/>
<feColorMatrix type="matrix" values="0 0 0 0 0 0 0 0 0 0 0 0 0 0 0 0 0 0 0.1 0"/>
<feBlend mode="normal" in2="effect1_dropShadow" result="effect2_dropShadow"/>
<feBlend mode="normal" in="SourceGraphic" in2="effect2_dropShadow" result="shape"/>
</filter>
<filter id="filter9_dd" x="197.164" y="107.721" width="23.0019" height="27.6711" filterUnits="userSpaceOnUse" color-interpolation-filters="sRGB">
<feFlood flood-opacity="0" result="BackgroundImageFix"/>
<feColorMatrix in="SourceAlpha" type="matrix" values="0 0 0 0 0 0 0 0 0 0 0 0 0 0 0 0 0 0 127 0"/>
<feOffset dy="2.55703"/>
<feGaussianBlur stdDeviation="1.91777"/>
<feColorMatrix type="matrix" values="0 0 0 0 0 0 0 0 0 0 0 0 0 0 0 0 0 0 0.1 0"/>
<feBlend mode="normal" in2="BackgroundImageFix" result="effect1_dropShadow"/>
<feColorMatrix in="SourceAlpha" type="matrix" values="0 0 0 0 0 0 0 0 0 0 0 0 0 0 0 0 0 0 127 0"/>
<feOffset dy="1.27852"/>
<feGaussianBlur stdDeviation="1.27852"/>
<feColorMatrix type="matrix" values="0 0 0 0 0 0 0 0 0 0 0 0 0 0 0 0 0 0 0.06 0"/>
<feBlend mode="normal" in2="effect1_dropShadow" result="effect2_dropShadow"/>
<feBlend mode="normal" in="SourceGraphic" in2="effect2_dropShadow" result="shape"/>
</filter>
<filter id="filter10_dd" x="83.2105" y="73.7368" width="22.5789" height="27.9316" filterUnits="userSpaceOnUse" color-interpolation-filters="sRGB">
<feFlood flood-opacity="0" result="BackgroundImageFix"/>
<feColorMatrix in="SourceAlpha" type="matrix" values="0 0 0 0 0 0 0 0 0 0 0 0 0 0 0 0 0 0 127 0"/>
<feOffset dy="2.52632"/>
<feGaussianBlur stdDeviation="1.89474"/>
<feColorMatrix type="matrix" values="0 0 0 0 0 0 0 0 0 0 0 0 0 0 0 0 0 0 0.1 0"/>
<feBlend mode="normal" in2="BackgroundImageFix" result="effect1_dropShadow"/>
<feColorMatrix in="SourceAlpha" type="matrix" values="0 0 0 0 0 0 0 0 0 0 0 0 0 0 0 0 0 0 127 0"/>
<feOffset dy="1.26316"/>
<feGaussianBlur stdDeviation="1.26316"/>
<feColorMatrix type="matrix" values="0 0 0 0 0 0 0 0 0 0 0 0 0 0 0 0 0 0 0.06 0"/>
<feBlend mode="normal" in2="effect1_dropShadow" result="effect2_dropShadow"/>
<feBlend mode="normal" in="SourceGraphic" in2="effect2_dropShadow" result="shape"/>
</filter>
<filter id="filter11_dd" x="59.5406" y="176.735" width="120.919" height="93.1271" filterUnits="userSpaceOnUse" color-interpolation-filters="sRGB">
<feFlood flood-opacity="0" result="BackgroundImageFix"/>
<feColorMatrix in="SourceAlpha" type="matrix" values="0 0 0 0 0 0 0 0 0 0 0 0 0 0 0 0 0 0 127 0"/>
<feOffset dy="0.819788"/>
<feGaussianBlur stdDeviation="1.22968"/>
<feColorMatrix type="matrix" values="0 0 0 0 0 0 0 0 0 0 0 0 0 0 0 0 0 0 0.1 0"/>
<feBlend mode="normal" in2="BackgroundImageFix" result="effect1_dropShadow"/>
<feColorMatrix in="SourceAlpha" type="matrix" values="0 0 0 0 0 0 0 0 0 0 0 0 0 0 0 0 0 0 127 0"/>
<feOffset dy="0.819788"/>
<feGaussianBlur stdDeviation="0.819788"/>
<feColorMatrix type="matrix" values="0 0 0 0 0 0 0 0 0 0 0 0 0 0 0 0 0 0 0.06 0"/>
<feBlend mode="normal" in2="effect1_dropShadow" result="effect2_dropShadow"/>
<feBlend mode="normal" in="SourceGraphic" in2="effect2_dropShadow" result="shape"/>
</filter>
</defs>
</svg>
