<svg width="399" height="114" viewBox="0 0 399 114" fill="none" xmlns="http://www.w3.org/2000/svg">
<path d="M1 1H398V113.028H1V1Z" fill="url(#paint0_linear)"/>
<path d="M1 113.028V51.8344M1 51.8344V17C1 8.16343 8.16345 1 17 1H382C390.837 1 398 8.16344 398 17V51.8344M1 51.8344H398M398 51.8344V113" stroke="#A0AEC0" stroke-width="2"/>
<circle cx="27" cy="27.5" r="8" fill="#FC8181"/>
<circle cx="49" cy="27.5" r="8" fill="#F6E05E"/>
<circle cx="71" cy="27.5" r="8" fill="#68D391"/>
<path d="M128.5 11H369.5C378.06 11 385 17.9396 385 26.5C385 35.0604 378.06 42 369.5 42H128.5C119.94 42 113 35.0604 113 26.5C113 17.9396 119.94 11 128.5 11Z" fill="white" stroke="#A0AEC0" stroke-width="2"/>
<path d="M129.148 31.5H131.17V30.125H131.29C131.614 30.7614 132.29 31.6534 133.79 31.6534C135.847 31.6534 137.386 30.0227 137.386 27.1477C137.386 24.2386 135.801 22.6591 133.784 22.6591C132.244 22.6591 131.602 23.5852 131.29 24.2159H131.205V19.8636H129.148V31.5ZM131.165 27.1364C131.165 25.4432 131.892 24.3466 133.216 24.3466C134.585 24.3466 135.29 25.5114 135.29 27.1364C135.29 28.7727 134.574 29.9659 133.216 29.9659C131.903 29.9659 131.165 28.8295 131.165 27.1364ZM139.135 31.5H141.192V26.3693C141.192 25.2614 142.027 24.4773 143.158 24.4773C143.504 24.4773 143.936 24.5398 144.112 24.5966V22.7045C143.925 22.6705 143.601 22.6477 143.374 22.6477C142.374 22.6477 141.538 23.2159 141.22 24.2273H141.129V22.7727H139.135V31.5ZM147.818 31.6761C149.188 31.6761 150.006 31.0341 150.381 30.3011H150.449V31.5H152.426V25.6591C152.426 23.3523 150.545 22.6591 148.881 22.6591C147.045 22.6591 145.636 23.4773 145.182 25.0682L147.102 25.3409C147.307 24.7443 147.886 24.233 148.892 24.233C149.847 24.233 150.369 24.7216 150.369 25.5795V25.6136C150.369 26.2045 149.75 26.233 148.21 26.3977C146.517 26.5795 144.898 27.0852 144.898 29.0511C144.898 30.767 146.153 31.6761 147.818 31.6761ZM148.352 30.1648C147.494 30.1648 146.881 29.7727 146.881 29.017C146.881 28.2273 147.568 27.8977 148.489 27.767C149.028 27.6932 150.108 27.5568 150.375 27.3409V28.3693C150.375 29.3409 149.591 30.1648 148.352 30.1648ZM158.301 31.6705C160.494 31.6705 161.892 30.3693 162.04 28.517H160.074C159.898 29.4545 159.222 29.9943 158.318 29.9943C157.034 29.9943 156.205 28.9205 156.205 27.1364C156.205 25.375 157.051 24.3182 158.318 24.3182C159.307 24.3182 159.915 24.9545 160.074 25.7955H162.04C161.898 23.9034 160.42 22.6591 158.29 22.6591C155.733 22.6591 154.119 24.5057 154.119 27.1705C154.119 29.8125 155.693 31.6705 158.301 31.6705ZM167.592 31.6705C169.626 31.6705 171.024 30.6761 171.388 29.1591L169.467 28.9432C169.189 29.6818 168.507 30.0682 167.621 30.0682C166.291 30.0682 165.411 29.1932 165.393 27.6989H171.473V27.0682C171.473 24.0057 169.632 22.6591 167.484 22.6591C164.984 22.6591 163.354 24.4943 163.354 27.1875C163.354 29.9261 164.962 31.6705 167.592 31.6705ZM165.399 26.3125C165.462 25.1989 166.286 24.2614 167.513 24.2614C168.695 24.2614 169.49 25.125 169.501 26.3125H165.399ZM174.48 31.625C175.151 31.625 175.724 31.0682 175.73 30.375C175.724 29.6932 175.151 29.1364 174.48 29.1364C173.787 29.1364 173.224 29.6932 173.23 30.375C173.224 31.0682 173.787 31.625 174.48 31.625ZM182.212 22.7727H180.49V20.6818H178.433V22.7727H177.195V24.3636H178.433V29.2159C178.422 30.858 179.615 31.6648 181.161 31.6193C181.746 31.6023 182.149 31.4886 182.371 31.4148L182.024 29.8068C181.911 29.8352 181.678 29.8864 181.422 29.8864C180.905 29.8864 180.49 29.7045 180.49 28.875V24.3636H182.212V22.7727ZM187.645 31.6705C190.202 31.6705 191.827 29.8693 191.827 27.1705C191.827 24.4659 190.202 22.6591 187.645 22.6591C185.088 22.6591 183.463 24.4659 183.463 27.1705C183.463 29.8693 185.088 31.6705 187.645 31.6705ZM187.656 30.0227C186.241 30.0227 185.548 28.7614 185.548 27.1648C185.548 25.5682 186.241 24.2898 187.656 24.2898C189.048 24.2898 189.741 25.5682 189.741 27.1648C189.741 28.7614 189.048 30.0227 187.656 30.0227Z" fill="#4A5568"/>
<rect x="237" y="57" width="34" height="30" rx="4" fill="#C53030"/>
<rect x="240" y="60" width="28" height="24" rx="4" fill="#1A202C"/>
<path d="M254.258 66V78M246 71.5H262" stroke="white" stroke-width="2" stroke-linecap="round" stroke-linejoin="round"/>
<path d="M261 85L277 97.279L270.049 98.449L274.374 107.266L270.778 109L266.428 100.121L261 104.823V85Z" fill="white" stroke="#2D3748" stroke-width="2" stroke-linecap="round" stroke-linejoin="round"/>
<defs>
<linearGradient id="paint0_linear" x1="199.5" y1="1" x2="199.5" y2="113.028" gradientUnits="userSpaceOnUse">
<stop offset="0.697917" stop-color="white"/>
<stop offset="1" stop-color="#F7FAFC"/>
</linearGradient>
</defs>
</svg>
