<svg width="398" height="113" viewBox="0 0 398 113" fill="none" xmlns="http://www.w3.org/2000/svg">
<path d="M1 17C1 8.16344 8.16345 1 17 1H398V113H1V17Z" fill="url(#paint0_radial_1302_14905)"/>
<rect x="1" y="52" width="397" height="61" fill="#1F2937"/>
<path d="M113 26.5C113 17.9396 119.94 11 128.5 11H398V42H128.5C119.94 42 113 35.0604 113 26.5V26.5Z" fill="#1F2937"/>
<path d="M1 113V51.8344M398 1H17C8.16345 1 1 8.16343 1 17V51.8344M1 51.8344H398" stroke="#4B5563" stroke-width="2"/>
<circle cx="27" cy="27.5" r="8" fill="#FC8181"/>
<circle cx="49" cy="27.5" r="8" fill="#F6E05E"/>
<circle cx="71" cy="27.5" r="8" fill="#68D391"/>
<path d="M398 11H128.5C119.94 11 113 17.9396 113 26.5V26.5C113 35.0604 119.94 42 128.5 42H398" stroke="#4B5563" stroke-width="2"/>
<path d="M133.148 31.5V19.8636H135.205V24.2159H135.29C135.396 24.0038 135.545 23.7784 135.739 23.5398C135.932 23.2973 136.193 23.0909 136.523 22.9205C136.852 22.7462 137.273 22.6591 137.784 22.6591C138.458 22.6591 139.066 22.8314 139.608 23.1761C140.153 23.517 140.585 24.0227 140.903 24.6932C141.225 25.3598 141.386 26.178 141.386 27.1477C141.386 28.1061 141.229 28.9205 140.915 29.5909C140.6 30.2614 140.172 30.7727 139.631 31.125C139.089 31.4773 138.475 31.6534 137.79 31.6534C137.29 31.6534 136.875 31.5701 136.545 31.4034C136.216 31.2367 135.951 31.036 135.75 30.8011C135.553 30.5625 135.4 30.3371 135.29 30.125H135.17V31.5H133.148ZM135.165 27.1364C135.165 27.7008 135.244 28.1951 135.403 28.6193C135.566 29.0436 135.799 29.375 136.102 29.6136C136.409 29.8485 136.78 29.9659 137.216 29.9659C137.67 29.9659 138.051 29.8447 138.358 29.6023C138.665 29.3561 138.896 29.0208 139.051 28.5966C139.21 28.1686 139.29 27.6818 139.29 27.1364C139.29 26.5947 139.212 26.1136 139.057 25.6932C138.902 25.2727 138.67 24.9432 138.364 24.7045C138.057 24.4659 137.674 24.3466 137.216 24.3466C136.777 24.3466 136.403 24.4621 136.097 24.6932C135.79 24.9242 135.557 25.2481 135.398 25.6648C135.242 26.0814 135.165 26.572 135.165 27.1364ZM143.135 31.5V22.7727H145.129V24.2273H145.22C145.379 23.7235 145.652 23.3352 146.038 23.0625C146.429 22.786 146.874 22.6477 147.374 22.6477C147.487 22.6477 147.614 22.6534 147.754 22.6648C147.898 22.6723 148.018 22.6856 148.112 22.7045V24.5966C148.025 24.5663 147.887 24.5398 147.697 24.517C147.512 24.4905 147.332 24.4773 147.158 24.4773C146.783 24.4773 146.446 24.5587 146.146 24.7216C145.851 24.8807 145.618 25.1023 145.447 25.3864C145.277 25.6705 145.192 25.9981 145.192 26.3693V31.5H143.135ZM151.834 31.6761C151.281 31.6761 150.783 31.5777 150.339 31.3807C149.9 31.1799 149.552 30.8845 149.294 30.4943C149.04 30.1042 148.913 29.6231 148.913 29.0511C148.913 28.5587 149.004 28.1515 149.186 27.8295C149.368 27.5076 149.616 27.25 149.93 27.0568C150.245 26.8636 150.599 26.7178 150.993 26.6193C151.391 26.517 151.802 26.4432 152.226 26.3977C152.737 26.3447 153.152 26.2973 153.47 26.2557C153.788 26.2102 154.019 26.142 154.163 26.0511C154.311 25.9564 154.385 25.8106 154.385 25.6136V25.5795C154.385 25.1515 154.258 24.8201 154.004 24.5852C153.75 24.3504 153.385 24.233 152.908 24.233C152.404 24.233 152.004 24.3428 151.709 24.5625C151.417 24.7822 151.22 25.0417 151.118 25.3409L149.197 25.0682C149.349 24.5379 149.599 24.0947 149.947 23.7386C150.296 23.3788 150.722 23.1098 151.226 22.9318C151.73 22.75 152.286 22.6591 152.896 22.6591C153.317 22.6591 153.735 22.7083 154.152 22.8068C154.569 22.9053 154.949 23.0682 155.294 23.2955C155.639 23.5189 155.915 23.8239 156.124 24.2102C156.336 24.5966 156.442 25.0795 156.442 25.6591V31.5H154.464V30.3011H154.396C154.271 30.5436 154.095 30.7708 153.868 30.983C153.644 31.1913 153.362 31.3598 153.021 31.4886C152.684 31.6136 152.288 31.6761 151.834 31.6761ZM152.368 30.1648C152.781 30.1648 153.139 30.0833 153.442 29.9205C153.745 29.7538 153.978 29.5341 154.141 29.2614C154.307 28.9886 154.391 28.6913 154.391 28.3693V27.3409C154.326 27.3939 154.216 27.4432 154.061 27.4886C153.91 27.5341 153.739 27.5739 153.55 27.608C153.36 27.642 153.173 27.6723 152.987 27.6989C152.802 27.7254 152.641 27.7481 152.504 27.767C152.197 27.8087 151.923 27.8769 151.68 27.9716C151.438 28.0663 151.247 28.1989 151.107 28.3693C150.966 28.536 150.896 28.7519 150.896 29.017C150.896 29.3958 151.035 29.6818 151.311 29.875C151.588 30.0682 151.94 30.1648 152.368 30.1648ZM162.317 31.6705C161.446 31.6705 160.697 31.4792 160.072 31.0966C159.451 30.714 158.972 30.1856 158.635 29.5114C158.302 28.8333 158.135 28.053 158.135 27.1705C158.135 26.2841 158.305 25.5019 158.646 24.8239C158.987 24.142 159.468 23.6117 160.089 23.233C160.714 22.8504 161.453 22.6591 162.305 22.6591C163.014 22.6591 163.641 22.7898 164.186 23.0511C164.735 23.3087 165.173 23.6742 165.499 24.1477C165.824 24.6174 166.01 25.1667 166.055 25.7955H164.089C164.01 25.375 163.821 25.0246 163.521 24.7443C163.226 24.4602 162.83 24.3182 162.334 24.3182C161.913 24.3182 161.544 24.4318 161.226 24.6591C160.908 24.8826 160.66 25.2045 160.482 25.625C160.307 26.0455 160.22 26.5492 160.22 27.1364C160.22 27.7311 160.307 28.2424 160.482 28.6705C160.656 29.0947 160.9 29.4223 161.214 29.6534C161.533 29.8807 161.906 29.9943 162.334 29.9943C162.637 29.9943 162.908 29.9375 163.146 29.8239C163.389 29.7064 163.591 29.5379 163.754 29.3182C163.917 29.0985 164.029 28.8314 164.089 28.517H166.055C166.006 29.1345 165.824 29.6818 165.51 30.1591C165.196 30.6326 164.768 31.0038 164.226 31.2727C163.684 31.5379 163.048 31.6705 162.317 31.6705ZM171.608 31.6705C170.733 31.6705 169.977 31.4886 169.341 31.125C168.708 30.7576 168.222 30.2386 167.881 29.5682C167.54 28.8939 167.369 28.1004 167.369 27.1875C167.369 26.2898 167.54 25.5019 167.881 24.8239C168.225 24.142 168.706 23.6117 169.324 23.233C169.941 22.8504 170.667 22.6591 171.5 22.6591C172.038 22.6591 172.545 22.7462 173.023 22.9205C173.504 23.0909 173.928 23.3561 174.295 23.7159C174.667 24.0758 174.958 24.5341 175.17 25.0909C175.383 25.6439 175.489 26.303 175.489 27.0682V27.6989H168.335V26.3125H173.517C173.513 25.9186 173.428 25.5682 173.261 25.2614C173.095 24.9508 172.862 24.7064 172.562 24.5284C172.267 24.3504 171.922 24.2614 171.528 24.2614C171.108 24.2614 170.739 24.3636 170.42 24.5682C170.102 24.7689 169.854 25.0341 169.676 25.3636C169.502 25.6894 169.413 26.0473 169.409 26.4375V27.6477C169.409 28.1553 169.502 28.5909 169.688 28.9545C169.873 29.3144 170.133 29.5909 170.466 29.7841C170.799 29.9735 171.189 30.0682 171.636 30.0682C171.936 30.0682 172.206 30.0265 172.449 29.9432C172.691 29.8561 172.902 29.7292 173.08 29.5625C173.258 29.3958 173.392 29.1894 173.483 28.9432L175.403 29.1591C175.282 29.6667 175.051 30.1098 174.71 30.4886C174.373 30.8636 173.941 31.1553 173.415 31.3636C172.888 31.5682 172.286 31.6705 171.608 31.6705ZM178.496 31.625C178.151 31.625 177.856 31.5038 177.609 31.2614C177.363 31.0189 177.242 30.7235 177.246 30.375C177.242 30.0341 177.363 29.7424 177.609 29.5C177.856 29.2576 178.151 29.1364 178.496 29.1364C178.829 29.1364 179.119 29.2576 179.365 29.5C179.615 29.7424 179.742 30.0341 179.746 30.375C179.742 30.6061 179.681 30.8163 179.564 31.0057C179.45 31.1951 179.299 31.3466 179.109 31.4602C178.924 31.5701 178.719 31.625 178.496 31.625ZM186.227 22.7727V24.3636H181.21V22.7727H186.227ZM182.449 20.6818H184.506V28.875C184.506 29.1515 184.547 29.3636 184.631 29.5114C184.718 29.6553 184.831 29.7538 184.972 29.8068C185.112 29.8598 185.267 29.8864 185.438 29.8864C185.566 29.8864 185.684 29.8769 185.79 29.858C185.9 29.839 185.983 29.822 186.04 29.8068L186.386 31.4148C186.277 31.4527 186.119 31.4943 185.915 31.5398C185.714 31.5852 185.468 31.6117 185.176 31.6193C184.661 31.6345 184.197 31.5568 183.784 31.3864C183.371 31.2121 183.044 30.9432 182.801 30.5795C182.563 30.2159 182.445 29.7614 182.449 29.2159V20.6818ZM191.661 31.6705C190.808 31.6705 190.07 31.483 189.445 31.108C188.82 30.733 188.335 30.2083 187.99 29.5341C187.649 28.8598 187.479 28.072 187.479 27.1705C187.479 26.2689 187.649 25.4792 187.99 24.8011C188.335 24.1231 188.82 23.5966 189.445 23.2216C190.07 22.8466 190.808 22.6591 191.661 22.6591C192.513 22.6591 193.251 22.8466 193.876 23.2216C194.501 23.5966 194.984 24.1231 195.325 24.8011C195.67 25.4792 195.842 26.2689 195.842 27.1705C195.842 28.072 195.67 28.8598 195.325 29.5341C194.984 30.2083 194.501 30.733 193.876 31.108C193.251 31.483 192.513 31.6705 191.661 31.6705ZM191.672 30.0227C192.134 30.0227 192.52 29.8958 192.831 29.642C193.142 29.3845 193.373 29.0398 193.524 28.608C193.679 28.1761 193.757 27.6951 193.757 27.1648C193.757 26.6307 193.679 26.1477 193.524 25.7159C193.373 25.2803 193.142 24.9337 192.831 24.6761C192.52 24.4186 192.134 24.2898 191.672 24.2898C191.198 24.2898 190.804 24.4186 190.49 24.6761C190.179 24.9337 189.946 25.2803 189.791 25.7159C189.64 26.1477 189.564 26.6307 189.564 27.1648C189.564 27.6951 189.64 28.1761 189.791 28.608C189.946 29.0398 190.179 29.3845 190.49 29.642C190.804 29.8958 191.198 30.0227 191.672 30.0227ZM202.338 19.3182L198.588 33.25H196.787L200.537 19.3182H202.338Z" fill="#F87171"/>
<path d="M205.707 26.3864V31.5H203.651V19.8636H205.662V24.2557H205.764C205.969 23.7633 206.285 23.375 206.713 23.0909C207.145 22.803 207.694 22.6591 208.361 22.6591C208.967 22.6591 209.495 22.786 209.946 23.0398C210.397 23.2936 210.745 23.6648 210.991 24.1534C211.241 24.642 211.366 25.2386 211.366 25.9432V31.5H209.31V26.2614C209.31 25.6742 209.158 25.2178 208.855 24.892C208.556 24.5625 208.135 24.3977 207.594 24.3977C207.23 24.3977 206.904 24.4773 206.616 24.6364C206.332 24.7917 206.109 25.017 205.946 25.3125C205.787 25.608 205.707 25.9659 205.707 26.3864ZM217.821 22.7727V24.3636H212.804V22.7727H217.821ZM214.043 20.6818H216.099V28.875C216.099 29.1515 216.141 29.3636 216.224 29.5114C216.312 29.6553 216.425 29.7538 216.565 29.8068C216.705 29.8598 216.861 29.8864 217.031 29.8864C217.16 29.8864 217.277 29.8769 217.384 29.858C217.493 29.839 217.577 29.822 217.634 29.8068L217.98 31.4148C217.87 31.4527 217.713 31.4943 217.509 31.5398C217.308 31.5852 217.062 31.6117 216.77 31.6193C216.255 31.6345 215.791 31.5568 215.378 31.3864C214.965 31.2121 214.637 30.9432 214.395 30.5795C214.156 30.2159 214.039 29.7614 214.043 29.2159V20.6818ZM223.899 22.7727V24.3636H218.882V22.7727H223.899ZM220.121 20.6818H222.178V28.875C222.178 29.1515 222.219 29.3636 222.303 29.5114C222.39 29.6553 222.503 29.7538 222.643 29.8068C222.784 29.8598 222.939 29.8864 223.109 29.8864C223.238 29.8864 223.356 29.8769 223.462 29.858C223.571 29.839 223.655 29.822 223.712 29.8068L224.058 31.4148C223.948 31.4527 223.791 31.4943 223.587 31.5398C223.386 31.5852 223.14 31.6117 222.848 31.6193C222.333 31.6345 221.869 31.5568 221.456 31.3864C221.043 31.2121 220.715 30.9432 220.473 30.5795C220.234 30.2159 220.117 29.7614 220.121 29.2159V20.6818ZM225.619 34.7727V22.7727H227.642V24.2159H227.761C227.867 24.0038 228.017 23.7784 228.21 23.5398C228.403 23.2973 228.665 23.0909 228.994 22.9205C229.324 22.7462 229.744 22.6591 230.256 22.6591C230.93 22.6591 231.538 22.8314 232.08 23.1761C232.625 23.517 233.057 24.0227 233.375 24.6932C233.697 25.3598 233.858 26.178 233.858 27.1477C233.858 28.1061 233.701 28.9205 233.386 29.5909C233.072 30.2614 232.644 30.7727 232.102 31.125C231.561 31.4773 230.947 31.6534 230.261 31.6534C229.761 31.6534 229.347 31.5701 229.017 31.4034C228.688 31.2367 228.422 31.036 228.222 30.8011C228.025 30.5625 227.871 30.3371 227.761 30.125H227.676V34.7727H225.619ZM227.636 27.1364C227.636 27.7008 227.716 28.1951 227.875 28.6193C228.038 29.0436 228.271 29.375 228.574 29.6136C228.881 29.8485 229.252 29.9659 229.688 29.9659C230.142 29.9659 230.523 29.8447 230.83 29.6023C231.136 29.3561 231.367 29.0208 231.523 28.5966C231.682 28.1686 231.761 27.6818 231.761 27.1364C231.761 26.5947 231.684 26.1136 231.528 25.6932C231.373 25.2727 231.142 24.9432 230.835 24.7045C230.528 24.4659 230.146 24.3466 229.688 24.3466C229.248 24.3466 228.875 24.4621 228.568 24.6932C228.261 24.9242 228.028 25.2481 227.869 25.6648C227.714 26.0814 227.636 26.572 227.636 27.1364ZM242.517 25.0795L240.642 25.2841C240.589 25.0947 240.496 24.9167 240.364 24.75C240.235 24.5833 240.061 24.4489 239.841 24.3466C239.621 24.2443 239.352 24.1932 239.034 24.1932C238.606 24.1932 238.246 24.286 237.955 24.4716C237.667 24.6572 237.525 24.8977 237.528 25.1932C237.525 25.447 237.617 25.6534 237.807 25.8125C238 25.9716 238.318 26.1023 238.761 26.2045L240.25 26.5227C241.076 26.7008 241.689 26.983 242.091 27.3693C242.496 27.7557 242.701 28.2614 242.705 28.8864C242.701 29.4356 242.54 29.9205 242.222 30.3409C241.907 30.7576 241.47 31.0833 240.909 31.3182C240.348 31.553 239.705 31.6705 238.977 31.6705C237.909 31.6705 237.049 31.447 236.398 31C235.746 30.5492 235.358 29.9223 235.233 29.1193L237.239 28.9261C237.33 29.3201 237.523 29.6174 237.818 29.8182C238.114 30.0189 238.498 30.1193 238.972 30.1193C239.46 30.1193 239.852 30.0189 240.148 29.8182C240.447 29.6174 240.597 29.3693 240.597 29.0739C240.597 28.8239 240.5 28.6174 240.307 28.4545C240.117 28.2917 239.822 28.1667 239.42 28.0795L237.932 27.767C237.095 27.5928 236.475 27.2992 236.074 26.8864C235.672 26.4697 235.473 25.9432 235.477 25.3068C235.473 24.7689 235.619 24.303 235.915 23.9091C236.214 23.5114 236.629 23.2045 237.159 22.9886C237.693 22.7689 238.309 22.6591 239.006 22.6591C240.028 22.6591 240.833 22.8769 241.42 23.3125C242.011 23.7481 242.377 24.3371 242.517 25.0795ZM245.668 31.625C245.323 31.625 245.027 31.5038 244.781 31.2614C244.535 31.0189 244.414 30.7235 244.418 30.375C244.414 30.0341 244.535 29.7424 244.781 29.5C245.027 29.2576 245.323 29.1364 245.668 29.1364C246.001 29.1364 246.291 29.2576 246.537 29.5C246.787 29.7424 246.914 30.0341 246.918 30.375C246.914 30.6061 246.853 30.8163 246.736 31.0057C246.622 31.1951 246.471 31.3466 246.281 31.4602C246.096 31.5701 245.891 31.625 245.668 31.625ZM245.668 25.3977C245.323 25.3977 245.027 25.2765 244.781 25.0341C244.535 24.7879 244.414 24.4924 244.418 24.1477C244.414 23.8068 244.535 23.5152 244.781 23.2727C245.027 23.0265 245.323 22.9034 245.668 22.9034C246.001 22.9034 246.291 23.0265 246.537 23.2727C246.787 23.5152 246.914 23.8068 246.918 24.1477C246.914 24.375 246.853 24.5833 246.736 24.7727C246.622 24.9621 246.471 25.1136 246.281 25.2273C246.096 25.3409 245.891 25.3977 245.668 25.3977ZM253.791 19.3182L250.041 33.25H248.24L251.99 19.3182H253.791ZM259.854 19.3182L256.104 33.25H254.303L258.053 19.3182H259.854ZM263.678 31.6761C263.125 31.6761 262.626 31.5777 262.183 31.3807C261.744 31.1799 261.395 30.8845 261.138 30.4943C260.884 30.1042 260.757 29.6231 260.757 29.0511C260.757 28.5587 260.848 28.1515 261.03 27.8295C261.212 27.5076 261.46 27.25 261.774 27.0568C262.089 26.8636 262.443 26.7178 262.837 26.6193C263.234 26.517 263.645 26.4432 264.07 26.3977C264.581 26.3447 264.996 26.2973 265.314 26.2557C265.632 26.2102 265.863 26.142 266.007 26.0511C266.155 25.9564 266.229 25.8106 266.229 25.6136V25.5795C266.229 25.1515 266.102 24.8201 265.848 24.5852C265.594 24.3504 265.229 24.233 264.751 24.233C264.248 24.233 263.848 24.3428 263.553 24.5625C263.261 24.7822 263.064 25.0417 262.962 25.3409L261.041 25.0682C261.193 24.5379 261.443 24.0947 261.791 23.7386C262.14 23.3788 262.566 23.1098 263.07 22.9318C263.573 22.75 264.13 22.6591 264.74 22.6591C265.161 22.6591 265.579 22.7083 265.996 22.8068C266.412 22.9053 266.793 23.0682 267.138 23.2955C267.482 23.5189 267.759 23.8239 267.967 24.2102C268.179 24.5966 268.286 25.0795 268.286 25.6591V31.5H266.308V30.3011H266.24C266.115 30.5436 265.939 30.7708 265.712 30.983C265.488 31.1913 265.206 31.3598 264.865 31.4886C264.528 31.6136 264.132 31.6761 263.678 31.6761ZM264.212 30.1648C264.625 30.1648 264.982 30.0833 265.286 29.9205C265.589 29.7538 265.821 29.5341 265.984 29.2614C266.151 28.9886 266.234 28.6913 266.234 28.3693V27.3409C266.17 27.3939 266.06 27.4432 265.905 27.4886C265.753 27.5341 265.583 27.5739 265.393 27.608C265.204 27.642 265.017 27.6723 264.831 27.6989C264.645 27.7254 264.484 27.7481 264.348 27.767C264.041 27.8087 263.767 27.8769 263.524 27.9716C263.282 28.0663 263.09 28.1989 262.95 28.3693C262.81 28.536 262.74 28.7519 262.74 29.017C262.74 29.3958 262.878 29.6818 263.155 29.875C263.431 30.0682 263.784 30.1648 264.212 30.1648ZM272.411 26.3864V31.5H270.354V22.7727H272.32V24.2557H272.422C272.623 23.767 272.943 23.3788 273.382 23.0909C273.825 22.803 274.373 22.6591 275.024 22.6591C275.626 22.6591 276.151 22.7879 276.598 23.0455C277.049 23.303 277.397 23.6761 277.643 24.1648C277.893 24.6534 278.017 25.2462 278.013 25.9432V31.5H275.956V26.2614C275.956 25.678 275.804 25.2216 275.501 24.892C275.202 24.5625 274.787 24.3977 274.257 24.3977C273.897 24.3977 273.577 24.4773 273.297 24.6364C273.02 24.7917 272.803 25.017 272.643 25.3125C272.488 25.608 272.411 25.9659 272.411 26.3864ZM281.07 34.7727C280.789 34.7727 280.53 34.75 280.291 34.7045C280.056 34.6629 279.869 34.6136 279.729 34.5568L280.206 32.9545C280.505 33.0417 280.772 33.0833 281.007 33.0795C281.242 33.0758 281.448 33.0019 281.626 32.858C281.808 32.7178 281.962 32.483 282.087 32.1534L282.263 31.6818L279.098 22.7727H281.28L283.291 29.3636H283.382L285.399 22.7727H287.587L284.092 32.5568C283.929 33.0189 283.714 33.4148 283.445 33.7443C283.176 34.0777 282.846 34.3314 282.456 34.5057C282.07 34.6837 281.607 34.7727 281.07 34.7727ZM291.067 19.8636V31.5H289.01V19.8636H291.067ZM293.182 31.5V22.7727H295.239V31.5H293.182ZM294.216 21.5341C293.89 21.5341 293.61 21.4261 293.375 21.2102C293.14 20.9905 293.023 20.7273 293.023 20.4205C293.023 20.1098 293.14 19.8466 293.375 19.6307C293.61 19.411 293.89 19.3011 294.216 19.3011C294.545 19.3011 294.826 19.411 295.057 19.6307C295.292 19.8466 295.409 20.1098 295.409 20.4205C295.409 20.7273 295.292 20.9905 295.057 21.2102C294.826 21.4261 294.545 21.5341 294.216 21.5341ZM299.411 26.3864V31.5H297.354V22.7727H299.32V24.2557H299.422C299.623 23.767 299.943 23.3788 300.382 23.0909C300.825 22.803 301.373 22.6591 302.024 22.6591C302.626 22.6591 303.151 22.7879 303.598 23.0455C304.049 23.303 304.397 23.6761 304.643 24.1648C304.893 24.6534 305.017 25.2462 305.013 25.9432V31.5H302.956V26.2614C302.956 25.678 302.804 25.2216 302.501 24.892C302.202 24.5625 301.787 24.3977 301.257 24.3977C300.897 24.3977 300.577 24.4773 300.297 24.6364C300.02 24.7917 299.803 25.017 299.643 25.3125C299.488 25.608 299.411 25.9659 299.411 26.3864ZM308.979 28.7614L308.973 26.2784H309.303L312.439 22.7727H314.842L310.984 27.0682H310.558L308.979 28.7614ZM307.104 31.5V19.8636H309.161V31.5H307.104ZM312.581 31.5L309.74 27.5284L311.126 26.0795L315.041 31.5H312.581ZM319.649 34.9545C318.911 34.9545 318.276 34.8542 317.746 34.6534C317.215 34.4564 316.789 34.1913 316.467 33.858C316.145 33.5246 315.922 33.1553 315.797 32.75L317.649 32.3011C317.732 32.4716 317.854 32.6402 318.013 32.8068C318.172 32.9773 318.386 33.1174 318.655 33.2273C318.928 33.3409 319.27 33.3977 319.683 33.3977C320.267 33.3977 320.75 33.2557 321.132 32.9716C321.515 32.6913 321.706 32.2292 321.706 31.5852V29.9318H321.604C321.498 30.1439 321.342 30.3617 321.138 30.5852C320.937 30.8087 320.67 30.9962 320.337 31.1477C320.007 31.2992 319.592 31.375 319.092 31.375C318.422 31.375 317.814 31.2178 317.268 30.9034C316.727 30.5852 316.295 30.1117 315.973 29.483C315.655 28.8504 315.496 28.0587 315.496 27.108C315.496 26.1496 315.655 25.3409 315.973 24.6818C316.295 24.0189 316.729 23.517 317.274 23.1761C317.82 22.8314 318.428 22.6591 319.098 22.6591C319.609 22.6591 320.03 22.7462 320.359 22.9205C320.693 23.0909 320.958 23.2973 321.155 23.5398C321.352 23.7784 321.501 24.0038 321.604 24.2159H321.717V22.7727H323.746V31.642C323.746 32.3883 323.568 33.0057 323.212 33.4943C322.856 33.983 322.369 34.3485 321.751 34.5909C321.134 34.8333 320.433 34.9545 319.649 34.9545ZM319.666 29.7614C320.102 29.7614 320.473 29.6553 320.78 29.4432C321.087 29.2311 321.32 28.9261 321.479 28.5284C321.638 28.1307 321.717 27.6534 321.717 27.0966C321.717 26.5473 321.638 26.0663 321.479 25.6534C321.323 25.2405 321.092 24.9205 320.786 24.6932C320.482 24.4621 320.109 24.3466 319.666 24.3466C319.208 24.3466 318.825 24.4659 318.518 24.7045C318.212 24.9432 317.981 25.2708 317.825 25.6875C317.67 26.1004 317.592 26.5701 317.592 27.0966C317.592 27.6307 317.67 28.0985 317.825 28.5C317.984 28.8977 318.217 29.2083 318.524 29.4318C318.835 29.6515 319.215 29.7614 319.666 29.7614ZM329.661 31.6705C328.808 31.6705 328.07 31.483 327.445 31.108C326.82 30.733 326.335 30.2083 325.99 29.5341C325.649 28.8598 325.479 28.072 325.479 27.1705C325.479 26.2689 325.649 25.4792 325.99 24.8011C326.335 24.1231 326.82 23.5966 327.445 23.2216C328.07 22.8466 328.808 22.6591 329.661 22.6591C330.513 22.6591 331.251 22.8466 331.876 23.2216C332.501 23.5966 332.984 24.1231 333.325 24.8011C333.67 25.4792 333.842 26.2689 333.842 27.1705C333.842 28.072 333.67 28.8598 333.325 29.5341C332.984 30.2083 332.501 30.733 331.876 31.108C331.251 31.483 330.513 31.6705 329.661 31.6705ZM329.672 30.0227C330.134 30.0227 330.52 29.8958 330.831 29.642C331.142 29.3845 331.373 29.0398 331.524 28.608C331.679 28.1761 331.757 27.6951 331.757 27.1648C331.757 26.6307 331.679 26.1477 331.524 25.7159C331.373 25.2803 331.142 24.9337 330.831 24.6761C330.52 24.4186 330.134 24.2898 329.672 24.2898C329.198 24.2898 328.804 24.4186 328.49 24.6761C328.179 24.9337 327.946 25.2803 327.791 25.7159C327.64 26.1477 327.564 26.6307 327.564 27.1648C327.564 27.6951 327.64 28.1761 327.791 28.608C327.946 29.0398 328.179 29.3845 328.49 29.642C328.804 29.8958 329.198 30.0227 329.672 30.0227ZM337.645 26.3864V31.5H335.588V19.8636H337.599V24.2557H337.702C337.906 23.7633 338.223 23.375 338.651 23.0909C339.082 22.803 339.632 22.6591 340.298 22.6591C340.904 22.6591 341.433 22.786 341.884 23.0398C342.334 23.2936 342.683 23.6648 342.929 24.1534C343.179 24.642 343.304 25.2386 343.304 25.9432V31.5H341.247V26.2614C341.247 25.6742 341.096 25.2178 340.793 24.892C340.493 24.5625 340.073 24.3977 339.531 24.3977C339.168 24.3977 338.842 24.4773 338.554 24.6364C338.27 24.7917 338.046 25.017 337.884 25.3125C337.724 25.608 337.645 25.9659 337.645 26.3864ZM349.264 31.6705C348.389 31.6705 347.634 31.4886 346.997 31.125C346.365 30.7576 345.878 30.2386 345.537 29.5682C345.196 28.8939 345.026 28.1004 345.026 27.1875C345.026 26.2898 345.196 25.5019 345.537 24.8239C345.882 24.142 346.363 23.6117 346.98 23.233C347.598 22.8504 348.323 22.6591 349.156 22.6591C349.694 22.6591 350.202 22.7462 350.679 22.9205C351.16 23.0909 351.584 23.3561 351.952 23.7159C352.323 24.0758 352.615 24.5341 352.827 25.0909C353.039 25.6439 353.145 26.303 353.145 27.0682V27.6989H345.991V26.3125H351.173C351.17 25.9186 351.084 25.5682 350.918 25.2614C350.751 24.9508 350.518 24.7064 350.219 24.5284C349.923 24.3504 349.579 24.2614 349.185 24.2614C348.764 24.2614 348.395 24.3636 348.077 24.5682C347.759 24.7689 347.51 25.0341 347.332 25.3636C347.158 25.6894 347.069 26.0473 347.065 26.4375V27.6477C347.065 28.1553 347.158 28.5909 347.344 28.9545C347.529 29.3144 347.789 29.5909 348.122 29.7841C348.455 29.9735 348.846 30.0682 349.293 30.0682C349.592 30.0682 349.863 30.0265 350.105 29.9432C350.348 29.8561 350.558 29.7292 350.736 29.5625C350.914 29.3958 351.048 29.1894 351.139 28.9432L353.06 29.1591C352.938 29.6667 352.707 30.1098 352.366 30.4886C352.029 30.8636 351.598 31.1553 351.071 31.3636C350.545 31.5682 349.942 31.6705 349.264 31.6705ZM356.152 31.625C355.807 31.625 355.512 31.5038 355.266 31.2614C355.019 31.0189 354.898 30.7235 354.902 30.375C354.898 30.0341 355.019 29.7424 355.266 29.5C355.512 29.2576 355.807 29.1364 356.152 29.1364C356.485 29.1364 356.775 29.2576 357.021 29.5C357.271 29.7424 357.398 30.0341 357.402 30.375C357.398 30.6061 357.338 30.8163 357.22 31.0057C357.107 31.1951 356.955 31.3466 356.766 31.4602C356.58 31.5701 356.375 31.625 356.152 31.625ZM359.526 31.5V22.7727H361.52V24.2273H361.611C361.77 23.7235 362.043 23.3352 362.429 23.0625C362.819 22.786 363.264 22.6477 363.764 22.6477C363.878 22.6477 364.005 22.6534 364.145 22.6648C364.289 22.6723 364.408 22.6856 364.503 22.7045V24.5966C364.416 24.5663 364.277 24.5398 364.088 24.517C363.902 24.4905 363.723 24.4773 363.548 24.4773C363.173 24.4773 362.836 24.5587 362.537 24.7216C362.241 24.8807 362.009 25.1023 361.838 25.3864C361.668 25.6705 361.582 25.9981 361.582 26.3693V31.5H359.526ZM369.374 31.6705C368.499 31.6705 367.743 31.4886 367.107 31.125C366.474 30.7576 365.987 30.2386 365.646 29.5682C365.305 28.8939 365.135 28.1004 365.135 27.1875C365.135 26.2898 365.305 25.5019 365.646 24.8239C365.991 24.142 366.472 23.6117 367.089 23.233C367.707 22.8504 368.432 22.6591 369.266 22.6591C369.804 22.6591 370.311 22.7462 370.788 22.9205C371.269 23.0909 371.694 23.3561 372.061 23.7159C372.432 24.0758 372.724 24.5341 372.936 25.0909C373.148 25.6439 373.254 26.303 373.254 27.0682V27.6989H366.101V26.3125H371.283C371.279 25.9186 371.194 25.5682 371.027 25.2614C370.86 24.9508 370.627 24.7064 370.328 24.5284C370.033 24.3504 369.688 24.2614 369.294 24.2614C368.874 24.2614 368.504 24.3636 368.186 24.5682C367.868 24.7689 367.62 25.0341 367.442 25.3636C367.268 25.6894 367.179 26.0473 367.175 26.4375V27.6477C367.175 28.1553 367.268 28.5909 367.453 28.9545C367.639 29.3144 367.898 29.5909 368.232 29.7841C368.565 29.9735 368.955 30.0682 369.402 30.0682C369.701 30.0682 369.972 30.0265 370.214 29.9432C370.457 29.8561 370.667 29.7292 370.845 29.5625C371.023 29.3958 371.158 29.1894 371.249 28.9432L373.169 29.1591C373.048 29.6667 372.817 30.1098 372.476 30.4886C372.139 30.8636 371.707 31.1553 371.18 31.3636C370.654 31.5682 370.052 31.6705 369.374 31.6705Z" fill="#D1D5DB"/>
<defs>
<radialGradient id="paint0_radial_1302_14905" cx="0" cy="0" r="1" gradientUnits="userSpaceOnUse" gradientTransform="translate(-12 -261) rotate(46.9512) scale(529.576 1877.16)">
<stop stop-color="#374151"/>
<stop offset="1" stop-color="#1F2937"/>
</radialGradient>
</defs>
</svg>
